<svg width="1311" height="838" fill="none" xmlns="http://www.w3.org/2000/svg"><g opacity=".8" clip-path="url(#a)"><g opacity=".1"><path d="M1311 330.24V841H0V440.8c39.93-4.58 78.37-11.72 117.5 8.3 7.73 3.95 14.89 8.62 23.93 10.98 29.79 7.75 60.75-12.77 92.56-10.9 12.16.72 23.28 4.66 34.03 8.54l95.1 34.26c35.21-19.35 89.04-4.03 122.08 16.98 20.5 13.03 46.33 29.53 72.5 22.35 17.07-4.67 25.22-17.81 40.12-25.12 20.84-10.26 54.35-5.5 67.22 9.54 11.96-18.06 50.14-25.4 74.55-14.35 18.77-26.81 46.22-57.65 90.38-58.32 7.68-.1 15.91.68 22.63-1.81 9.51-3.54 12.03-12.14 20.4-16.81 12.37-6.91 30.99-2.5 45.54 2.18l120.27 38.63c10.86-22.31 59.76-30.86 85.48-14.93 5.66-16.21 37.39-25.39 58.84-17.06-2.08-21.48 26.48-42.07 58.6-42.23 27.16-17.95 50.55-38.5 69.27-60.79Z" fill="#494039"/><path d="M1311 330.24v68.74c-20.32-1.04-39.36 1.77-50.84 12.62-16.39.46-30.91 10.43-31.23 21.44l-14.97-10.5c-14.47 12.7-23.1 28.36-24.38 44.31-6.09-6.66-14.19-13.49-25.67-14.84-11.49-1.34-24.78 6.6-19.75 13.64-16.6-4.52-32.88 7.69-38.04 19.19-5.17 11.5-6.79 25-20.8 32.48l-9.25-42.84c-9.7-4.36-17.02 8.25-27.93 11.06-8.62 2.22-17.41-2.32-25.64-5.1-8.26-2.78-21.94-1.88-22.29 4.3-12.74-3.86-21.55-12.98-21.58-22.36-19.03-2.1-36.73-9.26-48.37-19.6-16.6 17.4-25.1 38.24-24.04 58.9a197.9 197.9 0 0 1-21.53-49c-5.74-5.4-18.7-3.59-26.38.58-7.68 4.18-13.48 10.14-22.63 12.66-6.47 1.77-14.08 1.6-20.03 4.08-6.53 2.72-9.52 7.93-12.09 12.78l-21.02 39.67c-11.75-2.21-22.63-6.52-31.15-12.38-6.22 4.13-12.46 8.28-18.67 12.43-3.78-13.7-35.66-11.6-50.58-1.91-14.92 9.69-26.56 24.02-47.14 25.88 3.7-7.26-13.2-10.94-24.39-9.37-25.1 3.52-48.24 12.94-64.5 26.22-18.9-6.76-40.43-10.15-61.85-9.75-8.08-12.7-24.23-22.98-43.53-27.73l-8.02 13.74-57.37-36.33c-11.72 11.32-38.15 9.88-55.77 2.78-17.62-7.1-31.18-18.3-49.53-24.51-19.22-6.48-42.87-6.7-62.35-.57-1.92 11.19.4 22.7 6.66 33.15-25.8-23.07-66.16-38.56-108.9-41.78-5.95-.46-12.03-.69-17.53-2.23-6.82-1.9-12.1-5.58-18.02-8.51 0 0-39.46 10.12-69.9 21.66V440.8c39.93-4.6 78.37-11.73 117.5 8.28 7.73 3.96 14.88 8.63 23.93 10.99 29.79 7.76 60.75-12.76 92.56-10.9 12.16.72 23.28 4.66 34.03 8.54l95.1 34.26c35.21-19.34 89.04-4.03 122.08 16.98 20.5 13.03 46.33 29.53 72.5 22.35 17.07-4.67 25.22-17.81 40.12-25.12 20.84-10.26 54.35-5.5 67.22 9.54 11.96-18.05 50.14-25.4 74.55-14.34 18.77-26.82 46.22-57.66 90.38-58.33 7.68-.1 15.91.69 22.63-1.81 9.51-3.54 12.03-12.13 20.4-16.81 12.37-6.91 30.99-2.5 45.54 2.18l120.27 38.63c10.86-22.31 59.76-30.86 85.48-14.93 5.66-16.21 37.39-25.39 58.84-17.05-2.08-21.5 26.48-42.08 58.6-42.24 27.16-17.95 50.55-38.5 69.27-60.79Z" fill="#594D45"/><path d="M1311 421.98V841H839.6a854.29 854.29 0 0 1-3.23-102.95 871.08 871.08 0 0 1 5.45-74.73c1.73-14.62-4.67-50.15 14.37-59.83 9.75-4.94 24.38-5.04 34.3-.24 2.77-7.98 12.5-14.7 24.33-16.81 11.85-2.1 25.25.5 33.58 6.52-.73-8.63 10.78-16.2 23.47-17.81 12.66-1.62 25.72 1.51 36.71 6.03-1.36-7.86 5.35-16.07 15.99-19.53 10.62-3.45 24.41-1.89 32.75 3.7-2.57-7.75 3.7-16.4 14.37-19.86 10.65-3.47 24.67-1.38 32.15 4.8-.82-8.06 6.66-16.18 17.72-19.35 11.07-3.16 24.99-1.12 33.09 4.84-5.35-11.7 14.84-24.6 32.01-20.49-2.62-6.71-3.35-14.4 2.55-20.11 5.92-5.72 20.53-7.35 26.3-1.58-1.24-7.04-2.34-14.56 2.41-20.9 4.77-6.32 17.88-10.3 26.3-6-4.33-6.14-1.18-14.22 7.08-18.14 8.28-3.9 20.68-3.2 27.84 1.59 2.73-8.76 8.03-17.59 18.17-23.4a42.98 42.98 0 0 1 13.69-4.77Z" fill="#9F8264"/><path d="M1311 457.57V841H0V503.93c29.18-5.24 65.18 8.4 72.63 27.96 21.26-4.64 46.67 7.18 47.64 22.16 24.6-12.43 66.78 2.57 65.26 23.17 28.71-9.44 67.96 8.9 64.69 30.25 15.1-9.22 43.86-3.15 48.37 10.2 20.53-6.4 48.25 3 52.68 17.9 17.38-16.43 60.36-15.58 76.25 1.53 5.87-8.2 8.12-14.26 20.37-18.2 12.22-3.94 35.21-3.71 40.2 4.75 14.05-16.29 51.46-20.5 72.7-8.22 10.54-11 32.3-16.54 51.1-13 0 0 2.84-13.6 32.78-12.8 20.03.5 21.5 15.02 21.5 15.02 23.26-16.86 57.76-4.55 58.86 12.93 28.69-23.93 58.27-4.3 58.27-4.3 34.34-14.36 49.5 6.5 49.5 6.5 35.08-20.26 50.81 9.1 50.81 9.1 24.47-15.89 52.81-8.42 56.56 9.98 14.24-19.96 43.94-19.96 63.27-11.84 0 0 15.65-26.92 56.71-14.03 0 0 8.76-27.54 63.93-16.67 0 0-5.35-27.87 40.22-22.4 3.01-11.17 19.48-19.94 36.37-19.38-5.41-12.48 14.36-26.41 33.24-23.4-5.74-12.19 19.35-29.42 37.76-32.67-4.38-22.04 12.74-33.17 39.33-40.9Z" fill="#DDB88C"/><path d="M968.86 841H0V568.57c18.62-1.4 36.55.34 44.18 16.36 19.25-12.16 56.9-4.05 62.01 13.34 18.17-8.95 48.82 1.37 48.98 16.48 12.87-1.3 26.17-2.6 38.7-.3 12.53 2.3 24.15 9.25 24.75 17.95 21.77-5.82 49.61 4.31 54.2 19.73 21.84-7.19 51.94 3.18 55.95 19.27 21.87-7.73 51.6-3.43 66.76 9.67 2.83 2.43 5.5 5.26 9.88 6.16 4.88 1 9.91-.77 14.76-1.83 16.9-3.64 37.16 2.95 43.35 14.1 18.67-7.28 42.13-3.72 62.98.04l19.45 3.5c7.82 1.4 15.68 2.83 22.92 5.27 11.93 4 21.74 10.75 27.43 18.82 13.34-1.94 27.08-3.89 40.56-2.4 13.48 1.52 26.8 7.3 30.44 16.13 11.43-3.97 23.3-8.04 36.16-8.56 12.84-.51 27.06 3.53 31.7 11.58 34.66-8.93 78.45 5.72 88.6 29.67 23.51-9.99 59.99 4.96 57.44 23.54 18.23-5.85 43 5 42.32 18.54 10.57-7.28 31.36-5.61 39.02 3.16 3.59 4.12 4.38 9.02 5.08 13.77l1.24 8.44Z" fill="#9F8264"/><path d="M1269.76 588.37c13.05-4.2 27.03-8.2 41.24-8.97V841H611.71c-1.54-17.9-10.77-53.75 1.37-73.15a25.7 25.7 0 0 1 9.02-8.8c10.27-5.99 26.03-7.3 38.17-3.2 5.01-17.86 41.64-27.51 63.43-16.71 6.95-10.66 14.42-21.8 28.21-28.86 13.8-7.07 35.98-8.21 47.12.72 3.4-8.5 15.52-15.07 28.63-15.52 13.11-.46 26.2 5.22 30.91 13.43 12.4-16.58 51.05-20.43 70.09-6.96 5.3-17.45 39.75-27.45 62.33-18.1-3.75-9.51 11.98-19.7 26.03-16.86-1.28-10 14.19-19.3 28.9-17.4 2.41-6.1 5.92-12.33 13.03-16.47 7.1-4.15 18.64-5.43 25.85-1.37-.66-11.81 25.83-19.1 37.7-10.35 4.04-5.17 8.74-10.43 16.16-13.5 7.42-3.03 18.24-3.12 23.88 1.33.26-13.47 21.27-24.94 40.98-22.39 6.59-4.89 15.74-7.75 25.39-8.63 15.1-1.39 31.38 2.06 40.85 10.16Z" fill="#EECE9B"/><path d="M1311 507.12V841H0V603.65a111.33 111.33 0 0 1 6.4.04c34.69 1.1 53.17 23.45 53.17 23.45 41.01-18.72 106.9.1 115.24 32.89 21.29-8.9 49.71-9.48 71.79-1.52 22.08 7.99 36.94 24.23 37.6 41.06 32.12-16.95 88.62.55 90.2 27.94 26.14-11.37 66.75-1.35 75.67 18.68 31.28-8.21 70.9 3.83 82.27 25.02 21.19-13.63 56.46-13.75 80.74-3.36 8.91 3.8 16.36 9.02 21.08 15.51 20.84-17.25 61.56-21.8 89.64-10.02 13.87-17.27 51.47-23.37 75.57-12.28 8.57-19.23 53.86-24.39 71.4-8.12 9.88-14.63 35.58-18.97 54.8-9.4 1.75-10.38 7.39-13.55 16.6-18.01 9.22-4.45 32.35-6.76 39.93-1.1-8.76-22.85 32.06-46.47 64.5-37.3-3.04-13.18-.4-16.52 10.25-23.08 10.15-6.22 34.56-8.75 40.27-.96-3.9-8.73 7-24.4 18.1-29 11.69-4.84 36-5.43 44.57 1.76-.87-16.4 4.64-21.4 11.2-28.38 10.85-11.57 35.42-16.9 54.48-12.05-2.67-5.83-.97-11.99 3.44-17.21 7.47-8.81 22.65-15.04 37.65-12.89-4.07-18.6 6.58-38.35 27.42-50.9a68.64 68.64 0 0 1 17.02-7.3Z" fill="#FAFAF5"/><path d="M806.68 841H0V695.12c4.51-.08 9.07.25 13.77 1.38 18.06 4.32 31.12 14.9 41.45 25.76 7.1-9.36 23.57-15.1 39.07-13.61 15.5 1.5 28.9 10.07 31.8 20.4 9.34-7.97 26.07-11.65 40.6-8.92 14.52 2.72 26 11.67 27.81 21.73 13.9-7.35 33.46-9.58 50.21-5.73 16.76 3.85 30.15 13.66 34.43 25.18 11.22-8.16 29.92-11.25 45.52-7.54 15.57 3.72 27.16 14.05 28.18 25.12 18.3-9.47 46.33-9.28 64.35.44 3.62 1.96 7.08 4.31 11.61 5 4.2.61 8.47-.3 12.67-.86 22.65-3.05 47.59 5.82 56.55 20.1 18.17-8.8 46.5-6 60.13 5.94 17.4-10.34 50.2-2.55 54.04 12.83 15.39-7.82 38.72-7.6 53.77.51 11.72-12.3 45.36-9.05 51.42 4.98 17.12-15.09 54.64-12.1 75.04 1.02A68.3 68.3 0 0 1 806.7 841Z" fill="#EECE9B"/><path d="M1311 692.57V841H761.95c3.7-4.34 8.73-8.34 15.55-11.83 17.2-8.27 41.06-9.82 60.33-3.94 5.77-14.39 37.81-19.9 53.18-9.15 5.22-8.33 10.98-17.1 22.05-22.26 11.06-5.15 29.13-4.57 35.32 3.45 1.54-10.36 15.65-18.7 31.02-20.19 15.36-1.5 31.09 2.96 42.47 10.04 6.87-7.82 14.27-16 26.17-20.3 11.9-4.31 29.58-2.8 35.27 5.4 4.53-11.28 11.03-23.04 25.01-30.02 13.97-6.98 37.36-6.47 45.81 3.76 3.14-10.7 16.41-19.71 32.32-21.98 15.89-2.25 33.49 2.37 42.82 11.29 1.1-7.51 5.95-15.1 15.13-19.47 9.2-4.34 23.13-4.5 31.02.88 5.03-11.32 19.09-20.08 35.58-24.1Z" fill="#DDB88C"/><path d="M207.56 153.63c0 3-3.61 5.42-8.08 5.42-4.46 0-8.07-2.43-8.07-5.42 0-3 3.61-5.42 8.07-5.42 4.47 0 8.08 2.43 8.08 5.42ZM99.92 271.9c0 3-3.62 5.42-8.08 5.42s-8.08-2.43-8.08-5.42c0-3 3.62-5.42 8.08-5.42s8.08 2.43 8.08 5.42Zm218.35 145.45c0 3-3.61 5.42-8.08 5.42-4.46 0-8.08-2.42-8.08-5.42 0-2.99 3.62-5.41 8.08-5.41 4.47 0 8.08 2.42 8.08 5.41ZM288.26 13.77c0 2.99-3.62 5.42-8.08 5.42s-8.08-2.43-8.08-5.42c0-3 3.62-5.42 8.08-5.42s8.08 2.43 8.08 5.42ZM909.6 368.8c0 3-3.61 5.42-8.08 5.42-4.46 0-8.07-2.43-8.07-5.42 0-2.99 3.61-5.42 8.07-5.42 4.46 0 8.08 2.43 8.08 5.42Zm331.26-29.2c4.46 0 8.08-2.43 8.08-5.42 0-3-3.62-5.42-8.08-5.42s-8.08 2.43-8.08 5.42c0 3 3.62 5.42 8.08 5.42Zm-195.38-231.45c-3.16 2.12-8.27 2.12-11.43 0-3.15-2.11-3.15-5.54 0-7.66 3.16-2.11 8.27-2.11 11.43 0 3.15 2.12 3.15 5.55 0 7.67Zm-299.5-26.3c-3.15 2.12-8.27 2.12-11.42 0-3.16-2.1-3.16-5.54 0-7.65 3.15-2.12 8.27-2.12 11.42 0 3.16 2.11 3.16 5.54 0 7.66Zm-237.5 2.87c-3.16 2.11-8.27 2.11-11.43 0-3.15-2.12-3.15-5.55 0-7.67 3.16-2.11 8.27-2.11 11.43 0 3.16 2.12 3.16 5.55 0 7.67Zm-276 113.84 26.07 2.97-26.08 2.98-4.44 17.48-4.43-17.48-26.08-2.98 26.08-2.97 4.43-17.49 4.44 17.49Zm868.88 126.49 26.07 2.97-26.07 2.98-4.44 17.49-4.44-17.49-26.07-2.98 26.07-2.97 4.44-17.49 4.44 17.49ZM418.42 126.43l13.64 1.55-13.64 1.56-2.32 9.15-2.32-9.15-13.64-1.56 13.64-1.55 2.32-9.15 2.32 9.15Zm-308.3-47.1 13.64 1.55-13.64 1.56-2.32 9.15-2.32-9.15-13.64-1.56 13.64-1.55 2.32-9.15 2.32 9.15Zm907.93 123.71 13.63 1.56-13.63 1.55-2.33 9.15-2.32-9.15-13.64-1.55 13.64-1.56 2.32-9.14 2.33 9.14Zm-92.8 73.15 8.8 1-8.8 1.01-1.5 5.9-1.5-5.9-8.8-1 8.8-1 1.5-5.91 1.5 5.9Zm-466.2 21.6 7.01.8-7 .8-1.2 4.7-1.19-4.7-7-.8 7-.8 1.2-4.7 1.19 4.7ZM354.59 39.81l7 .8-7 .8-1.2 4.7-1.19-4.7-7-.8 7-.8 1.2-4.7 1.19 4.7ZM93.03 19.03l7 .8-7 .8-1.19 4.7-1.19-4.7-7-.8 7-.8 1.2-4.7 1.18 4.7Zm1078.35 80.95 7 .8-7 .8-1.19 4.7-1.19-4.7-7.01-.8 7.01-.8 1.19-4.7 1.19 4.7Zm-446.8-83.14 7 .8-7 .8-1.2 4.69-1.2-4.7-7-.8 7-.8 1.2-4.69 1.2 4.7Zm270.02 48.5 7 .8-7 .8-1.19 4.7-1.2-4.7-7-.8 7-.8 1.2-4.7 1.2 4.7ZM826.23 314.65l7 .8-7 .8-1.19 4.7-1.19-4.7-7-.8 7-.8 1.2-4.7 1.18 4.7Zm141.85 33.04 7 .8-7 .8-1.19 4.7-1.2-4.7-7-.8 7-.8 1.2-4.7 1.2 4.7ZM441.45 7.55l7 .8-7 .8-1.2 4.7-1.19-4.7-7-.8 7-.8 1.2-4.7 1.19 4.7Zm-68.1 363.52 7 .8-7 .8-1.2 4.69-1.19-4.7-7-.8 7-.8 1.2-4.7 1.19 4.7Zm-156.4-312.7 7 .8-7 .8-1.2 4.69-1.19-4.7-7-.8 7-.8 1.2-4.7 1.19 4.7Zm328.04 79.52 7 .8-7 .8-1.19 4.7-1.2-4.7-7-.8 7-.8 1.2-4.7 1.2 4.7ZM64.12 400.6l7 .8-7 .8-1.2 4.7-1.19-4.7-7-.8 7-.8 1.2-4.7 1.2 4.7ZM829 133l7 .8-7 .8-1.19 4.7-1.19-4.7-7-.8 7-.8 1.2-4.69 1.18 4.7ZM461.96 452.55l7 .8-7 .8-1.19 4.7-1.2-4.7-7-.8 7-.8 1.2-4.7 1.2 4.7ZM179.7 391.96l4.52.51-4.52.52-.77 3.03-.77-3.03-4.52-.52 4.52-.51.77-3.03.77 3.03Zm57.33-291.7 4.52.52-4.52.51-.77 3.03-.77-3.03-4.51-.51 4.51-.52.77-3.03.77 3.03ZM185 257.22l4.52.52-4.52.51-.77 3.03-.77-3.03-4.52-.51 4.52-.52.77-3.03.77 3.03Zm-116 82.85 4.51.51-4.51.52-.77 3.03-.77-3.03-4.52-.52 4.52-.51.77-3.03.77 3.03Zm290.45-146.69 4.52.52-4.52.51-.77 3.03-.77-3.03-4.52-.51 4.52-.52.77-3.03.77 3.03ZM1179.15 269l4.52.51-4.52.52-.77 3.03-.77-3.03-4.52-.52 4.52-.51.77-3.03.77 3.03ZM32.87 191.72l4.52.51-4.51.52-.78 3.03-.76-3.03-4.52-.52 4.52-.51.76-3.03.77 3.03Zm209.45 111.85 4.52.52-4.52.52-.77 3.03-.77-3.03-4.52-.52 4.52-.52.77-3.03.77 3.03Zm898.48-152.33 4.52.52-4.52.52-.77 3.03-.77-3.04-4.52-.51 4.52-.52.77-3.03.77 3.03ZM461.54 395.5l4.52.52-4.52.52-.77 3.03-.77-3.03-4.52-.52 4.52-.52.77-3.03.77 3.03ZM862.05 214.8l4.52.51-4.52.52-.77 3.03-.77-3.03-4.52-.52 4.52-.51.77-3.03.77 3.03Zm317.1 3.54 4.52.52-4.52.52-.77 3.03-.77-3.03-4.52-.52 4.52-.52.77-3.03.77 3.03ZM242.32 425.01l4.52.51-4.52.52-.77 3.03-.77-3.03-4.52-.52 4.52-.51.77-3.03.77 3.03Zm52-321.2 4.52.51-4.52.52-.77 3.03-.77-3.03-4.52-.52 4.52-.51.77-3.03.77 3.03Zm584.38 85.7c2.35 0 4.26-1.27 4.26-2.85s-1.9-2.86-4.26-2.86-4.26 1.28-4.26 2.86 1.9 2.86 4.26 2.86Zm165.32 71.08c2.36 0 4.26-1.28 4.26-2.85 0-1.58-1.9-2.86-4.26-2.86-2.35 0-4.26 1.28-4.26 2.86s1.91 2.85 4.26 2.85Zm52.9-252.02c2.35 0 4.26-1.28 4.26-2.85 0-1.58-1.91-2.86-4.26-2.86-2.35 0-4.26 1.28-4.26 2.86s1.91 2.85 4.26 2.85Zm82.13 5.2c2.36 0 4.26-1.28 4.26-2.86 0-1.58-1.9-2.85-4.26-2.85-2.35 0-4.26 1.27-4.26 2.85s1.91 2.86 4.26 2.86ZM390.68 434.91c2.35 0 4.26-1.28 4.26-2.86s-1.9-2.85-4.26-2.85-4.26 1.28-4.26 2.85c0 1.58 1.9 2.86 4.26 2.86Zm451.3-429.2c2.36 0 4.27-1.28 4.27-2.85S844.34 0 841.99 0s-4.26 1.28-4.26 2.86c0 1.58 1.9 2.86 4.26 2.86Zm147.17 401.4c2.35 0 4.26-1.27 4.26-2.85s-1.9-2.86-4.26-2.86c-2.35 0-4.26 1.28-4.26 2.86 0 1.58 1.9 2.86 4.26 2.86Zm99.25 0c2.35 0 4.26-1.27 4.26-2.85s-1.91-2.86-4.26-2.86c-2.35 0-4.26 1.28-4.26 2.86 0 1.58 1.91 2.86 4.26 2.86Zm-842.59-52.9c2.36 0 4.26-1.29 4.26-2.87 0-1.57-1.9-2.85-4.26-2.85-2.35 0-4.26 1.27-4.26 2.85s1.9 2.86 4.26 2.86ZM866.57 80.87c2.35 0 4.26-1.28 4.26-2.85 0-1.58-1.9-2.86-4.26-2.86s-4.26 1.28-4.26 2.86 1.9 2.85 4.26 2.85Zm366.21-26.13c2.36 0 4.26-1.28 4.26-2.86s-1.9-2.86-4.26-2.86c-2.35 0-4.26 1.28-4.26 2.86 0 1.58 1.91 2.86 4.26 2.86ZM574.1 8.57c2.36 0 4.26-1.28 4.26-2.86 0-1.57-1.9-2.85-4.26-2.85-2.35 0-4.26 1.28-4.26 2.85s1.9 2.86 4.26 2.86ZM446.4 228.42c1.8 0 3.27-.99 3.27-2.2s-1.46-2.2-3.28-2.2c-1.8 0-3.27.99-3.27 2.2s1.46 2.2 3.27 2.2Zm-84.45 55.68c0 1.22-1.47 2.2-3.28 2.2s-3.28-.98-3.28-2.2c0-1.2 1.47-2.2 3.28-2.2s3.28 1 3.28 2.2Zm885.47-125.05c0 1.21-1.47 2.2-3.28 2.2-1.81 0-3.28-.99-3.28-2.2s1.47-2.2 3.28-2.2c1.81 0 3.28.98 3.28 2.2ZM76.78 133.8c0 1.21-1.46 2.2-3.28 2.2-1.8 0-3.27-.99-3.27-2.2s1.47-2.2 3.27-2.2c1.82 0 3.28.98 3.28 2.2Zm96.86-113.98c0 1.22-1.47 2.2-3.28 2.2-1.8 0-3.28-.98-3.28-2.2s1.47-2.2 3.28-2.2c1.81 0 3.28.99 3.28 2.2Zm953.79 227.98c0 1.21-1.47 2.2-3.28 2.2-1.81 0-3.27-.99-3.27-2.2s1.46-2.2 3.27-2.2 3.28.98 3.28 2.2Zm-825.31 14.98c0 1.21-1.47 2.2-3.28 2.2-1.8 0-3.28-.99-3.28-2.2 0-1.21 1.47-2.2 3.28-2.2s3.28.99 3.28 2.2Zm656.83-129.95c1.8 0 3.28-.99 3.28-2.2s-1.47-2.2-3.28-2.2-3.28.98-3.28 2.2 1.47 2.2 3.28 2.2Zm-423.52 91.18c0 1.21-1.47 2.2-3.28 2.2-1.8 0-3.28-.98-3.28-2.2s1.47-2.2 3.28-2.2c1.81 0 3.28.99 3.28 2.2ZM973.42 30.38c0 1.22-1.47 2.2-3.28 2.2s-3.28-.98-3.28-2.2c0-1.21 1.47-2.2 3.28-2.2 1.8 0 3.28.99 3.28 2.2Z" fill="#FAFAF5"/></g></g><defs><clipPath id="a"><path fill="#fff" d="M0 0h1311v841H0z"/></clipPath></defs></svg>