<svg width="623" height="341" fill="none" xmlns="http://www.w3.org/2000/svg"><path d="M61.89 79.72c-1.54 0-2.65-.34-3.33-1.02a31.54 31.54 0 0 1-3.2-4.36l-15.62-23.8a3.68 3.68 0 0 0-1.79-1.67 4.55 4.55 0 0 0-2.05-.51h-2.17c-1.11 0-1.97.34-2.56 1.02-.51.6-.77 1.58-.77 2.95v65.15h1.28V52.33c0-.68.13-1.28.38-1.8.26-.6.81-.89 1.67-.89h1.92c.6 0 1.1.09 1.53.26.52.17 1.03.68 1.54 1.53l15.62 23.55a46.71 46.71 0 0 0 3.45 4.74c.86.85 2.22 1.28 4.1 1.28 1.88 0 3.2-.43 3.97-1.28a34.2 34.2 0 0 0 3.58-4.74l15.62-23.55c.5-.85.98-1.36 1.4-1.53.43-.17.94-.26 1.54-.26h1.92c.85 0 1.4.3 1.66.9.35.5.52 1.1.52 1.79v65.15h1.28V52.33c0-1.37-.3-2.35-.9-2.95-.51-.68-1.36-1.02-2.56-1.02h-2.18c-.68 0-1.36.17-2.04.51-.6.26-1.16.81-1.67 1.67l-15.61 23.8a31.47 31.47 0 0 1-3.2 4.36c-.69.68-1.8 1.02-3.33 1.02ZM40.5 129H21.44c-1.62 0-2.82-.34-3.58-1.02-.69-.77-1.03-1.97-1.03-3.59V41.45c0-1.62.34-2.77 1.03-3.46.76-.77 1.96-1.15 3.58-1.15h20.6c1.37 0 2.48.3 3.34.9.94.6 1.79 1.58 2.56 2.94l11.52 20.86c.42.77.76 1.33 1.02 1.67.34.34.77.51 1.28.51h1.15c.51 0 .9-.17 1.15-.51.35-.34.73-.9 1.16-1.67L76.6 40.68a8.77 8.77 0 0 1 2.43-2.94c.94-.6 2.09-.9 3.46-.9h20.73c1.62 0 2.78.38 3.46 1.15.77.68 1.15 1.84 1.15 3.46v82.94c0 1.62-.38 2.82-1.15 3.59-.68.68-1.84 1.02-3.46 1.02H83.52c-1.62 0-2.82-.34-3.58-1.02-.69-.77-1.03-1.97-1.03-3.59V79.34l-7.55 13.95a8.05 8.05 0 0 1-2.82 3.2 7.8 7.8 0 0 1-3.96.9h-5.12c-1.63 0-3-.3-4.1-.9a8.53 8.53 0 0 1-2.69-3.2l-7.55-13.95v45.05c0 1.62-.38 2.82-1.15 3.59-.69.68-1.84 1.02-3.46 1.02Zm97.88-38.78c0-2.3.17-4.44.5-6.4a46.81 46.81 0 0 1 1.54-5.5l8.2-21c.85-2.13 1.79-3.93 2.81-5.38 1.03-1.53 2.82-2.3 5.38-2.3h12.54c2.39 0 4.1.77 5.12 2.3 1.03 1.45 2 3.29 2.95 5.5l8.83 20.87a34.58 34.58 0 0 1 1.4 5.5c.43 1.97.64 4.1.64 6.4v3.97h-49.92v-3.96Zm20.48-26.5-6.02 19.46h20.1l-6.02-19.46a4.36 4.36 0 0 0-1.15-1.66 1.74 1.74 0 0 0-1.28-.52h-3.2c-.51 0-.98.17-1.41.52-.34.34-.68.9-1.02 1.66Zm29.43 53.76h1.28V90.22c0-2.4-.2-4.57-.64-6.53a33.07 33.07 0 0 0-1.53-5.89l-8.83-20.86a29.17 29.17 0 0 0-3.33-6.15c-1.11-1.62-3.07-2.43-5.89-2.43h-12.54c-2.9 0-4.95.81-6.15 2.43a26.4 26.4 0 0 0-3.2 6.02l-8.19 20.99a42.67 42.67 0 0 0-1.66 5.89 38.28 38.28 0 0 0-.51 6.53v27.26h1.28V95.46h49.92v22.02Zm-36.73 6.91c0 1.62-.39 2.82-1.15 3.59-.69.68-1.84 1.02-3.46 1.02h-18.81c-1.63 0-2.82-.34-3.59-1.02-.68-.77-1.02-1.97-1.02-3.59V90.6c0-2.56.38-5.5 1.15-8.83.85-3.33 2.13-7.21 3.84-11.65l11.13-29.06a6.14 6.14 0 0 1 2.3-3.2 7.94 7.94 0 0 1 4.23-1.02h34.43c1.63 0 2.95.34 3.97 1.02a5.9 5.9 0 0 1 2.43 3.2l11.14 29.06a88.8 88.8 0 0 1 3.71 11.65 36.1 36.1 0 0 1 1.28 8.83v33.8c0 1.61-.38 2.8-1.15 3.58-.68.68-1.83 1.02-3.46 1.02h-19.32c-1.71 0-2.99-.34-3.84-1.02-.77-.77-1.16-1.97-1.16-3.59v-17.92h-22.65v17.92Zm110.4-74.75c4.52 0 7.85 1.24 9.98 3.71 2.22 2.48 3.33 5.68 3.33 9.6v8.96c0 4.7-.9 8.32-2.7 10.88-1.78 2.56-5.32 3.84-10.62 3.84h-27.9V49.64h27.9Zm-14.09 10.24v16.38h9.6c2.22 0 3.72-.55 4.48-1.66a7.88 7.88 0 0 0 1.16-4.35V65.9c0-1.71-.39-3.12-1.16-4.23-.76-1.2-2.26-1.79-4.48-1.79h-9.6Zm-13.82 57.6v-29.7h36.22c4.87 0 8.45 1.07 10.76 3.2 2.3 2.05 3.45 5.17 3.45 9.35v17.15h1.28v-17.15c0-4.44-1.28-7.81-3.84-10.11-2.56-2.4-6.44-3.59-11.65-3.59h-1.4c3.07-.94 5.12-2.64 6.14-5.12 1.02-2.56 1.54-5.8 1.54-9.73v-8.83c0-4.18-1.2-7.63-3.59-10.37-2.39-2.81-6.06-4.22-11-4.22h-29.19v69.12h1.28Zm9.22 11.52h-19.72c-1.62 0-2.81-.34-3.58-1.02-.68-.77-1.02-1.97-1.02-3.59V41.45c0-1.62.34-2.77 1.02-3.46.77-.77 1.96-1.15 3.58-1.15h42.63c9.56 0 16.13 2 19.71 6.02 3.67 3.92 5.5 9.04 5.5 15.36v5.88c0 3.59-.55 6.66-1.66 9.22a9.74 9.74 0 0 1-5.5 5.38c4.6.5 8.32 2.39 11.13 5.63 2.9 3.24 4.35 7.55 4.35 12.93v27.13c0 1.62-.38 2.82-1.15 3.59-.68.68-1.83 1.02-3.45 1.02h-19.84c-1.62 0-2.82-.34-3.59-1.02-.68-.77-1.02-1.97-1.02-3.59v-19.58c0-1.88-.39-3.25-1.15-4.1-.69-.94-1.92-1.4-3.71-1.4h-17.92v25.08c0 1.62-.39 2.82-1.16 3.59-.68.68-1.83 1.02-3.45 1.02Zm113.55 0H316.4c-1.63 0-2.82-.34-3.59-1.02-.68-.77-1.02-1.97-1.02-3.59v-14.97c0-1.63.34-2.78 1.02-3.46.77-.77 1.96-1.15 3.59-1.15h34.43c1.1 0 1.92-.34 2.43-1.03.6-.76.9-1.66.9-2.68 0-1.45-.3-2.52-.9-3.2-.51-.69-1.32-1.07-2.43-1.16l-19.2-2.68c-5.98-.86-10.8-2.82-14.47-5.9-3.58-3.06-5.37-8.18-5.37-15.35V59.37c0-7.26 2.35-12.8 7.04-16.64 4.7-3.93 11.18-5.89 19.45-5.89h35.84c1.63 0 2.78.38 3.46 1.15.77.68 1.15 1.84 1.15 3.46v15.23c0 1.62-.38 2.82-1.15 3.58-.68.69-1.83 1.03-3.46 1.03H344.3c-1.1 0-1.96.38-2.56 1.15-.6.68-.9 1.58-.9 2.69 0 1.1.3 2.05.9 2.81a3.4 3.4 0 0 0 2.56 1.28l19.07 2.56c5.98.86 10.8 2.82 14.47 5.9 3.67 3.06 5.5 8.18 5.5 15.35v13.44c0 7.26-2.39 12.85-7.17 16.77-4.7 3.84-11.13 5.76-19.33 5.76Zm10.37-80.64H338.8c-3.93 0-7.09 1.11-9.48 3.33a10.63 10.63 0 0 0-3.58 8.32v10.5c0 3.5.68 5.92 2.05 7.29a11.38 11.38 0 0 0 5.5 2.56l27.01 5.5c2.39.52 4.27 1.54 5.63 3.08 1.45 1.45 2.18 4.18 2.18 8.19v7.42c0 3.42-1.2 6.23-3.59 8.45-2.3 2.13-5.42 3.2-9.34 3.2H323.3v1.28h31.87c4.35 0 7.8-1.2 10.37-3.58a12.45 12.45 0 0 0 3.84-9.35v-7.42c0-4.44-.86-7.51-2.56-9.22a11.5 11.5 0 0 0-6.27-3.33l-27.01-5.5a8.57 8.57 0 0 1-4.74-2.3c-1.2-1.2-1.79-3.29-1.79-6.28V60c0-2.98 1.07-5.45 3.2-7.42s5-2.94 8.58-2.94h28.41v-1.28ZM60.35 283H39.62c-1.62 0-2.82-.34-3.59-1.02-.68-.77-1.02-1.97-1.02-3.59v-62.85H16.19c-1.62 0-2.81-.34-3.58-1.02-.68-.77-1.03-1.96-1.03-3.58v-15.5c0-1.61.34-2.77 1.03-3.45.77-.77 1.96-1.15 3.58-1.15h67.59c1.62 0 2.77.38 3.45 1.15.77.68 1.15 1.84 1.15 3.46v15.49c0 1.62-.38 2.81-1.15 3.58-.68.68-1.83 1.02-3.45 1.02H64.96v62.85c0 1.62-.38 2.82-1.15 3.59-.69.68-1.84 1.02-3.46 1.02Zm-11-11.52h1.27v-67.84h26.24v-1.28H23.1v1.28h26.24v67.84Zm94.49-67.84c4.52 0 7.85 1.24 9.98 3.71 2.22 2.48 3.33 5.68 3.33 9.6v8.96c0 4.7-.9 8.32-2.69 10.88-1.79 2.56-5.33 3.84-10.62 3.84h-27.9v-36.99h27.9Zm-14.08 10.24v16.38h9.6c2.22 0 3.71-.55 4.48-1.66a7.88 7.88 0 0 0 1.15-4.35v-4.35c0-1.71-.38-3.12-1.15-4.23-.77-1.2-2.26-1.79-4.48-1.79h-9.6Zm-13.82 57.6v-29.7h36.22c4.86 0 8.45 1.07 10.75 3.2 2.3 2.05 3.46 5.17 3.46 9.35v17.15h1.28v-17.15c0-4.44-1.28-7.81-3.84-10.11-2.56-2.4-6.45-3.59-11.65-3.59h-1.4c3.06-.94 5.11-2.64 6.14-5.12 1.02-2.56 1.53-5.8 1.53-9.73v-8.83c0-4.18-1.2-7.63-3.58-10.37-2.4-2.81-6.06-4.22-11.01-4.22h-29.18v69.12h1.28Zm9.21 11.52h-19.71c-1.62 0-2.82-.34-3.58-1.02-.69-.77-1.03-1.97-1.03-3.59v-82.94c0-1.62.34-2.78 1.03-3.46.76-.77 1.96-1.15 3.58-1.15h42.62c9.56 0 16.13 2 19.72 6.02 3.66 3.92 5.5 9.04 5.5 15.36v5.88c0 3.59-.56 6.66-1.66 9.22a9.74 9.74 0 0 1-5.5 5.38c4.6.5 8.31 2.39 11.13 5.63 2.9 3.24 4.35 7.55 4.35 12.93v27.13c0 1.62-.38 2.82-1.15 3.59-.68.68-1.84 1.02-3.46 1.02h-19.84c-1.62 0-2.81-.34-3.58-1.02-.68-.77-1.03-1.97-1.03-3.59v-19.58c0-1.88-.38-3.24-1.15-4.1-.68-.94-1.92-1.4-3.71-1.4h-17.92v25.08c0 1.62-.38 2.82-1.15 3.59-.68.68-1.84 1.02-3.46 1.02Zm83.73-38.78c0-2.3.18-4.44.52-6.4a46.81 46.81 0 0 1 1.53-5.5l8.2-21c.85-2.13 1.79-3.92 2.81-5.38 1.02-1.53 2.82-2.3 5.38-2.3h12.54c2.39 0 4.1.77 5.12 2.3 1.03 1.46 2 3.29 2.95 5.5l8.83 20.87a34.58 34.58 0 0 1 1.4 5.5c.43 1.97.64 4.1.64 6.4v3.97h-49.92v-3.96Zm20.48-26.5-6.01 19.46h20.1l-6.02-19.46a4.36 4.36 0 0 0-1.15-1.66 1.74 1.74 0 0 0-1.28-.52h-3.2c-.52 0-.98.18-1.41.52-.34.34-.68.9-1.02 1.66Zm29.44 53.76h1.28v-27.26c0-2.4-.2-4.57-.64-6.53a33.06 33.06 0 0 0-1.53-5.89l-8.83-20.86a29.17 29.17 0 0 0-3.33-6.15c-1.11-1.62-3.07-2.43-5.89-2.43h-12.54c-2.9 0-4.95.81-6.15 2.43a26.4 26.4 0 0 0-3.2 6.02l-8.19 20.99a42.66 42.66 0 0 0-1.66 5.89 38.28 38.28 0 0 0-.52 6.53v27.26h1.28v-22.02h49.92v22.02Zm-36.73 6.91c0 1.62-.39 2.82-1.15 3.59-.69.68-1.84 1.02-3.46 1.02h-18.82c-1.62 0-2.81-.34-3.58-1.02-.68-.77-1.02-1.97-1.02-3.59V244.6c0-2.56.38-5.5 1.15-8.83.85-3.33 2.13-7.21 3.84-11.65l11.13-29.06a6.14 6.14 0 0 1 2.3-3.2 7.94 7.94 0 0 1 4.23-1.02h34.43c1.63 0 2.95.34 3.97 1.02a5.9 5.9 0 0 1 2.43 3.2l11.14 29.06a88.8 88.8 0 0 1 3.71 11.65 36.1 36.1 0 0 1 1.28 8.83v33.8c0 1.61-.38 2.8-1.15 3.58-.68.68-1.83 1.02-3.46 1.02h-19.32c-1.71 0-2.99-.34-3.84-1.02-.77-.77-1.16-1.97-1.16-3.59v-17.92h-22.65v17.92ZM342.74 283h-33.28c-1.63 0-3-.3-4.1-.9-1.02-.6-1.84-1.7-2.43-3.32l-12.55-31.36a180.62 180.62 0 0 1-1.92-4.87 54.65 54.65 0 0 1-1.28-4.1 29.78 29.78 0 0 1-.76-3.96 91.64 91.64 0 0 1-.13-5.25v-33.8c0-1.61.34-2.76 1.02-3.45.77-.77 1.96-1.15 3.59-1.15h20.35c1.62 0 2.86.38 3.7 1.15.86.69 1.29 1.84 1.29 3.46v35.33c0 .85.08 1.7.26 2.56.17.85.42 1.75.76 2.68l6.02 17.92c.26.86.55 1.46.9 1.8.34.25.85.38 1.53.38h1.4c.7 0 1.2-.13 1.55-.38.34-.34.64-.94.9-1.8l6-18.04c.35-.94.6-1.84.78-2.7a13 13 0 0 0 .25-2.55v-35.2c0-1.62.34-2.77 1.03-3.46.76-.77 1.96-1.15 3.58-1.15h20.1c1.62 0 2.77.38 3.45 1.15.77.69 1.15 1.84 1.15 3.46v33.79c0 2.05-.08 3.8-.25 5.25a20.27 20.27 0 0 1-.64 3.97 54.65 54.65 0 0 1-1.28 4.1 180.62 180.62 0 0 1-1.92 4.86l-12.55 31.36c-.6 1.62-1.45 2.73-2.56 3.32a7.8 7.8 0 0 1-3.96.9Zm-41.99-80.64v27.65c0 2.39.13 4.6.39 6.65a27.68 27.68 0 0 0 1.66 5.76l8.45 20.48a25.82 25.82 0 0 0 3.45 6.15c1.28 1.62 3.25 2.43 5.9 2.43h11.25c2.65 0 4.61-.81 5.9-2.43a25.82 25.82 0 0 0 3.45-6.15l8.45-20.48a23.01 23.01 0 0 0 1.53-5.76c.34-2.04.51-4.26.51-6.65v-27.65h-1.28v27.65a38.92 38.92 0 0 1-.5 6.4 27.4 27.4 0 0 1-1.54 5.5l-8.45 20.48a24.8 24.8 0 0 1-2.94 5.63c-1.03 1.46-2.74 2.18-5.12 2.18h-11.27c-2.39 0-4.14-.72-5.25-2.18a28.8 28.8 0 0 1-2.81-5.63l-8.45-20.48a27.4 27.4 0 0 1-1.54-5.5 38.92 38.92 0 0 1-.5-6.4v-27.65h-1.29ZM445.71 283h-59.4c-1.62 0-2.81-.34-3.58-1.02-.68-.77-1.02-1.97-1.02-3.59v-82.94c0-1.62.34-2.78 1.02-3.46.77-.77 1.96-1.15 3.58-1.15h59.4c1.62 0 2.77.38 3.45 1.15.77.68 1.15 1.84 1.15 3.46v14.97c0 1.62-.38 2.82-1.15 3.59-.68.68-1.83 1.02-3.45 1.02h-35.33v9.86h24.96c1.62 0 2.77.38 3.46 1.15.76.68 1.15 1.83 1.15 3.46v13.7c0 1.61-.39 2.8-1.15 3.58-.69.68-1.84 1.02-3.46 1.02h-24.96v11h35.33c1.62 0 2.77.4 3.45 1.16.77.68 1.15 1.83 1.15 3.46v14.97c0 1.62-.38 2.82-1.15 3.59-.68.68-1.83 1.02-3.45 1.02Zm-6.91-12.8h-41.86v-33.15h31.49v-1.28h-31.5v-32.13h41.87v-1.28h-43.14v69.12h43.13v-1.28Zm96.42 12.8h-65.16c-1.62 0-2.81-.34-3.58-1.02-.68-.77-1.02-1.97-1.02-3.59v-82.94c0-1.62.34-2.78 1.02-3.46.77-.77 1.96-1.15 3.58-1.15h19.84c1.63 0 2.78.38 3.46 1.15.77.68 1.15 1.84 1.15 3.46v63.36h17.54v-20.74c0-1.62.34-2.77 1.02-3.45.77-.77 1.97-1.16 3.59-1.16h18.56c1.62 0 2.77.39 3.45 1.16.77.68 1.15 1.83 1.15 3.45v40.32c0 1.62-.38 2.82-1.15 3.59-.68.68-1.83 1.02-3.45 1.02Zm-55.81-11.52h47.1v-26.5h-1.28v25.22H480.7v-67.84h-1.28v69.12Z" fill="#CE4D36"/><path d="M53.89 73.72c-1.54 0-2.65-.34-3.33-1.02a31.54 31.54 0 0 1-3.2-4.36l-15.62-23.8a3.68 3.68 0 0 0-1.79-1.67 4.55 4.55 0 0 0-2.05-.51h-2.17c-1.11 0-1.97.34-2.56 1.02-.51.6-.77 1.58-.77 2.95v65.15h1.28V46.33c0-.68.13-1.28.38-1.8.26-.6.81-.89 1.67-.89h1.92c.6 0 1.1.09 1.53.26.52.17 1.03.68 1.54 1.53l15.62 23.55a46.71 46.71 0 0 0 3.45 4.74c.86.85 2.22 1.28 4.1 1.28 1.88 0 3.2-.43 3.97-1.28a34.2 34.2 0 0 0 3.58-4.74l15.62-23.55c.5-.85.98-1.36 1.4-1.53.43-.17.94-.26 1.54-.26h1.92c.85 0 1.4.3 1.66.9.35.5.52 1.1.52 1.79v65.15h1.28V46.33c0-1.37-.3-2.35-.9-2.95-.51-.68-1.36-1.02-2.56-1.02h-2.18c-.68 0-1.36.17-2.04.51-.6.26-1.16.81-1.67 1.67l-15.61 23.8a31.47 31.47 0 0 1-3.2 4.36c-.69.68-1.8 1.02-3.33 1.02ZM32.5 123H13.44c-1.62 0-2.82-.34-3.58-1.02-.69-.77-1.03-1.97-1.03-3.59V35.45c0-1.62.34-2.77 1.03-3.46.76-.77 1.96-1.15 3.58-1.15h20.6c1.37 0 2.48.3 3.34.9.94.6 1.79 1.58 2.56 2.94l11.52 20.86c.42.77.76 1.33 1.02 1.67.34.34.77.51 1.28.51h1.15c.51 0 .9-.17 1.15-.51.35-.34.73-.9 1.16-1.67L68.6 34.68a8.77 8.77 0 0 1 2.43-2.94c.94-.6 2.09-.9 3.46-.9h20.73c1.62 0 2.78.38 3.46 1.15.77.69 1.15 1.84 1.15 3.46v82.94c0 1.62-.38 2.82-1.15 3.59-.68.68-1.84 1.02-3.46 1.02H75.52c-1.62 0-2.82-.34-3.58-1.02-.69-.77-1.03-1.97-1.03-3.59V73.34l-7.55 13.95a8.05 8.05 0 0 1-2.82 3.2 7.8 7.8 0 0 1-3.96.9h-5.12c-1.63 0-3-.3-4.1-.9a8.53 8.53 0 0 1-2.69-3.2l-7.55-13.95v45.05c0 1.62-.38 2.82-1.15 3.59-.69.68-1.84 1.02-3.46 1.02Zm97.88-38.78c0-2.3.17-4.44.5-6.4a46.81 46.81 0 0 1 1.54-5.5l8.2-21c.85-2.13 1.79-3.93 2.81-5.38 1.03-1.53 2.82-2.3 5.38-2.3h12.54c2.39 0 4.1.77 5.12 2.3 1.03 1.45 2 3.29 2.95 5.5l8.83 20.87a34.58 34.58 0 0 1 1.4 5.5c.43 1.97.64 4.1.64 6.4v3.97h-49.92v-3.96Zm20.48-26.5-6.02 19.46h20.1l-6.02-19.46a4.36 4.36 0 0 0-1.15-1.66 1.74 1.74 0 0 0-1.28-.52h-3.2c-.51 0-.98.17-1.41.52-.34.34-.68.9-1.02 1.66Zm29.43 53.76h1.28V84.22c0-2.4-.2-4.57-.64-6.53a33.07 33.07 0 0 0-1.53-5.89l-8.83-20.86a29.17 29.17 0 0 0-3.33-6.15c-1.11-1.62-3.07-2.43-5.89-2.43h-12.54c-2.9 0-4.95.81-6.15 2.43a26.4 26.4 0 0 0-3.2 6.02l-8.19 20.99a42.67 42.67 0 0 0-1.66 5.89 38.28 38.28 0 0 0-.51 6.53v27.26h1.28V89.46h49.92v22.02Zm-36.73 6.91c0 1.62-.39 2.82-1.15 3.59-.69.68-1.84 1.02-3.46 1.02h-18.81c-1.63 0-2.82-.34-3.59-1.02-.68-.77-1.02-1.97-1.02-3.59V84.6c0-2.56.38-5.5 1.15-8.83.85-3.33 2.13-7.21 3.84-11.65l11.14-29.06a6.14 6.14 0 0 1 2.3-3.2 7.94 7.94 0 0 1 4.22-1.02h34.44c1.62 0 2.94.34 3.96 1.02a5.9 5.9 0 0 1 2.43 3.2l11.14 29.06a88.8 88.8 0 0 1 3.71 11.65 36.1 36.1 0 0 1 1.28 8.83v33.8c0 1.61-.38 2.8-1.15 3.58-.68.68-1.83 1.02-3.46 1.02h-19.32c-1.71 0-2.99-.34-3.84-1.02-.77-.77-1.16-1.97-1.16-3.59v-17.92h-22.65v17.92Zm110.4-74.75c4.52 0 7.85 1.24 9.98 3.71 2.22 2.48 3.33 5.68 3.33 9.6v8.96c0 4.7-.9 8.32-2.7 10.88-1.78 2.56-5.32 3.84-10.61 3.84h-27.9V43.64h27.9Zm-14.08 10.24v16.38h9.6c2.21 0 3.7-.55 4.47-1.66a7.88 7.88 0 0 0 1.16-4.35V59.9c0-1.71-.39-3.12-1.16-4.23-.76-1.2-2.26-1.79-4.48-1.79h-9.6Zm-13.83 57.6v-29.7h36.22c4.87 0 8.45 1.07 10.76 3.2 2.3 2.05 3.45 5.17 3.45 9.35v17.15h1.28V94.33c0-4.44-1.28-7.81-3.84-10.11-2.56-2.4-6.44-3.59-11.65-3.59h-1.4c3.07-.94 5.12-2.64 6.14-5.12 1.02-2.56 1.54-5.8 1.54-9.73v-8.83c0-4.18-1.2-7.63-3.59-10.37-2.39-2.81-6.06-4.22-11-4.22h-29.19v69.12h1.28Zm9.22 11.52h-19.72c-1.62 0-2.81-.34-3.58-1.02-.68-.77-1.02-1.97-1.02-3.59V35.45c0-1.62.34-2.77 1.02-3.46.77-.77 1.96-1.15 3.59-1.15h42.62c9.56 0 16.13 2 19.71 6.02 3.67 3.92 5.5 9.04 5.5 15.36v5.88c0 3.59-.55 6.66-1.66 9.22a9.74 9.74 0 0 1-5.5 5.38c4.6.5 8.32 2.39 11.13 5.63 2.9 3.24 4.36 7.55 4.36 12.93v27.13c0 1.62-.39 2.82-1.16 3.59-.68.68-1.83 1.02-3.45 1.02h-19.84c-1.62 0-2.82-.34-3.59-1.02-.68-.77-1.02-1.97-1.02-3.59V98.81c0-1.88-.38-3.24-1.15-4.1-.69-.94-1.92-1.4-3.71-1.4h-17.92v25.08c0 1.62-.39 2.82-1.16 3.59-.68.68-1.83 1.02-3.45 1.02Zm113.55 0H308.4c-1.62 0-2.82-.34-3.59-1.02-.68-.77-1.02-1.97-1.02-3.59v-14.97c0-1.63.34-2.78 1.02-3.46.77-.77 1.97-1.15 3.59-1.15h34.43c1.1 0 1.92-.34 2.43-1.03.6-.76.9-1.66.9-2.68 0-1.45-.3-2.52-.9-3.2-.51-.69-1.32-1.07-2.43-1.16l-19.2-2.68c-5.97-.86-10.8-2.82-14.47-5.9-3.58-3.06-5.37-8.18-5.37-15.35V53.37c0-7.26 2.35-12.8 7.04-16.64 4.7-3.93 11.18-5.89 19.45-5.89h35.84c1.63 0 2.78.38 3.46 1.15.77.68 1.15 1.84 1.15 3.46v15.23c0 1.62-.38 2.82-1.15 3.58-.68.69-1.83 1.03-3.46 1.03H336.3c-1.1 0-1.96.38-2.56 1.15-.6.68-.9 1.58-.9 2.69 0 1.1.3 2.05.9 2.81a3.4 3.4 0 0 0 2.56 1.28l19.07 2.56c5.98.86 10.8 2.82 14.47 5.9 3.67 3.06 5.5 8.18 5.5 15.35v13.44c0 7.26-2.39 12.85-7.17 16.77-4.7 3.84-11.13 5.76-19.33 5.76Zm10.37-80.64H330.8c-3.93 0-7.09 1.11-9.48 3.33a10.63 10.63 0 0 0-3.58 8.32v10.5c0 3.5.68 5.92 2.05 7.29a11.38 11.38 0 0 0 5.5 2.56l27.01 5.5c2.39.52 4.27 1.54 5.63 3.08 1.45 1.45 2.18 4.18 2.18 8.19v7.42c0 3.42-1.2 6.23-3.59 8.45-2.3 2.13-5.41 3.2-9.34 3.2H315.3v1.28h31.87c4.35 0 7.8-1.2 10.37-3.58a12.45 12.45 0 0 0 3.84-9.35v-7.42c0-4.44-.86-7.51-2.56-9.22a11.5 11.5 0 0 0-6.27-3.33l-27.01-5.5a8.57 8.57 0 0 1-4.74-2.3c-1.2-1.2-1.79-3.29-1.79-6.28V54c0-2.98 1.07-5.45 3.2-7.42s5-2.94 8.58-2.94h28.41v-1.28ZM52.35 277H31.62c-1.63 0-2.82-.34-3.59-1.02-.68-.77-1.02-1.97-1.02-3.59v-62.85H8.19c-1.62 0-2.81-.34-3.58-1.02-.68-.77-1.03-1.96-1.03-3.58v-15.5c0-1.61.35-2.77 1.03-3.45.77-.77 1.96-1.15 3.58-1.15h67.59c1.62 0 2.77.38 3.45 1.15.77.68 1.15 1.84 1.15 3.46v15.49c0 1.62-.38 2.81-1.15 3.58-.68.68-1.83 1.02-3.45 1.02H56.96v62.85c0 1.62-.38 2.82-1.15 3.59-.69.68-1.84 1.02-3.46 1.02Zm-11-11.52h1.27v-67.84h26.24v-1.28H15.1v1.28h26.24v67.84Zm94.49-67.84c4.52 0 7.85 1.24 9.98 3.71 2.22 2.48 3.33 5.68 3.33 9.6v8.96c0 4.7-.9 8.32-2.69 10.88-1.79 2.56-5.33 3.84-10.62 3.84h-27.9v-36.99h27.9Zm-14.08 10.24v16.38h9.6c2.22 0 3.71-.55 4.48-1.66a7.88 7.88 0 0 0 1.15-4.35v-4.35c0-1.71-.38-3.12-1.15-4.23-.77-1.2-2.26-1.79-4.48-1.79h-9.6Zm-13.82 57.6v-29.7h36.22c4.86 0 8.45 1.07 10.75 3.2 2.3 2.05 3.46 5.17 3.46 9.35v17.15h1.28v-17.15c0-4.44-1.28-7.81-3.84-10.11-2.56-2.4-6.45-3.59-11.65-3.59h-1.4c3.06-.94 5.11-2.64 6.14-5.12 1.02-2.56 1.53-5.8 1.53-9.73v-8.83c0-4.18-1.2-7.63-3.58-10.37-2.4-2.81-6.06-4.22-11.01-4.22h-29.18v69.12h1.28Zm9.21 11.52H97.44c-1.62 0-2.82-.34-3.58-1.02-.69-.77-1.03-1.97-1.03-3.59v-82.94c0-1.62.34-2.78 1.03-3.46.76-.77 1.96-1.15 3.58-1.15h42.62c9.56 0 16.13 2 19.72 6.02 3.66 3.92 5.5 9.04 5.5 15.36v5.88c0 3.59-.56 6.66-1.66 9.22a9.74 9.74 0 0 1-5.5 5.38c4.6.5 8.31 2.39 11.13 5.63 2.9 3.24 4.35 7.55 4.35 12.93v27.13c0 1.62-.38 2.82-1.15 3.59-.68.68-1.84 1.02-3.46 1.02h-19.84c-1.62 0-2.81-.34-3.58-1.02-.68-.77-1.03-1.97-1.03-3.59v-19.58c0-1.88-.38-3.24-1.15-4.1-.68-.94-1.92-1.4-3.71-1.4h-17.92v25.08c0 1.62-.38 2.82-1.15 3.59-.68.68-1.84 1.02-3.46 1.02Zm83.73-38.78c0-2.3.18-4.44.52-6.4a46.81 46.81 0 0 1 1.53-5.5l8.2-21c.85-2.13 1.79-3.92 2.81-5.38 1.03-1.53 2.82-2.3 5.38-2.3h12.54c2.39 0 4.1.77 5.12 2.3 1.03 1.46 2 3.29 2.95 5.5l8.83 20.87a34.58 34.58 0 0 1 1.4 5.5c.43 1.97.64 4.1.64 6.4v3.97h-49.92v-3.96Zm20.48-26.5-6.01 19.46h20.1l-6.02-19.46a4.36 4.36 0 0 0-1.15-1.66 1.74 1.74 0 0 0-1.28-.52h-3.2c-.51 0-.98.18-1.41.52-.34.34-.68.9-1.02 1.66Zm29.44 53.76h1.28v-27.26c0-2.4-.2-4.57-.64-6.53a33.06 33.06 0 0 0-1.53-5.89l-8.83-20.86a29.17 29.17 0 0 0-3.33-6.15c-1.11-1.62-3.07-2.43-5.89-2.43h-12.54c-2.9 0-4.95.81-6.15 2.43a26.4 26.4 0 0 0-3.2 6.02l-8.19 20.99a42.66 42.66 0 0 0-1.66 5.89 38.28 38.28 0 0 0-.52 6.53v27.26h1.28v-22.02h49.92v22.02Zm-36.73 6.91c0 1.62-.39 2.82-1.15 3.59-.69.68-1.84 1.02-3.46 1.02h-18.81c-1.63 0-2.82-.34-3.59-1.02-.68-.77-1.02-1.97-1.02-3.59V238.6c0-2.56.38-5.5 1.15-8.83.85-3.33 2.13-7.21 3.84-11.65l11.13-29.06a6.14 6.14 0 0 1 2.3-3.2 7.94 7.94 0 0 1 4.23-1.02h34.43c1.63 0 2.95.34 3.97 1.02a5.9 5.9 0 0 1 2.43 3.2l11.14 29.06a88.8 88.8 0 0 1 3.71 11.65 36.1 36.1 0 0 1 1.28 8.83v33.8c0 1.61-.38 2.8-1.15 3.58-.68.68-1.83 1.02-3.46 1.02h-19.32c-1.71 0-2.99-.34-3.84-1.02-.77-.77-1.16-1.97-1.16-3.59v-17.92h-22.65v17.92ZM334.74 277h-33.28c-1.63 0-3-.3-4.1-.9-1.02-.6-1.84-1.7-2.43-3.32l-12.55-31.36a180.62 180.62 0 0 1-1.92-4.87 54.65 54.65 0 0 1-1.28-4.1 29.78 29.78 0 0 1-.76-3.96 91.64 91.64 0 0 1-.13-5.25v-33.8c0-1.61.34-2.76 1.02-3.45.77-.77 1.96-1.15 3.59-1.15h20.35c1.62 0 2.86.38 3.7 1.15.86.69 1.29 1.84 1.29 3.46v35.33c0 .85.08 1.7.26 2.56.17.85.42 1.75.76 2.68l6.02 17.92c.26.86.55 1.46.9 1.8.34.25.85.38 1.53.38h1.4c.7 0 1.2-.13 1.55-.38.34-.34.64-.94.9-1.8l6-18.04c.35-.94.6-1.84.78-2.7a13 13 0 0 0 .25-2.55v-35.2c0-1.62.34-2.77 1.03-3.46.76-.77 1.96-1.15 3.58-1.15h20.1c1.62 0 2.77.38 3.45 1.15.77.69 1.15 1.84 1.15 3.46v33.79c0 2.05-.08 3.8-.25 5.25a20.27 20.27 0 0 1-.64 3.97 54.65 54.65 0 0 1-1.28 4.1 180.62 180.62 0 0 1-1.92 4.86l-12.55 31.36c-.6 1.62-1.45 2.73-2.56 3.32a7.8 7.8 0 0 1-3.96.9Zm-41.99-80.64v27.65c0 2.39.13 4.6.39 6.65a27.68 27.68 0 0 0 1.66 5.76l8.45 20.48a25.82 25.82 0 0 0 3.45 6.15c1.28 1.62 3.25 2.43 5.9 2.43h11.25c2.65 0 4.61-.81 5.9-2.43a25.82 25.82 0 0 0 3.45-6.15l8.45-20.48a23.01 23.01 0 0 0 1.53-5.76c.34-2.04.51-4.26.51-6.65v-27.65h-1.28v27.65a38.92 38.92 0 0 1-.5 6.4 27.4 27.4 0 0 1-1.54 5.5l-8.45 20.48a24.8 24.8 0 0 1-2.94 5.63c-1.03 1.46-2.74 2.18-5.12 2.18h-11.27c-2.39 0-4.14-.72-5.25-2.18a28.8 28.8 0 0 1-2.81-5.63l-8.45-20.48a27.4 27.4 0 0 1-1.54-5.5 38.92 38.92 0 0 1-.5-6.4v-27.65h-1.29ZM437.71 277h-59.4c-1.62 0-2.81-.34-3.58-1.02-.68-.77-1.02-1.97-1.02-3.59v-82.94c0-1.62.34-2.78 1.02-3.46.77-.77 1.96-1.15 3.58-1.15h59.4c1.62 0 2.77.38 3.45 1.15.77.68 1.15 1.84 1.15 3.46v14.97c0 1.62-.38 2.82-1.15 3.59-.68.68-1.83 1.02-3.45 1.02h-35.33v9.86h24.96c1.62 0 2.77.38 3.46 1.15.76.68 1.15 1.83 1.15 3.46v13.7c0 1.61-.39 2.8-1.15 3.58-.69.68-1.84 1.02-3.46 1.02h-24.96v11h35.33c1.62 0 2.77.4 3.45 1.16.77.68 1.15 1.83 1.15 3.46v14.97c0 1.62-.38 2.82-1.15 3.59-.68.68-1.83 1.02-3.45 1.02Zm-6.91-12.8h-41.86v-33.15h31.49v-1.28h-31.5v-32.13h41.87v-1.28h-43.14v69.12h43.13v-1.28Zm96.42 12.8h-65.16c-1.62 0-2.81-.34-3.58-1.02-.68-.77-1.02-1.97-1.02-3.59v-82.94c0-1.62.34-2.78 1.02-3.46.77-.77 1.96-1.15 3.58-1.15h19.84c1.63 0 2.78.38 3.46 1.15.77.68 1.15 1.84 1.15 3.46v63.36h17.54v-20.74c0-1.62.34-2.77 1.02-3.45.77-.77 1.97-1.16 3.59-1.16h18.56c1.62 0 2.77.39 3.45 1.16.77.68 1.16 1.83 1.16 3.45v40.32c0 1.62-.39 2.82-1.16 3.59-.68.68-1.83 1.02-3.45 1.02Zm-55.81-11.52h47.1v-26.5h-1.28v25.22H472.7v-67.84h-1.28v69.12Zm71.51 9.47a2.05 2.05 0 0 1-1.25 1.86 2.04 2.04 0 0 1-2.2-.42 2.2 2.2 0 0 1-.42-.64 2.06 2.06 0 0 1-.16-.8c0-.27.05-.52.16-.76a1.96 1.96 0 0 1 .42-.64c.19-.2.4-.34.64-.44a1.9 1.9 0 0 1 .8-.17c.27 0 .52.06.76.17.25.1.47.25.64.44.19.17.34.39.44.64.12.24.17.5.17.76Zm19.53 2.05h-11.01a6.5 6.5 0 0 1-1.85-.3 5.58 5.58 0 0 1-1.86-.97 5.74 5.74 0 0 1-1.42-1.76 5.8 5.8 0 0 1-.56-2.67v-5.5c0-.39.04-.8.12-1.22a6.45 6.45 0 0 1 1.15-2.49 5 5 0 0 1 1.07-1.01 5.62 5.62 0 0 1 1.47-.7 6.14 6.14 0 0 1 1.88-.27h11.01v4.06h-11.01c-.53 0-.94.14-1.22.4-.27.28-.4.7-.4 1.26v5.47c0 .53.13.93.41 1.22.29.28.7.42 1.24.42h10.98V277Zm21.61-5.7a6.29 6.29 0 0 1-.26 1.89 5.66 5.66 0 0 1-.7 1.47 5 5 0 0 1-1.02 1.07 6 6 0 0 1-1.22.72 6.32 6.32 0 0 1-1.28.43 6.4 6.4 0 0 1-1.22.12h-7.33a6.5 6.5 0 0 1-1.84-.3 5.58 5.58 0 0 1-1.86-.97 5.74 5.74 0 0 1-1.42-1.76 5.8 5.8 0 0 1-.57-2.67v-5.5c0-1.04.2-1.92.57-2.64.38-.73.86-1.32 1.42-1.77a5.43 5.43 0 0 1 1.86-.98 6.5 6.5 0 0 1 1.84-.3h7.33c1.04 0 1.93.19 2.66.56a5.24 5.24 0 0 1 2.73 3.27c.2.66.31 1.28.31 1.86v5.5Zm-4.06-5.47c0-.56-.14-.98-.42-1.25s-.69-.4-1.22-.4h-7.3c-.54 0-.95.13-1.23.41-.28.28-.42.68-.42 1.2v5.5c0 .54.14.94.42 1.23.28.28.7.42 1.23.42h7.3c.55 0 .96-.14 1.23-.42.27-.29.41-.7.41-1.22v-5.47ZM602.6 277h-4.05v-11.2c0-.53-.14-.93-.42-1.2-.29-.29-.7-.43-1.25-.43h-5.29V277h-4.06v-14.88a1.92 1.92 0 0 1 .6-1.42 2.04 2.04 0 0 1 1.45-.6h7.33a6.2 6.2 0 0 1 3.65 1.26v-1.25h5.5c.39 0 .8.05 1.22.14a5.79 5.79 0 0 1 1.27.4c.42.2.83.44 1.22.74a4.55 4.55 0 0 1 1.01 1.08c.3.41.53.9.7 1.45.18.55.27 1.18.27 1.88V277h-4.06v-11.2c0-.53-.14-.93-.4-1.2-.27-.29-.68-.43-1.23-.43h-3.65c.13.5.2 1.04.2 1.63V277Z" fill="#FAFAF5"/></svg>