<svg width="202" height="233" fill="none" xmlns="http://www.w3.org/2000/svg"><path d="M185.2 77.7a94 94 0 0 0-36-34M52 67.4c-23 29-19.7 70.5-9.8 90.1 7.6 15.2 30.7 34.1 55 38.4 25.4 4.6 57.4-7.3 77.7-26.5a71 71 0 0 0 20.5-46.5M106.8 36a79 79 0 0 0-22.3 6.6" stroke="#CE4D36" stroke-width="2.2" stroke-miterlimit="10" stroke-linecap="round"/><path d="M108.4 35.6c0-1.7 5-3.2 6.3-3.3 1.3 0 2.7.3 4 .4 3.6.4 7.1.7 10.7 1.3 5.9.8 17.8 1.6 18.5 9.4 0 1.4 2.3 1.5 2.2 0-1-10.4-15.2-11-23.1-12-4.8-.6-21.3-5.1-20.8 4.2 0 1.4 2.3 1.4 2.2 0ZM186.4 79.3c2.3-1 5.7 1.5 6.8 3.4 1 1.4 1.2 3.4 1.7 5 .9 3.1 1.7 6.4 2.3 9.6.7 3.9 4.9 22.4-1.8 23.7-1.4.3-.8 2.4.6 2.2 4.3-.9 5.1-4.5 5.2-8.4 0-6.4-.9-12.8-2-19-1.4-6.6-3.2-22.7-13.4-18.6-1.3.5-.8 2.6.6 2.1ZM132.5 61.4c-9.6 4.2-10.5 14.1-9.2 23.4 1.2 8.7 6.3 14.6 15.6 14.3 7.8-.1 20-4 23.1-12 3.3-8 2.2-19-6.5-23-1.3-.5-2.5 1.4-1.2 2 7.6 3.4 9 13.3 5.6 20.3-3.1 6.6-14 10.5-21 10.5-9 .1-12.7-5.9-13.6-14-.9-8 0-16 8.3-19.5 1.3-.6.2-2.5-1.1-2Z" fill="#CE4D36"/><path d="M133.4 67c-2.2 5.2-6.1 12-3.4 17.7 2 4.2 6.7 4.9 10.8 5.3 9.6 1 18.5-5 16.4-15.5-.3-1.4-2.5-.8-2.2.6 2 10-7.3 13.8-15.6 12.5-12.3-2-6.9-12.7-3.9-20.1.6-1.3-1.6-1.9-2.1-.6ZM158.2 116.2c-5.8 7.9-2.6 21.3 6.5 25.2 8.2 3.5 17.5-2.4 16-11.6-.2-1.4-2.4-.8-2.1.6 1.5 9.8-10.8 12.5-16.7 6.6-4.9-5-6-14-1.7-19.7.8-1.1-1.1-2.2-2-1ZM165.2 116c3.1-.4 7.2-1 8.9 2.5.6 1.2 2.5.1 1.9-1.2-2.2-4.3-7.3-4-11.4-3.4-1.4.3-.8 2.4.6 2.2Z" fill="#CE4D36"/><path d="M164.8 120.6c-3 3-4.8 7.9-2.5 11.9 2 3.4 6.1 4.9 9.7 3.2 1.3-.6.2-2.5-1.1-1.9-2.8 1.3-6-.5-7-3.3-1-3 .4-6.2 2.5-8.3 1-1-.6-2.6-1.6-1.6ZM74.8 136.2c-2 .8-3.4 2.8-3 5 .4 2.2 2.4 4 4.7 3.6 2.2-.4 4-2.6 3.7-4.8a4.6 4.6 0 0 0-5-3.9c-1.4.2-1.4 2.4 0 2.2 1.1 0 2.4.4 2.7 1.6.4 1.2-.5 2.4-1.7 2.7-2.5.4-2.9-3.4-.8-4.2 1.3-.6.7-2.7-.6-2.2ZM74.6 119.3c-1 1-1.6 2.8-.6 4 1 1 2.8.9 4 0 1.1-.9 1.7-2.6.8-3.9-1-1.3-2.8-1.2-4-.4-1.1.9 0 2.8 1.1 2 .2-.2.7-.6 1-.4.3.3-.1.8-.3 1-.2 0-.7.4-.9.2-.2-.2.3-.9.5-1 1-1-.6-2.5-1.6-1.5ZM97.7 142.3a5.1 5.1 0 0 0-3.5 6c.7 2.6 3.6 4.4 6.3 3.6 2.4-.8 4-3.5 3.4-6-.7-2.7-3.5-4.2-6.2-3.6-1.4.3-.8 2.4.6 2.1 3.4-.7 4.9 4.2 1.6 5.4-3.4 1.1-5.1-4.5-1.7-5.4 1.4-.3.8-2.5-.5-2.1ZM120.3 149.8c-.3 2 3 2 2.6 0-.3-1.5-2.4-.9-2.2.5v.2l.3-1.1h1.2l.3 1c.2-1.5-2-2-2.2-.6ZM88 174.4v-.5c0-1.5-2.2-1.5-2.2 0v.5c0 1.4 2.2 1.4 2.2 0ZM59.5 81c-6.3 2.3-8.4-5.2-7.4-10 .4-1.9 1.2-3.8 2-5.7 2-5 4.5-9 8.8-12.4 5.6-4.4 23.3-16 26.6-3.5.3 1.4 2.5.8 2.1-.6-4.1-16-27-1.3-33.3 5.1-4.9 5-10.2 15.6-8.6 22.8 1.1 4.7 5.6 8.2 10.4 6.5 1.3-.5.7-2.6-.6-2.1Z" fill="#CE4D36"/><path d="M54.6 73.5c4.2 4.3 9.2-.8 12.4-3.8 5.8-5.6 10.5-12 14.4-19 .7-1.3-1.2-2.4-1.9-1.1A79.4 79.4 0 0 1 71 62c-2 2.4-11.1 13.7-14.8 9.8-1-1-2.6.5-1.6 1.6ZM2.3 232.4l32.2-39.7c.9-1-.7-2.7-1.6-1.6L.8 231c-1 1 .6 2.7 1.5 1.5ZM28.9 225c8.8-13.2 18.5-25.6 29-37.4 1-1-.6-2.6-1.5-1.6A359.9 359.9 0 0 0 27 223.8c-.8 1.2 1.1 2.3 1.9 1.1ZM79.5 1.8c3.1 8.6 5.4 17.4 6.8 26.5.2 1.4 2.3.8 2.1-.6-1.4-9-3.6-17.9-6.8-26.5-.4-1.3-2.6-.8-2 .6ZM93.3 5v15.3c0 1.5 2.3 1.5 2.3 0V5c0-1.4-2.3-1.4-2.3 0ZM103.8 7.1c.4 3-.3 6-2 8.5-.7 1.2 1.2 2.3 2 1.1 1.8-2.9 2.6-6.2 2.2-9.6-.2-1.4-2.4-1.4-2.2 0Z" fill="#CE4D36"/></svg>