<svg width="343" height="195" fill="none" xmlns="http://www.w3.org/2000/svg"><path d="M177.53 97.191c-9.704-6.976-11.535-16.284-2.172-17.122 9.364-.841 60.829 18.772 74.585 50.902 10.657 24.892-25.458 22.864-31.482 22.253-14.468-1.472-58.723-18.031-84.578-39.845-25.855-21.815-51.188-53.59-47.288-70.86 3.903-17.27 35.93-22.059 60.621-19.605 24.691 2.454 54.168 17.737 54.168 17.737" stroke="#CE4D36" stroke-width="3.707" stroke-miterlimit="10" stroke-linecap="round" stroke-linejoin="round"/><path d="M194.263 96.51s29.376 16.639 13.848 22.64c-15.527 6.005-54.505-17.147-66.459-33.376-10.305-13.99-11.488-20.347 3.825-26.73 15.313-6.383 55.758 2.328 86.206 23.972 45.305 32.205 67.594 69.24 55.45 93.197-16.158 31.879-78.54 10.149-117.947-11.402" stroke="#CE4D36" stroke-width="3.707" stroke-miterlimit="10" stroke-linecap="round" stroke-linejoin="round"/><path d="M131.929 4.42C112.743-1.142 67.964 6.197 59.883 38.48c-8.077 32.275 47.926 79.578 47.926 79.578M267.169 136.228s26.618 49.564-41.19 35.103" stroke="#CE4D36" stroke-width="3.707" stroke-miterlimit="10" stroke-linecap="round" stroke-linejoin="round" stroke-dasharray="3.71 11.12"/><path d="m225.515 41.307-1.616 6.832 4.044 3.747c.571.53.067 1.472-.689 1.294l-5.679-1.342-4.815 4.404c-.541.493-1.398.011-1.257-.704l1.257-6.387-3.77-4.23c-.515-.578.067-1.468.804-1.223l5.29 1.754 5.175-4.871c.548-.516 1.43-.004 1.256.726Z" stroke="#CE4D36" stroke-width="3.707" stroke-miterlimit="10" stroke-linecap="round" stroke-linejoin="round"/><path d="M239.99 61.32c2.388 0 2.391-3.706 0-3.706-2.383 0-2.387 3.706 0 3.706ZM250.451 68.24c2.383 0 2.391-3.706 0-3.706-2.384 0-2.391 3.707 0 3.707Z" fill="#CE4D36"/><path d="m159.07 147.904-1.616 6.832 4.044 3.747c.571.53.071 1.472-.689 1.294l-5.679-1.342-4.815 4.408c-.541.493-1.398.011-1.257-.705l1.257-6.387-3.77-4.229c-.515-.578.067-1.468.804-1.223l5.286 1.753 5.175-4.871c.549-.519 1.431-.011 1.26.723Z" stroke="#CE4D36" stroke-width="3.707" stroke-miterlimit="10" stroke-linecap="round" stroke-linejoin="round"/><path d="M137.823 147.478c2.384 0 2.391-3.707 0-3.707-2.383 0-2.387 3.707 0 3.707ZM126.925 140.594c2.383 0 2.391-3.706 0-3.706-2.384 0-2.387 3.706 0 3.706Z" fill="#CE4D36"/><path d="m336.994 115.94-3.233 11.047 6.302 6.483c.89.915-.015 2.417-1.242 2.061l-9.181-2.684-8.263 6.802c-.927.764-2.287-.1-1.994-1.264l2.602-10.349-5.809-7.247c-.797-.994.238-2.398 1.424-1.935l8.507 3.325 8.893-7.532c.937-.801 2.342.111 1.994 1.293ZM23.924 30.472 20.688 41.52l6.301 6.483c.89.915-.015 2.417-1.242 2.06l-9.181-2.683-8.263 6.802c-.927.764-2.287-.1-1.994-1.264l2.602-10.35-5.809-7.246c-.797-.994.238-2.399 1.424-1.935l8.507 3.325 8.893-7.532c.941-.801 2.346.11 1.998 1.293Z" stroke="#CE4D36" stroke-width="3.707" stroke-miterlimit="10" stroke-linecap="round" stroke-linejoin="round"/></svg>