<svg width="285" height="313" fill="none" xmlns="http://www.w3.org/2000/svg"><path d="M244.881 153.029a1.453 1.453 0 1 0-1.453 1.451 1.454 1.454 0 0 0 1.453-1.451Z" fill="#F4F9F1"/><path d="m34.645 111.505-.64.465-1.814-6.384.63-.458 5.519 3.696-.64.465-4.594-3.149-.04.028 1.58 5.337Zm-1.195-2.14 2.58-1.874.395.542-2.581 1.873-.394-.541Z" fill="#fff"/><path d="m39.38 110.826-.169-.234-.984.713-1.476-2.78 2.422 2.5.207-.199.205-.202-3.835-3.958-.376-.033a.289.289 0 0 0-.085.369l2.584 4.867.19.147.235-.049 1.251-.909.118-.207-.082-.227-.205.202Zm-2.84 3.06 1.963 3.956.189.151.238-.045 1.76-1.277a.289.289 0 0 0 .087-.363l-1.35-2.652 1.366-.991 2.094 2.112.374.031 1.776-1.29.118-.211-.085-.226-7.537-7.395-.408.004.005.408 7.291 7.155-1.3.945-2.092-2.108-.374-.033-1.765 1.281a.289.289 0 0 0-.087.365l1.349 2.65-1.286.933-1.81-3.65a.288.288 0 0 0-.385-.131.283.283 0 0 0-.131.381Z" fill="#152533"/><path d="M42.543 99.873a.956.956 0 0 0-.782-.32c-.31.014-.619.133-.924.354a1.81 1.81 0 0 0-.507.534c-.114.192-.171.386-.173.58 0 .193.059.37.175.531a.762.762 0 0 0 .349.277c.135.048.276.067.425.057.147-.012.291-.038.433-.078a4.77 4.77 0 0 0 .377-.127l.613-.234c.156-.061.337-.12.542-.176.207-.057.422-.087.646-.089.225-.005.445.039.66.131.215.092.408.256.58.492.198.273.306.571.323.894.018.322-.061.647-.24.975-.176.326-.458.63-.846.911-.361.262-.716.431-1.065.506a1.85 1.85 0 0 1-.975-.036 1.723 1.723 0 0 1-.782-.542l.63-.458a.98.98 0 0 0 .536.333c.203.041.413.029.63-.035.216-.068.425-.174.625-.319.233-.17.415-.359.546-.569a1.33 1.33 0 0 0 .208-.64.938.938 0 0 0-.188-.601.732.732 0 0 0-.438-.306 1.279 1.279 0 0 0-.555.012 4.69 4.69 0 0 0-.62.187l-.75.273c-.477.173-.906.238-1.289.195-.382-.043-.697-.235-.944-.574a1.514 1.514 0 0 1-.308-.905c0-.324.088-.638.263-.943.175-.307.423-.578.745-.811.325-.237.656-.388.994-.455.336-.069.651-.057.944.036.296.092.54.262.733.51l-.591.43Z" fill="#fff"/><path d="M49.726 103.727a6.127 6.127 0 0 0-.674-.355c-.55-.254-1.195-.438-1.936-.556a14.844 14.844 0 0 0-1.304-.125c-.524-.031-.933-.087-1.216-.159-.787-.202-1.317-.532-1.638-.973-.218-.299-.325-.571-.349-.822-.022-.313.054-.484.29-.665.248-.176.434-.21.633-.164.326.082.671.303 1.027.699l.211.096.212-.089 1.404-1.47.01-.388c-.42-.484-.89-.854-1.41-1.099a3.623 3.623 0 0 0-.405-.163.29.29 0 0 0-.182.548l.34.138c.438.206.845.522 1.219.954l.218-.187-.21-.2-1.403 1.47.209.199.212-.194c-.405-.45-.842-.753-1.316-.872-.378-.096-.774.007-1.112.256-.385.27-.58.714-.524 1.184.034.377.194.749.455 1.107.422.578 1.092.972 1.962 1.192.343.088.78.145 1.325.177.623.042 1.05.084 1.244.118.707.113 1.302.283 1.793.51.236.109.44.218.612.323.136.083.312.04.395-.094a.287.287 0 0 0-.092-.396Zm-1.896 1.976c.403.157.692.372.892.647.214.296.306.539.316.711.021.448-.095.719-.378.947l.178.227-.169-.232-.038.029c-.178.125-.374.167-.663.114-.394-.074-.87-.377-1.393-.954l-.4-.027-1.525 1.282a.29.29 0 0 0-.036.405c.486.591 1.022 1.056 1.605 1.384.583.33 1.186.501 1.798.506.743.015 1.475-.25 2.174-.758.376-.272.68-.561.91-.869.092-.123.176-.249.25-.379a.288.288 0 0 0-.109-.392.285.285 0 0 0-.39.109l-.213.319c-.185.25-.447.499-.786.746-.625.451-1.226.658-1.829.649-.508-.005-1.011-.145-1.523-.432-.51-.288-.994-.7-1.444-1.25l-.222.184.186.221 1.525-1.284-.185-.22-.213.192c.569.624 1.126 1.016 1.71 1.132.397.08.795.02 1.11-.212l.039-.029.007-.005c.438-.334.645-.855.597-1.435-.018-.332-.17-.666-.423-1.014-.274-.378-.666-.661-1.147-.848a.29.29 0 0 0-.374.162.29.29 0 0 0 .163.374Z" fill="#152533"/><path d="m47.174 95.537-.394-.542 3.783-2.746.393.542-1.586 1.151 3.273 4.499-.611.443-3.272-4.499-1.586 1.151Z" fill="#fff"/><path d="m51.455 97.663 5.16 7.094.188.115.214-.051 1.69-1.226.115-.189-.05-.212-6.738-9.265 1.502-1.088a.285.285 0 0 0 .063-.401.287.287 0 0 0-.4-.062l-1.735 1.257-.114.187.05.214 6.738 9.261-1.224.889-4.99-6.863a.29.29 0 0 0-.47.34Z" fill="#152533"/><path d="m58.62 94.104-3.665-5.04 1.704-1.237c.394-.286.766-.454 1.117-.503.35-.05.67-.003.96.142.292.145.545.365.761.662.216.297.347.605.393.923.045.317-.01.633-.166.947-.157.312-.43.61-.821.893l-1.38 1.001-.4-.551 1.36-.987c.268-.195.456-.392.563-.59a.922.922 0 0 0 .117-.596c-.031-.2-.12-.402-.267-.604a1.447 1.447 0 0 0-.498-.446.956.956 0 0 0-.616-.087c-.227.037-.476.154-.749.352l-1.074.78 3.272 4.498-.61.443Zm.728-3.987 2.888 1.363-.71.515-2.868-1.378.69-.5Z" fill="#fff"/><path d="m61.628 90.638-.234.17c.154.213.203.42.167.68a.85.85 0 0 1-.36.593l-.786.57-2.266-3.12.786-.569c.585-.37.824-.334 1.271.21l1.19 1.635.232-.169.234-.17-1.19-1.635c-.26-.36-.58-.61-.96-.67-.378-.063-.759.072-1.117.333l-1.018.74-.115.187.053.214 2.606 3.581.187.114.214-.05 1.019-.74c.325-.233.536-.578.592-.973a1.464 1.464 0 0 0-.269-1.103l-.236.172Zm-7.06-1.496 8.14 11.193.188.114.214-.053 1.69-1.226.115-.187-.05-.214-.026-.034a.289.289 0 0 0-.467.34l.025.033.233-.168-.17-.234-1.457 1.057-7.97-10.96a.288.288 0 0 0-.404-.064.292.292 0 0 0-.062.403Zm12.851 5.547-3.428-2.837-.184.221.282.058c.221-1.05.014-2.042-.607-2.891L62.3 87.614c-.614-.845-1.322-1.391-2.125-1.582-.922-.225-1.897.062-2.876.775l-1.106.804a.285.285 0 0 0-.064.4.29.29 0 0 0 .403.066l1.106-.806c.905-.65 1.69-.852 2.403-.682.632.153 1.23.588 1.794 1.363l1.182 1.627c.529.733.696 1.518.509 2.436l.098.28 3.428 2.839a.288.288 0 0 0 .405-.038.292.292 0 0 0-.038-.407Z" fill="#152533"/><path d="M68.959 82.626c.386.531.625 1.06.714 1.587a2.67 2.67 0 0 1-.139 1.47 2.61 2.61 0 0 1-.919 1.148c-.43.312-.889.485-1.376.518a2.677 2.677 0 0 1-1.442-.322c-.474-.248-.904-.638-1.291-1.17-.387-.53-.625-1.06-.714-1.587a2.67 2.67 0 0 1 .139-1.47 2.61 2.61 0 0 1 .918-1.147c.43-.313.89-.485 1.377-.518.488-.033.969.074 1.442.322.474.248.904.637 1.29 1.169Zm-.591.429c-.318-.437-.659-.752-1.023-.946a1.965 1.965 0 0 0-1.085-.255c-.358.025-.69.148-.995.37-.306.221-.526.5-.662.833-.134.333-.165.703-.093 1.11.074.404.27.825.587 1.262.318.436.658.752 1.02.947.365.195.727.28 1.085.255.36-.026.693-.15.998-.371.306-.222.525-.5.66-.832.135-.334.166-.704.092-1.11-.072-.405-.267-.827-.584-1.263Z" fill="#fff"/><path d="M72.535 89.287a.856.856 0 0 1 .163.673.87.87 0 0 1-.365.591.882.882 0 0 1-.683.165.852.852 0 0 1-.592-.359l-4.456-6.128a.848.848 0 0 1-.16-.675.882.882 0 0 1 .369-.595.868.868 0 0 1 .673-.165.855.855 0 0 1 .59.365l.507.697a.288.288 0 1 0 .465-.34l-.506-.696a1.445 1.445 0 0 0-.968-.595 1.448 1.448 0 0 0-1.104.266 1.464 1.464 0 0 0-.6.965 1.43 1.43 0 0 0 .264 1.109l4.456 6.128c.233.325.578.535.973.59.393.06.783-.033 1.105-.27.325-.233.534-.576.593-.966a1.438 1.438 0 0 0-.267-1.101.287.287 0 0 0-.403-.064.297.297 0 0 0-.054.405Zm-5.837-9.134c-.496.1-.964.312-1.4.628a3.473 3.473 0 0 0-1.433 2.338 3.48 3.48 0 0 0 .645 2.685l4.444 6.11a3.496 3.496 0 0 0 2.34 1.442 3.472 3.472 0 0 0 2.683-.64c.176-.13.34-.269.486-.42l-.003-.406-.407.004a3.314 3.314 0 0 1-.414.353c-.692.5-1.42.674-2.252.541a2.92 2.92 0 0 1-1.968-1.213l-4.444-6.11c-.5-.693-.676-1.423-.541-2.255.138-.837.526-1.471 1.202-1.965a2.99 2.99 0 0 1 1.177-.53.289.289 0 0 0 .225-.339.289.289 0 0 0-.34-.223Z" fill="#152533"/><path d="m74.962 74.412 3.666 5.04-.591.43-5.627-1.963-.05.035 2.879 3.958-.611.443-3.666-5.04.591-.43 5.644 1.966.05-.036-2.886-3.967.6-.436Z" fill="#fff"/><path d="m78.985 80.133-5.925-4.53-.345-.003-1.898 1.377-.114.186.052.214 8.149 11.203.187.114.214-.051 1.69-1.226.117-.189-.051-.214-.018-.025a.287.287 0 0 0-.403-.064.287.287 0 0 0-.064.403l.018.025.235-.169-.171-.234-1.457 1.058-7.808-10.736 1.489-1.081 5.755 4.4a.289.289 0 0 0 .403-.053.29.29 0 0 0-.055-.405Zm2.221 4.309 1.775 1.29h.337l1.816-1.318.115-.188-.051-.214-6.785-9.33a.29.29 0 0 0-.403-.064.287.287 0 0 0-.064.401l6.616 9.096-1.413 1.025-1.605-1.166a.288.288 0 0 0-.403.063.291.291 0 0 0 .065.404Z" fill="#152533"/><path d="m83.339 76.033-.64.465-1.815-6.385.63-.457 5.519 3.696-.64.465-4.594-3.15-.04.03 1.58 5.336Zm-1.196-2.14 2.581-1.874.394.542-2.581 1.873-.394-.541Z" fill="#fff"/><path d="m88.258 75.351-.169-.234-.983.713-1.476-2.78 2.42 2.5.208-.199.207-.201-3.836-3.959-.375-.032a.288.288 0 0 0-.086.368l2.584 4.867.191.147.234-.047 1.251-.909.119-.209-.08-.225-.21.2Zm-2.839 3.058 1.962 3.957.19.153.238-.046 1.76-1.277a.29.29 0 0 0 .087-.365l-1.351-2.652 1.366-.992 2.093 2.113.375.031 1.778-1.29.117-.21-.085-.229-7.536-7.394-.407.004.005.406 7.292 7.155-1.302.945-2.09-2.11-.375-.03-1.765 1.28a.286.286 0 0 0-.087.363l1.35 2.652-1.287.932-1.81-3.65a.288.288 0 0 0-.518.254Z" fill="#152533"/><path d="m91.513 62.524.61-.443 2.428 3.337c.25.344.393.711.427 1.1.035.386-.037.763-.218 1.132-.182.368-.47.695-.866.982-.396.288-.797.46-1.203.52-.407.057-.79.01-1.148-.14a2.193 2.193 0 0 1-.913-.748l-2.427-3.337.61-.444 2.392 3.288c.18.246.393.426.64.54.248.111.511.15.791.114.281-.039.562-.16.843-.364.28-.203.482-.433.605-.688.122-.256.168-.518.136-.786a1.624 1.624 0 0 0-.316-.775l-2.391-3.288Z" fill="#fff"/><path d="M100.556 72.136c.167-.961-.055-1.877-.641-2.68L93.62 60.8l-.19-.116-.214.05-1.761 1.28-.117.188.053.215.284.39a.29.29 0 0 0 .403.061.287.287 0 0 0 .063-.4l-.116-.159 1.295-.94 6.127 8.425c.503.697.677 1.425.54 2.246a.285.285 0 0 0 .234.332.287.287 0 0 0 .334-.236Zm-5.537-1.634-5.101-7.015-.19-.116-.213.05-1.655 1.202-.114.188.052.214 3.09 4.247a.289.289 0 0 0 .467-.34l-2.923-4.014 1.188-.863 4.934 6.783a.288.288 0 0 0 .403.063.284.284 0 0 0 .062-.399Z" fill="#152533"/><path d="m96.087 59.918-.394-.541 3.783-2.746.394.541-1.586 1.152 3.272 4.498-.611.444-3.272-4.5-1.586 1.152Z" fill="#fff"/><path d="m100.539 62.04 5.161 7.096.188.114.214-.05 1.69-1.227.115-.189-.051-.212-6.737-9.263 1.5-1.088a.285.285 0 0 0 .063-.4.286.286 0 0 0-.401-.064l-1.734 1.257-.117.187.053.214 6.736 9.26-1.224.89-4.993-6.863a.29.29 0 0 0-.403-.064.29.29 0 0 0-.06.401Z" fill="#152533"/><path d="m173.588 60.531-.642-.462 5.505-3.716.632.455-1.791 6.391-.642-.462 1.56-5.343-.04-.028-4.582 3.165Zm1.662-1.803 2.588 1.864-.392.543-2.587-1.864.391-.543Z" fill="#fff"/><path d="m175.569 64.982.169-.234-.986-.712 2.181-2.267-1.618 3.077.254.136.254.132 2.566-4.876a.288.288 0 0 0-.085-.367l-.378.035-3.822 3.97-.078.226.118.209 1.255.905.236.045.188-.147-.254-.132Zm-3.799-1.736-3.149 3.098-.085.227.12.212 1.765 1.272.37-.031 2.1-2.108 1.369.987-1.351 2.645a.285.285 0 0 0 .089.364l1.781 1.285.238.045.189-.152 4.678-9.463a.29.29 0 0 0-.131-.384.286.286 0 0 0-.385.13l-4.527 9.156-1.304-.938 1.355-2.645a.29.29 0 0 0-.089-.364l-1.769-1.274-.374.03-2.099 2.107-1.291-.93 2.907-2.856.004-.406-.411-.007Z" fill="#152533"/><path d="m183.754 67.858-1.56-1.124 3.648-5.053 1.629 1.174c.491.353.838.757 1.041 1.21.204.453.263.934.177 1.445-.085.509-.316 1.025-.694 1.548-.38.526-.8.912-1.262 1.157a2.477 2.477 0 0 1-1.451.283c-.505-.056-1.014-.27-1.528-.64Zm-.556-1.226.909.655c.418.301.823.47 1.214.507.391.037.762-.045 1.112-.245.35-.2.673-.507.97-.918.294-.408.481-.807.56-1.198a1.804 1.804 0 0 0-.106-1.111c-.149-.35-.422-.668-.817-.953l-.978-.704-2.864 3.967Z" fill="#fff"/><path d="m186.024 64.851 1.022.737a.833.833 0 0 1 .353.582.873.873 0 0 1-.164.682l-4.24 5.874a.902.902 0 0 1-.59.37.833.833 0 0 1-.67-.149l-.79-.57 1.269-1.755a.287.287 0 1 0-.467-.336l-1.438 1.99-.051.214.116.189 1.023.736c.323.236.719.325 1.113.249.389-.07.725-.281.953-.6l4.241-5.874c.234-.322.33-.712.265-1.107a1.404 1.404 0 0 0-.585-.962l-1.022-.736a.288.288 0 0 0-.338.466Zm-.211 8.427 3.558-4.928a3.492 3.492 0 0 0 .641-2.659 3.43 3.43 0 0 0-1.435-2.338l-2.664-1.92-.214-.05-.189.116-4.395 6.086a.287.287 0 0 0 .066.403.29.29 0 0 0 .403-.066l4.224-5.854 2.43 1.75c.682.496 1.069 1.127 1.202 1.958.123.831-.051 1.555-.538 2.237l-3.557 4.927a.287.287 0 0 0 .065.403.29.29 0 0 0 .403-.065Z" fill="#152533"/><path d="m193.761 67.451-1.569 5.336.059.042 4.572-3.172.642.462-5.505 3.716-.632-.455 1.791-6.391.642.462Z" fill="#fff"/><path d="m189.927 81.813 10.146-9.75.087-.226-.118-.214-1.546-1.112a.288.288 0 1 0-.337.468l1.263.909-9.895 9.51-.009.408.409.007Zm2.822-7.632 2.771-5.515a.29.29 0 0 0-.089-.363l-1.776-1.279-.24-.045-.191.154-3.297 6.856a.287.287 0 1 0 .519.25l3.149-6.547 1.297.934-2.661 5.297a.287.287 0 0 0 .129.387.288.288 0 0 0 .389-.129Z" fill="#152533"/><path d="m198.94 78.907 3.648-5.053 3.052 2.198-.392.543-2.44-1.758-1.232 1.708 2.281 1.644-.391.542-2.282-1.643-1.24 1.717 2.479 1.786-.391.543-3.092-2.227Z" fill="#fff"/><path d="m199.506 88.65 1.228-1.702.05-.213-.114-.187-2.898-2.088 1.874-2.596 2.056 1.48.212.049.189-.116 1.228-1.702.049-.214-.115-.187-1.075-.774a.289.289 0 0 0-.338.468l.841.604-.892 1.235-2.05-1.476-.214-.051-.189.116-2.21 3.062-.051.214.116.187 2.895 2.084-1.059 1.468a.288.288 0 0 0 .066.403.286.286 0 0 0 .401-.064Zm4.19-14.407-.972-.699-.214-.05-.189.115-8.107 11.232-.051.214.117.188.748.54a.288.288 0 0 0 .338-.467l-.516-.372 7.77-10.763.74.532a.288.288 0 0 0 .401-.066.294.294 0 0 0-.065-.404Z" fill="#152533"/><path d="m213.894 81.921-3.647 5.053-.593-.426.108-5.953-.049-.036-2.864 3.968-.613-.441 3.648-5.054.593.427-.106 5.97.05.036 2.871-3.978.602.434Z" fill="#fff"/><path d="m209.525 87.506 2.459-7.035a.29.29 0 0 0-.104-.329l-1.903-1.371-.216-.051-.187.114-8.109 11.231-.052.216.118.189 1.694 1.22.214.05.188-.116.018-.026a.287.287 0 1 0-.465-.336l-.018.022.234.17.169-.235-1.464-1.054 7.771-10.763 1.494 1.076-2.384 6.834a.287.287 0 0 0 .178.368.281.281 0 0 0 .365-.174Zm-3.4 3.454-.672 2.086.106.323 1.821 1.311.213.051.189-.116 6.751-9.352a.288.288 0 0 0-.468-.336l-6.583 9.12-1.418-1.023.608-1.885a.288.288 0 0 0-.185-.36.283.283 0 0 0-.362.18Z" fill="#152533"/><path d="m217.626 85.554.391-.543 3.793 2.732-.392.543-1.59-1.145-3.256 4.51-.612-.44 3.256-4.511-1.59-1.146Z" fill="#fff"/><path d="m216.88 90.352-5.136 7.115-.049.214.116.187 1.695 1.22.214.051.187-.116 6.705-9.286 1.505 1.085a.288.288 0 0 0 .401-.067.288.288 0 0 0-.063-.401l-1.738-1.252-.214-.05-.189.115-6.705 9.287-1.228-.884 4.969-6.88a.287.287 0 0 0-.065-.402.29.29 0 0 0-.405.064Z" fill="#152533"/><path d="m229.563 93.247.612.441-2.415 3.346c-.25.345-.554.595-.913.75a2.112 2.112 0 0 1-1.145.146c-.406-.058-.808-.23-1.205-.516-.396-.285-.686-.612-.869-.978a2.125 2.125 0 0 1-.225-1.134c.034-.388.176-.754.426-1.1l2.415-3.346.612.442-2.379 3.296a1.623 1.623 0 0 0-.313.776c-.029.27.017.531.138.786.124.255.327.483.609.686.281.203.562.323.843.36.282.036.546-.003.79-.117.248-.114.461-.295.639-.541l2.38-3.297Z" fill="#fff"/><path d="M223.167 104.97c.968-.142 1.77-.639 2.351-1.446l6.266-8.677.05-.214-.116-.189-1.767-1.271-.214-.051-.189.116-.281.39a.285.285 0 0 0 .065.403.29.29 0 0 0 .403-.066l.115-.157 1.298.936-6.096 8.444c-.507.697-1.143 1.089-1.967 1.216a.287.287 0 0 0-.243.326c.021.156.17.265.325.24Zm-.171-5.764 5.077-7.033.051-.214-.114-.187-1.66-1.195-.216-.051-.187.116-3.073 4.256a.286.286 0 0 0 .066.403.29.29 0 0 0 .403-.066l2.904-4.023 1.191.858-4.909 6.8a.29.29 0 0 0 .066.403.286.286 0 0 0 .401-.067Z" fill="#152533"/><path d="m230.733 101.766 3.648-5.053 1.709 1.23c.395.285.67.586.826.904.158.316.213.634.166.956-.047.321-.177.63-.392.928a2.066 2.066 0 0 1-.755.661 1.598 1.598 0 0 1-.952.139c-.346-.052-.715-.219-1.106-.501l-1.383-.996.399-.553 1.363.982c.27.195.516.312.737.351a.92.92 0 0 0 .603-.076c.181-.092.345-.239.491-.441.146-.202.236-.406.27-.612a.956.956 0 0 0-.111-.612c-.105-.204-.295-.404-.568-.6l-1.077-.776-3.256 4.51-.612-.441Zm4.019-.555-.394 3.166-.711-.512.414-3.152.691.498Z" fill="#fff"/><path d="m234.864 103.667-.235-.169a.876.876 0 0 1-.595.371.85.85 0 0 1-.674-.156l-.79-.57 2.255-3.124.79.57c.534.437.572.678.198 1.271l-1.184 1.638.235.169.232.169 1.182-1.638c.262-.359.396-.742.338-1.12-.058-.379-.305-.698-.665-.956l-1.022-.736-.214-.05-.189.115-2.593 3.59-.051.214.116.189 1.022.737c.322.235.714.326 1.108.257a1.45 1.45 0 0 0 .966-.602l-.23-.169Zm-.783-7.167-8.101 11.222-.049.214.116.188 1.694 1.221.214.049.188-.116.023-.034a.284.284 0 0 0-.065-.399.287.287 0 0 0-.402.063l-.025.033.234.168.169-.234-1.464-1.054 7.935-10.988a.288.288 0 0 0-.066-.4.291.291 0 0 0-.401.067Zm-1.262 13.932 1.629-4.144-.269-.105.033.287c1.067-.118 1.946-.624 2.56-1.48l1.177-1.629c.61-.848.91-1.689.841-2.511-.077-.945-.652-1.783-1.636-2.487l-1.108-.799a.289.289 0 0 0-.338.468l1.108.797c.904.655 1.338 1.335 1.398 2.068.053.646-.176 1.348-.735 2.126l-1.177 1.629c-.534.733-1.23 1.136-2.159 1.246l-.236.182-1.629 4.143a.286.286 0 0 0 .161.372.293.293 0 0 0 .38-.163Z" fill="#152533"/><path d="m239.068 107.884 3.648-5.053 3.052 2.198-.392.543-2.44-1.758-1.232 1.708 2.281 1.644-.392.542-2.281-1.643-1.24 1.717 2.479 1.786-.392.543-3.091-2.227Z" fill="#fff"/><path d="m239.672 117.587 1.228-1.702.053-.214-.117-.187-2.894-2.086 1.874-2.596 2.052 1.479.214.049.187-.117 1.228-1.701.051-.214-.117-.187-1.075-.775a.288.288 0 1 0-.337.468l.84.604-.891 1.236-2.051-1.477-.214-.051-.189.116-2.212 3.063-.05.214.116.188 2.893 2.085-1.059 1.469a.285.285 0 0 0 .065.401.29.29 0 0 0 .405-.065Zm4.19-14.41-.97-.698-.214-.051-.187.116-8.107 11.231-.051.214.117.187.748.539a.287.287 0 0 0 .401-.065.29.29 0 0 0-.064-.403l-.515-.37 7.77-10.763.738.531a.287.287 0 0 0 .401-.065.294.294 0 0 0-.067-.403Z" fill="#152533"/><path d="M275.417 102.109c.283.435.55.883.795 1.34l.004-.001a.337.337 0 0 1 .455.145 19.024 19.024 0 0 1 1.484 3.851.34.34 0 0 1-.24.414h-.003c.269 1.092.437 2.211.503 3.345h.016c.182 0 .331.143.338.325.009.228.013.457.013.687v.004l-.002.341v.005l-.066 3.048a.336.336 0 0 1-.337.33h-.008l-.072 3.385a.336.336 0 0 1 .33.345l-.087 4.062a.337.337 0 0 1-.338.33h-.007l-.073 3.387a.336.336 0 0 1 .331.344l-.087 4.062a.339.339 0 0 1-.338.33h-.007l-.073 3.385a.338.338 0 0 1 .331.345l-.088 4.062a.336.336 0 0 1-.337.33h-.008l-.072 3.387a.336.336 0 0 1 .33.345l-.087 4.061a.337.337 0 0 1-.338.331h-.007a18.928 18.928 0 0 1-.398 3.359h.004a.338.338 0 0 1 .254.405 19.23 19.23 0 0 1-.436 1.591l-.755 2.324a.34.34 0 0 1-.427.217l-1.048 3.22a.34.34 0 0 1 .218.427l-1.256 3.864a.341.341 0 0 1-.427.217l-1.048 3.222a.338.338 0 0 1 .218.426l-1.257 3.864a.338.338 0 0 1-.427.218l-1.047 3.222a.34.34 0 0 1 .218.426l-1.257 3.864a.339.339 0 0 1-.427.218l-1.048 3.222a.339.339 0 0 1 .218.426l-1.256 3.864a.337.337 0 0 1-.427.218l-1.048 3.22a.34.34 0 0 1 .218.426l-1.257 3.864a.338.338 0 0 1-.427.218l-1.047 3.222a.34.34 0 0 1 .218.426l-1.257 3.864a.34.34 0 0 1-.427.218l-1.048 3.222a.34.34 0 0 1 .218.426l-1.257 3.864a.339.339 0 0 1-.426.218l-1.048 3.22a.338.338 0 0 1 .218.426l-1.257 3.864a.338.338 0 0 1-.427.218l-1.047 3.221a.34.34 0 0 1 .217.427l-1.256 3.864a.34.34 0 0 1-.427.217l-1.048 3.222a.34.34 0 0 1 .218.427l-1.257 3.864a.339.339 0 0 1-.424.217l-1.048 3.222a.34.34 0 0 1 .218.426l-1.257 3.864a.34.34 0 0 1-.427.218l-1.048 3.222a.34.34 0 0 1 .218.426l-1.256 3.864a.34.34 0 0 1-.427.218l-1.048 3.22a.34.34 0 0 1 .218.426l-1.257 3.864a.338.338 0 0 1-.427.218l-1.047 3.222a.34.34 0 0 1 .218.426l-1.257 3.864a.339.339 0 0 1-.427.218l-1.048 3.222a.339.339 0 0 1 .218.426l-1.256 3.864a.341.341 0 0 1-.425.218l-1.048 3.22a.34.34 0 0 1 .218.426l-1.257 3.864a.34.34 0 0 1-.427.218l-1.048 3.222a.339.339 0 0 1 .218.426l-1.256 3.864a.341.341 0 0 1-.427.218l-1.048 3.221a.341.341 0 0 1 .218.427l-.977 3a17.26 17.26 0 0 1-.307.871.34.34 0 0 1-.436.196s-.002 0-.002-.002a18.32 18.32 0 0 1-1.536 3.013.339.339 0 0 1 .1.47 18.651 18.651 0 0 1-2.639 3.179.336.336 0 0 1-.477-.01l-.002-.001a19 19 0 0 1-2.679 2.069l.002.002a.339.339 0 0 1-.111.465 18.842 18.842 0 0 1-3.741 1.758.337.337 0 0 1-.428-.211c0-.002 0-.002-.002-.003-1.812.58-3.717.878-5.666.878h-5.806c0 .186-.15.337-.337.337h-4.068a.337.337 0 0 1-.338-.337h-3.391c0 .186-.15.337-.337.337h-4.068a.337.337 0 0 1-.338-.337h-3.39a.337.337 0 0 1-.338.337h-4.068a.337.337 0 0 1-.338-.337h-3.39a.337.337 0 0 1-.338.337h-4.068a.337.337 0 0 1-.338-.337h-3.39a.337.337 0 0 1-.338.337h-4.068a.337.337 0 0 1-.338-.337h-3.39a.337.337 0 0 1-.338.337h-4.068a.337.337 0 0 1-.337-.337h-3.391a.337.337 0 0 1-.338.337h-4.067a.337.337 0 0 1-.338-.337h-3.391c0 .186-.15.337-.337.337h-4.068a.337.337 0 0 1-.338-.337h-3.391c0 .186-.15.337-.337.337h-4.068a.337.337 0 0 1-.338-.337h-3.39a.337.337 0 0 1-.338.337h-4.068a.337.337 0 0 1-.338-.337h-3.39a.337.337 0 0 1-.338.337h-4.068a.337.337 0 0 1-.338-.337h-3.39a.337.337 0 0 1-.338.337h-4.068a.337.337 0 0 1-.338-.337h-3.39a.337.337 0 0 1-.338.337h-4.068a.337.337 0 0 1-.337-.337h-3.391a.337.337 0 0 1-.338.337h-4.067a.337.337 0 0 1-.338-.337h-3.39c0 .186-.152.337-.339.337h-4.067a.337.337 0 0 1-.338-.337h-3.39c0 .186-.151.337-.338.337H81.24a.337.337 0 0 1-.338-.337h-3.39c0 .186-.151.337-.338.337h-4.068a.337.337 0 0 1-.338-.337h-3.39c0 .186-.151.337-.338.337h-3.518c-.187 0-.372-.002-.559-.007a.34.34 0 0 1-.329-.349v-.003a18.632 18.632 0 0 1-3.352-.463v.004a.34.34 0 0 1-.412.245 18.661 18.661 0 0 1-3.87-1.45.336.336 0 0 1-.15-.453s.003-.002.003-.004a18.693 18.693 0 0 1-1.226-.711 18.38 18.38 0 0 0 4.772 5.085 18.414 18.414 0 0 0 10.887 3.527h147.941c3.944 0 7.707-1.22 10.881-3.527a18.362 18.362 0 0 0 6.721-9.252l45.718-140.561c.547-1.691.857-3.523.899-5.308l.768-35.821.002-.341c-.006-5.689-2.695-11.161-7.202-14.642l-1.598-1.248Z" fill="#B6B5BF"/><path d="M271.242 97.575 150.786 4.71A18.64 18.64 0 0 0 139.476.86a18.659 18.659 0 0 0-11.353 3.89L8.437 97.611a18.572 18.572 0 0 0-7.155 14.605v35.776c.004 1.935.307 3.853.907 5.707l45.715 140.55a18.374 18.374 0 0 0 6.722 9.252 18.407 18.407 0 0 0 10.887 3.527h147.94c3.944 0 7.707-1.219 10.881-3.527a18.356 18.356 0 0 0 6.721-9.252l45.718-140.561c.545-1.691.857-3.523.899-5.308l.768-35.821.004-.341c-.006-5.691-2.695-11.162-7.202-14.644Z" fill="#fff"/><path d="M211.464 307.367h1.987c.694 0 1.382-.036 2.063-.111a.339.339 0 0 0-.073-.672c-.655.071-1.32.107-1.99.107h-1.987a.337.337 0 0 0-.337.338c0 .187.15.338.337.338ZM203.24 307.366h4.068a.337.337 0 1 0 0-.675h-4.068a.338.338 0 1 0 0 .675Zm-8.134 0h4.068a.337.337 0 1 0 0-.675h-4.068a.338.338 0 1 0 0 .675Zm-8.134 0h4.068a.337.337 0 1 0 0-.675h-4.068a.338.338 0 1 0 0 .675Zm-8.134 0h4.068a.337.337 0 1 0 0-.675h-4.068a.338.338 0 1 0 0 .675Zm-8.134 0h4.068a.337.337 0 1 0 0-.675h-4.068a.338.338 0 1 0 0 .675Zm-8.134 0h4.068a.337.337 0 1 0 0-.675h-4.068a.337.337 0 1 0 0 .675Zm-8.133 0h4.067a.337.337 0 1 0 0-.675h-4.067a.337.337 0 1 0 0 .675Zm-8.134 0h4.067a.337.337 0 1 0 0-.675h-4.067a.338.338 0 1 0 0 .675Zm-8.136 0h4.068a.337.337 0 1 0 0-.675h-4.068a.338.338 0 1 0 0 .675Zm-8.134 0h4.068a.337.337 0 1 0 0-.675h-4.068a.338.338 0 1 0 0 .675Zm-8.134 0h4.068a.337.337 0 1 0 0-.675h-4.068a.338.338 0 1 0 0 .675Zm-8.134 0h4.068a.337.337 0 1 0 0-.675h-4.068a.337.337 0 1 0 0 .675Zm-8.133 0h4.067a.337.337 0 1 0 0-.675h-4.067a.337.337 0 1 0 0 .675Zm-8.134 0h4.067a.337.337 0 1 0 0-.675h-4.067a.337.337 0 1 0 0 .675Zm-8.134 0h4.068a.337.337 0 1 0 0-.675h-4.068a.337.337 0 1 0 0 .675Zm-8.134 0h4.068a.337.337 0 1 0 0-.675H81.23a.337.337 0 1 0 0 .675Zm-8.134 0h4.068a.337.337 0 1 0 0-.675h-4.068a.337.337 0 1 0 0 .675Zm-8.145-.009c.186.006.373.007.56.007h3.517a.336.336 0 1 0 0-.674h-3.517c-.18 0-.36-.004-.54-.008a.34.34 0 0 0-.348.329.339.339 0 0 0 .328.346Zm-7.963-2.015a18.601 18.601 0 0 0 3.87 1.449.337.337 0 1 0 .165-.655 17.903 17.903 0 0 1-3.73-1.397.339.339 0 0 0-.456.149.342.342 0 0 0 .151.454Zm-6.345-5.212a18.647 18.647 0 0 0 2.888 2.955.338.338 0 0 0 .428-.522 17.993 17.993 0 0 1-2.782-2.849.338.338 0 0 0-.534.416Zm-3.58-7.369.518 1.591c.253.776.552 1.531.895 2.26a.338.338 0 0 0 .613-.288 18.238 18.238 0 0 1-.865-2.181l-.517-1.591a.338.338 0 1 0-.643.209Zm-2.513-7.728 1.257 3.864a.34.34 0 0 0 .427.218.34.34 0 0 0 .218-.427l-1.257-3.864a.34.34 0 0 0-.427-.217.338.338 0 0 0-.218.426Zm-2.513-7.728 1.257 3.864a.34.34 0 0 0 .426.218.34.34 0 0 0 .218-.427l-1.256-3.864a.34.34 0 0 0-.427-.217.338.338 0 0 0-.218.426Zm-2.513-7.728 1.256 3.864a.34.34 0 0 0 .427.218.34.34 0 0 0 .218-.427l-1.257-3.864a.338.338 0 0 0-.644.209Zm-2.514-7.728 1.257 3.864a.34.34 0 0 0 .427.218.34.34 0 0 0 .218-.427l-1.257-3.864a.34.34 0 0 0-.645.209Zm-2.513-7.726 1.257 3.864a.34.34 0 0 0 .645-.209l-1.257-3.864a.34.34 0 0 0-.427-.218.337.337 0 0 0-.218.427Zm-2.513-7.728 1.256 3.864a.34.34 0 0 0 .645-.209l-1.257-3.864a.339.339 0 1 0-.645.209Zm-2.514-7.728 1.257 3.864a.34.34 0 0 0 .645-.209l-1.257-3.864a.34.34 0 0 0-.427-.218.338.338 0 0 0-.218.427Zm-2.515-7.728 1.257 3.864a.34.34 0 0 0 .645-.209L27.6 230.73a.34.34 0 0 0-.427-.218.34.34 0 0 0-.218.427Zm-2.513-7.729 1.256 3.865a.338.338 0 0 0 .645-.209l-1.257-3.864a.34.34 0 0 0-.426-.218.34.34 0 0 0-.218.426Zm-2.514-7.728 1.257 3.864a.34.34 0 0 0 .645-.208l-1.257-3.864a.338.338 0 1 0-.645.208Zm-2.513-7.728 1.257 3.864a.34.34 0 0 0 .645-.208l-1.257-3.864a.34.34 0 0 0-.427-.218.337.337 0 0 0-.218.426Zm-2.513-7.728 1.256 3.864a.34.34 0 0 0 .645-.208l-1.257-3.864a.34.34 0 0 0-.426-.218.337.337 0 0 0-.218.426Zm-2.514-7.726 1.257 3.864a.339.339 0 0 0 .645-.208l-1.257-3.864a.34.34 0 0 0-.427-.218.337.337 0 0 0-.218.426Zm-2.513-7.728 1.257 3.864a.34.34 0 0 0 .427.218.34.34 0 0 0 .217-.426l-1.256-3.865a.34.34 0 0 0-.427-.217.338.338 0 0 0-.218.426Zm-2.513-7.728 1.256 3.864a.34.34 0 0 0 .645-.209l-1.257-3.864a.34.34 0 0 0-.426-.217.337.337 0 0 0-.218.426Zm-2.514-7.728 1.257 3.864a.34.34 0 0 0 .427.218.34.34 0 0 0 .218-.427l-1.257-3.864a.34.34 0 0 0-.645.209Zm-2.513-7.728 1.257 3.864a.34.34 0 0 0 .426.218.34.34 0 0 0 .218-.427l-1.256-3.864a.34.34 0 0 0-.427-.217.337.337 0 0 0-.218.426Zm-2.515-7.732.045.146 1.212 3.722a.34.34 0 0 0 .426.218.34.34 0 0 0 .218-.427l-1.211-3.722-.044-.14a.339.339 0 0 0-.646.203Zm-.875-8.138v2.473c.001.541.025 1.079.072 1.616.017.187.18.323.367.307a.337.337 0 0 0 .307-.367 17.814 17.814 0 0 1-.07-1.558v-2.472a.337.337 0 0 0-.337-.338.34.34 0 0 0-.34.339Zm0-8.125v4.064a.337.337 0 0 0 .675 0v-4.064a.337.337 0 0 0-.338-.337.336.336 0 0 0-.337.337Zm0-8.125v4.063a.337.337 0 1 0 .675 0v-4.063a.337.337 0 1 0-.675 0Zm0-8.127v4.063a.337.337 0 1 0 .675 0v-4.063a.337.337 0 1 0-.675 0Zm0-8.126v4.064c0 .187.15.337.337.337.187 0 .338-.15.338-.337v-4.064a.337.337 0 0 0-.338-.337.336.336 0 0 0-.337.337Zm1.469-8.063a19.013 19.013 0 0 0-1.172 3.958.338.338 0 0 0 .665.12 18.375 18.375 0 0 1 1.13-3.819.339.339 0 0 0-.182-.443.34.34 0 0 0-.441.184Zm4.741-6.703a19.04 19.04 0 0 0-2.738 3.091.339.339 0 0 0 .554.39 18.264 18.264 0 0 1 2.64-2.983.338.338 0 1 0-.456-.498Zm6.41-5.042L10.354 95.7a.338.338 0 0 0 .414.535l3.213-2.493a.338.338 0 0 0 .06-.473.334.334 0 0 0-.474-.062Zm6.424-4.985-3.213 2.493a.34.34 0 0 0 .416.535l3.213-2.493a.34.34 0 0 0-.416-.535Zm6.423-4.985L23.2 85.73a.338.338 0 1 0 .416.533l3.212-2.493a.34.34 0 0 0 .06-.475.342.342 0 0 0-.476-.058Zm6.425-4.983-3.212 2.492a.337.337 0 1 0 .414.534l3.212-2.493a.337.337 0 1 0-.414-.533Zm6.423-4.986-3.212 2.493a.338.338 0 1 0 .414.533l3.212-2.492a.34.34 0 0 0 .06-.476.34.34 0 0 0-.474-.057Zm6.425-4.983-3.212 2.493a.338.338 0 1 0 .414.533l3.212-2.493a.338.338 0 1 0-.414-.533Zm6.423-4.985-3.212 2.493a.338.338 0 0 0 .414.535l3.213-2.493a.338.338 0 0 0-.414-.535Zm6.424-4.983-3.213 2.492a.34.34 0 0 0 .416.535l3.213-2.492a.338.338 0 0 0 .06-.474.337.337 0 0 0-.476-.061Zm6.425-4.985-3.213 2.492a.337.337 0 1 0 .416.534l3.213-2.493a.337.337 0 1 0-.416-.533Zm6.423-4.984-3.213 2.493a.338.338 0 1 0 .416.533l3.213-2.492a.338.338 0 1 0-.416-.534Zm6.425-4.985-3.213 2.493a.338.338 0 1 0 .415.533l3.212-2.492a.338.338 0 1 0-.414-.534Zm6.423-4.983-3.212 2.492a.338.338 0 0 0 .414.535l3.212-2.492a.34.34 0 0 0 .06-.475.335.335 0 0 0-.474-.06Zm6.423-4.985-3.212 2.492a.338.338 0 0 0 .414.535l3.212-2.492a.338.338 0 1 0-.414-.535Zm6.425-4.985-3.212 2.492a.338.338 0 1 0 .414.534l3.212-2.493a.338.338 0 1 0-.414-.533Zm6.424-4.984-3.213 2.493a.338.338 0 0 0 .414.533l3.213-2.492a.339.339 0 0 0 .059-.476.335.335 0 0 0-.473-.058Zm6.425-4.985-3.213 2.493a.338.338 0 1 0 .416.533l3.212-2.492a.336.336 0 0 0 .06-.474.34.34 0 0 0-.475-.06Zm6.423-4.983-3.213 2.492a.339.339 0 0 0 .414.535l3.213-2.492a.34.34 0 0 0 .06-.475.337.337 0 0 0-.474-.06Zm6.423-4.985-3.213 2.492a.338.338 0 0 0 .414.535l3.213-2.492a.338.338 0 0 0-.414-.535Zm6.492-4.944c-.461.298-.911.613-1.347.95l-1.933 1.501a.338.338 0 0 0 .414.533l1.933-1.5c.419-.324.851-.631 1.298-.916a.337.337 0 1 0-.365-.568Zm7.709-2.837a19.17 19.17 0 0 0-4.01.998.338.338 0 0 0 .235.633 18.41 18.41 0 0 1 3.866-.963.34.34 0 0 0 .29-.381.339.339 0 0 0-.381-.287Zm8.185.713a19.009 19.009 0 0 0-4.052-.81.339.339 0 0 0-.06.672c1.328.118 2.641.381 3.908.782a.338.338 0 1 0 .204-.644Zm7.133 4.038-1.297-1a18.692 18.692 0 0 0-2.055-1.374.34.34 0 0 0-.463.123.335.335 0 0 0 .123.46c.688.398 1.349.84 1.981 1.325l1.297 1a.337.337 0 0 0 .414-.534Zm6.44 4.963-3.22-2.481a.337.337 0 0 0-.474.062.335.335 0 0 0 .062.473l3.219 2.482c.149.114.36.087.474-.062a.34.34 0 0 0-.061-.474Zm6.439 4.966-3.22-2.482a.337.337 0 0 0-.474.062.336.336 0 0 0 .062.473l3.22 2.482a.337.337 0 1 0 .412-.535Zm6.438 4.965-3.22-2.482a.337.337 0 1 0-.412.535l3.22 2.482a.337.337 0 0 0 .474-.062.336.336 0 0 0-.062-.473Zm6.439 4.963-3.219-2.481a.337.337 0 0 0-.474.061.335.335 0 0 0 .061.474l3.22 2.481c.149.115.36.087.474-.061a.336.336 0 0 0-.062-.474Zm6.44 4.965-3.22-2.481a.337.337 0 0 0-.474.061.336.336 0 0 0 .062.474l3.22 2.482a.337.337 0 1 0 .412-.536Zm6.439 4.964-3.219-2.482a.337.337 0 0 0-.474.062.336.336 0 0 0 .061.473l3.22 2.482a.337.337 0 1 0 .412-.535Zm6.44 4.965-3.22-2.482a.337.337 0 0 0-.474.062.336.336 0 0 0 .062.473l3.22 2.482a.337.337 0 1 0 .412-.535Zm6.44 4.963-3.22-2.481a.337.337 0 0 0-.474.061.335.335 0 0 0 .062.474l3.219 2.482c.149.114.36.087.474-.062a.339.339 0 0 0-.061-.474Zm6.439 4.966-3.22-2.482a.337.337 0 0 0-.474.062.336.336 0 0 0 .062.473l3.22 2.482a.337.337 0 1 0 .412-.535Zm6.44 4.965-3.22-2.482a.337.337 0 0 0-.474.062.336.336 0 0 0 .062.473l3.219 2.482a.339.339 0 0 0 .413-.535Zm6.439 4.963-3.22-2.482a.337.337 0 1 0-.412.535l3.22 2.482a.337.337 0 1 0 .412-.535Zm6.44 4.965-3.22-2.482a.337.337 0 0 0-.474.062.336.336 0 0 0 .062.474l3.219 2.481c.149.115.36.087.474-.061a.34.34 0 0 0-.061-.474ZM236 69.98l-3.219-2.481a.337.337 0 0 0-.474.061.335.335 0 0 0 .061.474l3.22 2.482a.336.336 0 0 0 .474-.062.336.336 0 0 0-.062-.474Zm6.44 4.966-3.22-2.482a.337.337 0 0 0-.474.062.336.336 0 0 0 .062.473l3.22 2.482a.337.337 0 1 0 .412-.535Zm6.439 4.965-3.219-2.482a.337.337 0 0 0-.474.062.335.335 0 0 0 .061.473l3.22 2.482c.147.114.36.087.474-.062a.335.335 0 0 0-.062-.473Zm6.44 4.963-3.22-2.482a.337.337 0 0 0-.474.062.336.336 0 0 0 .062.474l3.22 2.481a.337.337 0 1 0 .412-.535Zm6.44 4.965-3.22-2.481a.337.337 0 0 0-.474.061.336.336 0 0 0 .061.474l3.22 2.482a.337.337 0 1 0 .413-.535Zm6.439 4.964-3.22-2.482a.337.337 0 0 0-.474.062.336.336 0 0 0 .062.473l3.22 2.482a.337.337 0 0 0 .474-.062.34.34 0 0 0-.062-.473Zm6.194 5.35a18.572 18.572 0 0 0-2.943-2.841l-.031-.024a.337.337 0 1 0-.412.535l.03.024c1.05.81 2 1.73 2.837 2.739.12.143.332.163.476.044a.34.34 0 0 0 .043-.477Zm3.763 7.294a19.14 19.14 0 0 0-1.483-3.851.335.335 0 0 0-.456-.145.337.337 0 0 0-.146.455 18.297 18.297 0 0 1 1.433 3.715.337.337 0 1 0 .652-.174Zm.56 8.165.065-3.047v-.006l.002-.341v-.004c0-.23-.006-.459-.013-.687a.338.338 0 0 0-.676.025c.01.22.013.441.013.662l-.002.336-.065 3.046a.337.337 0 0 0 .33.345.337.337 0 0 0 .346-.329Zm-.175 8.124.087-4.062a.337.337 0 1 0-.675-.015l-.087 4.062a.337.337 0 1 0 .675.015Zm-.174 8.125.087-4.062a.336.336 0 0 0-.331-.344.337.337 0 0 0-.345.33l-.087 4.062a.337.337 0 0 0 .676.014Zm-.175 8.124.088-4.062a.338.338 0 0 0-.676-.015l-.087 4.062a.337.337 0 1 0 .675.015Zm-.174 8.123.087-4.062a.335.335 0 0 0-.33-.344.336.336 0 0 0-.345.33l-.087 4.062a.336.336 0 0 0 .33.344.339.339 0 0 0 .345-.33Zm-1.678 8.009.756-2.324c.167-.518.312-1.052.435-1.591a.337.337 0 1 0-.659-.15 18.395 18.395 0 0 1-.419 1.533l-.756 2.324a.338.338 0 0 0 .643.208Zm-2.513 7.728 1.257-3.864a.338.338 0 1 0-.645-.208l-1.257 3.864a.338.338 0 1 0 .645.208Zm-2.514 7.728 1.257-3.864a.338.338 0 1 0-.645-.208l-1.256 3.864a.338.338 0 1 0 .644.208Zm-2.513 7.727 1.257-3.864a.339.339 0 0 0-.645-.209l-1.257 3.864a.34.34 0 0 0 .645.209Zm-2.513 7.728 1.256-3.864a.339.339 0 1 0-.644-.209l-1.257 3.864a.34.34 0 0 0 .645.209Zm-2.514 7.728 1.257-3.864a.339.339 0 0 0-.645-.209l-1.256 3.864a.338.338 0 0 0 .644.209Zm-2.513 7.728 1.257-3.864a.339.339 0 0 0-.645-.209l-1.257 3.864a.338.338 0 0 0 .218.426.34.34 0 0 0 .427-.217Zm-2.513 7.728 1.256-3.864a.338.338 0 1 0-.644-.209l-1.257 3.864a.34.34 0 0 0 .645.209Zm-2.515 7.728 1.256-3.864a.339.339 0 0 0-.644-.209l-1.257 3.864a.338.338 0 0 0 .218.426c.18.057.37-.039.427-.217Zm-2.514 7.728 1.257-3.864a.34.34 0 0 0-.645-.209l-1.256 3.864a.337.337 0 0 0 .218.426.338.338 0 0 0 .426-.217Zm-2.513 7.726 1.257-3.864a.34.34 0 0 0-.645-.209l-1.257 3.864a.339.339 0 0 0 .645.209Zm-2.513 7.728 1.256-3.864a.338.338 0 0 0-.644-.209l-1.257 3.864a.339.339 0 0 0 .645.209Zm-2.514 7.728 1.257-3.864a.34.34 0 0 0-.645-.209l-1.256 3.864a.339.339 0 1 0 .644.209Zm-2.513 7.728 1.257-3.864a.34.34 0 0 0-.645-.209l-1.257 3.864a.339.339 0 0 0 .645.209Zm-2.513 7.728 1.256-3.864a.34.34 0 0 0-.645-.208l-1.256 3.863a.339.339 0 0 0 .645.209Zm-2.514 7.728 1.257-3.864a.339.339 0 0 0-.645-.208l-1.256 3.864a.337.337 0 0 0 .217.426.34.34 0 0 0 .427-.218Zm-2.513 7.728 1.256-3.864a.339.339 0 0 0-.644-.208l-1.257 3.864a.338.338 0 1 0 .645.208Zm-2.513 7.728 1.256-3.864a.338.338 0 1 0-.644-.208l-1.257 3.864a.338.338 0 1 0 .645.208Zm-2.541 7.736c.109-.287.211-.577.307-.871l.977-3.001a.338.338 0 1 0-.645-.208l-.977 3c-.092.283-.191.564-.296.84a.338.338 0 0 0 .196.435.338.338 0 0 0 .438-.195Zm-4.513 6.857a18.59 18.59 0 0 0 2.639-3.178.34.34 0 0 0-.567-.372 18.02 18.02 0 0 1-2.542 3.062.338.338 0 0 0 .47.488Zm-7.01 4.283a18.592 18.592 0 0 0 3.741-1.758.337.337 0 1 0-.354-.575 18.03 18.03 0 0 1-3.605 1.694.339.339 0 0 0-.21.43c.06.174.252.269.428.209Z" fill="#193248"/><path d="M267.105 102.931 146.653 10.067a11.813 11.813 0 0 0-7.175-2.445c-2.595 0-5.152.876-7.204 2.467L12.591 102.952a11.808 11.808 0 0 0-4.54 9.265v35.767c0 1.199.203 2.487.573 3.624L54.34 292.159a11.713 11.713 0 0 0 11.169 8.105h147.938c5.103 0 9.591-3.258 11.169-8.105l45.716-140.551c.339-1.047.548-2.275.572-3.374l.768-35.767a11.768 11.768 0 0 0-4.567-9.536Z" fill="#F4F9F1"/><path d="m267.105 102.931 1.64-2.125L148.293 7.943a14.492 14.492 0 0 0-8.815-3.004 14.49 14.49 0 0 0-8.851 3.031L10.943 100.834a14.477 14.477 0 0 0-5.576 11.383v35.767c.003 1.502.245 3.025.706 4.455l45.716 140.55a14.403 14.403 0 0 0 13.722 9.96h147.938a14.4 14.4 0 0 0 13.722-9.96l45.716-140.55c.427-1.326.67-2.752.703-4.145l.766-35.767.004-.303a14.449 14.449 0 0 0-5.614-11.414l-1.641 2.121-1.64 2.124a9.101 9.101 0 0 1 3.525 7.167l-.002.189-.768 35.767a9.66 9.66 0 0 1-.441 2.603l-45.715 140.55a9.025 9.025 0 0 1-8.613 6.252H65.513a9.025 9.025 0 0 1-8.616-6.252l-45.716-140.55a9.36 9.36 0 0 1-.443-2.797v-35.767c-.007-2.752 1.322-5.464 3.502-7.146l119.683-92.863a9.124 9.124 0 0 1 5.557-1.903 9.13 9.13 0 0 1 5.533 1.886l120.452 92.864 1.64-2.124Z" fill="#F4F9F1"/><path d="m213.449 288.534 45.716-140.55.767-35.767L139.48 19.354 19.795 112.217v35.767l45.716 140.55h147.938Z" fill="#193248"/><path d="m213.449 288.534 11.323 3.676 45.714-140.551c.345-1.059.556-2.307.579-3.42l.769-35.768a11.891 11.891 0 0 0-4.629-9.671L146.753 9.937a11.91 11.91 0 0 0-14.577.021L12.491 102.822a11.947 11.947 0 0 0-4.602 9.393v35.769c0 1.221.205 2.514.583 3.675L54.188 292.21c1.589 4.885 6.181 8.217 11.323 8.217h147.938c5.143 0 9.734-3.332 11.323-8.217l-11.323-3.676v-11.893H74.16L31.7 146.101v-28.063l107.802-83.642 108.397 83.568-.601 28.013-45.173 138.884 11.324 3.673Z" fill="#193248"/><path d="m213.449 288.534 45.716-140.55L139.48 61.119 19.795 147.984l45.716 140.55h147.938Z" fill="#BC4748"/><path d="m213.449 288.534 3.681 1.196 45.716-140.551a3.877 3.877 0 0 0-1.405-4.323L141.755 57.992a3.885 3.885 0 0 0-4.551 0L17.519 144.856a3.872 3.872 0 0 0-1.405 4.323L61.83 289.73a3.882 3.882 0 0 0 3.68 2.672H213.45a3.876 3.876 0 0 0 3.681-2.672l-3.681-1.196v-3.866H68.324L24.346 149.462 139.48 65.9l115.134 83.562-44.846 137.878 3.681 1.194Z" fill="#BC4748"/><path d="M139.48 60.918 19.604 147.922l45.789 140.776h148.174l45.791-140.776L139.48 60.918Z" fill="#193248"/><mask id="a" style="mask-type:luminance" maskUnits="userSpaceOnUse" x="19" y="60" width="241" height="229"><path d="M139.48 60.918 19.604 147.922l45.789 140.776h148.174l45.791-140.776L139.48 60.918Z" fill="#fff"/></mask><g mask="url(#a)"><path d="M139.449 154.324a106.126 106.126 0 0 0-65.598 22.713c-10.514 8.266-19.242 18.257-25.945 29.691a105.889 105.889 0 0 0-5.606 10.979l3.647 11.209a98.554 98.554 0 0 1 8.39-18.426c6.232-10.63 14.348-19.918 24.123-27.605a98.665 98.665 0 0 1 65.963-20.992 99.55 99.55 0 0 1 20.628 3.236c.534.143 1.093.297 1.722.479l.312.089c.563.163 1.12.33 1.654.495l.282.089c.595.185 1.137.359 1.652.531l.069.024c.505.167 1.054.356 1.677.575l.314.111c.555.197 1.102.399 1.621.593l.28.107c.581.22 1.108.424 1.607.624l.084.033c.501.201 1.037.422 1.638.675l.312.13c.534.229 1.068.461 1.586.691l.274.124c.563.254 1.073.489 1.563.72l.091.042c.49.232 1.012.486 1.596.774l.307.153c.536.266 1.055.533 1.547.789l.264.139c.546.287 1.044.554 1.522.817l.094.051c.478.263.986.547 1.555.876l.296.17c.513.298 1.02.597 1.507.889l.25.153c.531.321 1.014.62 1.48.914l.091.056c.463.294.957.613 1.511.978l.358.236.488.326c.169.113.338.227.505.341l.474.327.511.354a126.5 126.5 0 0 1 .978.694c.151.111.304.22.456.331.171.125.343.25.514.377.151.111.3.221.449.334.17.127.341.255.512.386l.443.337.51.394.44.343c.169.132.337.267.505.401l.177.141a99.128 99.128 0 0 1 16.646 17.002l.292.383.458.604.361.49.373.504.307.426.414.575.308.439c.133.189.267.378.398.568l.309.45c.129.187.256.376.383.563l.307.457c.125.187.249.373.372.562.1.154.202.308.3.463.121.187.243.375.363.564.1.154.196.31.296.466.12.189.238.377.356.568l.287.464c.118.191.232.383.348.574.095.154.188.31.28.464.115.192.229.386.343.579l.273.464c.112.196.227.392.338.588.094.165.179.312.261.461.113.199.225.401.336.6l.251.452c.112.203.221.408.332.613l.24.444c.114.216.228.432.341.65l.216.413c.109.211.216.421.323.632l.222.435c.134.269.267.537.398.807l.13.265c.347.715.692 1.446 1.025 2.175l.107.238c.129.283.256.566.381.849l.151.348c.109.247.216.496.323.744l.167.396.293.7.172.422c.093.225.183.452.274.677a107.506 107.506 0 0 1 .433 1.103l.17.448c.084.22.167.439.249.659l.167.455.238.657.163.461.229.656c.053.154.106.307.156.459l.033.1 3.643-11.198-.038-.087c-.135-.305-.273-.61-.411-.915l-.114-.254a96.824 96.824 0 0 0-1.102-2.338l-.142-.285c-.142-.29-.283-.579-.429-.867l-.237-.47-.347-.68-.235-.445c-.121-.232-.243-.466-.366-.698l-.258-.479c-.118-.22-.238-.441-.358-.659-.073-.134-.269-.486-.269-.486-.12-.216-.239-.431-.361-.647-.089-.16-.18-.318-.282-.496l-.363-.631a40.72 40.72 0 0 0-.292-.499l-.369-.624-.299-.5-.376-.617-.309-.501c-.127-.203-.254-.408-.383-.611l-.318-.501c-.129-.201-.26-.405-.391-.606l-.323-.497-.399-.604-.331-.492c-.136-.203-.274-.404-.412-.606 0 0-.245-.359-.332-.482a94.242 94.242 0 0 0-.427-.611l-.332-.472a97.873 97.873 0 0 0-.445-.619l-.331-.457c-.132-.181-.267-.361-.401-.542l-.389-.526a79.066 79.066 0 0 0-.492-.65l-.314-.412a115.006 115.006 0 0 0-1.705-2.162 106.633 106.633 0 0 0-16.195-16.122l-.193-.152c-.182-.144-.361-.289-.543-.43l-.472-.368-.55-.425c-.158-.122-.318-.243-.476-.363l-.55-.415a581.23 581.23 0 0 0-1.037-.766l-.491-.354a45.427 45.427 0 0 0-.552-.393c-.167-.118-.332-.236-.499-.352-.184-.129-.365-.256-.549-.381a38.11 38.11 0 0 0-.51-.35 47.11 47.11 0 0 0-.543-.368c-.174-.118-.35-.236-.525-.352l-.383-.254c-.595-.392-1.126-.735-1.625-1.051l-.098-.061c-.5-.316-1.021-.637-1.591-.984l-.271-.163a89.671 89.671 0 0 0-1.621-.956l-.318-.183c-.612-.352-1.159-.659-1.673-.942l-.101-.056c-.514-.281-1.05-.57-1.637-.878l-.283-.149c-.528-.277-1.089-.562-1.665-.851l-.329-.163a89.255 89.255 0 0 0-1.718-.832l-.098-.046c-.526-.248-1.077-.5-1.681-.774l-.295-.133c-.555-.248-1.129-.499-1.705-.744l-.334-.141c-.645-.272-1.222-.51-1.762-.728l-.088-.034c-.538-.216-1.105-.435-1.729-.673l-.302-.114a89.805 89.805 0 0 0-1.745-.639l-.336-.12c-.67-.235-1.26-.439-1.803-.62l-.075-.024c-.555-.185-1.136-.37-1.778-.571l-.301-.094c-.576-.178-1.173-.358-1.78-.534l-.336-.096c-.677-.194-1.278-.361-1.852-.515a106.971 106.971 0 0 0-22.188-3.481 109.92 109.92 0 0 0-5.348-.133Z" fill="#4C3146"/></g><mask id="b" style="mask-type:luminance" maskUnits="userSpaceOnUse" x="19" y="60" width="241" height="229"><path d="M139.48 60.918 19.604 147.922l45.789 140.776h148.174l45.791-140.776L139.48 60.918Z" fill="#fff"/></mask><g mask="url(#b)"><path d="M139.453 161.769a98.665 98.665 0 0 0-60.992 21.118c-9.776 7.686-17.892 16.974-24.124 27.605a98.548 98.548 0 0 0-8.39 18.426l2.708 8.325c4.903-19.306 15.984-37.206 32.862-50.478 17.181-13.509 37.617-20.062 57.907-20.062a94.44 94.44 0 0 1 24.347 3.195 93.537 93.537 0 0 1 31.553 15.208l.265.197.007.006.189.141.015.011.06.045.001.002.124.093.011.007c.02.015.04.029.058.044l.016.012.178.136c.007.006.013.009.02.017l.055.041c.005.004.009.008.012.009l.106.082.021.016.053.04a7.632 7.632 0 0 0 .131.1c.005.004.005.006.011.009l.051.04.029.022.049.038.027.02.085.067.033.025.047.037a.411.411 0 0 1 .035.027l.072.056.04.031c.015.011.029.024.044.034l.036.029.044.033c.018.015.038.029.056.045.016.013.036.03.053.042l.04.031.041.033.046.034.054.044c.017.012.035.027.051.04l.04.03.044.035.036.029.073.058.034.027.047.038a1.226 1.226 0 0 1 .095.077l.034.027c.022.016.042.032.062.049l.033.025.054.044a.68.68 0 0 0 .028.021c.025.022.05.042.078.062.009.007.014.013.025.02.018.015.04.033.06.047a.246.246 0 0 1 .025.022c.026.022.055.043.08.063l.009.008.075.06.023.02c.022.016.044.036.066.052l.018.015.08.065.02.016.065.055.02.016.082.067.009.007.074.062.02.016.077.062.007.006.083.068.015.013c.024.02.049.042.073.06l.012.011c.028.023.058.049.088.072l.083.071c.006.004.007.008.013.011l.172.143.009.008.082.069.006.005.174.147.011.009.174.147s.004.002.006.005c.087.075.178.153.267.227l.001.002a94.069 94.069 0 0 1 12.324 12.737l.147.183.011.013.063.08.009.01.071.089.009.011.06.076.017.022.069.087c8.359 10.609 14.059 22.464 17.192 34.756l2.698-8.294a84.532 84.532 0 0 0-.581-1.676c-.078-.219-.158-.437-.238-.657l-.167-.455a88.204 88.204 0 0 0-.249-.658l-.17-.448-.26-.664s-.125-.32-.173-.439c-.09-.225-.181-.452-.274-.677l-.172-.423-.293-.7-.167-.395c-.105-.249-.214-.496-.323-.744l-.151-.349a71.119 71.119 0 0 0-.381-.849l-.107-.237c-.333-.729-.678-1.461-1.025-2.175l-.13-.265c-.133-.27-.264-.539-.398-.807l-.222-.436c-.107-.21-.214-.421-.323-.631l-.216-.414c-.112-.216-.227-.431-.341-.649l-.24-.445c-.111-.205-.22-.41-.332-.613-.067-.123-.251-.452-.251-.452-.111-.201-.223-.4-.336-.6-.083-.149-.167-.296-.261-.461l-.338-.588-.273-.464-.343-.579c-.092-.156-.187-.31-.279-.464l-.349-.573c-.095-.156-.191-.31-.287-.465-.118-.188-.236-.379-.356-.568l-.296-.466-.363-.564-.3-.463c-.123-.186-.247-.375-.372-.562l-.307-.457a46.132 46.132 0 0 0-.383-.562l-.309-.45c-.131-.191-.265-.379-.398-.568l-.308-.439c-.137-.192-.275-.383-.414-.575l-.307-.426a81.669 81.669 0 0 0-.373-.505l-.361-.49c-.151-.201-.305-.402-.458-.604l-.292-.382a103.155 103.155 0 0 0-1.587-2.012 99.122 99.122 0 0 0-15.058-14.99l-.178-.142a68.387 68.387 0 0 0-.505-.401l-.44-.342a63.1 63.1 0 0 0-.51-.394l-.443-.338a97.856 97.856 0 0 1-.512-.386l-.449-.334c-.17-.125-.341-.252-.514-.377-.15-.111-.303-.22-.456-.33-.17-.124-.341-.245-.513-.367l-.465-.328c-.169-.118-.34-.238-.511-.354l-.474-.326a40.535 40.535 0 0 0-.504-.341c-.162-.111-.326-.22-.489-.327l-.358-.236c-.554-.364-1.048-.684-1.511-.977l-.09-.057c-.465-.294-.95-.593-1.48-.914l-.251-.152a79.362 79.362 0 0 0-1.507-.889l-.296-.171c-.569-.326-1.077-.613-1.555-.876l-.094-.051c-.478-.263-.975-.53-1.522-.816l-.263-.14c-.493-.256-1.014-.522-1.548-.789l-.307-.152a87.156 87.156 0 0 0-1.596-.775l-.091-.042c-.49-.23-1-.466-1.563-.72l-.274-.123a90.902 90.902 0 0 0-1.586-.691l-.312-.131a88.265 88.265 0 0 0-1.638-.675l-.084-.033a97.897 97.897 0 0 0-1.607-.624l-.28-.107a94.654 94.654 0 0 0-1.621-.593l-.314-.111a95.684 95.684 0 0 0-1.677-.575l-.069-.023c-.515-.171-1.056-.345-1.652-.532l-.282-.089a97.107 97.107 0 0 0-1.654-.495l-.312-.089c-.629-.179-1.19-.335-1.722-.479a99.58 99.58 0 0 0-25.598-3.363Z" fill="#6D3F4C"/></g><mask id="c" style="mask-type:luminance" maskUnits="userSpaceOnUse" x="19" y="60" width="241" height="229"><path d="M139.48 60.918 19.604 147.922l45.789 140.776h148.174l45.791-140.776L139.48 60.918Z" fill="#fff"/></mask><g mask="url(#c)"><mask id="d" style="mask-type:luminance" maskUnits="userSpaceOnUse" x="45" y="166" width="189" height="188"><path d="M213.133 202.423c-32.016-40.63-90.943-47.64-131.614-15.658-40.673 31.983-47.69 90.847-15.674 131.477 32.016 40.63 90.941 47.64 131.614 15.657 40.673-31.982 47.69-90.846 15.674-131.476Z" fill="#fff"/></mask><g mask="url(#d)"><path d="M213.133 202.423c-32.016-40.63-90.943-47.64-131.614-15.658-40.673 31.983-47.69 90.847-15.674 131.477 32.016 40.63 90.941 47.64 131.614 15.657 40.673-31.982 47.69-90.846 15.674-131.476Z" fill="#E17163"/></g><mask id="e" style="mask-type:luminance" maskUnits="userSpaceOnUse" x="45" y="166" width="189" height="188"><path d="M213.133 202.423c-32.016-40.63-90.943-47.64-131.614-15.658-40.673 31.983-47.69 90.847-15.674 131.477 32.016 40.63 90.941 47.64 131.614 15.657 40.673-31.982 47.69-90.846 15.674-131.476Z" fill="#fff"/></mask><g mask="url(#e)"><path d="M28.255 308.175c11.37 3.523 22.826-33.838 54.566-36.176 14.123-1.041 27.581 5.197 31.048-.49 2.319-3.808-3.283-7.305-4.542-18.11-1.34-11.496 4.184-14.567 4.464-30.424.14-7.883.258-14.584-3.451-16.726-5.873-3.393-13.476 9.195-27.832 12.167-19.585 4.053-29.553-14.384-41.791-11.247-25.092 6.431-29.387 95.762-12.462 101.006Z" fill="#D25A38"/></g><mask id="f" style="mask-type:luminance" maskUnits="userSpaceOnUse" x="45" y="166" width="189" height="188"><path d="M213.133 202.423c-32.016-40.63-90.943-47.64-131.614-15.658-40.673 31.983-47.69 90.847-15.674 131.477 32.016 40.63 90.941 47.64 131.614 15.657 40.673-31.982 47.69-90.846 15.674-131.476Z" fill="#fff"/></mask><g mask="url(#f)"><path d="M184.295 355.184c-19.749-2.235-41.032-17.092-45.055-40.082-4.413-25.218 13.615-50.686 31.097-53.61 6.976-1.167 12.92 1.411 17.839 3.989 5.508 2.886 9.732 5.771 12.687 3.407 6.617-5.296.65-31.961-15.296-40.306-10.724-5.613-21.357-.531-24.017-5.785-2.523-4.981 3.665-16.216 11.807-18.257 14.354-3.595 31.933 22.087 43.866 39.52 20.938 30.593 31.41 45.889 27.407 65.173-5.007 24.129-30.67 49.311-60.335 45.951Z" fill="#D25A38"/></g><mask id="g" style="mask-type:luminance" maskUnits="userSpaceOnUse" x="45" y="166" width="189" height="188"><path d="M213.133 202.423c-32.016-40.63-90.943-47.64-131.614-15.658-40.673 31.983-47.69 90.847-15.674 131.477 32.016 40.63 90.941 47.64 131.614 15.657 40.673-31.982 47.69-90.846 15.674-131.476Z" fill="#fff"/></mask><g mask="url(#g)"><path d="M117.928 144.532c-.952 8.374 20.51 9.573 33.817 32.47 3.185 5.481 4.744 10.212 10.184 12.926 8.194 4.087 18.847.435 25.197-4.115 10.631-7.615 16.688-23.104 11.761-35.415-6.067-15.156-25.524-17.335-36.317-18.541-19.899-2.23-43.66 4.025-44.642 12.675Z" fill="#D25A38"/></g><mask id="h" style="mask-type:luminance" maskUnits="userSpaceOnUse" x="45" y="166" width="189" height="188"><path d="M213.133 202.423c-32.016-40.63-90.943-47.64-131.614-15.658-40.673 31.983-47.69 90.847-15.674 131.477 32.016 40.63 90.941 47.64 131.614 15.657 40.673-31.982 47.69-90.846 15.674-131.476Z" fill="#fff"/></mask><g mask="url(#h)"><path d="M191.243 182.247a30.348 30.348 0 0 1-4.115 3.566 32.205 32.205 0 0 1-4.518 2.69l.143.184c7.869 9.986 13.691 20.925 17.525 32.319 6.192 7.344 12.045 15.897 16.947 23.059 2.617 3.823 5.07 7.407 7.351 10.791l5.749-17.675c-3.132-12.292-8.831-24.146-17.192-34.756l-.069-.087-.016-.022c-.02-.026-.042-.051-.06-.076l-.009-.011a3.464 3.464 0 0 0-.071-.089l-.009-.011c-.02-.025-.044-.054-.063-.08-.004-.005-.008-.007-.011-.012l-.147-.184s-.006-.005-.008-.009a94.058 94.058 0 0 0-12.316-12.727l-.002-.002c-.089-.076-.176-.151-.267-.227l-.005-.005-.174-.147s-.008-.008-.011-.009l-.175-.147s-.003-.002-.005-.006l-.082-.069-.009-.007a10.844 10.844 0 0 0-.172-.143l-.013-.011a6.246 6.246 0 0 1-.084-.071l-.087-.073-.013-.01a2.287 2.287 0 0 1-.087-.073c-.027-.024-.056-.047-.083-.069l-.007-.005-.077-.062c-.007-.005-.012-.011-.02-.016l-.074-.062-.009-.007-.082-.067-.02-.017-.065-.054-.02-.017a1.328 1.328 0 0 1-.08-.065l-.018-.014a1.176 1.176 0 0 0-.066-.053l-.023-.02-.075-.06-.009-.007c-.027-.022-.053-.044-.08-.064l-.025-.021a.959.959 0 0 0-.086-.067l-.078-.062-.027-.022-.054-.043-.033-.026-.062-.049-.034-.027-.058-.047a.468.468 0 0 1-.037-.029c-.014-.013-.032-.026-.047-.038a.297.297 0 0 1-.034-.028l-.073-.058a.378.378 0 0 1-.036-.029c-.015-.01-.03-.023-.044-.034l-.04-.031a2.269 2.269 0 0 0-.051-.04l-.054-.043-.046-.035-.041-.032-.04-.031a2.454 2.454 0 0 1-.109-.087l-.044-.033a.326.326 0 0 1-.036-.029l-.044-.035-.04-.03-.072-.057a1.921 1.921 0 0 1-.082-.063l-.033-.025-.085-.068a.468.468 0 0 0-.027-.02l-.05-.038-.029-.021-.05-.04-.011-.009-.107-.082-.024-.018c-.018-.015-.035-.026-.053-.04a.177.177 0 0 0-.022-.016l-.105-.082-.013-.009-.054-.042-.02-.016a39.859 39.859 0 0 1-.178-.136l-.016-.013a1.459 1.459 0 0 1-.058-.043l-.011-.008-.124-.092-.002-.002-.06-.045-.014-.011-.189-.142-.007-.005-.265-.198a88.729 88.729 0 0 0-4.083-2.864Z" fill="#D44C42"/></g><mask id="i" style="mask-type:luminance" maskUnits="userSpaceOnUse" x="45" y="166" width="189" height="188"><path d="M213.133 202.423c-32.016-40.63-90.943-47.64-131.614-15.658-40.673 31.983-47.69 90.847-15.674 131.477 32.016 40.63 90.941 47.64 131.614 15.657 40.673-31.982 47.69-90.846 15.674-131.476Z" fill="#fff"/></mask><g mask="url(#i)"><path d="M200.278 221.005c7.436 22.093 7.402 45.885.336 67.693h12.955l11.007-33.846c-2.281-3.383-4.736-6.968-7.351-10.79-4.902-7.16-10.756-15.714-16.947-23.057Z" fill="#BE3C26"/></g><mask id="j" style="mask-type:luminance" maskUnits="userSpaceOnUse" x="45" y="166" width="189" height="188"><path d="M213.133 202.423c-32.016-40.63-90.943-47.64-131.614-15.658-40.673 31.983-47.69 90.847-15.674 131.477 32.016 40.63 90.941 47.64 131.614 15.657 40.673-31.982 47.69-90.846 15.674-131.476Z" fill="#fff"/></mask><g mask="url(#j)"><path d="M163.773 169.9a108.196 108.196 0 0 1 18.835 18.602 32.247 32.247 0 0 0 4.518-2.691 30.02 30.02 0 0 0 4.115-3.566 93.523 93.523 0 0 0-27.468-12.345Z" fill="#BE3C26"/></g><mask id="k" style="mask-type:luminance" maskUnits="userSpaceOnUse" x="45" y="166" width="189" height="188"><path d="M213.133 202.423c-32.016-40.63-90.943-47.64-131.614-15.658-40.673 31.983-47.69 90.847-15.674 131.477 32.016 40.63 90.941 47.64 131.614 15.657 40.673-31.982 47.69-90.846 15.674-131.476Z" fill="#fff"/></mask><g mask="url(#k)"><path d="M93.859 201.645c65.784-8.614 127.258-2.136 131.113-6.172 2.967-3.107-33.431-6.986-45.998-8.113-13.176-1.181-25.004-2.184-36.732-.478-11.308 1.643-9.568 3.923-20.177 5.701-16.479 2.763-27.649-1.567-53.015.376-11.891.91-28.524 3.325-29.946 6.309-.879 1.849 4.257 3.523 9.14 4.35 14.294 2.42 36.28-.751 45.615-1.973Z" fill="#E98724"/></g><mask id="l" style="mask-type:luminance" maskUnits="userSpaceOnUse" x="45" y="166" width="189" height="188"><path d="M213.133 202.423c-32.016-40.63-90.943-47.64-131.614-15.658-40.673 31.983-47.69 90.847-15.674 131.477 32.016 40.63 90.941 47.64 131.614 15.657 40.673-31.982 47.69-90.846 15.674-131.476Z" fill="#fff"/></mask><g mask="url(#l)"><path d="M35.501 231.347c57.43-9.455 111.272-1.009 114.593-5.765 2.559-3.661-29.321-8.714-40.324-10.205-11.539-1.563-21.894-2.899-32.13-1.012-9.87 1.82-8.321 4.552-17.58 6.54-14.377 3.087-24.197-2.197-46.36-.191-10.387.94-24.906 3.612-26.112 7.146-.748 2.188 3.764 4.243 8.045 5.285 12.53 3.051 31.722-.458 39.868-1.798Z" fill="#E98724"/></g><mask id="m" style="mask-type:luminance" maskUnits="userSpaceOnUse" x="45" y="166" width="189" height="188"><path d="M213.133 202.423c-32.016-40.63-90.943-47.64-131.614-15.658-40.673 31.983-47.69 90.847-15.674 131.477 32.016 40.63 90.941 47.64 131.614 15.657 40.673-31.982 47.69-90.846 15.674-131.476Z" fill="#fff"/></mask><g mask="url(#m)"><path d="M207.921 272.802c57.43-9.455 111.272-1.01 114.594-5.765 2.558-3.661-29.322-8.715-40.325-10.204-11.539-1.564-21.893-2.901-32.13-1.012-9.87 1.819-8.321 4.553-17.579 6.541-14.377 3.088-24.198-2.197-46.361-.19-10.387.94-24.906 3.612-26.112 7.146-.748 2.187 3.765 4.243 8.045 5.284 12.53 3.051 31.72-.457 39.868-1.8Z" fill="#E98724"/></g><mask id="n" style="mask-type:luminance" maskUnits="userSpaceOnUse" x="45" y="166" width="189" height="188"><path d="M213.133 202.423c-32.016-40.63-90.943-47.64-131.614-15.658-40.673 31.983-47.69 90.847-15.674 131.477 32.016 40.63 90.941 47.64 131.614 15.657 40.673-31.982 47.69-90.846 15.674-131.476Z" fill="#fff"/></mask><g mask="url(#n)"><path d="M-.663 265.755c57.43-9.455 111.27-1.009 114.594-5.765 2.558-3.661-29.322-8.713-40.326-10.206-11.54-1.564-21.894-2.901-32.13-1.013-9.87 1.82-8.322 4.552-17.58 6.54-14.377 3.09-24.198-2.197-46.36-.19-10.388.939-24.905 3.612-26.113 7.145-.748 2.188 3.765 4.242 8.045 5.285 12.53 3.055 31.722-.454 39.87-1.796Z" fill="#E98724"/></g><mask id="o" style="mask-type:luminance" maskUnits="userSpaceOnUse" x="45" y="166" width="189" height="188"><path d="M213.133 202.423c-32.016-40.63-90.943-47.64-131.614-15.658-40.673 31.983-47.69 90.847-15.674 131.477 32.016 40.63 90.941 47.64 131.614 15.657 40.673-31.982 47.69-90.846 15.674-131.476Z" fill="#fff"/></mask><g mask="url(#o)"><path d="M211.57 249.58c-35.935-4.395-68.694 5.181-71 1.597-1.776-2.761 17.618-8.472 24.325-10.243 7.033-1.857 13.349-3.472 19.765-2.527 6.187.909 5.379 3.155 11.196 4.231 9.034 1.671 14.809-3.039 28.587-2.641 6.46.186 15.558 1.518 16.493 4.25.58 1.691-2.094 3.559-4.678 4.615-7.563 3.086-19.591 1.342-24.688.718Z" fill="#E98724"/></g><mask id="p" style="mask-type:luminance" maskUnits="userSpaceOnUse" x="45" y="166" width="189" height="188"><path d="M213.133 202.423c-32.016-40.63-90.943-47.64-131.614-15.658-40.673 31.983-47.69 90.847-15.674 131.477 32.016 40.63 90.941 47.64 131.614 15.657 40.673-31.982 47.69-90.846 15.674-131.476Z" fill="#fff"/></mask><g mask="url(#p)"><path d="M134.909 293.215c-35.935-4.396-68.694 5.181-71 1.596-1.776-2.759 17.619-8.472 24.327-10.242 7.033-1.858 13.349-3.471 19.765-2.527 6.188.909 5.379 3.154 11.196 4.23 9.036 1.671 14.81-3.038 28.589-2.641 6.458.185 15.558 1.518 16.493 4.25.58 1.691-2.094 3.56-4.678 4.615-7.565 3.086-19.593 1.343-24.692.719Z" fill="#E98724"/></g><mask id="q" style="mask-type:luminance" maskUnits="userSpaceOnUse" x="45" y="166" width="189" height="188"><path d="M213.133 202.423c-32.016-40.63-90.943-47.64-131.614-15.658-40.673 31.983-47.69 90.847-15.674 131.477 32.016 40.63 90.941 47.64 131.614 15.657 40.673-31.982 47.69-90.846 15.674-131.476Z" fill="#fff"/></mask><g mask="url(#q)"><path d="M248.335 222.603c-35.937-4.396-68.694 5.181-71.001 1.596-1.776-2.759 17.618-8.472 24.326-10.242 7.033-1.858 13.349-3.472 19.765-2.527 6.187.909 5.379 3.155 11.196 4.23 9.036 1.671 14.809-3.038 28.589-2.641 6.46.185 15.558 1.518 16.493 4.25.579 1.691-2.094 3.56-4.68 4.614-7.562 3.089-19.591 1.344-24.688.72Z" fill="#E98724"/></g><mask id="r" style="mask-type:luminance" maskUnits="userSpaceOnUse" x="45" y="166" width="189" height="188"><path d="M213.133 202.423c-32.016-40.63-90.943-47.64-131.614-15.658-40.673 31.983-47.69 90.847-15.674 131.477 32.016 40.63 90.941 47.64 131.614 15.657 40.673-31.982 47.69-90.846 15.674-131.476Z" fill="#fff"/></mask><g mask="url(#r)"><path d="M192.293 174.497c-35.937-4.396-68.694 5.181-71 1.596-1.776-2.759 17.619-8.472 24.325-10.242 7.033-1.858 13.349-3.471 19.765-2.527 6.187.91 5.379 3.154 11.196 4.232 9.035 1.671 14.81-3.039 28.588-2.643 6.459.187 15.557 1.52 16.492 4.25.58 1.691-2.093 3.56-4.678 4.615-7.563 3.088-19.591 1.343-24.688.719Z" fill="#E98724"/></g></g><mask id="s" style="mask-type:luminance" maskUnits="userSpaceOnUse" x="19" y="60" width="241" height="229"><path d="M139.48 60.918 19.604 147.922l45.789 140.776h148.174l45.791-140.776L139.48 60.918Z" fill="#fff"/></mask><g mask="url(#s)"><path d="M74.909 248.641c.65-1.372 3.221-6.796 9.207-7.422 5.573-.584 9.568 3.469 9.939 3.857-.291-5.526 4.287-10.028 9.624-10.422 4.105-.303 8.261 1.854 10.357 5.424.982-4.609 4.427-8.174 8.713-8.99 6.438-1.229 11.437 4.381 12.494 5.565 7.473 8.381 1.444 20.525.986 21.408-20.386.476-42.08 12.253-62.465 12.728-.544-1.15-1.249-17.103 1.145-22.148Z" fill="#67696B"/></g><mask id="t" style="mask-type:luminance" maskUnits="userSpaceOnUse" x="19" y="60" width="241" height="229"><path d="M139.48 60.918 19.604 147.922l45.789 140.776h148.174l45.791-140.776L139.48 60.918Z" fill="#fff"/></mask><g mask="url(#t)"><path d="M61.05 262.01c.65-1.371 3.224-6.795 9.206-7.421 5.573-.582 9.568 3.468 9.939 3.857-.29-5.526 4.29-10.029 9.625-10.422 4.104-.303 8.262 1.854 10.356 5.424.981-4.61 4.428-8.174 8.713-8.991 6.438-1.226 11.438 4.381 12.494 5.566 7.473 8.381 1.442 20.524.987 21.408-20.387.475-42.08 12.252-62.465 12.728-.541-1.15-1.248-17.104 1.145-22.149Z" fill="#67696B"/></g><mask id="u" style="mask-type:luminance" maskUnits="userSpaceOnUse" x="19" y="60" width="241" height="229"><path d="M139.48 60.918 19.604 147.922l45.789 140.776h148.174l45.791-140.776L139.48 60.918Z" fill="#fff"/></mask><g mask="url(#u)"><path d="M197.948 248.641c-.65-1.372-3.224-6.796-9.207-7.422-5.574-.584-9.569 3.469-9.939 3.857.29-5.526-4.29-10.028-9.625-10.422-4.104-.303-8.263 1.854-10.357 5.424-.98-4.609-4.427-8.174-8.713-8.99-6.438-1.229-11.437 4.381-12.494 5.565-7.473 8.381-1.442 20.525-.986 21.408 20.385.476 42.08 12.253 62.465 12.728.543-1.15 1.248-17.103-1.144-22.148Z" fill="#67696B"/></g><mask id="v" style="mask-type:luminance" maskUnits="userSpaceOnUse" x="19" y="60" width="241" height="229"><path d="M139.48 60.918 19.604 147.922l45.789 140.776h148.174l45.791-140.776L139.48 60.918Z" fill="#fff"/></mask><g mask="url(#v)"><path d="M248.87 268.728c-.65-1.371-3.223-6.795-9.207-7.421-5.573-.584-9.568 3.468-9.939 3.856.291-5.525-4.289-10.026-9.625-10.422-4.104-.302-8.262 1.854-10.356 5.425-.981-4.61-4.428-8.175-8.713-8.991-6.436-1.226-11.438 4.381-12.494 5.566-7.473 8.379-1.442 20.524-.987 21.408 20.387.475 42.081 12.252 62.467 12.727.541-1.152 1.246-17.103-1.146-22.148Z" fill="#67696B"/></g><mask id="w" style="mask-type:luminance" maskUnits="userSpaceOnUse" x="19" y="60" width="241" height="229"><path d="M139.48 60.918 19.604 147.922l45.789 140.776h148.174l45.791-140.776L139.48 60.918Z" fill="#fff"/></mask><g mask="url(#w)"><path d="M29.08 279.041c1.051-2.216 5.205-10.975 14.867-11.985 9-.942 15.453 5.602 16.052 6.227-.468-8.923 6.926-16.194 15.543-16.831 6.629-.49 13.344 2.994 16.727 8.759 1.586-7.444 7.15-13.201 14.073-14.52 10.396-1.981 18.47 7.075 20.177 8.989 12.067 13.533 2.33 33.147 1.593 34.573l-98.767 2.305c-.875-1.857-4.128-9.371-.265-17.517Z" fill="#F8FCEF"/></g><mask id="x" style="mask-type:luminance" maskUnits="userSpaceOnUse" x="19" y="60" width="241" height="229"><path d="M139.48 60.918 19.604 147.922l45.789 140.776h148.174l45.791-140.776L139.48 60.918Z" fill="#fff"/></mask><g mask="url(#x)"><path d="M249.225 279.041c-1.052-2.216-5.205-10.975-14.868-11.985-9-.942-15.452 5.602-16.052 6.227.469-8.923-6.926-16.194-15.543-16.831-6.628-.49-13.342 2.994-16.725 8.759-1.586-7.444-7.15-13.201-14.072-14.52-10.397-1.981-18.471 7.075-20.178 8.989-12.067 13.533-2.33 33.147-1.593 34.573l98.767 2.305c.874-1.857 4.128-9.371.264-17.517Z" fill="#F8FCEF"/></g><mask id="y" style="mask-type:luminance" maskUnits="userSpaceOnUse" x="19" y="60" width="241" height="229"><path d="M139.48 60.918 19.604 147.922l45.789 140.776h148.174l45.791-140.776L139.48 60.918Z" fill="#fff"/></mask><g mask="url(#y)"><path d="M131.081 216.411a147.931 147.931 0 0 1-5.119 12.989c-1.96 4.36-9.189 19.872-23.378 36.621-14.88 17.564-31.068 28.993-43.16 36.066l158.115-2.487c-25.573-11.748-38.211-26.906-43.575-34.409-9.153-12.801-16.527-30.432-18.538-35.239a226.91 226.91 0 0 1-5.257-13.818l-19.088.277Z" fill="#F0C53A"/></g><mask id="z" style="mask-type:luminance" maskUnits="userSpaceOnUse" x="19" y="60" width="241" height="229"><path d="M139.48 60.918 19.604 147.922l45.789 140.776h148.174l45.791-140.776L139.48 60.918Z" fill="#fff"/></mask><g mask="url(#z)"><path d="M135.585 217.516c-.22 2.992-.665 7.476-1.66 12.853-2.196 11.862-4.724 15.387-4.876 21.35-.133 5.176 1.516 12.574 9.857 21.766 9.485-10.003 11.199-17.867 10.998-23.215-.222-5.874-2.795-9.789-4.15-20.937a91.096 91.096 0 0 1-.657-12.414c-3.173.198-6.342.398-9.512.597Z" fill="#F8FCEF"/></g><path d="M262.064 108.333 141.011 17.088a1.266 1.266 0 0 0-1.148-.196 1.272 1.272 0 0 0-1.148.196L17.663 108.333a1.27 1.27 0 0 0-.505 1.012v27.174a1.27 1.27 0 0 0 2.014 1.03l120.695-86.946L260.56 137.55c.22.158.481.24.743.24a1.27 1.27 0 0 0 1.269-1.27v-27.174a1.28 1.28 0 0 0-.508-1.012Z" fill="#BC4748"/><path d="m126.891 220.736 4.426-20.051h17.857l4.427 20.051h-26.71Z" fill="#A5A6A9"/><path d="m126.891 220.736.523.116 4.333-19.63h16.995l4.189 18.979H126.89v.535l.523.116-.522-.116v.535h26.71a.532.532 0 0 0 .523-.651l-4.425-20.049a.539.539 0 0 0-.523-.421h-17.857a.535.535 0 0 0-.523.421l-4.426 20.049a.54.54 0 0 0 .106.452.529.529 0 0 0 .415.199v-.535Z" fill="#193248"/><path d="M152.284 61.092h-24.08V205.1h24.08V61.092Z" fill="#F4F9F1"/><path d="M128.204 61.092h-.535V205.1c0 .141.056.279.156.379.1.099.238.156.379.156h24.081a.543.543 0 0 0 .379-.156c.1-.1.156-.238.156-.379V61.092a.538.538 0 0 0-.156-.379.54.54 0 0 0-.379-.156h-24.081a.54.54 0 0 0-.379.156c-.1.1-.156.238-.156.38h.535v.534h23.545v142.935H128.74V61.092h-.536Z" fill="#193248"/><path d="M140.244 24.604c-.628-.055-1.289.18-1.649.702l-10.391 15.06-1.81 1.778v12.327l1.81 1.84v4.783h24.08V56.31l1.811-1.84V42.145l-1.811-1.778-10.391-15.06c-.359-.523-1.018-.759-1.649-.702Z" fill="#EAE5E0"/><path d="m140.245 24.604.047-.534-.227-.009c-.714 0-1.459.292-1.911.942l-10.362 15.019-1.774 1.741c-.102.1-.16.24-.16.383v12.327c0 .141.055.276.154.375l1.657 1.684v4.564c0 .142.056.28.156.38.1.099.238.155.379.155h24.081a.54.54 0 0 0 .379-.156c.1-.1.156-.238.156-.379v-4.564l1.656-1.684c.1-.1.155-.234.155-.375V42.146a.541.541 0 0 0-.16-.383l-1.774-1.741-10.362-15.02c-.452-.649-1.197-.94-1.913-.94l-.228.008.051.534.047.533.132-.005c.431 0 .828.181 1.028.478l10.393 15.06.065.077 1.651 1.62V54.25l-1.656 1.683a.539.539 0 0 0-.154.376v4.246h-23.009V56.31a.531.531 0 0 0-.154-.376l-1.657-1.683V42.367l1.651-1.62.065-.078 10.392-15.06c.199-.298.597-.48 1.027-.477l.133.005h.093l-.047-.533Z" fill="#193248"/><path d="m122.68 211.53 5.524-20.05h24.082l5.525 20.05H122.68Z" fill="#F4F9F1"/><path d="m122.68 211.53.518.141 5.417-19.656h23.265l5.23 18.979h-34.43V212.065h35.131a.535.535 0 0 0 .517-.677l-5.524-20.049a.536.536 0 0 0-.518-.394h-24.08a.537.537 0 0 0-.517.394l-5.525 20.049a.537.537 0 0 0 .516.677v-.535Z" fill="#193248"/><path d="M150.122 191.48v-81.111l-.075.025-.247-55.604.133-.218 2.208-1.505.133-.221-.18-10.21-.058-.147-1.221-1.471-5.903-7.569c-.393-.504-1.528-.178-1.261.361l3.792 7.641.044.064 1.08 1.193.067.15.491 8.81-.156.245-2.757 1.624-.303.076-9.743-.03c-.445-.001-.658.49-.271.556 6.856 1.16 9.741.972 9.75 6.953 0 0 .077 33.285.274 50.681.002.078-.059 14.366 0 16.61v63.097l5.721 17.495h3.942l-5.46-17.495ZM126.394 42.792h9.452a.648.648 0 1 0 0-1.296h-9.452a.649.649 0 1 0 0 1.296ZM133.164 211.455l-1.309 9.205a.536.536 0 1 0 1.062.15l1.309-9.204a.536.536 0 1 0-1.062-.151ZM139.516 211.497l-.585 9.205a.535.535 0 0 0 1.07.067l.585-9.205a.535.535 0 0 0-.501-.568.535.535 0 0 0-.569.501ZM144.488 211.618l1.535 9.205a.536.536 0 0 0 1.059-.176l-1.535-9.205a.536.536 0 0 0-.617-.44.535.535 0 0 0-.442.616ZM34.499 111.476l-.64.464-1.815-6.384.631-.458 5.518 3.696-.64.465-4.594-3.149-.039.029 1.579 5.337Zm-1.196-2.141 2.581-1.873.394.541-2.581 1.874-.394-.542ZM42.595 99.75a.956.956 0 0 0-.782-.32c-.31.015-.618.133-.924.355-.223.162-.392.34-.507.534-.113.192-.17.386-.172.58 0 .193.058.37.175.531a.762.762 0 0 0 .348.277c.135.047.277.066.425.056.147-.011.292-.037.433-.077.14-.042.266-.084.378-.127l.612-.234c.157-.061.337-.12.542-.176.207-.057.423-.087.647-.089a1.57 1.57 0 0 1 .66.13c.214.092.408.257.58.493.198.272.305.57.322.894.019.322-.06.647-.24.974-.176.327-.458.63-.845.912-.361.262-.717.431-1.066.506a1.85 1.85 0 0 1-.975-.037c-.3-.1-.561-.28-.782-.542l.63-.457a.98.98 0 0 0 .537.333c.203.041.412.029.629-.036.217-.067.425-.173.626-.319.233-.169.415-.358.545-.569.13-.211.2-.425.209-.64a.937.937 0 0 0-.189-.6.738.738 0 0 0-.437-.307 1.265 1.265 0 0 0-.556.013 4.69 4.69 0 0 0-.62.187l-.75.273c-.476.173-.906.238-1.288.194-.383-.043-.698-.234-.945-.574a1.51 1.51 0 0 1-.308-.904c0-.324.088-.638.263-.943.175-.308.424-.578.745-.812.325-.236.657-.387.994-.454.337-.069.652-.057.945.036.295.092.54.262.732.51l-.59.43ZM47.16 95.557l-.394-.541 3.783-2.746.394.542-1.586 1.15 3.272 4.5-.611.443-3.272-4.499-1.586 1.151ZM58.576 93.977l-3.666-5.04 1.705-1.238c.394-.286.766-.453 1.117-.502.35-.05.67-.004.96.141.291.145.545.366.76.663.217.297.348.604.393.922.046.318-.01.634-.165.947-.157.312-.43.61-.822.893l-1.379 1.002-.4-.552 1.359-.986c.269-.196.457-.393.564-.59a.922.922 0 0 0 .116-.596c-.03-.201-.12-.402-.266-.604a1.448 1.448 0 0 0-.498-.447.956.956 0 0 0-.616-.087c-.227.037-.477.154-.75.352l-1.073.78 3.272 4.498-.61.444Zm.728-3.988 2.888 1.363-.71.515-2.868-1.377.69-.5ZM69.133 82.629c.387.531.625 1.06.714 1.587.09.526.043 1.016-.139 1.47a2.61 2.61 0 0 1-.918 1.147c-.43.313-.89.485-1.377.519a2.677 2.677 0 0 1-1.442-.323c-.474-.247-.904-.637-1.29-1.169-.388-.531-.626-1.06-.715-1.587a2.669 2.669 0 0 1 .139-1.47 2.61 2.61 0 0 1 .918-1.148c.43-.312.89-.484 1.377-.518.488-.033.969.075 1.442.322.474.248.904.638 1.29 1.17Zm-.591.428c-.318-.436-.659-.751-1.023-.945a1.965 1.965 0 0 0-1.085-.255c-.358.025-.69.148-.995.37a1.9 1.9 0 0 0-.662.833c-.134.333-.165.703-.093 1.109.074.405.27.826.587 1.262.318.437.658.753 1.02.948.365.194.727.28 1.085.255.36-.026.693-.15.998-.371.306-.222.526-.5.66-.833a1.96 1.96 0 0 0 .092-1.108c-.072-.407-.267-.828-.584-1.264ZM74.995 74.394l3.666 5.04-.591.43-5.627-1.963-.05.036 2.879 3.957-.61.444-3.667-5.04.591-.43 5.644 1.966.05-.036-2.886-3.968.6-.436ZM83.463 75.852l-.64.465-1.815-6.385.63-.458 5.519 3.696-.64.465-4.594-3.149-.04.029 1.58 5.337Zm-1.196-2.14 2.581-1.874.394.541-2.581 1.874-.394-.542ZM91.453 62.408l.61-.443 2.428 3.337c.25.344.393.711.428 1.1.034.386-.038.763-.219 1.132-.182.368-.47.695-.866.982-.396.288-.797.46-1.203.52-.407.057-.79.01-1.148-.14a2.194 2.194 0 0 1-.913-.748l-2.427-3.337.61-.444 2.392 3.288c.18.246.393.426.64.54.248.111.511.15.791.114.281-.039.562-.16.843-.364.28-.203.482-.433.606-.688.121-.256.167-.518.135-.786a1.623 1.623 0 0 0-.315-.775l-2.392-3.288ZM96.16 59.772l-.395-.542 3.783-2.745.394.54-1.586 1.152 3.272 4.499-.611.443-3.272-4.498-1.586 1.15ZM173.439 60.52l-.642-.462 5.505-3.715.632.455-1.791 6.391-.642-.462 1.56-5.343-.04-.029-4.582 3.166Zm1.662-1.802 2.588 1.864-.392.543-2.587-1.864.391-.543ZM183.621 67.989l-1.561-1.124 3.648-5.053 1.63 1.174c.49.353.837.756 1.04 1.21.204.452.263.934.177 1.444-.085.51-.316 1.025-.693 1.549-.38.526-.801.912-1.263 1.156a2.477 2.477 0 0 1-1.451.283c-.505-.056-1.014-.269-1.527-.639Zm-.557-1.226.909.655c.418.3.823.47 1.214.507.391.037.762-.045 1.112-.246.35-.2.673-.506.97-.917.295-.408.481-.808.561-1.198.08-.392.045-.763-.106-1.111-.15-.351-.423-.669-.818-.953l-.978-.705-2.864 3.968ZM193.793 67.431l-1.569 5.335.059.043 4.572-3.172.642.462-5.505 3.716-.632-.455 1.791-6.391.642.462ZM198.898 78.95l3.648-5.053 3.052 2.198-.392.543-2.44-1.757-1.232 1.707 2.281 1.644-.392.543-2.281-1.644-1.24 1.717 2.479 1.786-.392.543-3.091-2.227ZM213.854 81.968l-3.648 5.053-.592-.427.108-5.953-.049-.035-2.864 3.968-.613-.442 3.648-5.053.593.427-.106 5.97.049.035 2.872-3.977.602.434ZM217.69 85.563l.392-.543 3.793 2.732-.392.543-1.59-1.146-3.256 4.51-.612-.44 3.256-4.51-1.591-1.146ZM229.498 93.313l.612.441-2.415 3.346c-.25.345-.554.595-.913.75a2.112 2.112 0 0 1-1.145.146c-.406-.058-.808-.23-1.205-.516-.396-.285-.686-.612-.869-.979a2.124 2.124 0 0 1-.225-1.133 2.18 2.18 0 0 1 .426-1.1l2.415-3.346.612.442-2.379 3.296a1.613 1.613 0 0 0-.313.776c-.029.27.017.531.138.786.124.255.327.483.609.686.281.203.562.323.843.36.282.036.546-.003.79-.117.248-.114.461-.295.639-.541l2.38-3.297ZM230.748 101.823l3.647-5.054L236.104 98c.395.285.671.586.827.903.157.316.213.635.166.956a2.1 2.1 0 0 1-.393.929 2.06 2.06 0 0 1-.754.66 1.586 1.586 0 0 1-.953.139c-.345-.051-.714-.218-1.106-.5l-1.383-.996.399-.553 1.363.982c.27.194.516.311.738.351a.923.923 0 0 0 .602-.076 1.39 1.39 0 0 0 .492-.441c.146-.203.236-.407.269-.613a.95.95 0 0 0-.11-.612c-.106-.203-.295-.403-.568-.6l-1.077-.776-3.256 4.511-.612-.441Zm4.019-.556-.395 3.167-.711-.512.414-3.153.692.498ZM239.132 107.927l3.648-5.054 3.052 2.199-.392.543-2.439-1.758-1.233 1.708 2.282 1.644-.392.542-2.282-1.643-1.24 1.717 2.48 1.786-.392.543-3.092-2.227Z" fill="#193248"/><path d="m54.252 155.053.764 3.889.116.117 3.894.763c.16.031.16.26 0 .291l-3.894.763-.116.116-.764 3.89c-.031.159-.258.159-.291 0l-.765-3.89-.116-.116-3.895-.763c-.16-.031-.16-.26 0-.291l3.895-.763.116-.117.765-3.889c.033-.16.26-.16.29 0ZM99.902 98.81l.765 3.89.116.116 3.895.764c.16.031.16.26 0 .29l-3.895.764-.116.118-.765 3.889c-.033.16-.26.16-.29 0l-.765-3.889-.116-.118-3.896-.764c-.16-.03-.16-.259 0-.29l3.896-.764.116-.116.765-3.89c.03-.159.26-.159.29 0ZM111.546 132.872l.765 3.892.116.116 3.894.763c.159.033.159.26 0 .291l-3.894.763-.116.116-.765 3.892c-.031.159-.259.159-.29 0l-.765-3.892-.118-.116-3.893-.763c-.16-.031-.16-.258 0-.291l3.893-.763.118-.116.765-3.892c.031-.158.259-.158.29 0ZM173.908 98.81l.764 3.89.116.116 3.894.764c.16.031.16.26 0 .29l-3.894.764-.116.118-.764 3.889c-.031.16-.26.16-.291 0l-.765-3.889-.116-.118-3.893-.764c-.16-.03-.16-.259 0-.29l3.893-.764.116-.116.765-3.89c.033-.159.26-.159.291 0ZM220.094 148.112l.765 3.89.116.118 3.893.763c.16.031.16.26 0 .291l-3.893.763-.116.118-.765 3.89c-.031.159-.26.159-.291 0l-.764-3.89-.116-.118-3.894-.763c-.16-.031-.16-.26 0-.291l3.894-.763.116-.118.764-3.89c.031-.159.26-.159.291 0ZM183.433 143.078l.764 3.891.118.117 3.894.763c.16.033.16.26 0 .291l-3.894.763-.118.116-.764 3.892c-.031.159-.26.159-.291 0l-.764-3.892-.119-.116-3.893-.763c-.16-.031-.16-.258 0-.291l3.893-.763.119-.117.764-3.891c.031-.159.26-.159.291 0ZM233.79 169.892l.765 3.89.116.116 3.894.764c.159.031.159.259 0 .29l-3.894.764-.116.116-.765 3.889c-.031.16-.259.16-.29 0l-.765-3.889-.116-.116-3.894-.764c-.159-.031-.159-.259 0-.29l3.894-.764.116-.116.765-3.89c.031-.159.258-.159.29 0ZM82.136 123.345a2.26 2.26 0 0 0-2.26-2.259 2.26 2.26 0 1 0 0 4.517c1.249 0 2.26-1.01 2.26-2.258ZM79.663 154.935c0-1.603-1.3-2.902-2.906-2.902a2.903 2.903 0 1 0 0 5.803 2.903 2.903 0 0 0 2.906-2.901ZM204.825 123.345c0-1.604-1.3-2.903-2.906-2.903a2.903 2.903 0 1 0 0 5.805 2.903 2.903 0 0 0 2.906-2.902ZM166.328 126.247a1.453 1.453 0 0 0-2.906 0c0 .802.65 1.451 1.453 1.451s1.453-.649 1.453-1.451ZM38.88 153.725a1.21 1.21 0 1 0-2.42.004 1.21 1.21 0 0 0 2.42-.004ZM44.934 185.699a1.211 1.211 0 0 0-2.421 0 1.21 1.21 0 0 0 2.42 0Z" fill="#F4F9F1"/></svg>