<svg width="312" height="314" fill="none" xmlns="http://www.w3.org/2000/svg"><path d="M23.978 267.159a62.07 62.07 0 0 0 9.578 8.187 60.943 60.943 0 0 0 16.307 8.007c6.04 1.916 12.376 2.887 18.832 2.887h.422l.457-5.758h-5.847c0 .187-.151.337-.338.337h-.456c-1.217 0-2.428-.034-3.634-.103a.337.337 0 0 1-.318-.356 63.337 63.337 0 0 1-3.383-.303.342.342 0 0 1-.336.3l-.041-.002a62.781 62.781 0 0 1-4.047-.628.336.336 0 0 1-.268-.395 63.282 63.282 0 0 1-3.314-.742.34.34 0 0 1-.413.243 62.583 62.583 0 0 1-3.928-1.156.338.338 0 0 1-.214-.428 61.39 61.39 0 0 1-3.185-1.174v.002a.34.34 0 0 1-.442.185 61.756 61.756 0 0 1-3.737-1.669.338.338 0 0 1-.156-.452 57.69 57.69 0 0 1-3-1.589.338.338 0 0 1-.461.125 61.42 61.42 0 0 1-3.483-2.151.337.337 0 0 1-.095-.468 61.893 61.893 0 0 1-2.764-1.972.338.338 0 0 1-.474.063 58.765 58.765 0 0 1-1.262-.99Zm175.796-245.23c-.007.008-.014.017-.024.024.741.853 1.46 1.727 2.158 2.622a.338.338 0 0 1 .474.064 62.862 62.862 0 0 1 2.388 3.323.34.34 0 0 1-.093.47c.313.471.62.948.919 1.43l2.149 3.446-.104.065c8.735 15.05 44.299 76.439 67.492 116.775 10.324 17.954 17.551 30.615 21.485 37.63 1.206 2.15 2.09 3.748 2.704 4.885.377.702.619 1.163.808 1.542.089.178.181.369.283.595l.08.182c3.194 7.575 4.812 15.556 4.812 23.723.002 12.354-3.719 24.366-10.758 34.736l-.029.043c-3.862 5.686-8.426 10.567-13.567 14.511a58.542 58.542 0 0 1-14.78 8.245c-7.502 2.865-15.505 4.287-24.451 4.34l.487 6.106.005.054.004.06c.014.167.038.454.042.856v.035c0 .586-.059 1.143-.177 1.702a7.854 7.854 0 0 1-1.984 3.785c-.44.467-.945.886-1.497 1.247a9.37 9.37 0 0 1-1.632.842c-.671.266-1.255.428-1.691.542-.636.163-1.32.307-2.236.473-1.004.182-2.244.383-4.026.65-2.119.317-4.852.707-8.312 1.199l-.263.038c-4.605.657-10.912 1.555-19.286 2.788a4268.632 4268.632 0 0 0-44.163 6.771l-.069.01a8.503 8.503 0 0 1-2.524.004L76.406 295.96a8.573 8.573 0 0 1-1.213-.273 8.679 8.679 0 0 0 2.768 4.153 8.616 8.616 0 0 0 4.207 1.879l77.992 11.783a8.773 8.773 0 0 0 2.524-.004l.069-.011a4298.457 4298.457 0 0 1 44.163-6.77c8.374-1.233 14.681-2.131 19.286-2.788l.264-.038c3.459-.492 6.192-.882 8.311-1.199 1.784-.269 3.024-.468 4.027-.65.915-.167 1.599-.31 2.235-.473a13.836 13.836 0 0 0 1.691-.543 9.228 9.228 0 0 0 1.632-.841 8.292 8.292 0 0 0 1.497-1.247 7.892 7.892 0 0 0 1.985-3.786 8.128 8.128 0 0 0 .176-1.701v-.035a10.401 10.401 0 0 0-.042-.856l-.004-.06-.005-.054-.487-6.107c8.946-.052 16.951-1.474 24.453-4.339a58.546 58.546 0 0 0 14.78-8.245c5.141-3.944 9.707-8.826 13.567-14.511l.029-.043c7.039-10.37 10.76-22.385 10.758-34.737.002-8.167-1.618-16.147-4.812-23.723l-.08-.181a15.5 15.5 0 0 0-.283-.595c-.189-.379-.431-.84-.808-1.542a377.034 377.034 0 0 0-2.704-4.885c-3.934-7.015-11.161-19.674-21.485-37.628-23.193-40.338-58.759-101.727-67.492-116.775l.103-.066-2.148-3.446a61.888 61.888 0 0 0-11.586-13.693Z" fill="#B6B5BF"/><path d="m300.491 194.978-.08-.181a14.13 14.13 0 0 0-.283-.595c-.189-.379-.43-.84-.808-1.542a389.692 389.692 0 0 0-2.704-4.886c-3.934-7.015-11.161-19.673-21.485-37.629-23.192-40.337-58.759-101.727-67.492-116.775l.104-.066-2.149-3.446c-5.722-9.18-13.725-16.688-23.145-21.717C173.502 3.365 163.36.838 153.116.838a61.946 61.946 0 0 0-22.381 4.148 60.643 60.643 0 0 0-19.921 12.567l-.051.047c-1.333 1.259-2.764 2.657-4.228 4.341-1.235 1.42-2.393 2.928-3.648 4.748-2.027 2.935-4.331 6.703-8.225 13.433-2.678 4.631-6.054 10.574-10.326 18.099-4.313 7.594-9.679 17.043-16.356 28.717-17.39 30.397-36.544 63.395-58.554 100.878l-.045.08c-4.843 8.394-7.687 17.825-8.227 27.284l-.012.116v.109a61.188 61.188 0 0 0 4.607 26.83c4.594 11.088 12.218 20.547 22.046 27.355a60.943 60.943 0 0 0 16.308 8.007c6.04 1.916 12.376 2.887 18.832 2.887h6.643l-.496 6.246a8.6 8.6 0 0 0 .528 3.735 8.661 8.661 0 0 0 2.583 3.608 8.615 8.615 0 0 0 4.21 1.879l77.991 11.783a8.533 8.533 0 0 0 2.524-.004l.069-.011a4321.814 4321.814 0 0 1 44.164-6.77c8.373-1.233 14.68-2.131 19.285-2.788l.264-.038c3.459-.492 6.192-.882 8.312-1.199 1.783-.267 3.023-.468 4.026-.65.913-.167 1.6-.31 2.235-.473a13.836 13.836 0 0 0 1.691-.543 9.228 9.228 0 0 0 1.632-.841 8.21 8.21 0 0 0 1.497-1.247 7.892 7.892 0 0 0 1.985-3.786 8.128 8.128 0 0 0 .176-1.701v-.035a10.428 10.428 0 0 0-.042-.856l-.004-.06-.005-.054-.487-6.106c8.946-.053 16.949-1.475 24.451-4.34a58.511 58.511 0 0 0 14.78-8.245c5.142-3.944 9.707-8.825 13.568-14.511l.029-.043c7.039-10.37 10.76-22.384 10.758-34.737.002-8.165-1.616-16.145-4.811-23.719Z" fill="#fff"/><path d="M208.945 34.95c-.371-.639-.708-1.223-1.015-1.75l-.293.168.18.287.104-.066a.338.338 0 0 0 .107-.466l-1.073-1.721a.34.34 0 0 0-.576.357l1.073 1.721.287-.18-.18-.286-.103.066a.34.34 0 0 0-.115.457l1.016 1.75a.34.34 0 0 0 .463.124.334.334 0 0 0 .125-.461ZM59.3 280.718c1.205.069 2.418.103 3.633.103h.456a.337.337 0 1 0 0-.675h-.456a64.12 64.12 0 0 1-3.596-.101.337.337 0 1 0-.038.673Zm-8.126-.991c1.339.254 2.688.463 4.047.628a.337.337 0 1 0 .081-.671 60.302 60.302 0 0 1-4.002-.623.34.34 0 0 0-.126.666Zm-7.923-2.05a61.562 61.562 0 0 0 3.928 1.156.338.338 0 1 0 .17-.655 60.714 60.714 0 0 1-3.885-1.145.338.338 0 0 0-.427.214.34.34 0 0 0 .214.43Zm-7.58-3.085a61.02 61.02 0 0 0 3.738 1.669.337.337 0 1 0 .256-.626 61.056 61.056 0 0 1-3.698-1.651.337.337 0 1 0-.296.608Zm-7.1-4.068c1.138.757 2.3 1.475 3.483 2.152a.338.338 0 1 0 .336-.586 60.091 60.091 0 0 1-3.445-2.128.338.338 0 1 0-.374.562Zm-6.502-4.967a61.653 61.653 0 0 0 3.17 2.589.339.339 0 0 0 .41-.537 63.06 63.06 0 0 1-3.135-2.561.337.337 0 0 0-.477.032.336.336 0 0 0 .032.477Zm-5.794-5.772a62.905 62.905 0 0 0 2.802 2.982.338.338 0 1 0 .478-.477 60.196 60.196 0 0 1-2.772-2.95.34.34 0 0 0-.478-.03.336.336 0 0 0-.03.475Zm-4.989-6.484a63.166 63.166 0 0 0 2.388 3.324.336.336 0 0 0 .474.061.336.336 0 0 0 .062-.473 61.33 61.33 0 0 1-2.363-3.287.338.338 0 1 0-.561.375Zm-4.099-7.076a62.373 62.373 0 0 0 1.934 3.604.338.338 0 1 0 .587-.339 62.207 62.207 0 0 1-1.914-3.567.339.339 0 0 0-.607.302Zm-3.147-7.547c.425 1.239.89 2.469 1.395 3.688l.058.138a.338.338 0 0 0 .625-.26l-.057-.136a63.032 63.032 0 0 1-1.38-3.648.34.34 0 0 0-.64.218Zm-2.134-7.893c.267 1.335.58 2.663.937 3.982a.338.338 0 0 0 .652-.176 61.68 61.68 0 0 1-.926-3.939.337.337 0 0 0-.398-.264.336.336 0 0 0-.265.397ZM.84 222.678a60.72 60.72 0 0 0 .398 4.07.337.337 0 0 0 .38.291.336.336 0 0 0 .29-.379 60.738 60.738 0 0 1-.394-4.028.337.337 0 1 0-.674.046Zm.015-8.178c-.015.219-.03.439-.042.658l.338.018-.336-.036-.013.116-.002.038v.109h.338l-.338-.018a62.75 62.75 0 0 0-.089 3.202.34.34 0 0 0 .678.002c.002-1.052.03-2.119.087-3.168v-.107l.01-.098.003-.018c.012-.218.025-.433.04-.651a.337.337 0 0 0-.315-.359.336.336 0 0 0-.36.312Zm1.113-8.102a61.123 61.123 0 0 0-.694 4.033.338.338 0 1 0 .67.092c.184-1.333.413-2.663.687-3.987a.338.338 0 0 0-.663-.138Zm2.18-7.88a62.956 62.956 0 0 0-1.22 3.905.339.339 0 0 0 .653.18c.36-1.299.76-2.587 1.206-3.862a.338.338 0 0 0-.21-.43.334.334 0 0 0-.43.207Zm3.183-7.534a63.1 63.1 0 0 0-1.715 3.715.338.338 0 1 0 .623.263 62.052 62.052 0 0 1 1.696-3.675.338.338 0 0 0-.604-.303Zm4.011-7.104-2.06 3.508a.34.34 0 0 0 .12.463.34.34 0 0 0 .464-.12l2.06-3.508a.338.338 0 0 0-.584-.343Zm4.119-7.021c-.683 1.167-1.37 2.337-2.058 3.51a.338.338 0 1 0 .585.341l2.058-3.51a.338.338 0 0 0-.585-.341Zm4.113-7.024-2.056 3.512a.338.338 0 1 0 .585.341c.688-1.175 1.375-2.346 2.056-3.512a.338.338 0 1 0-.585-.341Zm4.108-7.026c-.683 1.166-1.366 2.338-2.054 3.514a.338.338 0 0 0 .585.341 4720.19 4720.19 0 0 0 2.054-3.514.339.339 0 1 0-.585-.341Zm4.104-7.03-2.05 3.514a.338.338 0 1 0 .585.341 4524.32 4524.32 0 0 0 2.052-3.515.338.338 0 0 0-.122-.463.342.342 0 0 0-.465.123Zm4.1-7.031a6021.92 6021.92 0 0 0-2.048 3.516.338.338 0 0 0 .585.341c.686-1.178 1.37-2.35 2.048-3.516a.339.339 0 0 0-.584-.341Zm4.094-7.035-2.047 3.517a.338.338 0 1 0 .585.341l2.047-3.517a.337.337 0 0 0-.124-.463.337.337 0 0 0-.461.122Zm4.09-7.037c-.68 1.168-1.36 2.342-2.043 3.519a.34.34 0 0 0 .587.34l2.042-3.52a.338.338 0 0 0-.123-.462.336.336 0 0 0-.463.123Zm4.082-7.042c-.677 1.17-1.358 2.343-2.041 3.521a.338.338 0 0 0 .123.462.338.338 0 0 0 .463-.123c.683-1.177 1.364-2.351 2.041-3.521a.338.338 0 0 0-.587-.339Zm4.077-7.044-2.038 3.523a.335.335 0 0 0 .124.46.336.336 0 0 0 .461-.123l2.038-3.523a.34.34 0 0 0-.124-.463.342.342 0 0 0-.461.126Zm4.071-7.048-2.034 3.525a.338.338 0 0 0 .585.339l2.036-3.525a.339.339 0 1 0-.587-.339Zm4.065-7.052c-.674 1.172-1.352 2.348-2.032 3.527a.338.338 0 1 0 .586.336c.681-1.18 1.357-2.355 2.032-3.527a.337.337 0 0 0-.125-.461.34.34 0 0 0-.461.125Zm4.058-7.055-2.028 3.529a.338.338 0 0 0 .586.335l2.029-3.528a.338.338 0 0 0-.587-.336Zm4.052-7.06-2.025 3.53a.338.338 0 0 0 .587.336l2.024-3.53a.338.338 0 0 0-.586-.336Zm4.044-7.064-.834 1.457-1.187 2.075a.338.338 0 0 0 .586.335c.398-.692.792-1.384 1.188-2.075l.834-1.458a.338.338 0 0 0-.126-.461.341.341 0 0 0-.461.127Zm4.035-7.066-2.017 3.534a.338.338 0 0 0 .586.336l2.018-3.536a.338.338 0 1 0-.587-.334Zm4.03-7.073c-.654 1.15-1.326 2.327-2.014 3.535a.338.338 0 1 0 .588.334c.689-1.208 1.36-2.387 2.014-3.537a.337.337 0 0 0-.127-.46.341.341 0 0 0-.461.128Zm4.024-7.075-2.01 3.537a.337.337 0 0 0 .127.461.34.34 0 0 0 .461-.127c.692-1.215 1.362-2.394 2.012-3.54a.338.338 0 1 0-.59-.331Zm4.02-7.079-.588 1.034c-.46.813-.935 1.648-1.422 2.506a.339.339 0 0 0 .589.333l1.422-2.505.588-1.034a.338.338 0 0 0-.588-.334Zm4.023-7.077c-.643 1.133-1.315 2.312-2.012 3.538a.337.337 0 0 0 .127.46.34.34 0 0 0 .462-.126c.697-1.228 1.367-2.406 2.012-3.538a.338.338 0 0 0-.588-.334Zm4.035-7.069c-.639 1.114-1.313 2.291-2.02 3.534a.338.338 0 1 0 .588.334c.71-1.243 1.382-2.419 2.02-3.532a.338.338 0 1 0-.588-.336Zm4.088-7.042a593.58 593.58 0 0 0-2.054 3.515.338.338 0 1 0 .587.34c.739-1.276 1.42-2.44 2.05-3.512a.338.338 0 1 0-.583-.343Zm4.25-6.955a151.542 151.542 0 0 0-2.16 3.457.34.34 0 0 0 .113.465.34.34 0 0 0 .465-.113c.79-1.299 1.496-2.429 2.15-3.443a.338.338 0 1 0-.568-.366Zm4.799-6.62a51.953 51.953 0 0 0-2.508 3.238.338.338 0 0 0 .551.394 51.608 51.608 0 0 1 2.475-3.197.336.336 0 0 0-.042-.475.336.336 0 0 0-.476.04Zm5.728-5.843c-.325.294-.648.593-.968.896l-.051.049a80.786 80.786 0 0 0-1.936 1.881.337.337 0 0 0 .002.477.34.34 0 0 0 .48-.002 77.158 77.158 0 0 1 1.921-1.866l.051-.05c.316-.299.635-.593.957-.885a.337.337 0 0 0 .023-.477.34.34 0 0 0-.479-.023Zm6.414-5.076a61.94 61.94 0 0 0-3.292 2.43.338.338 0 1 0 .421.53 60.896 60.896 0 0 1 3.256-2.405.337.337 0 1 0-.385-.555Zm7.041-4.174a60.06 60.06 0 0 0-3.59 1.968.338.338 0 1 0 .345.58 60.378 60.378 0 0 1 3.55-1.946.337.337 0 1 0-.305-.602Zm7.533-3.197a62.447 62.447 0 0 0-3.821 1.475.337.337 0 1 0 .263.622 60.206 60.206 0 0 1 1.874-.758 67.149 67.149 0 0 1 1.905-.7.337.337 0 1 0-.221-.639Zm7.888-2.179a61.339 61.339 0 0 0-3.98.96.34.34 0 0 0-.237.416.34.34 0 0 0 .416.235 61.212 61.212 0 0 1 3.937-.948.338.338 0 1 0-.136-.663Zm8.109-1.12a61.984 61.984 0 0 0-4.072.427.338.338 0 1 0 .093.67 60.79 60.79 0 0 1 4.028-.423.338.338 0 0 0-.049-.675Zm8.184-.062A62.74 62.74 0 0 0 153.116.5c-.164 0-.327 0-.489.002a.338.338 0 1 0 .006.677c.161-.002.323-.002.483-.002 1.191 0 2.379.034 3.566.101a.338.338 0 1 0 .038-.674Zm8.123 1a63.06 63.06 0 0 0-4.046-.632.338.338 0 1 0-.083.671c1.342.165 2.677.374 4.002.624a.338.338 0 1 0 .127-.664Zm7.925 2.04a62.499 62.499 0 0 0-3.929-1.15.339.339 0 1 0-.169.655c1.307.337 2.604.716 3.886 1.137a.338.338 0 0 0 .212-.642Zm7.591 3.059a61.47 61.47 0 0 0-3.744-1.655.337.337 0 1 0-.253.626 61.308 61.308 0 0 1 3.705 1.636c.169.082.37.011.452-.157a.338.338 0 0 0-.16-.45Zm7.117 4.04a61.025 61.025 0 0 0-3.49-2.141.337.337 0 0 0-.461.127.336.336 0 0 0 .127.46 60.303 60.303 0 0 1 3.45 2.118.338.338 0 0 0 .374-.564Zm6.509 4.957a61.972 61.972 0 0 0-3.171-2.586.337.337 0 1 0-.41.537 61.502 61.502 0 0 1 3.136 2.558c.14.123.354.108.477-.033a.335.335 0 0 0-.032-.475Zm5.796 5.775a61.61 61.61 0 0 0-2.802-2.983.34.34 0 0 0-.479 0 .337.337 0 0 0 0 .477 61.993 61.993 0 0 1 2.771 2.95.34.34 0 0 0 .478.031.335.335 0 0 0 .032-.475Zm4.987 6.483a61.734 61.734 0 0 0-2.388-3.323.337.337 0 0 0-.474-.062.336.336 0 0 0-.062.474 62.178 62.178 0 0 1 2.361 3.287.34.34 0 0 0 .469.092.336.336 0 0 0 .094-.468ZM67.546 280.821h1.663l-.13 1.656a.339.339 0 0 0 .676.053l.159-2.021-.09-.256-.248-.108h-2.03a.338.338 0 0 0 0 .676ZM241.951 290.926c.2-.477.354-.973.456-1.468v.002a8.468 8.468 0 0 0 .183-1.771v-.036a10.025 10.025 0 0 0-.044-.887l-.337.031.337-.018-.003-.055a.338.338 0 0 0-.676.036l.004.055v.013c.014.163.036.437.04.829v.032c0 .564-.056 1.096-.169 1.633a7.42 7.42 0 0 1-.418 1.346.339.339 0 0 0 .182.443.345.345 0 0 0 .445-.185Zm-6.451 5.17c.425-.113.97-.272 1.588-.517h.001a9.765 9.765 0 0 0 1.691-.871h.002c.194-.127.385-.261.566-.403a.336.336 0 0 0 .062-.473.34.34 0 0 0-.474-.062 8.094 8.094 0 0 1-.523.372 9.07 9.07 0 0 1-1.576.813h.002c-.583.232-1.099.382-1.511.491a.337.337 0 0 0-.24.414.337.337 0 0 0 .412.236Zm-8.192 1.426a332.095 332.095 0 0 0 4.099-.624.337.337 0 0 0 .28-.389.337.337 0 0 0-.389-.279c-.666.107-1.433.227-2.341.363-.541.081-1.124.167-1.747.257a.339.339 0 0 0-.285.383.338.338 0 0 0 .383.289Zm-8.197 1.173 1.371-.196.263-.038 2.465-.35a.338.338 0 1 0-.097-.669l-2.464.352-.263.038c-.441.063-.897.127-1.369.196a.337.337 0 1 0 .094.667Zm-8.196 1.174 4.097-.589a.339.339 0 0 0-.096-.67c-1.277.183-2.642.379-4.099.59a.339.339 0 0 0-.287.382.34.34 0 0 0 .385.287Zm-8.192 1.194c1.428-.211 2.793-.41 4.095-.599a.338.338 0 1 0-.096-.669l-4.097.598a.339.339 0 0 0 .098.67Zm-8.192 1.213 4.097-.609a.338.338 0 1 0-.1-.67l-4.098.61a.338.338 0 1 0 .101.669Zm-8.193 1.236c1.376-.209 2.742-.416 4.096-.619a.335.335 0 0 0 .284-.384.336.336 0 0 0-.385-.283l-4.097.618a.337.337 0 1 0 .102.668Zm-8.185 1.25c1.375-.213 2.738-.421 4.091-.628a.338.338 0 1 0-.101-.668l-4.094.628a.338.338 0 0 0-.283.387.341.341 0 0 0 .387.281Zm-8.181 1.264 4.091-.635a.34.34 0 0 0 .284-.386.34.34 0 0 0-.387-.283c-1.353.208-2.715.421-4.092.635a.337.337 0 0 0-.281.386c.027.187.2.312.385.283Zm-8.179 1.281 4.089-.642a.338.338 0 1 0-.105-.668l-4.09.642a.338.338 0 1 0 .106.668Zm-8.307.635.854.129h.001a9.086 9.086 0 0 0 2.623-.004l.069-.011h.002l.664-.105a.338.338 0 1 0-.105-.668l-.665.106-.067.01a8.39 8.39 0 0 1-2.424.004h.002l-.856-.129a.339.339 0 0 0-.385.283.342.342 0 0 0 .287.385Zm-8.186-1.237 4.093.618a.338.338 0 0 0 .102-.667l-4.094-.619a.34.34 0 0 0-.385.283.336.336 0 0 0 .284.385Zm-8.187-1.238 4.093.619a.338.338 0 0 0 .102-.668l-4.093-.618a.339.339 0 0 0-.385.283.335.335 0 0 0 .283.384Zm-8.188-1.235 4.093.619c.185.027.358-.1.385-.283a.339.339 0 0 0-.283-.385l-4.094-.619a.338.338 0 1 0-.101.668Zm-8.187-1.237 4.093.618a.337.337 0 1 0 .102-.667l-4.093-.619a.337.337 0 1 0-.102.668Zm-8.188-1.237 4.093.618a.338.338 0 0 0 .102-.667l-4.093-.619a.338.338 0 0 0-.102.668Zm-8.187-1.238 4.094.619a.34.34 0 0 0 .385-.283.34.34 0 0 0-.284-.385l-4.093-.618a.339.339 0 0 0-.385.283.335.335 0 0 0 .283.384Zm-8.186-1.237 4.093.619c.185.027.358-.1.385-.283a.339.339 0 0 0-.283-.385l-4.094-.618a.337.337 0 1 0-.101.667Zm-8.189-1.237 4.094.619c.185.027.358-.1.385-.283a.339.339 0 0 0-.284-.385l-4.093-.619a.339.339 0 0 0-.385.283.336.336 0 0 0 .284.385Zm-8.186-1.235 4.093.618a.338.338 0 1 0 .102-.667l-4.093-.619a.338.338 0 0 0-.102.668Zm-7.923-2.557.096.082a8.938 8.938 0 0 0 3.712 1.829.339.339 0 0 0 .15-.659 8.267 8.267 0 0 1-3.432-1.691l-.089-.074a.34.34 0 0 0-.477.038.338.338 0 0 0 .04.475Zm-3.13-7.655-.008.103c-.019.24-.03.481-.03.715h.338l-.337-.003v.009c0 1.084.194 2.149.579 3.162l.087.221a.34.34 0 0 0 .627-.256l-.08-.205a8.227 8.227 0 0 1-.534-2.922v-.006c0-.218.009-.439.025-.66l.01-.102a.339.339 0 0 0-.676-.056ZM242.214 282.572l-.162-2.023-.337.027.001.338a85.676 85.676 0 0 0 2.04-.037.338.338 0 0 0-.022-.675c-.668.02-1.342.033-2.023.037l-.247.109-.089.255.162 2.023a.337.337 0 0 0 .365.31.338.338 0 0 0 .312-.364ZM212.996 41.938c-.731-1.263-1.414-2.442-2.046-3.53a.34.34 0 0 0-.587.34c.632 1.087 1.315 2.266 2.047 3.529a.34.34 0 0 0 .463.123.336.336 0 0 0 .123-.462Zm4.092 7.058c-.71-1.222-1.391-2.402-2.045-3.528a.34.34 0 0 0-.463-.124.338.338 0 0 0-.124.463l2.045 3.529a.34.34 0 0 0 .587-.34Zm4.089 7.059-2.044-3.529a.339.339 0 0 0-.587.34l2.045 3.528a.34.34 0 0 0 .586-.34Zm4.086 7.057-2.043-3.529a.338.338 0 1 0-.586.34l2.043 3.528a.34.34 0 0 0 .463.123.336.336 0 0 0 .123-.462Zm4.086 7.058-2.043-3.528a.338.338 0 1 0-.586.34c.672 1.158 1.353 2.336 2.043 3.528a.339.339 0 1 0 .586-.34Zm4.085 7.057c-.689-1.188-1.368-2.365-2.042-3.528a.337.337 0 1 0-.584.34l2.041 3.527a.338.338 0 0 0 .585-.339Zm4.082 7.059-2.041-3.529a.339.339 0 0 0-.587.34c.676 1.168 1.357 2.343 2.041 3.528.093.162.3.218.462.123a.338.338 0 0 0 .125-.462Zm4.082 7.058c-.682-1.182-1.363-2.358-2.041-3.53a.338.338 0 1 0-.586.34l2.041 3.53a.338.338 0 1 0 .586-.34Zm4.081 7.06c-.683-1.18-1.362-2.357-2.039-3.531a.34.34 0 0 0-.587.34c.677 1.171 1.358 2.348 2.039 3.53a.339.339 0 0 0 .587-.34Zm4.084 7.067-2.045-3.538a.338.338 0 1 0-.586.34l2.045 3.537a.338.338 0 0 0 .586-.339Zm4.079 7.062-2.038-3.53a.338.338 0 1 0-.586.339l2.037 3.53a.338.338 0 1 0 .587-.339Zm4.068 7.048-2.032-3.521a.338.338 0 1 0-.587.339l2.032 3.521a.338.338 0 0 0 .587-.339Zm4.075 7.062-2.038-3.532a.336.336 0 0 0-.461-.123.337.337 0 0 0-.124.462c.681 1.183 1.363 2.36 2.038 3.532.093.162.3.218.463.124a.342.342 0 0 0 .122-.463Zm4.073 7.064-2.036-3.532a.338.338 0 0 0-.586.336 6877.5 6877.5 0 0 1 2.036 3.532.338.338 0 0 0 .586-.336Zm4.07 7.066-2.034-3.532a.339.339 0 0 0-.587.336l2.034 3.532a.339.339 0 0 0 .587-.336Zm4.068 7.068-2.034-3.534a.339.339 0 0 0-.587.335l2.034 3.534a.338.338 0 0 0 .587-.335Zm4.06 7.064c-.663-1.154-1.338-2.331-2.03-3.532a.338.338 0 0 0-.587.335c.69 1.203 1.368 2.379 2.031 3.532a.337.337 0 1 0 .586-.335Zm4.055 7.066-2.026-3.534a.339.339 0 0 0-.587.335l2.027 3.534a.337.337 0 1 0 .586-.335Zm4.05 7.071-2.023-3.536a.339.339 0 0 0-.587.336c.698 1.215 1.371 2.395 2.023 3.536a.339.339 0 0 0 .587-.336Zm4.041 7.075c-.643-1.128-1.315-2.308-2.02-3.539a.34.34 0 0 0-.461-.127.337.337 0 0 0-.127.46l2.019 3.538a.34.34 0 0 0 .461.127.337.337 0 0 0 .128-.459Zm4.024 7.084-2.01-3.545a.341.341 0 0 0-.462-.127.34.34 0 0 0-.127.461c.717 1.263 1.388 2.444 2.009 3.543a.339.339 0 0 0 .59-.332Zm3.99 7.108c-.434-.782-.934-1.68-1.506-2.7l-.481-.858a.338.338 0 1 0-.59.332c.165.294.327.581.481.858.572 1.02 1.071 1.916 1.504 2.698.09.163.296.223.459.132a.341.341 0 0 0 .133-.462Zm3.51 7.394a67.058 67.058 0 0 0-1.122-2.857l-.002-.006-.08-.181a13.157 13.157 0 0 0-.289-.608l-.074-.147a.337.337 0 0 0-.454-.149.336.336 0 0 0-.149.454l.071.143c.087.176.178.361.276.583l.08.181.308-.136-.312.131c.394.936.764 1.877 1.111 2.826a.34.34 0 0 0 .636-.234Zm2.292 7.855a61.027 61.027 0 0 0-1.015-3.968.339.339 0 0 0-.651.189c.38 1.299.714 2.607 1.003 3.922.04.182.22.298.403.258a.336.336 0 0 0 .26-.401Zm1.218 8.093a60.855 60.855 0 0 0-.472-4.068.337.337 0 0 0-.385-.284.338.338 0 0 0-.285.384c.2 1.333.356 2.674.467 4.022a.336.336 0 0 0 .365.308.334.334 0 0 0 .31-.362Zm.126 8.183c.052-1.04.079-2.083.079-3.129v-.017c0-.315-.001-.633-.007-.948a.34.34 0 0 0-.677.009c.005.312.007.625.007.938V218.701a60.17 60.17 0 0 1-.078 3.095.337.337 0 0 0 .321.354.33.33 0 0 0 .355-.316Zm-.957 8.127a61.8 61.8 0 0 0 .613-4.047.338.338 0 0 0-.672-.08 61.844 61.844 0 0 1-.606 4.004.338.338 0 0 0 .665.123Zm-2.029 7.929a61.567 61.567 0 0 0 1.146-3.931.34.34 0 0 0-.243-.411.34.34 0 0 0-.413.243 60.568 60.568 0 0 1-1.133 3.887.338.338 0 0 0 .643.212Zm-3.058 7.592a62.282 62.282 0 0 0 1.654-3.746.337.337 0 1 0-.626-.252 62.147 62.147 0 0 1-1.636 3.706.337.337 0 1 0 .608.292Zm-4.019 7.132a64.255 64.255 0 0 0 2.125-3.502.337.337 0 0 0-.129-.46.337.337 0 0 0-.461.128 63.29 63.29 0 0 1-2.103 3.465.339.339 0 0 0 .568.369Zm-4.88 6.572a63.846 63.846 0 0 0 2.539-3.211.34.34 0 0 0-.545-.403 63.589 63.589 0 0 1-2.513 3.179.336.336 0 0 0 .042.475.338.338 0 0 0 .477-.04Zm-5.673 5.901a60.707 60.707 0 0 0 2.935-2.857.339.339 0 0 0-.487-.47c-.94.98-1.908 1.923-2.902 2.827a.335.335 0 0 0-.021.477.334.334 0 0 0 .475.023Zm-6.425 5.08a56.86 56.86 0 0 0 3.302-2.427.339.339 0 0 0 .054-.476.34.34 0 0 0-.476-.056 58.157 58.157 0 0 1-3.263 2.4.339.339 0 1 0 .383.559Zm-7.073 4.131a58.344 58.344 0 0 0 3.608-1.943.339.339 0 0 0-.341-.585 57.08 57.08 0 0 1-3.568 1.92.336.336 0 0 0-.153.453.339.339 0 0 0 .454.155Zm-7.575 3.12a60.355 60.355 0 0 0 3.841-1.433.337.337 0 1 0-.258-.624 65.254 65.254 0 0 1-3.797 1.416.336.336 0 0 0-.212.428.334.334 0 0 0 .426.213Zm-7.914 2.108a67.164 67.164 0 0 0 3.992-.927.338.338 0 1 0-.174-.653 65.761 65.761 0 0 1-3.95.918.337.337 0 1 0 .132.662Zm-8.112 1.126a74.448 74.448 0 0 0 4.072-.444.339.339 0 0 0-.093-.67 70.336 70.336 0 0 1-4.033.441.34.34 0 0 0-.311.365.34.34 0 0 0 .365.308Z" fill="#193248"/><path d="M293.779 197.803c-2.215-5.254-94.35-164.07-94.368-164.1C180.942 4.09 140.226-.21 115.819 22.842c-11.443 10.804-7.379 10.734-100.11 168.656-4.32 7.476-6.824 15.714-7.29 24.196-1.684 30.23 22.231 57.516 54.516 57.516h14.528l-1.122 14.105a1.361 1.361 0 0 0 1.151 1.449l77.95 11.777.203.015.204-.015c80-12.653 79.294-10.785 79.101-13.224l-1.122-14.105c.336-.134 1.543-.064 3.416.011 9.229.357 34.604.716 51.278-23.865 10.304-15.193 12.491-34.402 5.257-51.554Z" fill="#F8FCEF"/><path d="m293.779 197.803 2.948-1.239a9.42 9.42 0 0 0-.255-.545c-.359-.718-.995-1.89-1.928-3.579-3.485-6.291-10.983-19.427-20.292-35.63-27.918-48.6-72.059-124.688-72.074-124.71a3.195 3.195 0 0 0-2.767-1.593v3.195l2.715-1.69c-5.577-8.946-13.11-15.74-21.602-20.272-8.493-4.535-17.942-6.823-27.407-6.823-14.172-.003-28.424 5.142-39.494 15.6-2.924 2.748-5.116 5.103-7.887 9.243-4.168 6.207-9.919 16.548-23.397 40.242-13.468 23.683-34.62 60.667-69.39 119.877l-.01.02c-4.56 7.891-7.22 16.622-7.713 25.618a56.534 56.534 0 0 0-.089 3.18c.002 15.369 6.19 29.782 16.502 40.364 10.306 10.583 24.807 17.348 41.296 17.343H74l-.848 10.656a4.546 4.546 0 0 0 1.082 3.319 4.555 4.555 0 0 0 2.78 1.541h-.002l77.95 11.777.233.027.203.016c.189.015.304.015.491 0l.203-.016.254-.031c37.764-5.972 57.506-8.704 67.851-10.186a442.84 442.84 0 0 0 6.164-.914 67.861 67.861 0 0 0 2.886-.51c.581-.12 1.073-.236 1.538-.377a7.031 7.031 0 0 0 1.047-.403c.273-.133.563-.299.865-.541.452-.348.93-.929 1.178-1.558a3.974 3.974 0 0 0 .291-1.522c-.002-.347-.027-.526-.033-.621l-1.122-14.104-3.189.254 1.197 2.962-.943-2.333.462 2.477c.087-.019.227-.042.481-.144l-.943-2.333.462 2.477-.273-1.461.156 1.479.117-.018-.273-1.461.156 1.479-.049-.466.04.468.009-.002-.049-.466.04.468s.097-.006.247-.006c.456-.002 1.339.04 2.456.084 1.124.043 2.507.087 4.093.087 5.829-.002 14.392-.595 23.499-4.073 9.104-3.467 18.748-9.896 26.457-21.279 6.596-9.717 10.055-21.011 10.055-32.449a56.9 56.9 0 0 0-4.492-22.137 3.205 3.205 0 0 0-2.948-1.954v3.193l-2.947 1.241a50.494 50.494 0 0 1 3.991 19.655c0 10.15-3.067 20.189-8.952 28.862-6.967 10.252-15.369 15.796-23.447 18.896-8.074 3.088-15.828 3.652-21.214 3.65-1.468 0-2.757-.042-3.845-.083-1.093-.042-1.961-.088-2.702-.089-.261 0-.51.005-.797.029a5.134 5.134 0 0 0-.492.065 3.8 3.8 0 0 0-.743.214 3.188 3.188 0 0 0-1.992 3.216l1.122 14.103.015.169v.011l1.031-.062h-1.031l.001.062 1.032-.062h-1.032 2.399l-2.184-.967a2.411 2.411 0 0 0-.216.967h2.398l-2.184-.967 2.279 1.009-1.526-1.979a2.54 2.54 0 0 0-.751.97l2.279 1.009-1.526-1.979 1.121 1.453-.877-1.613-.244.16 1.121 1.453-.877-1.613.368.679-.294-.717-.074.038.368.677-.294-.717c-.009.009-.387.133-1.042.265-1.163.243-3.193.566-6.362 1.027-9.532 1.389-29.392 4.071-70.308 10.541l.499 3.157-.245-3.186-.203.017.245 3.185.245-3.185-.085-.008-77.834-11.758h-.002l-.274 1.819 1.4-1.197a1.85 1.85 0 0 0-1.126-.622l-.274 1.819 1.4-1.197-1.398 1.197h1.84c0-.461-.171-.882-.442-1.197l-1.398 1.197h1.84-1.851l1.845.147.005-.147h-1.85l1.845.147 1.122-14.106a3.193 3.193 0 0 0-3.189-3.447H62.938c-14.722-.006-27.521-5.992-36.712-15.411-9.183-9.422-14.691-22.264-14.69-35.904 0-.938.026-1.882.079-2.829.44-7.972 2.789-15.719 6.866-22.777l-.011.02C64.845 114.135 87.033 74.637 99.031 53.577c5.995-10.524 9.449-16.438 12.019-20.255 2.582-3.82 4.173-5.509 6.971-8.163 9.83-9.284 22.462-13.849 35.102-13.852 8.435 0 16.852 2.04 24.392 6.068 7.54 4.029 14.205 10.03 19.188 18.016a3.209 3.209 0 0 0 2.715 1.505v-3.194l-2.768 1.602c.008.014 23.046 39.724 46.358 80.084 11.655 20.18 23.379 40.524 32.324 56.147a3385.066 3385.066 0 0 1 10.976 19.276 621.115 621.115 0 0 1 3.247 5.818c.392.717.708 1.299.934 1.727.112.214.203.388.265.513l.071.145.014.033.002.004.637-.28-.641.271.004.009.637-.28-.641.271a3.206 3.206 0 0 0 2.948 1.955v-3.194l-2.948 1.241 2.942-1.241Z" fill="#F8FCEF"/><path d="M16.445 228.129a47.993 47.993 0 0 0 12.01 23.112 47.203 47.203 0 0 0 9.479 7.786c7.413 4.611 16.057 7.049 25 7.049h180.488c7.865 0 15.29-1.807 22.071-5.37a46.907 46.907 0 0 0 12.051-9.086 48.07 48.07 0 0 0 5.067-6.266 48.875 48.875 0 0 0 3.251-5.542 48.1 48.1 0 0 0 4.256-12.721 46.269 46.269 0 0 0 .026-16.68 46.887 46.887 0 0 0-2.123-7.786c-.233-.632-.5-1.305-.817-2.056a49.443 49.443 0 0 0-2.735-5.509L194.224 38.917a42.833 42.833 0 0 0-.868-1.444 47.733 47.733 0 0 0-8.086-9.798 46.31 46.31 0 0 0-14.55-9.12 47.713 47.713 0 0 0-15.087-3.24 48.212 48.212 0 0 0-2.456-.063c-7.65 0-15.238 1.835-21.935 5.301a46.465 46.465 0 0 0-10.517 7.469 47.487 47.487 0 0 0-5.735 6.512 49.509 49.509 0 0 0-2.854 4.385L21.891 195.062a49.036 49.036 0 0 0-1.142 2.102c-2.825 5.479-4.534 11.298-5.083 17.294-.05.555-.092 1.103-.122 1.629-.223 4.018.08 8.069.901 12.042Z" fill="#BC4748"/><path d="m16.445 228.129-7.151 1.475a55.296 55.296 0 0 0 13.83 26.623 54.506 54.506 0 0 0 10.947 8.991c8.597 5.35 18.59 8.154 28.862 8.154H243.42c8.982.008 17.646-2.089 25.471-6.209a54.226 54.226 0 0 0 13.925-10.497l.002-.001a55.49 55.49 0 0 0 5.836-7.219l-.001.002a55.705 55.705 0 0 0 3.741-6.38l.052-.104-.052.106a55.379 55.379 0 0 0 3.501-8.857l.022-.072-.02.069a53.942 53.942 0 0 0 2.291-15.542c0-3.198-.286-6.394-.86-9.556a54.056 54.056 0 0 0-2.456-9.002v.002c-.277-.758-.59-1.54-.944-2.38l.004.007a56.851 56.851 0 0 0-3.142-6.327L200.548 35.271l.003.005a52.421 52.421 0 0 0-.999-1.663l.002.002a55.077 55.077 0 0 0-9.323-11.295 53.592 53.592 0 0 0-16.834-10.554 55.01 55.01 0 0 0-17.394-3.737h.004a56.642 56.642 0 0 0-2.828-.073c-8.818.004-17.53 2.103-25.295 6.119l-.24.125.24-.123a53.664 53.664 0 0 0-12.173 8.644l-.076.07.078-.072a54.548 54.548 0 0 0-6.619 7.518l-.002.002a56.932 56.932 0 0 0-3.276 5.032L15.573 191.412l.002-.004a59.711 59.711 0 0 0-1.31 2.407v.006c-3.242 6.28-5.231 13.03-5.863 19.971a52.332 52.332 0 0 0-.223 4.858c0 3.67.376 7.338 1.122 10.95l7.144-1.471 7.151-1.475a39.55 39.55 0 0 1-.76-10.163c.023-.43.058-.896.101-1.371.463-5.054 1.894-9.941 4.302-14.618l-.003.005a43.57 43.57 0 0 1 .975-1.797l.016-.028 90.23-156.117.002-.002a42.303 42.303 0 0 1 2.433-3.736l-.001.001a40.127 40.127 0 0 1 4.848-5.507 39.042 39.042 0 0 1 8.861-6.295c5.631-2.92 12.09-4.486 18.575-4.483.692 0 1.397.018 2.083.053h.004a40.413 40.413 0 0 1 12.783 2.743 39.002 39.002 0 0 1 12.265 7.688 40.393 40.393 0 0 1 6.848 8.303l.002.002c.251.4.499.816.736 1.226l.003.005 90.244 156.143v.002a41.928 41.928 0 0 1 2.329 4.689l.003.008c.282.665.505 1.228.69 1.734a39.46 39.46 0 0 1 1.793 6.572c.419 2.308.628 4.628.628 6.956 0 2.365-.216 4.738-.652 7.109a40.558 40.558 0 0 1-1.03 4.259v-.001a40.78 40.78 0 0 1-2.577 6.521l-.052.104.051-.102a41.262 41.262 0 0 1-2.759 4.704l-.002.002a40.852 40.852 0 0 1-4.296 5.313l-.175.182.176-.183a39.594 39.594 0 0 1-10.176 7.675c-5.739 3.008-11.926 4.524-18.672 4.532H62.935c-7.617 0-14.912-2.074-21.14-5.949a39.873 39.873 0 0 1-8.01-6.58 40.709 40.709 0 0 1-10.188-19.601l-7.152 1.477Z" fill="#BC4748"/><path d="M16.445 228.129a47.993 47.993 0 0 0 12.01 23.112 47.203 47.203 0 0 0 9.479 7.786c7.413 4.611 16.057 7.049 25 7.049h180.488c7.865 0 15.29-1.807 22.071-5.37a46.907 46.907 0 0 0 12.051-9.086 48.07 48.07 0 0 0 5.067-6.266 48.875 48.875 0 0 0 3.251-5.542 48.1 48.1 0 0 0 4.256-12.721 46.269 46.269 0 0 0 .026-16.68 46.887 46.887 0 0 0-2.123-7.786c-.233-.632-.5-1.305-.817-2.056a49.443 49.443 0 0 0-2.735-5.509L194.224 38.917a42.833 42.833 0 0 0-.868-1.444 47.733 47.733 0 0 0-8.086-9.798 46.31 46.31 0 0 0-14.55-9.12 47.713 47.713 0 0 0-15.087-3.24 48.212 48.212 0 0 0-2.456-.063c-7.65 0-15.238 1.835-21.935 5.301a46.465 46.465 0 0 0-10.517 7.469 47.487 47.487 0 0 0-5.735 6.512 49.509 49.509 0 0 0-2.854 4.385L21.891 195.062a49.036 49.036 0 0 0-1.142 2.102c-2.825 5.479-4.534 11.298-5.083 17.294-.05.555-.092 1.103-.122 1.629-.223 4.018.08 8.069.901 12.042Z" fill="#BC4748"/><path d="m16.445 228.129-2.87.591a50.91 50.91 0 0 0 12.74 24.521 50.079 50.079 0 0 0 10.068 8.269c7.887 4.909 17.074 7.494 26.55 7.494H243.42c8.313.004 16.237-1.921 23.435-5.707a49.785 49.785 0 0 0 12.803-9.653 50.838 50.838 0 0 0 5.375-6.649 51.143 51.143 0 0 0 3.447-5.875 51.167 51.167 0 0 0 3.225-8.156v-.002a49.685 49.685 0 0 0 2.111-14.294 49.08 49.08 0 0 0-.792-8.778 49.822 49.822 0 0 0-2.256-8.274 47.958 47.958 0 0 0-.868-2.186l.002.004a52.227 52.227 0 0 0-2.898-5.838L196.759 37.453l.002.002a50.304 50.304 0 0 0-.92-1.533 50.604 50.604 0 0 0-8.583-10.396 49.26 49.26 0 0 0-15.467-9.697 50.691 50.691 0 0 0-16.013-3.44 51.858 51.858 0 0 0-2.603-.064c-8.119.001-16.156 1.94-23.284 5.629a49.328 49.328 0 0 0-11.181 7.94 50.348 50.348 0 0 0-6.089 6.915 52.09 52.09 0 0 0-3.024 4.646L19.354 193.598c-.39.673-.775 1.386-1.207 2.222l-.002.002c-2.99 5.799-4.814 11.993-5.395 18.369a48.917 48.917 0 0 0-.205 4.463c0 3.371.345 6.745 1.033 10.066l2.867-.591 2.87-.591a43.892 43.892 0 0 1-.845-11.288c.027-.488.065-1.003.113-1.525.514-5.619 2.112-11.065 4.769-16.22l-.002.002c.403-.78.742-1.405 1.075-1.98l90.244-156.144c.814-1.41 1.72-2.8 2.686-4.125a44.565 44.565 0 0 1 5.377-6.108 43.367 43.367 0 0 1 9.852-6.997c6.271-3.247 13.404-4.974 20.588-4.973.766 0 1.543.02 2.306.058h.002a44.819 44.819 0 0 1 14.163 3.04 43.38 43.38 0 0 1 13.633 8.547 44.863 44.863 0 0 1 8.404 10.556l.022.038 90.222 156.108a46.487 46.487 0 0 1 2.572 5.18l.002.003c.303.717.552 1.346.766 1.927a43.734 43.734 0 0 1 1.99 7.298 43.286 43.286 0 0 1-.025 15.63 44.252 44.252 0 0 1-1.142 4.722v-.002a45.175 45.175 0 0 1-2.855 7.221 45.605 45.605 0 0 1-3.053 5.206 45.227 45.227 0 0 1-4.758 5.883 43.957 43.957 0 0 1-11.299 8.521c-6.363 3.34-13.291 5.03-20.706 5.034H62.929c-8.41 0-16.514-2.291-23.452-6.607a44.214 44.214 0 0 1-8.889-7.302 45.074 45.074 0 0 1-11.277-21.703l-2.866.591Z" fill="#193248"/><path d="M111.991 38.837c18.305-31.672 64.066-31.672 82.371 0l45.123 78.072 45.122 78.071c18.305 31.67-4.577 71.259-41.185 71.259H62.933c-36.609 0-59.49-39.589-41.185-71.259l45.122-78.071 45.121-78.072Z" fill="#193248"/><mask id="a" style="mask-type:luminance" maskUnits="userSpaceOnUse" x="15" y="15" width="277" height="252"><path d="M111.991 38.837c18.305-31.672 64.066-31.672 82.371 0l45.123 78.072 45.122 78.071c18.305 31.67-4.577 71.259-41.185 71.259H62.933c-36.609 0-59.49-39.589-41.185-71.259l45.122-78.071 45.121-78.072Z" fill="#fff"/></mask><g mask="url(#a)"><path d="m210.859 67.38-.045.071c-.087.138-.176.274-.265.412l-.22.335c-.089.138-.182.275-.273.41l-.223.334-.28.412-.225.328c-.096.14-.192.276-.29.416l-.226.321c-.099.14-.201.28-.303.419l-.223.31-.273.37-.263.356c-.111.149-.221.294-.334.44l-.213.28a73.433 73.433 0 0 1-1.158 1.47 72.419 72.419 0 0 1-10.996 10.946l-.131.103-.368.292-.322.25c-.123.097-.249.193-.372.287l-.323.247c-.124.094-.249.189-.374.281l-.329.243c-.125.093-.249.185-.376.276l-.332.24-.375.268-.339.24c-.124.086-.247.172-.372.257l-.347.24-.369.25-.356.24-.261.171c-.403.267-.765.501-1.104.715l-.068.042c-.339.214-.693.434-1.08.668l-.184.112c-.356.212-.724.432-1.1.65l-.216.123c-.416.24-.787.448-1.135.638l-.069.038c-.349.191-.712.387-1.112.597l-.192.102c-.36.187-.739.383-1.13.577l-.223.11c-.427.213-.808.398-1.166.567l-.067.03c-.358.169-.73.341-1.142.526l-.2.09c-.378.168-.766.338-1.159.504l-.227.096c-.437.185-.83.346-1.196.493l-.062.024c-.365.147-.75.296-1.173.457l-.206.078c-.379.143-.777.288-1.184.432l-.228.081c-.454.16-.856.298-1.224.42l-.051.016c-.376.125-.772.252-1.208.388l-.205.063c-.39.122-.797.243-1.21.363l-.228.066a72.576 72.576 0 0 1-19.953 2.805 72.067 72.067 0 0 1-44.539-15.42 72.036 72.036 0 0 1-12.834-13.019l-2.932 5.076a77.654 77.654 0 0 0 12.401 12.215 77.499 77.499 0 0 0 51.809 16.486 78.103 78.103 0 0 0 16.202-2.542c.42-.112.859-.235 1.353-.377l.245-.071c.443-.128.881-.259 1.3-.388l.22-.071c.469-.145.894-.281 1.299-.417l.054-.016a94.07 94.07 0 0 0 1.317-.454l.245-.085c.436-.156.864-.314 1.273-.466l.22-.084a64.72 64.72 0 0 0 1.262-.491l.065-.026c.394-.157.815-.332 1.288-.529l.243-.104c.419-.178.839-.36 1.246-.542l.214-.098c.443-.2.844-.385 1.229-.566l.071-.035c.385-.181.796-.38 1.255-.607l.242-.12a69.2 69.2 0 0 0 1.215-.62l.207-.11c.428-.224.82-.435 1.194-.64l.075-.04c.374-.206.774-.431 1.22-.687l.233-.134c.405-.234.801-.468 1.184-.699l.198-.12c.416-.254.795-.486 1.162-.718l.071-.043c.365-.23.753-.483 1.187-.768l.28-.187c.129-.085.256-.17.383-.257.133-.09.264-.178.396-.269l.372-.255c.135-.093.267-.186.402-.278.121-.085.243-.17.365-.258l.403-.286.358-.26.403-.295.352-.263c.135-.1.269-.202.403-.303l.347-.265c.135-.104.267-.207.402-.309l.345-.27c.132-.103.265-.209.397-.314l.14-.112a77.743 77.743 0 0 0 13.072-13.352l.228-.301c.12-.16.24-.316.36-.474l.283-.382c.098-.133.196-.263.293-.396l.241-.334c.109-.15.216-.3.323-.451l.244-.345.312-.446.093-.135-3.033-5.259Z" fill="#4C3146"/></g><mask id="b" style="mask-type:luminance" maskUnits="userSpaceOnUse" x="15" y="15" width="277" height="252"><path d="M111.991 38.837c18.305-31.672 64.066-31.672 82.371 0l45.123 78.072 45.122 78.071c18.305 31.67-4.577 71.259-41.185 71.259H62.933c-36.609 0-59.49-39.589-41.185-71.259l45.122-78.071 45.121-78.072Z" fill="#fff"/></mask><g mask="url(#b)"><path d="M208.811 63.836a69.128 69.128 0 0 1-5 7.247l-.074.094-.009.013a68.333 68.333 0 0 1-15.901 14.627 68.283 68.283 0 0 1-20.06 9.016 68.894 68.894 0 0 1-17.778 2.333c-14.819 0-29.741-4.784-42.288-14.65a68.444 68.444 0 0 1-13.097-13.59l-1.966 3.403a71.978 71.978 0 0 0 12.833 13.018 72.06 72.06 0 0 0 48.17 15.329 72.43 72.43 0 0 0 16.322-2.714l.229-.065c.412-.12.819-.241 1.209-.363l.205-.063c.436-.136.83-.263 1.208-.388l.051-.017c.368-.121.77-.26 1.224-.419l.228-.081c.407-.146.805-.29 1.185-.432l.205-.078c.425-.162.808-.31 1.173-.457l.062-.024c.366-.147.757-.31 1.196-.493l.227-.096c.391-.167.781-.336 1.159-.505l.2-.089c.41-.185.784-.357 1.142-.526l.067-.03a62.7 62.7 0 0 0 1.166-.567l.223-.11c.391-.194.772-.39 1.13-.577l.193-.102c.399-.21.762-.404 1.111-.597l.069-.038c.349-.19.719-.4 1.135-.638l.216-.124c.376-.217.745-.437 1.1-.65l.184-.112c.387-.235.741-.453 1.08-.667l.068-.042a78.95 78.95 0 0 0 1.104-.715l.261-.172.356-.24.369-.25.347-.24c.123-.085.248-.17.372-.257l.34-.24c.125-.088.25-.177.374-.268l.332-.24c.125-.09.251-.182.376-.275l.329-.243.374-.281.323-.247c.123-.094.249-.19.372-.287l.322-.25.368-.292.131-.103a72.332 72.332 0 0 0 12.155-12.416l.212-.28c.113-.146.223-.293.334-.44l.263-.356.273-.37.223-.31.303-.42.226-.32c.096-.14.194-.276.29-.416l.225-.328.28-.412.223-.334.273-.41.22-.335c.089-.138.178-.274.265-.412l.045-.07-2.057-3.547Z" fill="#6D3F4C"/></g><mask id="c" style="mask-type:luminance" maskUnits="userSpaceOnUse" x="15" y="15" width="277" height="252"><path d="M111.991 38.837c18.305-31.672 64.066-31.672 82.371 0l45.123 78.072 45.122 78.071c18.305 31.67-4.577 71.259-41.185 71.259H62.933c-36.609 0-59.49-39.589-41.185-71.259l45.122-78.071 45.121-78.072Z" fill="#fff"/></mask><g mask="url(#c)"><mask id="d" style="mask-type:luminance" maskUnits="userSpaceOnUse" x="81" y="-40" width="138" height="138"><path d="M203.811 71.083c-23.379 29.669-66.411 34.791-96.113 11.434-29.701-23.355-34.826-66.341-11.447-96.01 23.381-29.67 66.412-34.791 96.114-11.435 29.703 23.353 34.827 66.34 11.446 96.01Z" fill="#fff"/></mask><g mask="url(#d)"><path d="M203.811 71.083c-23.379 29.669-66.411 34.791-96.113 11.434-29.701-23.355-34.826-66.341-11.447-96.01 23.381-29.67 66.412-34.791 96.114-11.435 29.703 23.353 34.827 66.34 11.446 96.01Z" fill="#E17163"/></g><mask id="e" style="mask-type:luminance" maskUnits="userSpaceOnUse" x="81" y="-40" width="138" height="138"><path d="M203.811 71.083c-23.379 29.669-66.411 34.791-96.113 11.434-29.701-23.355-34.826-66.341-11.447-96.01 23.381-29.67 66.412-34.791 96.114-11.435 29.703 23.353 34.827 66.34 11.446 96.01Z" fill="#fff"/></mask><g mask="url(#e)"><path d="M68.804-6.143c8.303-2.572 16.668 24.712 39.847 26.419 10.315.76 20.141-3.796 22.673.359 1.694 2.78-2.397 5.333-3.316 13.224-.979 8.398 3.056 10.638 3.259 22.22.102 5.756.189 10.65-2.52 12.212-4.288 2.478-9.841-6.716-20.325-8.885-14.303-2.96-21.581 10.503-30.52 8.212-18.321-4.697-21.457-69.933-9.098-73.761Z" fill="#D25A38"/></g><mask id="f" style="mask-type:luminance" maskUnits="userSpaceOnUse" x="81" y="-40" width="138" height="138"><path d="M203.811 71.083c-23.379 29.669-66.411 34.791-96.113 11.434-29.701-23.355-34.826-66.341-11.447-96.01 23.381-29.67 66.412-34.791 96.114-11.435 29.703 23.353 34.827 66.34 11.446 96.01Z" fill="#fff"/></mask><g mask="url(#f)"><path d="M182.753-40.473c-14.421 1.63-29.964 12.483-32.901 29.269-3.223 18.414 9.941 37.014 22.71 39.15 5.093.852 9.434-1.03 13.027-2.914 4.021-2.108 7.107-4.214 9.264-2.489 4.832 3.868.476 23.34-11.17 29.434-7.831 4.1-15.596.388-17.539 4.225-1.842 3.639 2.677 11.842 8.622 13.332 10.482 2.625 23.319-16.13 32.033-28.86 15.29-22.341 22.936-33.51 20.014-47.592-3.658-17.618-22.397-36.01-44.06-33.555Z" fill="#D25A38"/></g><mask id="g" style="mask-type:luminance" maskUnits="userSpaceOnUse" x="81" y="-40" width="138" height="138"><path d="M203.811 71.083c-23.379 29.669-66.411 34.791-96.113 11.434-29.701-23.355-34.826-66.341-11.447-96.01 23.381-29.67 66.412-34.791 96.114-11.435 29.703 23.353 34.827 66.34 11.446 96.01Z" fill="#fff"/></mask><g mask="url(#g)"><path d="M134.286 113.358c-.696-6.113 14.978-6.991 24.695-23.71 2.327-4.003 3.465-7.457 7.437-9.438 5.984-2.985 13.763-.318 18.401 3.004 7.764 5.562 12.186 16.873 8.588 25.861-4.431 11.068-18.639 12.659-26.519 13.541-14.531 1.625-31.883-2.943-32.602-9.258Z" fill="#D25A38"/></g><mask id="h" style="mask-type:luminance" maskUnits="userSpaceOnUse" x="81" y="-40" width="138" height="138"><path d="M203.811 71.083c-23.379 29.669-66.411 34.791-96.113 11.434-29.701-23.355-34.826-66.341-11.447-96.01 23.381-29.67 66.412-34.791 96.114-11.435 29.703 23.353 34.827 66.34 11.446 96.01Z" fill="#fff"/></mask><g mask="url(#h)"><path d="M200.573 49.584c-1.965 2.707-4.029 5.415-6.151 7.93-2.8 8.32-7.051 16.31-12.797 23.602l-.105.133a23.409 23.409 0 0 1 3.299 1.965 22.031 22.031 0 0 1 3.006 2.603 68.391 68.391 0 0 0 15.901-14.627c.003-.004.007-.007.009-.013.024-.03.051-.063.074-.094a69.28 69.28 0 0 0 5-7.247l-8.236-14.252Z" fill="#D44C42"/></g><mask id="i" style="mask-type:luminance" maskUnits="userSpaceOnUse" x="81" y="-40" width="138" height="138"><path d="M203.811 71.083c-23.379 29.669-66.411 34.791-96.113 11.434-29.701-23.355-34.826-66.341-11.447-96.01 23.381-29.67 66.412-34.791 96.114-11.435 29.703 23.353 34.827 66.34 11.446 96.01Z" fill="#fff"/></mask><g mask="url(#i)"><path d="M197.602 44.443a78.322 78.322 0 0 1-3.179 13.07c2.119-2.514 4.185-5.222 6.15-7.929l-2.971-5.141Z" fill="#BE3C26"/></g><mask id="j" style="mask-type:luminance" maskUnits="userSpaceOnUse" x="81" y="-40" width="138" height="138"><path d="M203.811 71.083c-23.379 29.669-66.411 34.791-96.113 11.434-29.701-23.355-34.826-66.341-11.447-96.01 23.381-29.67 66.412-34.791 96.114-11.435 29.703 23.353 34.827 66.34 11.446 96.01Z" fill="#fff"/></mask><g mask="url(#j)"><path d="M181.52 81.249a78.914 78.914 0 0 1-13.755 13.584 68.292 68.292 0 0 0 20.06-9.016 21.9 21.9 0 0 0-3.006-2.603 23.23 23.23 0 0 0-3.299-1.965Z" fill="#BE3C26"/></g><mask id="k" style="mask-type:luminance" maskUnits="userSpaceOnUse" x="81" y="-40" width="138" height="138"><path d="M203.811 71.083c-23.379 29.669-66.411 34.791-96.113 11.434-29.701-23.355-34.826-66.341-11.447-96.01 23.381-29.67 66.412-34.791 96.114-11.435 29.703 23.353 34.827 66.34 11.446 96.01Z" fill="#fff"/></mask><g mask="url(#k)"><path d="M116.711 71.649c48.038 6.29 92.932 1.558 95.746 4.506 2.167 2.27-24.412 5.101-33.588 5.925-9.623.861-18.26 1.596-26.823.35-8.257-1.201-6.988-2.865-14.735-4.164-12.033-2.017-20.19 1.145-38.713-.273-8.683-.666-20.83-2.43-21.869-4.608-.642-1.348 3.108-2.573 6.676-3.177 10.433-1.767 26.49.55 33.306 1.44Z" fill="#E98724"/></g><mask id="l" style="mask-type:luminance" maskUnits="userSpaceOnUse" x="81" y="-40" width="138" height="138"><path d="M203.811 71.083c-23.379 29.669-66.411 34.791-96.113 11.434-29.701-23.355-34.826-66.341-11.447-96.01 23.381-29.67 66.412-34.791 96.114-11.435 29.703 23.353 34.827 66.34 11.446 96.01Z" fill="#fff"/></mask><g mask="url(#l)"><path d="M74.096 49.96c41.939 6.904 81.257.738 83.683 4.21 1.869 2.674-21.412 6.364-29.448 7.452-8.426 1.143-15.988 2.117-23.463.74-7.207-1.33-6.076-3.325-12.837-4.776-10.5-2.255-17.672 1.604-33.856.14-7.585-.686-18.187-2.638-19.068-5.218-.546-1.598 2.75-3.098 5.877-3.86 9.147-2.23 23.161.332 29.112 1.311Z" fill="#E98724"/></g><mask id="m" style="mask-type:luminance" maskUnits="userSpaceOnUse" x="81" y="-40" width="138" height="138"><path d="M203.811 71.083c-23.379 29.669-66.411 34.791-96.113 11.434-29.701-23.355-34.826-66.341-11.447-96.01 23.381-29.67 66.412-34.791 96.114-11.435 29.703 23.353 34.827 66.34 11.446 96.01Z" fill="#fff"/></mask><g mask="url(#m)"><path d="M200.007 19.688c41.938 6.904 81.255.736 83.683 4.208 1.868 2.674-21.413 6.364-29.448 7.453-8.425 1.143-15.989 2.117-23.463.74-7.208-1.33-6.077-3.325-12.837-4.775-10.501-2.255-17.672 1.604-33.856.14-7.586-.688-18.187-2.638-19.07-5.22-.545-1.598 2.749-3.096 5.877-3.86 9.149-2.227 23.163.332 29.114 1.314Z" fill="#E98724"/></g><mask id="n" style="mask-type:luminance" maskUnits="userSpaceOnUse" x="81" y="-40" width="138" height="138"><path d="M203.811 71.083c-23.379 29.669-66.411 34.791-96.113 11.434-29.701-23.355-34.826-66.341-11.447-96.01 23.381-29.67 66.412-34.791 96.114-11.435 29.703 23.353 34.827 66.34 11.446 96.01Z" fill="#fff"/></mask><g mask="url(#n)"><path d="M47.686 24.834c41.939 6.905 81.257.737 83.683 4.209 1.869 2.674-21.412 6.364-29.446 7.454-8.426 1.141-15.988 2.117-23.463.738-7.208-1.33-6.076-3.325-12.837-4.776-10.5-2.255-17.672 1.604-33.856.14-7.585-.688-18.187-2.638-19.07-5.218-.546-1.598 2.75-3.098 5.877-3.86 9.149-2.23 23.163.332 29.112 1.313Z" fill="#E98724"/></g><mask id="o" style="mask-type:luminance" maskUnits="userSpaceOnUse" x="81" y="-40" width="138" height="138"><path d="M203.811 71.083c-23.379 29.669-66.411 34.791-96.113 11.434-29.701-23.355-34.826-66.341-11.447-96.01 23.381-29.67 66.412-34.791 96.114-11.435 29.703 23.353 34.827 66.34 11.446 96.01Z" fill="#fff"/></mask><g mask="url(#o)"><path d="M202.669 36.646c-26.241 3.21-50.163-3.783-51.849-1.165-1.296 2.016 12.867 6.186 17.764 7.48 5.136 1.357 9.749 2.534 14.434 1.846 4.518-.665 3.928-2.305 8.176-3.09 6.599-1.222 10.814 2.22 20.876 1.93 4.716-.137 11.361-1.11 12.044-3.106.423-1.234-1.529-2.6-3.418-3.37-5.52-2.256-14.304-.98-18.027-.525Z" fill="#E98724"/></g><mask id="p" style="mask-type:luminance" maskUnits="userSpaceOnUse" x="81" y="-40" width="138" height="138"><path d="M203.811 71.083c-23.379 29.669-66.411 34.791-96.113 11.434-29.701-23.355-34.826-66.341-11.447-96.01 23.381-29.67 66.412-34.791 96.114-11.435 29.703 23.353 34.827 66.34 11.446 96.01Z" fill="#fff"/></mask><g mask="url(#p)"><path d="M229.517 56.345c-26.243 3.211-50.164-3.782-51.849-1.166-1.296 2.015 12.867 6.186 17.764 7.481 5.136 1.355 9.749 2.534 14.434 1.845 4.518-.664 3.928-2.304 8.176-3.09 6.597-1.22 10.814 2.22 20.876 1.929 4.716-.136 11.361-1.11 12.044-3.104.423-1.235-1.529-2.6-3.416-3.37-5.522-2.254-14.305-.98-18.029-.525Z" fill="#E98724"/></g><mask id="q" style="mask-type:luminance" maskUnits="userSpaceOnUse" x="81" y="-40" width="138" height="138"><path d="M203.811 71.083c-23.379 29.669-66.411 34.791-96.113 11.434-29.701-23.355-34.826-66.341-11.447-96.01 23.381-29.67 66.412-34.791 96.114-11.435 29.703 23.353 34.827 66.34 11.446 96.01Z" fill="#fff"/></mask><g mask="url(#q)"><path d="M188.593 91.475c-26.243 3.21-50.165-3.782-51.848-1.165-1.297 2.016 12.864 6.186 17.764 7.48 5.135 1.357 9.748 2.534 14.433 1.846 4.519-.665 3.928-2.305 8.176-3.09 6.597-1.222 10.814 2.22 20.877 1.928 4.716-.136 11.361-1.11 12.043-3.104.424-1.234-1.529-2.6-3.417-3.37-5.523-2.254-14.305-.98-18.028-.525Z" fill="#E98724"/></g></g><mask id="r" style="mask-type:luminance" maskUnits="userSpaceOnUse" x="15" y="15" width="277" height="252"><path d="M111.991 38.837c18.305-31.672 64.066-31.672 82.371 0l45.123 78.072 45.122 78.071c18.305 31.67-4.577 71.259-41.185 71.259H62.933c-36.609 0-59.49-39.589-41.185-71.259l45.122-78.071 45.121-78.072Z" fill="#fff"/></mask><g mask="url(#r)"><path d="M263.628 166.787a66.422 66.422 0 0 0-20.241 3.171c-.35.113-.719.236-1.135.378l-.205.07c-.37.127-.737.258-1.088.387l-.185.067a55.56 55.56 0 0 0-1.086.41l-.045.018c-.333.129-.692.272-1.101.439l-.205.085a53.22 53.22 0 0 0-1.062.452l-.184.08c-.381.167-.726.321-1.053.472l-.055.025a58.9 58.9 0 0 0-1.071.506l-.203.098c-.351.171-.7.343-1.036.515l-.178.093c-.368.187-.701.361-1.02.531l-.06.033c-.32.171-.659.357-1.041.57l-.199.11c-.349.198-.687.39-1.008.579l-.171.102c-.356.208-.679.404-.99.595l-.061.038c-.311.19-.64.399-1.01.635l-.193.123c-.334.216-.662.432-.977.644l-.163.111c-.343.23-.656.446-.957.658l-.06.042c-.3.212-.619.441-.977.702l-.231.169-.316.235-.325.245-.305.234-.328.254-.3.236-.331.261-.294.236-.33.269-.289.237-.329.274-.285.242-.327.279-.283.245-.323.283-.115.101a66.215 66.215 0 0 0-10.073 11.222c-.16.227-.32.452-.476.679l-.181.267c-.095.139-.191.277-.286.419l-.225.337-.232.35-.191.294c-.087.132-.172.265-.258.397l-.19.305c-.084.131-.166.261-.247.392l-.191.31c-.08.129-.158.26-.238.388l-.189.316-.23.386-.186.318c-.076.13-.149.259-.223.388l-.182.321c-.072.131-.147.26-.218.392l-.176.319-.214.396-.173.319-.21.399-.165.319-.208.405-.159.316c-.069.138-.137.275-.204.413l-.152.31c-.069.14-.135.282-.202.421l-.145.305-.207.445-.131.284-.194.432-.133.299-.239.552-.079.181a67.93 67.93 0 0 0-.612 1.486l-.063.162a49.85 49.85 0 0 0-.225.58l-.089.238c-.064.168-.129.337-.191.506l-.098.268-.173.477-.101.289c-.055.154-.107.306-.16.461l-.1.299c-.051.151-.102.301-.151.452l-.1.304-.143.449-.096.308c-.047.149-.093.297-.136.446l-.095.312-.131.446-.089.314c-.041.149-.085.3-.125.45l-.085.309-.122.455-.08.307c-.04.152-.078.304-.116.458l-.076.305c-.038.156-.077.312-.113.468l-.069.294c-.036.162-.073.323-.111.485l-.063.281-.109.506-.055.261c-.038.181-.074.363-.109.543l-.043.223c-.042.21-.082.422-.12.633l-.026.134a64.024 64.024 0 0 0-.265 1.558l-.012.091-.104.678-.029.211-.078.56-.033.254-.065.519-.033.28c-.02.163-.038.326-.056.491l-.031.296-.049.477-.029.307c-.015.154-.029.31-.042.466l-.025.314-.037.459-.023.317c-.011.153-.02.305-.029.459l-.018.319a34.8 34.8 0 0 0-.024.456l-.015.323-.018.455-.012.321c-.006.152-.01.305-.015.457l-.007.319c-.004.153-.006.307-.007.461l-.004.314c-.002.158-.002.314-.002.47v.303c0 .161.002.323.004.484l.002.289.009.513.005.26c.005.19.011.379.018.569l.007.203c.02.519.046 1.04.077 1.55l.012.183.04.586.017.227c.187 2.467.517 4.95.98 7.381l.04.214c.038.2.078.397.12.595l.04.2c.109.533.227 1.068.351 1.594l.051.209c.045.194.09.388.139.582l.068.269.13.519.086.324c.041.154.081.309.123.463l.085.308.133.476.093.319.136.464.098.323.14.459.101.323.146.455.107.323c.049.151.1.301.151.452l.109.323c.052.149.103.299.158.45l.114.321.163.452.117.313c.056.153.114.305.172.456l.118.308.18.459.12.301c.062.156.125.31.189.466l.12.291.201.479.116.274.22.502.109.249c.08.181.163.362.245.542l.093.201c.1.218.201.436.303.652l.042.09c.236.497.483 1 .732 1.49l.06.116c.103.205.208.408.316.613l.107.201c.092.176.185.35.278.525l.13.241.264.479.147.263.256.455.158.272.256.439.089.151h5.455l-.174-.267-.171-.268a24.846 24.846 0 0 1-.243-.383l-.167-.267-.24-.39-.162-.265a52.06 52.06 0 0 1-.238-.397l-.154-.261-.238-.408-.147-.254-.24-.423-.136-.245-.245-.444-.122-.225-.258-.486-.099-.189c-.098-.191-.197-.379-.293-.57l-.056-.109c-.231-.457-.46-.923-.681-1.386l-.04-.083c-.096-.201-.189-.403-.283-.606l-.086-.189c-.076-.166-.154-.335-.228-.506l-.102-.23c-.069-.154-.136-.31-.204-.464l-.109-.256a84.244 84.244 0 0 1-.187-.445l-.11-.27-.177-.434-.11-.281c-.057-.141-.111-.285-.167-.426l-.109-.287a95.755 95.755 0 0 1-.16-.422l-.107-.292-.153-.421-.105-.298c-.049-.14-.098-.279-.145-.419l-.104-.299-.14-.419-.1-.3-.136-.422-.094-.3-.131-.426-.091-.299-.127-.432-.085-.296-.124-.441-.08-.286-.114-.43-.08-.303c-.042-.16-.082-.321-.122-.483l-.063-.25c-.044-.18-.087-.359-.129-.541l-.046-.194a64.952 64.952 0 0 1-.326-1.482l-.037-.185-.111-.553-.038-.2a61.992 61.992 0 0 1-.911-6.862l-.017-.211-.036-.546-.011-.17c-.029-.476-.053-.96-.071-1.441l-.005-.19-.017-.53-.005-.241a37.587 37.587 0 0 1-.009-.477l-.002-.267-.003-.452v-.281l.001-.437.004-.292.007-.428.007-.296.013-.424.011-.3.018-.423.015-.299c.007-.141.014-.281.023-.423l.019-.297.027-.426.02-.296a72.4 72.4 0 0 0 .032-.428l.024-.29.038-.436.027-.285.046-.442.029-.276c.016-.154.034-.305.053-.457l.03-.26c.02-.161.04-.321.062-.482l.031-.236c.024-.174.047-.348.073-.521l.029-.195c.029-.211.061-.42.094-.63l.013-.085c.076-.483.16-.973.247-1.448l.023-.123c.037-.198.073-.394.111-.59l.042-.207.102-.506.051-.243c.032-.158.067-.314.099-.468l.06-.263.102-.448.065-.274c.035-.145.069-.29.106-.435l.071-.282.107-.428.074-.286.113-.423.078-.287c.038-.139.078-.279.118-.419l.083-.29c.04-.14.08-.277.122-.415l.087-.291.127-.413.089-.289.133-.417.093-.283a34.5 34.5 0 0 1 .139-.421l.095-.277c.049-.144.098-.287.149-.428l.094-.269c.053-.149.107-.294.162-.443l.091-.25c.058-.158.118-.314.178-.472l.083-.221.211-.539.06-.15c.183-.463.376-.927.568-1.381l.073-.168c.072-.171.147-.342.221-.512l.124-.278c.06-.134.12-.268.181-.4l.122-.264c.064-.137.127-.277.193-.413l.134-.283c.062-.131.123-.261.187-.392l.142-.288c.063-.129.125-.256.19-.383l.149-.294c.064-.127.127-.25.193-.376l.154-.297.194-.37.16-.298.2-.366.163-.298c.068-.121.135-.243.204-.364l.169-.298.207-.361.172-.296.213-.359.176-.294.221-.361.178-.288.229-.365.178-.281.24-.37.178-.274.214-.323.209-.315.265-.389.169-.246c.147-.211.294-.423.443-.632a61.55 61.55 0 0 1 9.365-10.433l.107-.092.302-.265.261-.225.305-.259.266-.223.306-.254.269-.222.307-.25.273-.218.306-.243.278-.217.305-.236.284-.218.303-.227.292-.217.215-.156c.332-.244.63-.458.908-.654l.054-.038c.28-.197.57-.397.89-.613l.151-.103c.292-.198.597-.399.908-.599l.178-.114c.343-.221.65-.414.938-.592l.057-.034c.289-.176.59-.359.919-.553l.159-.095c.298-.176.612-.355.938-.538l.185-.104c.354-.198.67-.37.968-.53l.056-.029c.296-.157.607-.321.948-.495l.167-.085c.314-.158.637-.319.962-.479l.189-.091c.365-.176.69-.33.997-.47l.051-.021c.305-.14.625-.283.979-.438l.171-.074c.317-.138.65-.277.988-.419l.19-.078c.38-.156.714-.29 1.023-.41l.041-.016c.316-.122.645-.245 1.01-.379l.173-.064c.327-.12.666-.241 1.011-.359l.191-.065a61.945 61.945 0 0 1 13.76-2.994 61.123 61.123 0 0 1 13.749.171l-2.85-4.929a50.613 50.613 0 0 0-4.787-.209Z" fill="#43415A"/></g><mask id="s" style="mask-type:luminance" maskUnits="userSpaceOnUse" x="15" y="15" width="277" height="252"><path d="M111.991 38.837c18.305-31.672 64.066-31.672 82.371 0l45.123 78.072 45.122 78.071c18.305 31.67-4.577 71.259-41.185 71.259H62.933c-36.609 0-59.49-39.589-41.185-71.259l45.122-78.071 45.121-78.072Z" fill="#fff"/></mask><g mask="url(#s)"><path d="M263.627 171.413a61.826 61.826 0 0 0-19.875 3.3l-.19.065c-.345.118-.687.24-1.012.359l-.172.064c-.365.134-.694.258-1.01.379l-.042.016c-.309.12-.643.254-1.022.41l-.191.078c-.34.14-.672.282-.988.419l-.171.075a53 53 0 0 0-.978.437l-.051.022c-.305.139-.632.295-.997.47l-.189.09c-.325.158-.648.32-.963.479l-.167.086c-.341.174-.652.337-.948.495l-.056.029c-.298.159-.614.332-.968.529l-.185.104c-.323.183-.639.365-.937.539l-.16.094c-.329.194-.63.377-.919.553l-.056.035c-.289.176-.596.37-.939.591l-.178.114c-.31.2-.616.401-.908.599l-.151.104c-.319.215-.61.415-.889.613l-.055.038c-.278.196-.576.41-.908.653l-.214.156-.293.218-.303.226-.283.218-.305.236-.278.218-.307.243-.272.217-.307.251-.269.221-.307.254-.265.223-.305.26-.262.224-.301.265-.107.093a61.596 61.596 0 0 0-9.809 11.064l-.168.247-.266.388-.208.316-.215.322-.178.274c-.08.124-.16.245-.239.37l-.178.282-.229.364-.178.289c-.075.119-.147.239-.222.361l-.176.294-.212.359-.173.296c-.069.119-.14.239-.207.361l-.169.297c-.069.122-.136.241-.203.365l-.164.297-.199.367-.16.297c-.066.123-.131.247-.194.37l-.155.298c-.063.125-.129.248-.192.375l-.149.294-.191.383-.142.288-.187.392-.134.283a26.14 26.14 0 0 0-.192.414l-.122.263c-.062.134-.122.268-.182.401l-.123.277c-.077.171-.149.341-.222.512l-.072.169c-.193.453-.385.918-.569 1.38l-.06.151c-.071.179-.141.359-.21.538l-.084.222c-.06.158-.12.314-.178.471l-.091.251-.161.442-.095.269c-.051.143-.1.287-.149.428l-.094.278c-.047.139-.095.281-.14.42l-.093.283c-.045.14-.089.278-.132.418l-.089.288c-.044.138-.086.276-.127.414l-.087.29-.122.415-.084.291-.118.419-.078.286c-.038.142-.076.282-.112.423l-.075.287-.107.428-.071.281-.105.435-.065.274c-.035.149-.07.3-.102.448l-.06.263-.1.468-.051.244c-.034.166-.069.337-.102.506l-.041.206c-.038.196-.075.392-.111.59l-.024.123c-.087.478-.169.966-.247 1.448l-.012.085c-.033.211-.066.419-.095.63l-.029.196a40.73 40.73 0 0 0-.072.52l-.031.236c-.022.162-.042.321-.062.483l-.031.259-.053.457-.029.276c-.014.149-.031.296-.045.443l-.027.285c-.013.145-.028.29-.038.435l-.024.29a16.02 16.02 0 0 0-.033.428l-.02.296c-.009.141-.02.283-.027.426l-.018.298c-.009.14-.016.281-.024.423l-.014.299c-.006.14-.011.283-.018.423l-.011.299-.013.424-.007.296c-.004.143-.006.287-.008.428l-.003.292c-.002.145-.002.29-.002.437v.282c0 .148.002.299.004.451l.001.267c.002.16.006.319.01.477l.005.241.016.53.006.191c.018.482.041.966.071 1.44l.01.17c.011.182.024.365.037.547l.016.21c.174 2.293.481 4.602.912 6.863l.038.199c.036.185.072.368.111.554l.036.185c.102.493.212.992.327 1.482l.045.194.129.54.064.251c.04.161.08.323.121.482l.08.303.115.43.08.287c.041.147.081.295.123.441l.085.295.128.432.09.299.131.427.095.299.136.423.1.299c.045.14.092.279.14.419l.103.299c.047.14.096.28.145.419l.106.298.152.421.107.292.16.423.109.286.167.427.111.281.176.433.111.271c.062.148.123.295.187.444l.109.256c.067.154.134.31.203.464l.102.231.229.506.085.188c.093.204.187.405.283.606l.04.084c.22.462.449.929.681 1.386l.057.109c.096.19.194.379.292.569l.1.189c.085.163.171.323.258.486l.121.225.246.444.136.245c.08.14.158.282.239.423l.148.254c.078.136.158.272.238.408l.154.261c.078.133.158.265.238.398l.161.265.24.39.167.266c.08.129.162.256.243.383l.171.269.175.266h3.713a58.202 58.202 0 0 1-10.173-26.148 58.381 58.381 0 0 1-.479-7.503c.007-11.638 3.499-23.384 10.756-33.595l.058-.082.018-.025.049-.069a.2.2 0 0 0 .016-.024l.048-.065.021-.031c.015-.018.028-.038.04-.056l.031-.044.038-.052.028-.037a.624.624 0 0 0 .032-.045c.015-.02.029-.042.046-.062l.027-.036.033-.045.021-.031.06-.082.019-.025.036-.051.014-.02.073-.098a.077.077 0 0 0 .009-.013c.015-.018.029-.038.042-.056l.004-.005a58.137 58.137 0 0 1 12.199-12.146 58.049 58.049 0 0 1 13.383-7.343l.181-.071.026-.009.052-.02a.426.426 0 0 0 .038-.014l.069-.028.049-.018.039-.014.072-.028c.007-.001.018-.007.026-.009l.07-.027.026-.009.185-.069.009-.003a58.722 58.722 0 0 1 20.361-3.652c3.187 0 6.383.261 9.554.787l-1.95-3.376a65.463 65.463 0 0 0-7.638-.459Z" fill="#5D5C70"/></g><mask id="t" style="mask-type:luminance" maskUnits="userSpaceOnUse" x="15" y="15" width="277" height="252"><path d="M111.991 38.837c18.305-31.672 64.066-31.672 82.371 0l45.123 78.072 45.122 78.071c18.305 31.67-4.577 71.259-41.185 71.259H62.933c-36.609 0-59.49-39.589-41.185-71.259l45.122-78.071 45.121-78.072Z" fill="#fff"/></mask><g mask="url(#t)"><mask id="u" style="mask-type:luminance" maskUnits="userSpaceOnUse" x="205" y="174" width="117" height="117"><path d="M216.109 198.993c18.623-26.208 54.987-32.371 81.221-13.769 26.235 18.602 32.404 54.929 13.781 81.135-18.621 26.207-54.986 32.371-81.22 13.769-26.234-18.603-32.405-54.929-13.782-81.135Z" fill="#fff"/></mask><g mask="url(#u)"><path d="M216.109 198.993c18.623-26.208 54.987-32.371 81.221-13.769 26.235 18.602 32.404 54.929 13.781 81.135-18.621 26.207-54.986 32.371-81.22 13.769-26.234-18.603-32.405-54.929-13.782-81.135Z" fill="#BABCBD"/></g><mask id="v" style="mask-type:luminance" maskUnits="userSpaceOnUse" x="205" y="174" width="117" height="117"><path d="M216.109 198.993c18.623-26.208 54.987-32.371 81.221-13.769 26.235 18.602 32.404 54.929 13.781 81.135-18.621 26.207-54.986 32.371-81.22 13.769-26.234-18.603-32.405-54.929-13.782-81.135Z" fill="#fff"/></mask><g mask="url(#v)"><path d="M334.135 258.954c-6.948 2.536-15.211-20.305-34.987-20.78-8.799-.213-16.962 4.076-19.288.651-1.558-2.291 1.812-4.635 2.261-11.382.477-7.178-3.048-8.912-3.709-18.748-.33-4.889-.61-9.045 1.626-10.489 3.541-2.286 8.649 5.293 17.653 6.695 12.284 1.916 17.902-9.837 25.597-8.266 15.773 3.22 21.192 58.544 10.847 62.319Z" fill="#B19558"/></g><mask id="w" style="mask-type:luminance" maskUnits="userSpaceOnUse" x="205" y="174" width="117" height="117"><path d="M216.109 198.993c18.623-26.208 54.987-32.371 81.221-13.769 26.235 18.602 32.404 54.929 13.781 81.135-18.621 26.207-54.986 32.371-81.22 13.769-26.234-18.603-32.405-54.929-13.782-81.135Z" fill="#fff"/></mask><g mask="url(#w)"><path d="M318.248 275.002c1.073-7.344-8.339-13.033-13.556-14.986-8.612-3.224-18.627-1.078-19.116 1.669-.461 2.596 8.023 3.298 13.248 11.633 3.696 5.894 2.246 10 5.345 11.402 4.293 1.945 13.126-3.195 14.079-9.718Z" fill="#B19558"/></g><mask id="x" style="mask-type:luminance" maskUnits="userSpaceOnUse" x="205" y="174" width="117" height="117"><path d="M216.109 198.993c18.623-26.208 54.987-32.371 81.221-13.769 26.235 18.602 32.404 54.929 13.781 81.135-18.621 26.207-54.986 32.371-81.22 13.769-26.234-18.603-32.405-54.929-13.782-81.135Z" fill="#fff"/></mask><g mask="url(#x)"><path d="M238.718 292.936c12.191-1.996 24.945-11.873 26.734-26.268 1.963-15.79-10.012-31.047-20.957-32.324-4.306-.502-7.878 1.225-10.829 2.954-3.39 1.984-5.962 3.969-7.892 2.576-4.271-3.083-1.39-19.819 8.253-25.49 6.484-3.813 13.243-.985 14.732-4.33 1.413-3.172-2.775-9.954-7.893-10.97-9.021-1.791-19.14 14.694-26.012 25.883-12.054 19.636-18.084 29.454-15.004 41.3 3.85 14.823 20.557 29.666 38.868 26.669Z" fill="#B19558"/></g><mask id="y" style="mask-type:luminance" maskUnits="userSpaceOnUse" x="205" y="174" width="117" height="117"><path d="M216.109 198.993c18.623-26.208 54.987-32.371 81.221-13.769 26.235 18.602 32.404 54.929 13.781 81.135-18.621 26.207-54.986 32.371-81.22 13.769-26.234-18.603-32.405-54.929-13.782-81.135Z" fill="#fff"/></mask><g mask="url(#y)"><path d="M273.426 160.126c.848 5.168-12.438 6.574-19.993 21.198-1.808 3.499-2.629 6.483-5.924 8.335-4.959 2.789-11.686.849-15.768-1.779-6.833-4.399-11.07-13.829-8.392-21.622 3.3-9.595 15.311-11.545 21.972-12.628 12.285-1.996 27.227 1.157 28.105 6.496Z" fill="#B19558"/></g><mask id="z" style="mask-type:luminance" maskUnits="userSpaceOnUse" x="205" y="174" width="117" height="117"><path d="M216.109 198.993c18.623-26.208 54.987-32.371 81.221-13.769 26.235 18.602 32.404 54.929 13.781 81.135-18.621 26.207-54.986 32.371-81.22 13.769-26.234-18.603-32.405-54.929-13.782-81.135Z" fill="#fff"/></mask><g mask="url(#z)"><path d="M229.077 185.793a58.118 58.118 0 0 0-12.2 12.146l-.003.005c-.015.018-.029.038-.042.056l-.009.013c-.024.033-.047.065-.073.098l-.014.02a.474.474 0 0 0-.037.051l-.018.025-.06.082-.022.031-.032.045c-.009.013-.018.026-.028.036l-.045.062c-.011.015-.024.031-.033.045l-.027.037-.038.052c-.009.015-.022.029-.031.044l-.04.056a2.647 2.647 0 0 1-.069.096l-.016.024-.049.069a.16.16 0 0 0-.018.025l-.058.082c-7.257 10.211-10.749 21.959-10.757 33.595-.001 2.512.16 5.018.48 7.503 2.428-4.39 5.461-9.33 9.02-15.124 2.822-4.597 6.192-10.086 9.81-14.836a66.88 66.88 0 0 1 9.883-20.601c.029-.039.056-.079.085-.117a20.155 20.155 0 0 1-2.889-1.532 18.404 18.404 0 0 1-2.67-2.088Z" fill="#9C9FA1"/></g><mask id="A" style="mask-type:luminance" maskUnits="userSpaceOnUse" x="205" y="174" width="117" height="117"><path d="M216.109 198.993c18.623-26.208 54.987-32.371 81.221-13.769 26.235 18.602 32.404 54.929 13.781 81.135-18.621 26.207-54.986 32.371-81.22 13.769-26.234-18.603-32.405-54.929-13.782-81.135Z" fill="#fff"/></mask><g mask="url(#A)"><path d="M224.662 210.132c-3.617 4.749-6.988 10.238-9.81 14.835-3.557 5.796-6.59 10.734-9.02 15.124a58.23 58.23 0 0 0 10.173 26.149h17.899c-11.221-16.354-14.633-37.006-9.242-56.108Z" fill="#8F673B"/></g><mask id="B" style="mask-type:luminance" maskUnits="userSpaceOnUse" x="205" y="174" width="117" height="117"><path d="M216.109 198.993c18.623-26.208 54.987-32.371 81.221-13.769 26.235 18.602 32.404 54.929 13.781 81.135-18.621 26.207-54.986 32.371-81.22 13.769-26.234-18.603-32.405-54.929-13.782-81.135Z" fill="#fff"/></mask><g mask="url(#B)"><path d="M245.748 177.284c-.821.263-1.64.546-2.45.847l-.009.003-.185.069-.026.009-.07.028-.026.009-.072.027-.039.014-.049.019-.069.027c-.012.003-.025.009-.038.014-.018.008-.034.013-.052.02-.008.002-.019.008-.026.009l-.181.071a58.09 58.09 0 0 0-13.383 7.344c.832.78 1.724 1.48 2.665 2.086a20.1 20.1 0 0 0 2.889 1.531 67.279 67.279 0 0 1 11.121-12.127Z" fill="#8F673B"/></g><mask id="C" style="mask-type:luminance" maskUnits="userSpaceOnUse" x="205" y="174" width="117" height="117"><path d="M216.109 198.993c18.623-26.208 54.987-32.371 81.221-13.769 26.235 18.602 32.404 54.929 13.781 81.135-18.621 26.207-54.986 32.371-81.22 13.769-26.234-18.603-32.405-54.929-13.782-81.135Z" fill="#fff"/></mask><g mask="url(#C)"><path d="M290.127 194.84c-41.101-3.323-79.065 2.589-81.582.204-1.937-1.838 20.538-5.366 28.305-6.451 8.143-1.138 15.454-2.126 22.787-1.428 7.071.673 6.062 2.141 12.703 2.919 10.313 1.208 17.114-1.823 32.92-1.397 7.409.2 17.81 1.186 18.783 2.995.603 1.121-2.533 2.319-5.539 2.982-8.798 1.942-22.545.648-28.377.176Z" fill="#D5CFBB"/></g><mask id="D" style="mask-type:luminance" maskUnits="userSpaceOnUse" x="205" y="174" width="117" height="117"><path d="M216.109 198.993c18.623-26.208 54.987-32.371 81.221-13.769 26.235 18.602 32.404 54.929 13.781 81.135-18.621 26.207-54.986 32.371-81.22 13.769-26.234-18.603-32.405-54.929-13.782-81.135Z" fill="#fff"/></mask><g mask="url(#D)"><path d="M327.268 211.485c-35.942-4.104-69.104 2.795-71.314-.054-1.702-2.196 17.933-6.312 24.717-7.576 7.116-1.324 13.502-2.473 19.915-1.616 6.183.827 5.306 2.57 11.114 3.519 9.02 1.475 14.954-2.108 28.774-1.544 6.478.263 15.572 1.475 16.43 3.632.53 1.335-2.207 2.748-4.833 3.528-7.682 2.281-19.703.693-24.803.111Z" fill="#D5CFBB"/></g><mask id="E" style="mask-type:luminance" maskUnits="userSpaceOnUse" x="205" y="174" width="117" height="117"><path d="M216.109 198.993c18.623-26.208 54.987-32.371 81.221-13.769 26.235 18.602 32.404 54.929 13.781 81.135-18.621 26.207-54.986 32.371-81.22 13.769-26.234-18.603-32.405-54.929-13.782-81.135Z" fill="#fff"/></mask><g mask="url(#E)"><path d="M221.513 242.522c-35.942-4.103-69.104 2.796-71.314-.054-1.702-2.195 17.933-6.312 24.718-7.576 7.115-1.324 13.502-2.473 19.914-1.616 6.183.825 5.306 2.57 11.114 3.519 9.02 1.475 14.955-2.108 28.773-1.546 6.477.265 15.572 1.477 16.429 3.634.532 1.333-2.207 2.748-4.831 3.527-7.681 2.282-19.703.694-24.803.112Z" fill="#D5CFBB"/></g><mask id="F" style="mask-type:luminance" maskUnits="userSpaceOnUse" x="205" y="174" width="117" height="117"><path d="M216.109 198.993c18.623-26.208 54.987-32.371 81.221-13.769 26.235 18.602 32.404 54.929 13.781 81.135-18.621 26.207-54.986 32.371-81.22 13.769-26.234-18.603-32.405-54.929-13.782-81.135Z" fill="#fff"/></mask><g mask="url(#F)"><path d="M350.78 231.732c-35.942-4.103-69.104 2.795-71.314-.053-1.7-2.195 17.933-6.311 24.717-7.575 7.115-1.326 13.502-2.475 19.914-1.618 6.184.825 5.307 2.57 11.114 3.521 9.02 1.475 14.955-2.108 28.773-1.546 6.478.265 15.572 1.477 16.431 3.632.531 1.335-2.206 2.748-4.832 3.528-7.684 2.281-19.704.693-24.803.111Z" fill="#D5CFBB"/></g><mask id="G" style="mask-type:luminance" maskUnits="userSpaceOnUse" x="205" y="174" width="117" height="117"><path d="M216.109 198.993c18.623-26.208 54.987-32.371 81.221-13.769 26.235 18.602 32.404 54.929 13.781 81.135-18.621 26.207-54.986 32.371-81.22 13.769-26.234-18.603-32.405-54.929-13.782-81.135Z" fill="#fff"/></mask><g mask="url(#G)"><path d="M218.533 228.218c22.174-3.833 42.803 1.105 44.124-1.192 1.017-1.767-11.198-4.717-15.416-5.609-4.424-.936-8.394-1.743-12.347-.962-3.812.757-3.242 2.125-6.82 2.972-5.556 1.315-9.287-1.43-17.827-.76-4.004.314-9.612 1.42-10.108 3.145-.307 1.069 1.409 2.145 3.045 2.722 4.791 1.679 12.204.228 15.349-.316Z" fill="#D5CFBB"/></g><mask id="H" style="mask-type:luminance" maskUnits="userSpaceOnUse" x="205" y="174" width="117" height="117"><path d="M216.109 198.993c18.623-26.208 54.987-32.371 81.221-13.769 26.235 18.602 32.404 54.929 13.781 81.135-18.621 26.207-54.986 32.371-81.22 13.769-26.234-18.603-32.405-54.929-13.782-81.135Z" fill="#fff"/></mask><g mask="url(#H)"><path d="M267.465 252.948c22.172-3.834 42.803 1.104 44.124-1.192 1.017-1.769-11.198-4.717-15.416-5.611-4.424-.936-8.394-1.744-12.347-.96-3.812.755-3.242 2.123-6.819 2.97-5.559 1.315-9.287-1.43-17.828-.76-4.004.314-9.61 1.422-10.108 3.145-.307 1.069 1.409 2.145 3.047 2.721 4.789 1.682 12.202.231 15.347-.313Z" fill="#D5CFBB"/></g><mask id="I" style="mask-type:luminance" maskUnits="userSpaceOnUse" x="205" y="174" width="117" height="117"><path d="M216.109 198.993c18.623-26.208 54.987-32.371 81.221-13.769 26.235 18.602 32.404 54.929 13.781 81.135-18.621 26.207-54.986 32.371-81.22 13.769-26.234-18.603-32.405-54.929-13.782-81.135Z" fill="#fff"/></mask><g mask="url(#I)"><path d="M194.878 212.602c22.174-3.835 42.803 1.103 44.124-1.192 1.017-1.768-11.198-4.716-15.416-5.609-4.424-.936-8.394-1.745-12.347-.961-3.812.754-3.242 2.124-6.82 2.969-5.556 1.316-9.287-1.429-17.827-.76-4.005.314-9.612 1.423-10.108 3.146-.307 1.069 1.409 2.144 3.047 2.721 4.791 1.684 12.202.231 15.347-.314Z" fill="#D5CFBB"/></g><mask id="J" style="mask-type:luminance" maskUnits="userSpaceOnUse" x="205" y="174" width="117" height="117"><path d="M216.109 198.993c18.623-26.208 54.987-32.371 81.221-13.769 26.235 18.602 32.404 54.929 13.781 81.135-18.621 26.207-54.986 32.371-81.22 13.769-26.234-18.603-32.405-54.929-13.782-81.135Z" fill="#fff"/></mask><g mask="url(#J)"><path d="M228.185 181.015c22.172-3.833 42.804 1.105 44.124-1.192 1.017-1.768-11.198-4.716-15.416-5.611-4.424-.936-8.394-1.743-12.347-.959-3.812.754-3.242 2.124-6.819 2.969-5.557 1.316-9.287-1.429-17.828-.76-4.004.314-9.61 1.423-10.106 3.146-.307 1.068 1.409 2.144 3.047 2.721 4.787 1.684 12.2.23 15.345-.314Z" fill="#D5CFBB"/></g><mask id="K" style="mask-type:luminance" maskUnits="userSpaceOnUse" x="205" y="174" width="117" height="117"><path d="M216.109 198.993c18.623-26.208 54.987-32.371 81.221-13.769 26.235 18.602 32.404 54.929 13.781 81.135-18.621 26.207-54.986 32.371-81.22 13.769-26.234-18.603-32.405-54.929-13.782-81.135Z" fill="#fff"/></mask><g mask="url(#K)"><path d="M249.413 276.636c-16.806-5.174-32.224 2.754-33.279-.651-.811-2.621 8.316-7.354 11.472-8.802 3.309-1.517 6.28-2.828 9.28-1.756 2.891 1.032 2.497 3.098 5.215 4.276 4.223 1.828 6.961-2.382 13.413-1.598 3.026.368 7.279 1.883 7.698 4.453.258 1.591-1.008 3.249-2.226 4.154-3.567 2.645-9.189.659-11.573-.076Z" fill="#D5CFBB"/></g></g><mask id="L" style="mask-type:luminance" maskUnits="userSpaceOnUse" x="15" y="15" width="277" height="252"><path d="M111.991 38.837c18.305-31.672 64.066-31.672 82.371 0l45.123 78.072 45.122 78.071c18.305 31.67-4.577 71.259-41.185 71.259H62.933c-36.609 0-59.49-39.589-41.185-71.259l45.122-78.071 45.121-78.072Z" fill="#fff"/></mask><g mask="url(#L)"><path d="M51.718 167.874a64.96 64.96 0 0 0-15.36 1.825l-3.267 5.652a60.183 60.183 0 0 1 18.627-2.927 60.303 60.303 0 0 1 39.63 14.832 60.58 60.58 0 0 1 8.684 9.348c.202.268.412.557.647.879l.116.162c.209.292.412.582.606.863l.102.149c.216.314.411.602.594.88l.025.036c.178.272.371.57.587.911l.109.17c.193.305.378.608.554.898l.094.156c.196.325.371.623.536.907l.027.049c.166.287.338.594.531.944l.099.181c.171.312.34.624.5.931l.085.163c.175.336.331.64.478.936l.027.055c.147.295.303.616.474.976l.089.188c.156.332.305.655.445.965l.074.165c.153.345.293.661.422.969l.025.06c.131.305.265.635.416 1.009l.076.192c.135.337.265.673.389.996l.063.169c.133.355.253.68.365.997l.022.062c.113.316.229.657.356 1.039l.082.249.111.341.112.356.106.335.11.365.1.332c.037.123.073.247.107.37l.095.33c.034.125.071.249.103.376l.089.33c.035.125.067.252.1.377l.086.33.096.383.081.332c.031.127.062.254.091.383l.033.136a60.587 60.587 0 0 1 1.562 14.453l-.006.295c-.002.155-.005.309-.009.463l-.011.37a23.74 23.74 0 0 1-.012.383l-.013.321-.02.432-.018.328c-.008.14-.017.281-.024.423l-.022.332c-.009.139-.018.277-.029.415l-.025.336c-.011.138-.022.274-.035.41l-.031.335-.038.409-.034.335-.044.408-.038.332-.049.408-.042.329-.054.408-.046.327-.059.41-.048.319c-.021.139-.043.277-.067.415l-.051.312c-.023.14-.049.28-.072.419l-.053.305c-.025.147-.054.294-.082.441l-.052.281-.086.426-.058.292c-.036.18-.076.36-.114.537l-.037.176c-.103.474-.214.956-.33 1.432l-.038.154c-.046.185-.091.368-.138.551l-.06.225-.127.479-.069.254c-.04.149-.082.298-.124.446l-.078.269c-.042.143-.082.287-.125.428l-.084.276c-.041.14-.083.277-.127.417l-.087.279-.131.41-.092.282c-.044.136-.089.27-.135.404l-.096.281c-.045.135-.093.269-.14.401l-.1.281c-.047.135-.096.267-.143.401l-.102.276c-.049.136-.1.269-.151.403l-.103.272c-.051.136-.104.268-.156.405l-.106.266-.163.408-.105.258c-.057.14-.117.279-.175.419l-.101.243c-.062.143-.124.29-.188.434l-.098.223-.205.464-.085.191-.247.535-.053.112c-.201.432-.412.871-.628 1.303l-.038.076c-.095.187-.187.372-.284.559l-.089.172c-.078.154-.157.307-.239.459l-.111.207c-.074.14-.149.281-.225.421l-.124.226c-.072.133-.145.265-.218.396l-.134.238-.216.381-.14.244-.216.371-.147.248-.218.363-.151.248-.22.358-.156.248-.223.352-.16.249-.227.348-.161.245-.233.348-.022.033h5.407l.047-.078.234-.39.158-.267.232-.397.151-.263.233-.408.143-.256c.08-.142.158-.285.236-.428l.133-.241.243-.454.118-.221c.087-.165.173-.329.258-.494l.096-.185c.102-.199.204-.401.303-.602l.042-.08c.231-.464.458-.936.676-1.4l.056-.122c.089-.19.178-.383.265-.575l.091-.203c.075-.167.149-.332.222-.499l.105-.239.202-.467.11-.261.187-.45.113-.276c.06-.146.118-.292.176-.439l.113-.286.169-.434.11-.292c.055-.143.109-.288.162-.432l.109-.295c.053-.144.103-.289.154-.432l.106-.301.149-.432.103-.305c.049-.145.096-.29.143-.435l.099-.305c.047-.147.094-.294.139-.441l.095-.301c.047-.149.092-.299.136-.45l.089-.295.134-.461.082-.289.134-.48.075-.272.136-.516.064-.243c.051-.197.1-.395.149-.593l.041-.167c.126-.511.246-1.03.356-1.538l.04-.191c.042-.192.084-.384.124-.578l.063-.316a36.9 36.9 0 0 0 .091-.457l.056-.301c.029-.158.06-.316.088-.474l.058-.326.078-.452.054-.336.071-.446c.016-.111.033-.221.053-.345l.065-.44.049-.351c.02-.146.04-.292.058-.439l.046-.355c.018-.145.036-.29.052-.437l.042-.358c.016-.145.033-.292.047-.437l.037-.359c.014-.147.029-.292.041-.439l.033-.361c.013-.147.026-.294.036-.441l.028-.361.031-.446.023-.358.026-.455.018-.354.02-.464.014-.345c.006-.138.009-.274.013-.412l.013-.399.009-.497.005-.317a55.493 55.493 0 0 0 0-1.684 65.144 65.144 0 0 0-1.676-13.861l-.034-.145c-.033-.138-.064-.276-.099-.414l-.087-.355-.103-.412-.091-.354a39.793 39.793 0 0 0-.107-.406l-.096-.354-.113-.405-.1-.353c-.038-.135-.078-.267-.116-.399l-.107-.358-.118-.39-.113-.361-.122-.383a38.477 38.477 0 0 0-.118-.368l-.089-.267a67.1 67.1 0 0 0-.383-1.119l-.023-.067c-.12-.341-.249-.691-.393-1.072l-.067-.182a58.103 58.103 0 0 0-.418-1.072l-.083-.208a67.615 67.615 0 0 0-.447-1.083l-.029-.066c-.14-.33-.289-.671-.454-1.041l-.08-.178c-.149-.332-.31-.682-.477-1.037l-.097-.203c-.183-.387-.35-.732-.508-1.051l-.029-.06c-.16-.317-.329-.647-.516-1.007l-.091-.176c-.174-.328-.354-.665-.537-1.001l-.107-.194a62.889 62.889 0 0 0-.572-1.014l-.029-.051a70.594 70.594 0 0 0-.576-.976l-.102-.169a91.19 91.19 0 0 0-.595-.965l-.117-.185a65.651 65.651 0 0 0-.632-.978l-.027-.039a67.63 67.63 0 0 0-.637-.946l-.109-.159a54.4 54.4 0 0 0-.654-.927l-.125-.174a65.274 65.274 0 0 0-10.036-10.999 64.784 64.784 0 0 0-42.617-15.964Z" fill="#193248"/></g><mask id="M" style="mask-type:luminance" maskUnits="userSpaceOnUse" x="15" y="15" width="277" height="252"><path d="M111.991 38.837c18.305-31.672 64.066-31.672 82.371 0l45.123 78.072 45.122 78.071c18.305 31.67-4.577 71.259-41.185 71.259H62.933c-36.609 0-59.49-39.589-41.185-71.259l45.122-78.071 45.121-78.072Z" fill="#fff"/></mask><g mask="url(#M)"><path d="M51.718 172.425c-6.386 0-12.634.984-18.627 2.928l-2.337 4.044a57.2 57.2 0 0 1 20.964-3.953c14.41 0 27.577 5.315 37.645 14.088a57.459 57.459 0 0 1 8.249 8.88 57.037 57.037 0 0 1 8.52 16.307 57.034 57.034 0 0 1 2.817 15.286v.009l.003.081v.008l.004.085v.003l.007.18v.007l.004.08v.015l.004.076v.013l.005.177v.009l.002.077v.02l.002.068v.02l.001.078v.008c.002.031.002.058.002.089v.003l.002.082v.018l.002.067v.026l.002.065v.022l.002.085v.003l.001.082v.024c0 .021 0 .04.002.06v.03c0 .02 0 .038.002.058v.029l.002.073v.013l.002.087V232.679a56.942 56.942 0 0 1-10.88 33.562h3.683l.022-.033.232-.348.162-.245.227-.348.16-.249.223-.352.156-.248.22-.357.151-.249.217-.363.148-.248c.072-.124.143-.247.216-.37l.139-.245.217-.381.134-.238c.073-.13.147-.263.218-.395l.123-.227c.077-.14.151-.281.226-.421l.11-.207.24-.459.089-.172c.096-.187.189-.372.283-.559l.038-.076c.215-.432.425-.869.629-1.303l.052-.112c.084-.178.166-.356.247-.535l.086-.191c.069-.154.138-.308.205-.464l.098-.223.187-.434.102-.243.174-.419.105-.258c.055-.136.111-.272.164-.408l.105-.266c.053-.135.106-.269.156-.405l.104-.272c.049-.134.102-.267.151-.403l.101-.275c.049-.135.097-.267.144-.401l.1-.282c.047-.134.092-.268.14-.401l.096-.281c.045-.134.091-.27.134-.404l.093-.281.131-.41.087-.28.127-.417.083-.276.126-.428.078-.268.123-.447.069-.254c.044-.157.086-.319.127-.479l.06-.224c.047-.186.093-.367.138-.552l.038-.154c.117-.475.227-.958.331-1.431l.036-.176.115-.537.058-.292.085-.427.053-.281.082-.441.052-.305c.026-.139.049-.279.073-.419l.051-.312.067-.415.047-.319c.022-.136.04-.274.06-.41l.045-.327.055-.408.042-.328.049-.409.038-.332.043-.408.035-.335.038-.409.031-.335c.013-.136.024-.272.034-.41l.026-.336c.011-.139.02-.275.029-.415l.022-.332c.009-.14.016-.281.023-.423l.018-.328c.008-.143.013-.289.02-.432l.013-.321c.006-.127.009-.254.013-.383l.011-.37.009-.462.005-.296c.004-.254.004-.506.004-.758a60.378 60.378 0 0 0-1.565-13.695l-.033-.136-.091-.383-.082-.332-.096-.383-.085-.33-.1-.377-.089-.33-.104-.376-.094-.33-.107-.37-.1-.332a25.355 25.355 0 0 0-.111-.365l-.105-.335-.113-.356-.111-.341-.081-.248a53.539 53.539 0 0 0-.356-1.04l-.022-.062a56.4 56.4 0 0 0-.365-.997l-.064-.169a54.157 54.157 0 0 0-.388-.996l-.077-.192c-.15-.374-.285-.704-.415-1.009l-.026-.06a90.462 90.462 0 0 0-.421-.968l-.075-.166c-.138-.31-.288-.633-.444-.965l-.089-.188a61.225 61.225 0 0 0-.474-.976l-.028-.055a80.478 80.478 0 0 0-.477-.936l-.086-.163c-.159-.307-.328-.62-.499-.931l-.1-.181c-.192-.35-.365-.657-.53-.943l-.027-.049c-.166-.285-.34-.583-.536-.907l-.095-.156a47.186 47.186 0 0 0-.553-.898l-.109-.171a96.43 96.43 0 0 0-.587-.911l-.025-.036a64.457 64.457 0 0 0-.594-.88l-.102-.148a58.98 58.98 0 0 0-.606-.864l-.117-.161a60.744 60.744 0 0 0-9.33-10.228 60.289 60.289 0 0 0-39.625-14.829Z" fill="#5E697B"/></g><mask id="N" style="mask-type:luminance" maskUnits="userSpaceOnUse" x="15" y="15" width="277" height="252"><path d="M111.991 38.837c18.305-31.672 64.066-31.672 82.371 0l45.123 78.072 45.122 78.071c18.305 31.67-4.577 71.259-41.185 71.259H62.933c-36.609 0-59.49-39.589-41.185-71.259l45.122-78.071 45.121-78.072Z" fill="#fff"/></mask><g mask="url(#N)"><mask id="O" style="mask-type:luminance" maskUnits="userSpaceOnUse" x="-6" y="175" width="116" height="115"><path d="M109.012 232.677c0-31.611-25.65-57.235-57.295-57.235-31.643 0-57.294 25.624-57.294 57.235 0 31.609 25.65 57.234 57.294 57.234s57.295-25.624 57.295-57.234Z" fill="#fff"/></mask><g mask="url(#O)"><path d="M109.012 232.677c0-31.611-25.65-57.235-57.295-57.235-31.643 0-57.294 25.624-57.294 57.235 0 31.609 25.65 57.234 57.294 57.234s57.295-25.624 57.295-57.234Z" fill="#4E97B7"/></g><mask id="P" style="mask-type:luminance" maskUnits="userSpaceOnUse" x="-6" y="175" width="116" height="115"><path d="M109.012 232.677c0-31.611-25.65-57.235-57.295-57.235-31.643 0-57.294 25.624-57.294 57.235 0 31.609 25.65 57.234 57.294 57.234s57.295-25.624 57.295-57.234Z" fill="#fff"/></mask><g mask="url(#P)"><path d="M-19.822 213.643c4.128 5.987 23.771-7.632 39.905 3.233 7.178 4.834 11.28 12.914 15.098 11.492 2.555-.954 1.188-4.749 4.672-10.415 3.709-6.028 7.524-5.416 13.66-12.927 3.051-3.733 5.645-6.908 4.675-9.337-1.537-3.846-9.954-.673-17.975-4.668-10.943-5.451-8.751-18.072-15.817-21.188-14.487-6.389-50.362 34.899-44.218 43.81Z" fill="#52B48D"/></g><mask id="Q" style="mask-type:luminance" maskUnits="userSpaceOnUse" x="-6" y="175" width="116" height="115"><path d="M109.012 232.677c0-31.611-25.65-57.235-57.295-57.235-31.643 0-57.294 25.624-57.294 57.235 0 31.609 25.65 57.234 57.294 57.234s57.295-25.624 57.295-57.234Z" fill="#fff"/></mask><g mask="url(#Q)"><path d="M-16.226 235.55c3.325-6.499 14.115-5.709 19.413-4.308 8.745 2.311 15.554 9.731 14.379 12.209-1.11 2.345-8.314-1.918-17.256 1.796-6.323 2.625-7.5 6.743-10.785 6.104-4.547-.883-8.704-10.028-5.751-15.801Z" fill="#52B48D"/></g><mask id="R" style="mask-type:luminance" maskUnits="userSpaceOnUse" x="-6" y="175" width="116" height="115"><path d="M109.012 232.677c0-31.611-25.65-57.235-57.295-57.235-31.643 0-57.294 25.624-57.294 57.235 0 31.609 25.65 57.234 57.294 57.234s57.295-25.624 57.295-57.234Z" fill="#fff"/></mask><g mask="url(#R)"><path d="M37.338 295.163c-8.64-8.533-13.24-23.708-6.47-36.269 7.426-13.782 25.724-19.206 35.23-14.007 8.036 4.396 7.482 15.121 11.864 15.083 5.183-.046 12.41-15.106 7.909-25.138-3.027-6.745-10.057-8.323-9.347-11.852.674-3.345 7.9-6.405 12.583-4.308 8.256 3.695 6.979 22.671 6.11 35.553-1.52 22.603-2.282 33.907-11.503 41.657-11.54 9.698-33.398 12.1-46.376-.719Z" fill="#52B48D"/></g><mask id="S" style="mask-type:luminance" maskUnits="userSpaceOnUse" x="-6" y="175" width="116" height="115"><path d="M109.012 232.677c0-31.611-25.65-57.235-57.295-57.235-31.643 0-57.294 25.624-57.294 57.235 0 31.609 25.65 57.234 57.294 57.234s57.295-25.624 57.295-57.234Z" fill="#fff"/></mask><g mask="url(#S)"><path d="M85.194 168.908c-3.627 3.662 6.228 12.345 3.953 28.37-.545 3.837-1.585 6.698 0 10.056 2.39 5.058 8.89 7.327 13.662 7.541 7.988.357 16.76-4.795 19.053-12.57 2.822-9.573-5.7-17.968-10.425-22.623-8.717-8.586-22.497-14.558-26.243-10.774Z" fill="#52B48D"/></g><mask id="T" style="mask-type:luminance" maskUnits="userSpaceOnUse" x="-6" y="175" width="116" height="115"><path d="M109.012 232.677c0-31.611-25.65-57.235-57.295-57.235-31.643 0-57.294 25.624-57.294 57.235 0 31.609 25.65 57.234 57.294 57.234s57.295-25.624 57.295-57.234Z" fill="#fff"/></mask><g mask="url(#T)"><path d="M99.618 214.46v.143c0 7.77-1.344 15.222-3.815 22.145.194 5.866-.231 12.187-.587 17.477-.298 4.417-.565 8.402-.873 12.016h3.79a56.945 56.945 0 0 0 10.879-33.562V231.935c0-.029 0-.058-.002-.087v-.013l-.001-.072v-.029c0-.02 0-.039-.002-.059v-.03c0-.022 0-.04-.002-.06v-.024l-.002-.081v-.004l-.002-.085v-.022c0-.022 0-.044-.002-.065v-.026l-.001-.067v-.018l-.002-.082v-.003l-.002-.089v-.008l-.002-.078v-.019l-.002-.069v-.02l-.001-.077v-.009l-.006-.177v-.013l-.004-.076v-.015a1.09 1.09 0 0 0-.003-.08v-.007c-.002-.062-.006-.12-.007-.179v-.004l-.004-.085v-.008l-.004-.081v-.009a57.011 57.011 0 0 0-2.816-15.286 18.742 18.742 0 0 1-3.327.158 20.006 20.006 0 0 1-3.2-.417Z" fill="#4E97B7"/></g><mask id="U" style="mask-type:luminance" maskUnits="userSpaceOnUse" x="-6" y="175" width="116" height="115"><path d="M109.012 232.677c0-31.611-25.65-57.235-57.295-57.235-31.643 0-57.294 25.624-57.294 57.235 0 31.609 25.65 57.234 57.294 57.234s57.295-25.624 57.295-57.234Z" fill="#fff"/></mask><g mask="url(#U)"><path d="M95.805 236.746c-4.183 11.715-11.587 21.901-21.148 29.493h19.688c.308-3.611.575-7.597.873-12.016.356-5.29.78-11.61.587-17.477Z" fill="#52B48D"/></g><mask id="V" style="mask-type:luminance" maskUnits="userSpaceOnUse" x="-6" y="175" width="116" height="115"><path d="M109.012 232.677c0-31.611-25.65-57.235-57.295-57.235-31.643 0-57.294 25.624-57.294 57.235 0 31.609 25.65 57.234 57.294 57.234s57.295-25.624 57.295-57.234Z" fill="#fff"/></mask><g mask="url(#V)"><path d="M97.613 198.41a65.945 65.945 0 0 1 2.005 16.05c1.104.234 2.185.37 3.189.415a18.742 18.742 0 0 0 3.327-.158 56.983 56.983 0 0 0-8.52-16.307Z" fill="#52B48D"/></g><mask id="W" style="mask-type:luminance" maskUnits="userSpaceOnUse" x="-6" y="175" width="116" height="115"><path d="M109.012 232.677c0-31.611-25.65-57.235-57.295-57.235-31.643 0-57.294 25.624-57.294 57.235 0 31.609 25.65 57.234 57.294 57.234s57.295-25.624 57.295-57.234Z" fill="#fff"/></mask><g mask="url(#W)"><path d="M37.039 198.029c21.85-7 42.084 3.113 43.41-1.348 1.018-3.432-10.96-9.471-15.099-11.312-4.34-1.929-8.235-3.598-12.132-2.154-3.76 1.39-3.213 4.08-6.742 5.655-5.48 2.447-9.118-3.004-17.526-1.885-3.94.524-9.468 2.565-9.975 5.925-.314 2.081 1.362 4.225 2.966 5.386 4.692 3.401 11.998.726 15.098-.267Z" fill="#F4F9F1"/></g><mask id="X" style="mask-type:luminance" maskUnits="userSpaceOnUse" x="-6" y="175" width="116" height="115"><path d="M109.012 232.677c0-31.611-25.65-57.235-57.295-57.235-31.643 0-57.294 25.624-57.294 57.235 0 31.609 25.65 57.234 57.294 57.234s57.295-25.624 57.295-57.234Z" fill="#fff"/></mask><g mask="url(#X)"><path d="M-9.335 230.251c21.85-7 42.084 3.113 43.41-1.348 1.02-3.432-10.96-9.471-15.098-11.31-4.34-1.929-8.236-3.598-12.133-2.155-3.757 1.391-3.21 4.079-6.741 5.656-5.48 2.447-9.118-3.006-17.526-1.885-3.94.524-9.469 2.565-9.976 5.925-.314 2.079 1.363 4.225 2.966 5.386 4.69 3.399 11.998.724 15.098-.269Z" fill="#F4F9F1"/></g><mask id="Y" style="mask-type:luminance" maskUnits="userSpaceOnUse" x="-6" y="175" width="116" height="115"><path d="M109.012 232.677c0-31.611-25.65-57.235-57.295-57.235-31.643 0-57.294 25.624-57.294 57.235 0 31.609 25.65 57.234 57.294 57.234s57.295-25.624 57.295-57.234Z" fill="#fff"/></mask><g mask="url(#Y)"><path d="M97.067 230.251c-21.85-7-42.084 3.113-43.41-1.348-1.02-3.432 10.96-9.471 15.098-11.31 4.34-1.929 8.236-3.598 12.133-2.155 3.759 1.391 3.212 4.079 6.74 5.656 5.481 2.447 9.119-3.006 17.527-1.885 3.941.524 9.469 2.565 9.975 5.925.314 2.079-1.362 4.225-2.965 5.386-4.693 3.399-11.999.724-15.099-.269Z" fill="#F4F9F1"/></g><mask id="Z" style="mask-type:luminance" maskUnits="userSpaceOnUse" x="-6" y="175" width="116" height="115"><path d="M109.012 232.677c0-31.611-25.65-57.235-57.295-57.235-31.643 0-57.294 25.624-57.294 57.235 0 31.609 25.65 57.234 57.294 57.234s57.295-25.624 57.295-57.234Z" fill="#fff"/></mask><g mask="url(#Z)"><path d="M37.204 259.251c21.598-2.996 31.595 1.718 32.877-1.995 1.376-3.984-8.837-13.12-15.099-11.313-3.265.944-3.503 4.298-7.13 4.958-4.443.809-5.98-3.886-11.053-3.77-5.305.122-6.823 5.327-11.325 4.579-3.301-.546-3.357-3.49-6.891-4.149-4.208-.785-9.634 2.359-9.976 5.925-.256 2.676 2.417 4.924 2.966 5.386 5.77 4.851 14.176 1.969 25.63.379Z" fill="#F4F9F1"/></g><mask id="aa" style="mask-type:luminance" maskUnits="userSpaceOnUse" x="-6" y="175" width="116" height="115"><path d="M109.012 232.677c0-31.611-25.65-57.235-57.295-57.235-31.643 0-57.294 25.624-57.294 57.235 0 31.609 25.65 57.234 57.294 57.234s57.295-25.624 57.295-57.234Z" fill="#fff"/></mask><g mask="url(#aa)"><path d="M67.242 274.884c16.47-5.278 31.722 2.345 32.721-1.015.768-2.588-8.26-7.14-11.38-8.528-3.271-1.455-6.21-2.712-9.146-1.623-2.833 1.048-2.42 3.075-5.081 4.263-4.132 1.845-6.874-2.266-13.212-1.421-2.97.396-7.137 1.934-7.52 4.467-.236 1.567 1.026 3.183 2.236 4.06 3.537 2.561 9.045.544 11.382-.203Z" fill="#F4F9F1"/></g></g><path d="m153.666 125.506 2.117 20.854a.492.492 0 0 0 .832.302l15.042-14.615c.425-.413 1.082.138.75.628l-11.797 17.334a.492.492 0 0 0 .441.767l20.926-1.538c.59-.044.741.801.171.963l-20.19 5.705a.492.492 0 0 0-.155.871l17.02 12.26c.479.346.051 1.088-.489.845l-19.139-8.595a.493.493 0 0 0-.679.569l5.15 20.32c.146.573-.661.867-.918.334l-9.131-18.872a.492.492 0 0 0-.885 0l-9.131 18.872c-.257.533-1.064.239-.918-.334l5.15-20.32a.492.492 0 0 0-.678-.569l-19.138 8.595c-.54.243-.97-.501-.489-.845l17.021-12.26a.491.491 0 0 0-.154-.871l-20.19-5.705c-.571-.162-.422-1.005.169-.963l20.927 1.538a.49.49 0 0 0 .442-.767l-11.797-17.334c-.333-.49.325-1.041.75-.628l15.042 14.615c.294.286.79.107.831-.302l2.12-20.854c.058-.586.917-.586.977 0ZM90.242 99.727l.601 6.985.093.208 3.063 1.37c.126.056.126.464 0 .522l-3.063 1.372-.093.208-.601 6.985c-.025.286-.203.286-.229 0l-.6-6.985-.093-.208-3.064-1.372c-.126-.058-.126-.466 0-.522l3.064-1.37.092-.208.601-6.985c.024-.286.204-.286.229 0ZM75.429 140.755l.601 3.06.093.091 3.063.602c.126.026.126.205 0 .229l-3.063.6-.093.093-.601 3.06c-.025.127-.203.127-.229 0l-.6-3.06-.094-.093-3.063-.6c-.125-.026-.125-.203 0-.229l3.063-.602.093-.091.601-3.06c.024-.123.204-.123.229 0ZM110.107 126.46l.601 3.06.091.093 3.064.6c.125.026.125.203 0 .229l-3.064.6-.091.093-.601 3.06c-.023.125-.203.125-.229 0l-.601-3.06-.092-.093-3.064-.6c-.125-.026-.125-.203 0-.229l3.064-.6.092-.093.601-3.06c.024-.125.204-.125.229 0ZM103.788 150.06l.601 3.06.09.092 3.064.601c.125.025.125.203 0 .228l-3.064.601-.09.092-.601 3.061c-.026.125-.204.125-.229 0l-.601-3.061-.093-.092-3.063-.601c-.126-.025-.126-.203 0-.228l3.063-.601.093-.092.601-3.06c.023-.124.203-.124.229 0ZM212.019 106.3l.601 3.06.093.093 3.064.6c.125.026.125.205 0 .229l-3.064.6-.093.093-.601 3.06c-.025.125-.203.125-.229 0l-.601-3.06-.092-.093-3.064-.6c-.125-.026-.125-.205 0-.229l3.064-.6.092-.093.601-3.06c.026-.125.206-.125.229 0ZM195.548 117.769l.601 5.774.091.174 3.064 1.132c.125.047.125.385 0 .432l-3.064 1.132-.091.172-.601 5.774c-.025.236-.203.236-.229 0l-.601-5.774-.092-.172-3.064-1.132c-.125-.047-.125-.385 0-.432l3.064-1.132.092-.174.601-5.774c.026-.236.206-.236.229 0ZM240.934 138.759l.601 3.061.09.092 3.064.601c.125.025.125.203 0 .228l-3.064.601-.09.092-.601 3.061c-.024.125-.204.125-.229 0l-.601-3.061-.093-.092-3.064-.601c-.125-.025-.125-.203 0-.228l3.064-.601.093-.092.601-3.061c.025-.125.205-.125.229 0ZM214.625 148.57l.601 3.061.093.092 3.064.601c.125.025.125.205 0 .228l-3.064.601-.093.092-.601 3.06c-.025.126-.203.126-.229 0l-.601-3.06-.092-.092-3.064-.601c-.125-.025-.125-.205 0-.228l3.064-.601.092-.092.601-3.061c.026-.125.206-.125.229 0ZM159.722 201.531l.601 3.06.091.091 3.064.602c.125.026.125.203 0 .229l-3.064.6-.091.093-.601 3.06c-.023.125-.203.125-.229 0l-.601-3.06-.092-.093-3.064-.6c-.125-.026-.125-.203 0-.229l3.064-.602.092-.091.601-3.06c.026-.125.206-.125.229 0ZM136.372 213.036l.601 3.06.093.093 3.063.6c.126.026.126.203 0 .229l-3.063.6-.093.093-.601 3.058c-.025.127-.203.127-.229 0l-.601-3.058-.091-.093-3.063-.6c-.126-.026-.126-.203 0-.229l3.063-.6.091-.093.601-3.06c.026-.125.205-.125.229 0ZM167.653 224.847l.601 3.061.092.092 3.064.601c.125.025.125.203 0 .228l-3.064.601-.092.092-.601 3.061c-.026.125-.204.125-.229 0l-.601-3.061-.093-.092-3.064-.601c-.125-.025-.125-.203 0-.228l3.064-.601.093-.092.601-3.061c.025-.125.205-.125.229 0ZM140.338 237.952l.601 5.512.093.166 3.064 1.082c.125.043.125.368 0 .411l-3.064 1.082-.093.167-.601 5.511c-.025.226-.203.226-.229 0l-.601-5.511-.09-.167-3.064-1.082c-.125-.043-.125-.368 0-.411l3.064-1.082.09-.166.601-5.512c.026-.226.204-.226.229 0Z" fill="#F4F9F1"/><path d="m233.593 287.419-77.951 11.777-77.95-11.777 3.292-41.376H230.3l3.294 41.376Z" fill="#193248"/><path d="m233.594 287.419-.227-1.502-77.723 11.743-76.321-11.531 3.069-38.566h146.504l3.181 39.978 1.517-.122 1.516-.12-3.292-41.377a1.52 1.52 0 0 0-1.517-1.399H80.986a1.52 1.52 0 0 0-1.516 1.399l-3.293 41.377c-.063.795.5 1.504 1.29 1.624l77.95 11.777c.154.024.299.024.455 0l77.95-11.777a1.52 1.52 0 0 0 1.29-1.624l-1.518.12Z" fill="#BC4748"/><path d="M113.883 276.266c-.031 1.892-.923 3.416-2.672 4.502-1.149.741-2.747 1.132-4.792 1.187-1.097.029-2.37-.069-3.817-.29-2.679-.41-4.878-1.127-6.585-2.094-1.42-.803-2.532-1.752-3.309-2.853-.779-1.102-1.188-2.283-1.231-3.563 2.591.19 3.888.283 6.477.466.191 1.471.823 2.601 1.876 3.401.785.594 1.713.96 2.766 1.076 1.488.165 2.706-.089 3.639-.794.478-.343.736-.893.778-1.642.058-1.083-.748-2.34-2.368-3.478-1.235-.867-3.255-2.122-5.802-3.737-2.153-1.362-3.674-2.532-4.51-3.51-.917-1.074-1.323-2.235-1.23-3.441.166-2.172 1.646-3.779 4.423-4.909 1.712-.681 3.794-1.036 6.251-1.036 2.364 0 4.369.305 6.023.945 1.288.499 2.314 1.204 3.082 2.117a5.614 5.614 0 0 1 1.322 3.16c-2.571.194-3.859.287-6.436.463-.131-1.078-.603-1.927-1.418-2.538-.587-.441-1.457-.671-2.608-.693-1.222-.026-2.17.266-2.844.86a2.532 2.532 0 0 0-.895 1.808c-.075 1.14.721 2.331 2.399 3.632.634.497 1.603 1.098 2.889 1.82 1.52.854 2.528 1.476 3.013 1.821 1.611 1.105 2.849 2.197 3.71 3.253.407.495.734.952.979 1.366.601 1.03.902 1.937.89 2.701ZM130.761 255.932c3.23.007 5.816.698 7.692 2.149 1.758 1.359 2.633 3.17 2.606 5.31l-.058 4.53c-.027 2.055-1.075 3.748-3.156 5.009-2.083 1.262-4.596 1.719-7.531 1.438-1.56-.148-2.341-.225-3.901-.375-.125 4.368-.189 6.552-.312 10.919l-6.839-1.034c.412-11.186.619-16.782 1.033-27.968 4.188.007 6.28.013 10.466.022Zm3.824 7.28c.016-.786-.321-1.435-1.004-1.932-.683-.501-1.602-.762-2.753-.791-1.609-.04-2.414-.062-4.023-.104-.107 3.712-.159 5.568-.267 9.279 1.624.122 2.437.182 4.061.3 1.068.079 1.983-.107 2.742-.566.757-.457 1.142-1.054 1.157-1.776l.087-4.41ZM150.648 281.115a974.85 974.85 0 0 1-1.687 7.253c-2.848-.43-4.272-.646-7.121-1.078 3.231-12.067 4.8-18.335 7.851-31.322 3.652.005 5.479.007 9.131 0 3.001 13.018 4.547 19.302 7.727 31.411-2.877.434-4.313.651-7.19 1.087-.652-2.892-.977-4.349-1.622-7.284-2.836.334-4.255.267-7.089-.067Zm3.57-17.537a1263.73 1263.73 0 0 1-2.508 12.846c2.003.192 3.006.243 5.009.051a1040.338 1040.338 0 0 1-2.501-12.897ZM182.115 285.398c-3.016.463-5.598.17-7.73-.936-2.132-1.107-3.211-2.707-3.244-4.735l-.269-16.769c-.032-2.045.977-3.815 3.013-5.247 2.034-1.429 4.5-2.111 7.402-2.111 2.926-.002 5.426.674 7.515 1.961 2.09 1.286 3.178 2.804 3.252 4.618.051 1.254.076 1.882.129 3.137l-6.955.375c-.044-1.338-.066-2.008-.107-3.348-.022-.684-.418-1.258-1.186-1.726-.766-.468-1.678-.693-2.739-.669-1.057.024-1.95.294-2.678.816-.73.525-1.086 1.145-1.07 1.856l.378 16.273c.016.709.41 1.269 1.177 1.669.766.397 1.692.524 2.773.382 1.082-.141 1.999-.508 2.751-1.085.754-.578 1.119-1.206 1.097-1.888l-.127-3.942 7.015-.684.158 3.837c.076 1.828-.915 3.51-2.988 5.105-2.073 1.598-4.598 2.656-7.567 3.111ZM198.532 282.543l-1.295-26.671c7.556-.015 11.336-.02 18.89-.035.113 1.441.171 2.161.283 3.601l-12.308.309c.161 2.797.245 4.196.406 6.993 3.627-.241 5.441-.359 9.069-.6.108 1.471.16 2.206.267 3.677-3.642.323-5.466.486-9.109.811.164 2.799.245 4.198.407 6.995l12.569-1.624c.112 1.441.17 2.161.283 3.599l-19.462 2.945Z" fill="#F4F9F1"/></svg>