<svg width="1313" height="1024" fill="none" xmlns="http://www.w3.org/2000/svg"><path d="M133.604 294.223c9.191-8.564 18.384-17.126 27.574-25.687 1.401-1.306-1.235-2.975-2.638-1.667-9.19 8.562-18.383 17.123-27.574 25.687-1.4 1.304 1.235 2.973 2.638 1.667Zm7.162 4.607c9.191-8.562 18.384-17.123 27.574-25.687 1.4-1.306-1.238-2.975-2.638-1.667l-27.574 25.687c-1.403 1.304 1.235 2.973 2.638 1.667Z" fill="#E0E0E0"/><path d="m79.8 321.331 35.655 22.94 44.119-41.099-34.752-22.355-.954-.538-44.069 41.052Z" fill="#E0E0E0"/><path d="m124.286 283.93-39.802 37.044 30.534 19.662 39.802-37.043-30.534-19.663Z" fill="#fff"/><path d="m96.344 307.877-1.844 1.749 33.579 21.22 1.844-1.749-33.579-21.22Z" fill="#E0E0E0"/><path d="m97.94 331.118 2.259 1.428 41.184-39.052-2.259-1.428-41.184 39.052Z" fill="#E0E0E0"/><path d="m110.271 294.671-1.844 1.749 33.578 21.22 1.845-1.749-33.579-21.22Zm90.778-57.036-27.574 25.687c-1.4 1.306 1.235 2.975 2.638 1.667 9.191-8.562 18.384-17.123 27.574-25.687 1.403-1.304-1.235-2.973-2.638-1.667Zm-7.159-4.607c-9.19 8.562-18.38 17.125-27.574 25.687-1.4 1.306 1.235 2.975 2.638 1.669l27.574-25.687c1.403-1.306-1.235-2.975-2.638-1.669Z" fill="#E0E0E0"/><path d="m250.529 279.754-36.874.149-25.253 22.689 7.321 27.776 54.806-50.614Z" fill="#EBEBEB"/><path d="m214.472 297.802-1.969 1.921 24.074 14.785 1.969-1.921-24.074-14.785Z" fill="#E0E0E0"/><path d="M232.074 315.084c-.352-2.964 2.465-5.586 6.291-5.86 3.826-.273 7.217 1.908 7.569 4.87.353 2.964-2.464 5.587-6.29 5.86-3.829.273-7.217-1.906-7.57-4.87Z" fill="#E0E0E0"/><path d="m213.655 279.903-4.499-2.893-1.138-9.561-49.196-31.649-10.103.721-3.559-2.287-26.623 24.846 4.074 2.622.907 7.615 49.616 31.357 11.412-.756 3.925 2.608 25.184-22.623Z" fill="#EBEBEB"/><path d="m254.857 210.527-35.656-22.94-44.119 41.098 34.752 22.358.954.536 44.069-41.052Z" fill="#E0E0E0"/><path d="m219.641 191.218-39.802 37.043 30.534 19.663 39.802-37.044-30.534-19.662Z" fill="#fff"/><path d="m238.315 223.988 1.845-1.748-33.575-21.224-1.844 1.749 33.574 21.223Z" fill="#E0E0E0"/><path d="m236.708 200.74-2.259-1.428-41.184 39.053 2.259 1.427 41.184-39.052Z" fill="#E0E0E0"/><path d="m224.406 237.197 1.844-1.749-33.579-21.217-1.844 1.749 33.579 21.217Zm-51.813 63.05c-.303-.192 7.294-7.783 16.964-16.955 9.676-9.174 17.76-16.453 18.064-16.261.303.192-7.291 7.781-16.964 16.955-9.673 9.172-17.761 16.453-18.064 16.261Z" fill="#E0E0E0"/><path d="M208.017 267.449c-.06.058-1.408-.704-3.79-2.132l-10.003-6.128c-8.408-5.214-19.958-12.474-32.66-20.544l-3.195-2.032.998-.077c-9.808 9.285-18.632 17.548-25.035 23.468-3.11 2.838-5.673 5.179-7.617 6.955-1.816 1.621-2.85 2.492-2.921 2.445-.072-.045.824-1.005 2.511-2.706l7.277-7.17c6.208-6.044 14.902-14.387 24.691-23.685l.446-.427.549.348 3.197 2.029c12.703 8.071 24.153 15.427 32.398 20.794l9.717 6.4c2.271 1.53 3.501 2.403 3.437 2.462Zm-85.758-5.979c-.304-.192 5.353-5.945 12.633-12.849 7.283-6.905 13.433-12.347 13.736-12.155.303.192-5.353 5.945-12.636 12.851-7.28 6.903-13.43 12.345-13.733 12.153Zm62.287 38.448c-.304-.192 4.953-5.565 11.74-12.002 6.789-6.438 12.537-11.5 12.843-11.308.303.192-4.954 5.566-11.743 12.004-6.787 6.434-12.537 11.498-12.84 11.306Zm3.947 3.02c-.303-.192 4.943-5.555 11.716-11.978 6.775-6.426 12.515-11.477 12.818-11.285.303.192-4.943 5.555-11.718 11.98-6.773 6.421-12.512 11.473-12.816 11.283Zm-73.443.433c.389-.028 1.436 5.958 2.335 13.371.899 7.416 1.312 13.447.921 13.477-.389.027-1.437-5.958-2.335-13.372-.899-7.413-1.31-13.446-.921-13.476Zm7.63-5.668c.389-.036 1.213 3.263 1.842 7.364.628 4.104.821 7.461.433 7.495-.389.036-1.213-3.261-1.842-7.366-.628-4.102-.821-7.457-.433-7.493Zm89.47-93.019c.391.009.408 7.593.033 16.936-.372 9.347-.992 16.912-1.384 16.903-.391-.009-.408-7.591-.033-16.938.372-9.344.992-16.911 1.384-16.901Zm5.799-4.294c.406.03.196 3.972.251 8.816.036 4.846.317 8.784-.088 8.82-.375.038-1.296-3.897-1.331-8.811-.055-4.915.794-8.859 1.168-8.825Z" fill="#E0E0E0"/><path d="M1111.85 277.111c69.72-14.756 110.79-70.474 91.73-124.449-19.06-53.976-91.03-85.77-160.75-71.014-69.726 14.756-110.795 70.474-91.735 124.449 19.061 53.976 91.035 85.769 160.755 71.014Z" fill="#EBEBEB"/><path d="M1066.14 78.195c.56 1.98 1.04 3.743 1.48 5.019-6.53.866-13.73 2.033-17.67 6.159-3.99 4.167-3.28 9.9-4.91 14.929-.49 1.496-1.35 3.088-3.15 3.749-1.49.551-3.26.316-4.87.041-9.48-1.613-20.41-3.999-28.07.617-4.44 2.678-7.28 7.524-12.869 8.062-5.899.568-10.144-4.134-11.927-8.613 22.146-17.5 51.426-27.868 81.986-29.963Z" fill="#E0E0E0"/><path d="M1013.22 129.199c-.3.036-.6-.055-.87-.16-11.81-4.537 4.73-20.365 14.54-18.995 6.07.848 7.44 5.937 4.33 9.597-3.93 4.629-12.25 5.113-17.01 9.027-.28.23-.58.484-.99.531Zm-32.545 13.984c-1.66.416-3.344-.587-4.4-1.66-3.644-3.711-3.867-9.225-.532-13.105 5.764-6.703 22.025-7.394 24.192 1.985.775 3.359-1.652 7.144-5.825 8.248-2.288.604-4.846.414-7.093 1.105-1.836.566-3.294 1.665-4.793 2.661-.472.307-.962.617-1.549.766Zm-.033 29.202c-1.773.073-3.515-1.191-5.152-.662-1.42.459-1.966 2.088-3.496 2.213-1.372.114-2.271-1.086-2.624-2.119-1.141-3.331-.537-6.999 1.64-10.004.383-.529.827-1.05 1.464-1.402 1.844-1.02 5.359-1.073 5.359-1.073 2.401.062 4.485 1.479 5.477 3.171.995 1.694 1.078 3.619.94 5.478-.141 1.906-1.144 4.298-3.608 4.398Zm15.69-14.808c6.998-4.27 17.708.544 22.068 5.177 3.41 3.628 5.91 14.509-4.27 13.53-3.42-.329-6.6-1.897-8.42-4.153-1.29-1.588-1.98-3.525-3.82-4.746a6.095 6.095 0 0 0-.44-.271c-2.001-1.103-4.738-1.391-6.389-2.806-2.2-1.891-1.309-5.158 1.271-6.731Zm1.541 16.991c.025.896-.243 1.874-1.139 2.441-.711.453-1.703.562-2.613.451-2.707-.331-4.672-2.696-3.942-4.738.604-1.69 2.936-2.813 5.161-2.708 1.532 1.212 2.486 2.857 2.533 4.554Z" fill="#E0E0E0"/><path d="M996.709 170.23c-.441-.139-.904-.194-1.37-.216-.162-.13-.3-.277-.476-.395l1.846.611Zm-36.212-24.036c1.273 2.134 2.081 4.601 1.116 6.831-.791 1.829-2.663 3.248-3.776 4.973-3.661 5.655 1.224 13.57-4.188 18.309-1.777 1.558-4.314 2.38-6.96 2.894-.03-12.704 3.038-25.525 9.406-37.78 1.885 1.304 3.335 2.985 4.402 4.773Zm-4.673 70.04c-4.394-8.655-7.266-17.74-8.479-26.995 6.74-4.539 12.754-8.574 23.047-7.279 5.519.738 10.933 3.79 11.746 8.079.405 2.143-.353 4.305-1.105 6.392-.811 2.247-1.618 4.492-2.429 6.739-.325.903-.678 1.844-1.513 2.52-2.575 2.079-7.052.235-10.748.549-2.765.232-5.105 1.76-6.643 3.553-1.539 1.792-2.432 3.86-3.515 5.843-.107.198-.24.399-.361.599Zm40.519-8.615c-.667-1.301-.342-2.767-.532-4.161-.27-1.955-1.546-3.726-2.302-5.602-.755-1.875-.879-4.142.844-5.582.532-.446 1.265-.794 2.051-.779.849.015 1.587.435 2.224.869 3.812 2.58 6.242 6.133 8.602 9.602l-1.26-1.171c1.01 1.186 1.66 2.544 1.64 3.956-.04 2.147-1.71 4.309-4.31 5.062-2.6.754-5.937-.198-6.957-2.194Zm136.597-95.317c-.73-.424-1.46-.896-2.35-1.048-2.57-.439-4.48 1.844-6.97 2.512-2.56.689-5.48-.533-6.9-2.319-7.08-8.876 9.77-14.958 18.95-11.392 9.29 3.613 11.71 20.63-2.73 12.247Zm-15.67 49.547c-1.3-3.26-2.12-6.636-2.42-10.04-.24-2.736-.11-5.627 1.68-7.992 3.04-4.018 9.76-5.241 15.77-5.548 5.17-.265 10.64-.077 15.06 2.012 2.87 1.357 5.06 3.408 7.53 5.177 4.11 2.937 9.03 5.111 13.2 7.998 2.89 2.013 5.43 4.542 6.66 7.348 5.61 6.779 8.25 15.034 7.15 23.047-.47 3.468-1.8 7.13-5.31 9.319-6.51 4.063-16.83 1.14-24.06 4.396-6.34 2.858-8.8 9.836-15.81 11.507-6.8 1.621-13.4-2.73-17.93-6.97-6.38-5.96-12.2-13.854-8.62-21.08 2.39-4.814 8.69-8.551 8.69-13.706 0-1.876-.87-3.675-1.59-5.468Zm63.3-12.484c-3.14-1.589-6.29-3.177-9.43-4.767-.9-.457-1.84-.937-2.39-1.656-1.26-1.656.26-3.99 2.6-4.637 2.34-.649 5.02.077 6.9 1.338 1.88 1.261 3.12 2.983 4.32 4.669l-2.28-2.093c1.84 2.07 2.04 5.012.28 7.146Zm12.2 18.257c-.52 1.502-2.86 2.708-4.58 1.914-.96-.437-1.41-1.304-1.8-2.106l-3-6.219c-.32-.655-.64-1.372-.35-2.036.38-.879 1.76-1.318 2.93-1.145 1.18.172 2.16.817 2.91 1.536 2.16 2.051 2.96 4.742 3.68 7.326l-.66-3.813c.7 1.461 1.39 3.041.87 4.543Zm-177.91-20.715c-3.91-1.822-.26-6.536 3.66-4.71 3.92 1.823.26 6.535-3.66 4.71Zm11.92-16.099c5.03 2.343.33 8.404-4.71 6.057-5.03-2.346-.34-8.404 4.71-6.057Zm2.92 29.294c-4.25-6.345-5.36-13.709 2.04-19.488 4.13-3.229 10.8-4.827 14.77-.576 3.96 4.244 1.56 9.451-1.18 13.51-2.34 3.472-1.2 5.03-.14 8.57.61 2.04 1.08 4.243.23 6.294-1.58 3.79-7.24 6.064-11.61 3.346-3.85-2.401-4.01-7.459-4.11-11.656Zm-28.86 20.578c3.2.339 7.4 1.107 10.17 2.81.37.16.73.333 1.09.532 2.98 1.651 5.6 4.662 3.58 7.531-1.75 2.501-5.88 3.119-8.96 1.679-1.53-.719-2.36-1.808-3.44-2.866a19.225 19.225 0 0 0-4.746-3.399c-3.258-1.676-2.315-6.776 2.306-6.287Zm19.64 3.536c-.64-.457-1.06-1.103-1.21-1.767-.67-1.84 2.23-3.675 4.51-2.58 1.47.704 2.38 2.055 1.72 3.382-.84 1.678-3.25 2.211-5.02.965Zm75.59-9.65c-6.27-1.558-6.74-6.878-7.44-11.108-.69-4.218-2.16-9.133 2.75-12.221 4.7-2.953 11.41-1.014 14.47 2.537 3.06 3.541 3.98 8.679 2.57 12.768-.27.762-.71 1.428-1.22 2.044-.11.395-.23.79-.4 1.174-1.55 3.41-5.95 5.995-10.73 4.806Zm-1.87 11.257a2.267 2.267 0 0 1-.24-1.138c.01-.096.03-.153.04-.234-.6-1.274-.01-2.642 1.26-3.775 1.38-1.234 4.52-1.129 5.82.113 2.02 1.927 2.83 4.733.24 6.641-2.47 1.822-6.13.715-7.12-1.607Zm-12.48.798c-4.54-.406-6.08-3.613-7.56-6.494-1.53-2.977-3.66-6.073-4.44-9.24-.65-2.636-.07-5.604 3.01-7.19 2.86-1.47 6.55-.614 8.37 1.524 2.15 2.531 2.13 5.843 2.84 8.732.11.429.27.835.41 1.247.06.036.12.055.18.096 4.41 3.03 6.14 12.123-2.81 11.325Zm125.35-22.194c-5.94-1.745-11.25-4.605-14.3-9.116-3.67-5.433-5.41-14.499-1.43-20.19-.13-1.686.17-3.276 1.01-4.682 7.47 10.591 12.46 22.11 14.72 33.988Zm-50.9 61.171c-.26-.03-.49-.113-.74-.166-2.96 2.616-7.49 4.532-11.71 4.279-1.41 1.101-3.79 1.436-5.29.053-1.52-1.402-2.19-2.898-2.09-4.403-.69-1.66-.47-3.529.52-5.209 1.84-3.102 5.25-4.131 8.67-5.943.09-.045.16-.1.24-.145 1.47-1.265 2.98-2.51 4.17-3.935.69-.822 1.29-1.711 2.2-2.39 2.86-2.126 7.89-1.306 10.62.913.36.29.69.6.99.92 1.78.388 2.28 2.132 2.32 3.658.52 1.235.91 2.52 1.26 3.785l-1.29-2.573c-.07 2.45-.26 4.938-1.61 7.138-1.5 2.439-4.82 4.426-8.26 4.018Zm-40.84-97.69c4.24.126 6.22 3.758 3.94 6.362-.97 1.103-2.52 1.779-3.95 2.464-.36.171-.76.337-1.14.515-.14.245-.3.495-.36.601-.59 1.151-1.33 2.158-2.58 2.956-2.74 1.765-8.08.649-7.69-2.599.24-1.991 1.23-3.75 3.02-5.156.08-.107.21-.201.29-.305 1.39-2.74 4.38-4.96 8.47-4.838Zm11.57 120.823c1.41-5.068 9.07-5.235 13.89-7.286 5.16-2.195 5.99-8.326 12.66-8.629 4.91-.222 7.54 3.292 6.83 6.694-.79 3.771-3.68 7.202-7.57 9.946-4.54 4.909-11.14 8.59-18.78 7.143-4.35-.826-8.03-4.262-7.03-7.868Zm42.52-25.333c1.63-1.865 6.09-1.788 6.65.773.47 2.123.56 4.261-.29 6.34-.78 1.923-2.87 4.336-5.73 4.289-.22-.004-.41-.051-.61-.09-1.39.289-2.92.246-4.27-.209-3.32-1.118-4.62-4.073-3.28-6.617.64-1.227 1.8-2.23 3.36-2.8 1.49-.546 3.18-.546 4.17-1.686Zm1.64-9.927c-.07-.999.51-1.675 1.56-2.209.98-.493 2.13-.147 2.92.354 1.02.643.98 1.531.81 2.444-.2 1.011-1.8 1.632-2.98 1.485-1.37-.173-2.24-1.011-2.31-2.074Zm12.81 21.647c4.71-7.089 3.26-12.477 1.5-19.901-.94-4.004-1.38-8.135.86-11.944 3.74-6.364 12.46-8.839 20.99-10.152-2.36 13.135-8.11 26.127-17.49 38.209-1.93 2.474-3.99 4.836-6.13 7.134-.46-1.065-.47-2.247.27-3.346Zm12.61-45.627c-2.57.794-5.53.463-6.97-1.581-.04-.056-.06-.122-.1-.179-.44-.367-.81-.781-1.02-1.215-.9-1.871.1-3.589 2.17-4.68 1.07-.561 2.2-.932 3.38-1.184 4.34-1.489 9.9-3.141 14.5-2.838.06 3.297-.09 6.602-.45 9.906-3.95.023-7.84.555-11.51 1.771Zm1.11-21.118c1.05-1.44 4.06-1.833 5.11-.104.18.286.32.578.46.872.07.084.16.15.22.237.48.734.51 1.494.21 2.173-.09.636-.39 1.259-.95 1.85-.23.232-.49.42-.77.58-.14.128-.26.269-.42.38-.98.689-2.7.758-3.61-.07-1.22-1.114-2.21-2.352-1.83-3.873.2-.814.77-1.535 1.58-2.045Zm-14.37 31.325c-.96.779-1.82 1.289-3.14 1.415-2.11 3.156-7.17 5.851-10.65 2.936-2.05-1.72-.94-4.084 1.19-5.367 2.43-1.462 5.98-2.112 8.82-2.996 3.29-1.026 6.46 1.837 3.78 4.012Zm-204.809-52.181c1.616-2.076 4.48-2.481 7.396-2.328 2.974.158 5.668.056 8.397-.969 3.324-1.25 6.616 1.443 4.904 3.957-1.72 2.516-5.012 4.136-8.573 4.686-2.903.45-6.619.651-8.86-.996a11.822 11.822 0 0 1-2.134-.837c-1.485-.77-2.086-2.283-1.13-3.513Zm-5.863-22.616c-2.304 1.863-5.259 3.291-8.437 3.775.441-.595.851-1.197 1.309-1.786 3.901-5.021 8.3-9.665 13.077-13.96.058.102.13.192.168.311 1.486 4.313-2.403 8.658-6.117 11.66Zm35.902 109.225c-.82-3.622 4.13-6.176 8.06-7.017 5.71-1.218 11.03-.128 16.28-2.757 4.14-2.068 8.38-4.895 13.65-4.552 3.73.241 7.14 2.23 7.87 5.13.67 2.687-.7 5.062-3.08 7.094-.98 2.471-2.97 4.746-5.84 6.509-6.02 3.693-14.25 4.093-21.14 1.848-6.59.697-14.6-.965-15.8-6.255Z" fill="#E0E0E0"/><path d="M1025.9 221.926c-1.42-1.148-1.41-3.129-.38-4.439 1.29-1.647 4.24-2.699 6.61-2.106 1.02-.047 2.04.194 2.96.947 3.06 2.495-.27 6.078-3.89 6.62-1.77.267-3.99.041-5.3-1.022Zm29.47 17.695c-1.05-.194-2.2-1.007-2.34-1.87-.37-2.146.31-4.026 2.29-5.597 1.89-1.5 4.95-.536 5.68 1.28 1.36 1.014 1.72 2.655.85 4.014-1.21 1.889-3.9 2.651-6.48 2.173Zm185.82-89.848c8.6-2.708 19.48 3.681 18.42 10.819-1.05 7.137-13.5 11.466-21.09 7.331-7.59-4.136-6.53-14.674 1.8-17.847m-25.45-24.108c4.92-1.549 11.14 2.109 10.54 6.193-.6 4.085-7.73 6.562-12.07 4.196-4.35-2.367-3.74-8.4 1.03-10.216" fill="#E0E0E0"/><path d="M1184.64 969.486c24.81-24.997 18.74-60.827-13.55-80.029-32.29-19.203-78.57-14.506-103.38 10.49-24.8 24.996-18.73 60.826 13.56 80.029 32.28 19.202 78.57 14.506 103.37-10.49Z" fill="#F5F5F5"/><path d="M1109.54 952.583c-1.08 6.81 5.19 13.003 13.98 13.833 8.8.83 16.8-4.019 17.87-10.828 1.07-6.81-5.19-13.003-13.99-13.833-8.79-.83-16.79 4.018-17.86 10.828Z" fill="#E0E0E0"/><path d="M1107.78 952.545c-1.07 6.79 4.64 12.917 13.41 13.743 8.77.828 16.29-4.524 17.36-11.315 1.06-6.79-4.72-12.4-13.5-13.228-8.77-.826-16.2 4.007-17.27 10.8Z" fill="#EBEBEB"/><path d="M1110.56 878.186c-18.06 6.547-32.37 18.636-38.82 33.798.01.004 2.97 2.371 2.43 5.269-.43 2.388-3.88 3.079-5.1 3.254-.18.826-.37 1.647-.5 2.486a44.47 44.47 0 0 0-.15 12.61c.22.124 6.28 3.645 6.63 6.925.26 2.479-1.25 4.872-2.72 6.581.45.967.91 1.927 1.43 2.87 4.16 7.661 10.46 14.511 18.36 20.092.73-.246 5.09-1.592 9-.06 4.27 1.677 2.85 6.509 2.85 6.509l-.52.126c8.7 4.101 18.62 6.888 29.39 7.904 8.14.768 16.13 1.351 23.74.141-12.1 4.385-25.06 5.988-39.3 4.645-40.42-3.811-70-32.852-65.08-64.141 3.93-24.991 28.17-44.212 58.36-49.009Zm42.61 81.922c.7-2.602 2.5-4.947 4.5-7.107 1.29-1.395 3.1-2.878 5.3-2.654l1.88.239c2.64-.807 5.89-.197 7.76 1.453 1.74 1.53 2.22 3.752 1.71 5.751-.5 2-1.89 3.805-3.5 5.412-1.82 1.807-3.97 3.416-6.35 4.772-1.34.755-2.84 1.453-4.49 1.489-1.82.038-3.54-.755-4.73-1.827-2.24-2.018-2.78-4.927-2.08-7.528Z" fill="#E0E0E0"/><path d="M1151.43 959.943c.7-2.601 2.5-4.946 4.5-7.106 1.29-1.396 2.65-2.115 5.3-2.655l2.89-.365c2.88.079 4.88.408 6.75 2.058 1.74 1.53 2.21 3.751 1.71 5.749-.51 1.999-1.89 3.805-3.51 5.411-1.82 1.808-3.96 3.417-6.35 4.772-1.33.755-2.56 1.229-4.22 1.266-1.82.038-3.04-.912-4.22-1.983-2.23-2.014-3.55-4.545-2.85-7.147Z" fill="#EBEBEB"/><path d="M1130.83 980.282c-2.69.186-5.36-.217-7.88-.759-1.63-.35-3.45-.939-3.67-2.062l-.14-.969c-1.31-1.131-1.36-2.851-.11-4.105 1.16-1.163 3.26-1.851 5.32-2.008 2.07-.158 4.13.151 6.03.618 2.14.525 4.15 1.249 5.95 2.147 1.01.502 2 1.095 2.36 1.897.4.886-.04 1.893-.86 2.693-1.54 1.507-4.3 2.363-7 2.548Z" fill="#E0E0E0"/><path d="M1129.28 980.571c-2.7.185-5.36-.218-7.88-.76-1.63-.35-2.61-.871-3.67-2.062l-.93-1.344c-.5-1.426-.57-2.476.68-3.73 1.16-1.163 3.25-1.85 5.32-2.008 2.07-.158 4.12.151 6.03.618 2.13.525 4.15 1.251 5.95 2.147 1.01.502 1.72 1.01 2.09 1.812.4.886-.3 1.675-1.12 2.476-1.54 1.506-3.77 2.665-6.47 2.851Z" fill="#EBEBEB"/><path d="M1091.97 899.146c2.24-2.011 5.28-3.387 8.39-4.522 2-.734 4.52-1.349 6.3-.327l1.49.914c2.81.288 5.27 2.044 5.87 4.191.46 1.622-.31 4.016-2.11 5.67-1.7 1.558-4.04 2.616-6.46 3.412a39.967 39.967 0 0 1-8.55 1.782c-1.64.158-3.39.205-4.85-.384a5.008 5.008 0 0 1-2.99-3.376c-.69-2.606.66-5.35 2.91-7.36Z" fill="#E0E0E0"/><path d="M1089.21 899.752c2.25-2.011 5.29-3.387 8.39-4.522 2.01-.734 3.65-.852 6.3-.327l2.76.769c2.47 1.15 4.01 2.189 4.61 4.336.56 1.991-.41 4.11-2.11 5.668-1.7 1.557-4.04 2.616-6.46 3.412a39.967 39.967 0 0 1-8.55 1.782c-1.64.158-3.01.111-4.48-.48-1.62-.651-2.08-1.94-2.45-3.321-.69-2.601-.25-5.307 1.99-7.317Z" fill="#EBEBEB"/><path d="M1161.85 940.556c.26-.608.7-1.193 1.39-1.543.96-.482 2.2-.425 3.34-.307.88.074 1.64.627 2.33 1.436.76.86 1.1 1.953.83 2.97-.28 1.018-1.21 1.938-2.46 2.316-1.61.484-3.57-.017-4.65-1.063a3.393 3.393 0 0 1-.78-3.809Z" fill="#E0E0E0"/><path d="M1161.1 940.582c.23-.56.64-1.097 1.28-1.417.88-.444 2.02-.391 3.06-.282.82.068 1.51.576 2.15 1.321.7.792 1.01 1.795.76 2.731-.25.937-1.11 1.784-2.26 2.128-1.48.444-3.28-.015-4.28-.977-.99-.965-1.2-2.335-.71-3.504Z" fill="#EBEBEB"/><path d="M1168.63 906.303c.2-.489.56-.96 1.11-1.24.78-.388 1.77-.341 2.69-.247.71.06 1.32.506 1.87 1.154.61.692.89 1.571.67 2.388-.22.82-.97 1.558-1.98 1.861-1.29.388-2.87-.015-3.73-.856-.88-.841-1.06-2.038-.63-3.06Z" fill="#E0E0E0"/><path d="M1173.85 908.213c-.2.753-.89 1.432-1.82 1.712-1.19.358-2.64-.013-3.43-.786-.8-.772-.97-1.873-.58-2.814.19-.449.52-.884 1.03-1.14.71-.356 1.63-.314 2.47-.228.65.055 1.21.465 1.72 1.06" fill="#EBEBEB"/><path d="M1129.41 889.101c.27-.64.73-1.257 1.46-1.624 1.01-.508 2.32-.448 3.52-.324.93.076 1.73.661 2.45 1.513.7.798 1.26 1.7.87 3.13-.29 1.074-1.26 2.042-2.58 2.437-1.7.51-3.77-.017-4.9-1.12a3.566 3.566 0 0 1-.82-4.012Z" fill="#E0E0E0"/><path d="M1128.62 889.129c.25-.589.67-1.157 1.34-1.494.93-.467 2.13-.412 3.23-.299.86.071 1.59.608 2.26 1.392.74.834 1.07 1.89.8 2.876-.26.986-1.16 1.878-2.37 2.243-1.57.467-3.46-.017-4.51-1.031-1.05-1.011-1.27-2.454-.75-3.687Z" fill="#EBEBEB"/><path d="M1143.84 891.092c.14-.32.37-.627.73-.811.51-.254 1.16-.224 1.76-.162.46.038.86.331 1.23.755.4.453.57.854.43 1.392-.14.535-.63 1.195-1.29 1.393-.85.254-1.88-.008-2.45-.559a1.794 1.794 0 0 1-.41-2.008Z" fill="#E0E0E0"/><path d="M1143.44 891.107c.13-.295.34-.578.68-.747.46-.233 1.06-.205 1.61-.149.43.036.8.305 1.13.695.37.416.53.946.4 1.439-.13.493-.58.939-1.19 1.12-.78.235-1.73-.009-2.25-.514a1.65 1.65 0 0 1-.38-1.844Z" fill="#EBEBEB"/><path fill-rule="evenodd" clip-rule="evenodd" d="M710.223 406.442c0 2.29 2.199 4.144 4.909 4.144 2.713 0 4.91-1.854 4.91-4.144 0-2.288-2.197-4.144-4.91-4.144-2.71.002-4.909 1.856-4.909 4.144Zm265.2-201.227c0 2.287 2.197 4.144 4.91 4.144 2.712 0 4.909-1.855 4.909-4.144 0-2.288-2.197-4.145-4.909-4.145-2.713 0-4.91 1.855-4.91 4.145Zm-65.744 176.912c0 2.29 2.2 4.144 4.91 4.144 2.712 0 4.909-1.854 4.909-4.144 0-2.288-2.197-4.142-4.909-4.142-2.71-.002-4.91 1.854-4.91 4.142Zm-143.531 24.315c0 1.618 1.555 2.93 3.47 2.93 1.919 0 3.474-1.312 3.474-2.93s-1.555-2.93-3.474-2.93c-1.915.002-3.47 1.312-3.47 2.93Zm87.716 48.049c0 1.188 1.141 2.153 2.553 2.153 1.408 0 2.552-.965 2.552-2.153 0-1.189-1.141-2.153-2.552-2.153-1.409 0-2.553.964-2.553 2.153Zm0-49.306c0 1.189 1.141 2.153 2.553 2.153 1.408 0 2.552-.964 2.552-2.153s-1.141-2.153-2.552-2.153c-1.409 0-2.553.964-2.553 2.153Zm-47.498-126.337c0 1.189 1.141 2.153 2.553 2.153 1.408 0 2.552-.964 2.552-2.153s-1.141-2.153-2.552-2.153c-1.412 0-2.553.964-2.553 2.153Zm-140.102 86.856c0 1.188 1.141 2.153 2.552 2.153 1.409 0 2.553-.965 2.553-2.153 0-1.189-1.144-2.153-2.553-2.153-1.411 0-2.552.964-2.552 2.153Zm273.042 167.751c0 .764.733 1.381 1.638 1.381.904 0 1.637-.619 1.637-1.381s-.733-1.38-1.637-1.38c-.905 0-1.638.616-1.638 1.38Zm-146.42-83.872c0 .382.367.691.819.691.452 0 .819-.309.819-.691 0-.382-.367-.692-.819-.692-.452.002-.819.312-.819.692Zm115.974 9.259c0 .382.367.692.819.692.452 0 .819-.31.819-.692 0-.382-.367-.691-.819-.691-.452 0-.819.309-.819.691Zm29.628-2.279c0 .382.366.691.819.691.452 0 .818-.309.818-.691 0-.382-.366-.691-.818-.691-.453 0-.819.309-.819.691ZM793.705 472.6c0 .382.367.691.819.691.452 0 .818-.309.818-.691 0-.382-.366-.691-.818-.691-.452.002-.819.311-.819.691Zm9.386-84.948c0 .762.734 1.381 1.638 1.381.904 0 1.637-.619 1.637-1.381s-.733-1.381-1.637-1.381-1.638.619-1.638 1.381Zm8.377-1.381c0 .762.733 1.381 1.638 1.381.904 0 1.637-.619 1.637-1.381s-.733-1.38-1.637-1.38c-.905 0-1.638.616-1.638 1.38Zm27.103-80.236c0 .764.733 1.381 1.637 1.381s1.638-.619 1.638-1.381-.734-1.381-1.638-1.381c-.904-.002-1.637.617-1.637 1.381Zm62.518 1.381c0 .762.734 1.38 1.638 1.38.904 0 1.637-.618 1.637-1.38 0-.762-.733-1.381-1.637-1.381s-1.638.617-1.638 1.381Zm-203.378-77.891c0 .764.733 1.381 1.637 1.381s1.638-.619 1.638-1.381-.734-1.381-1.638-1.381c-.904 0-1.637.619-1.637 1.381Zm161.256 168.46c0 .764.733 1.381 1.637 1.381s1.637-.619 1.637-1.381-.733-1.381-1.637-1.381-1.637.619-1.637 1.381Zm43.76-94.713c0 .764.733 1.38 1.637 1.38.905 0 1.638-.619 1.638-1.38 0-.762-.733-1.381-1.638-1.381-.904 0-1.637.619-1.637 1.381Zm-89.621 0c0 .764.733 1.38 1.637 1.38s1.637-.619 1.637-1.38c0-.762-.733-1.381-1.637-1.381-.907 0-1.637.619-1.637 1.381Zm-145.014-55.538c0 .764.733 1.381 1.637 1.381s1.637-.619 1.637-1.381-.733-1.38-1.637-1.38-1.637.616-1.637 1.38Zm117.801 37.476c0 .761.733 1.38 1.638 1.38.904 0 1.637-.619 1.637-1.38 0-.762-.733-1.381-1.637-1.381-.905 0-1.638.619-1.638 1.381Zm156.685-25.899c0 .764.734 1.381 1.638 1.381.904 0 1.637-.619 1.637-1.381s-.733-1.381-1.637-1.381-1.638.619-1.638 1.381Zm-152.964-45.379c0 .762.733 1.381 1.638 1.381.904 0 1.637-.619 1.637-1.381s-.733-1.381-1.637-1.381c-.905 0-1.638.617-1.638 1.381Zm64.25 41.465c0 1.189 1.141 2.154 2.553 2.154 1.408 0 2.552-.965 2.552-2.154 0-1.188-1.144-2.153-2.552-2.153-1.409 0-2.553.965-2.553 2.153Zm32.208-42.846c0 .762.733 1.381 1.637 1.381s1.638-.619 1.638-1.381-.734-1.381-1.638-1.381c-.904 0-1.637.619-1.637 1.381Zm-140.86-76.508c0 .762.733 1.381 1.637 1.381s1.638-.619 1.638-1.381-.734-1.381-1.638-1.381c-.907-.002-1.637.617-1.637 1.381Zm115.392 73.747c0 .761.733 1.38 1.637 1.38.905 0 1.638-.619 1.638-1.38 0-.762-.733-1.381-1.638-1.381-.904-.002-1.637.617-1.637 1.381Z" fill="#E0E0E0"/><path d="M835.029 193.106c.904 0 1.637-.618 1.637-1.381 0-.762-.733-1.38-1.637-1.38-.905 0-1.638.618-1.638 1.38 0 .763.733 1.381 1.638 1.381Z" fill="#E0E0E0"/><path fill-rule="evenodd" clip-rule="evenodd" d="M837.112 120.448c0 .764.734 1.381 1.638 1.381.904 0 1.637-.619 1.637-1.381 0-.764-.733-1.381-1.637-1.381s-1.638.619-1.638 1.381Zm-65.038 314.491c-1.356-1.144-3.553-1.144-4.909 0-1.356 1.144-1.356 3.001 0 4.145 1.356 1.143 3.556 1.143 4.909 0 1.357-1.144 1.357-2.999 0-4.145Zm10.74 120.452c0 2.381 2.288 4.31 5.111 4.31 2.822 0 5.11-1.931 5.11-4.31 0-2.38-2.288-4.313-5.11-4.313-2.823 0-5.111 1.931-5.111 4.313Zm397.306-116.903c0 2.382 2.29 4.313 5.11 4.313 2.83 0 5.11-1.931 5.11-4.313 0-2.381-2.28-4.313-5.11-4.313-2.82 0-5.11 1.932-5.11 4.313Zm-392.195 40.836c0 2.382 2.288 4.313 5.11 4.313 2.823 0 5.111-1.929 5.111-4.313 0-2.381-2.288-4.31-5.111-4.31-2.825 0-5.11 1.929-5.11 4.31Zm53.083 76.067c0 1.683 1.618 3.049 3.614 3.049 1.995 0 3.611-1.366 3.611-3.049 0-1.684-1.618-3.05-3.611-3.05-1.996 0-3.614 1.366-3.614 3.05Zm-145.676-15.192c0 1.237 1.188 2.24 2.655 2.24 1.466 0 2.654-1.003 2.654-2.24 0-1.238-1.188-2.241-2.654-2.241-1.467 0-2.655 1.003-2.655 2.241Zm236.957 65.191c0 1.238 1.188 2.241 2.654 2.241 1.467 0 2.655-1.003 2.655-2.241 0-1.238-1.188-2.24-2.655-2.24-1.466 0-2.654 1.002-2.654 2.24Zm0-51.31c0 1.238 1.188 2.241 2.654 2.241 1.467 0 2.655-1.003 2.655-2.241 0-1.237-1.188-2.24-2.655-2.24-1.466 0-2.654 1.003-2.654 2.24Zm-49.428-131.465c0 1.238 1.188 2.241 2.654 2.241 1.467 0 2.655-1.003 2.655-2.241 0-1.237-1.188-2.24-2.655-2.24-1.466 0-2.654 1.003-2.654 2.24ZM1021.2 687.56c0 .794.76 1.438 1.7 1.438s1.71-.644 1.71-1.438c0-.794-.77-1.439-1.71-1.439-.94.003-1.7.645-1.7 1.439Zm-173.816 22.144c0 .397.38.72.852.72.471 0 .851-.323.851-.72 0-.397-.38-.719-.851-.719-.472 0-.852.322-.852.719ZM675.653 610.42c0 .397.38.719.851.719.472 0 .852-.322.852-.719 0-.397-.38-.719-.852-.719-.468 0-.851.322-.851.719Z" fill="#E0E0E0"/><path d="M869.684 601.003c.471 0 .852-.322.852-.719 0-.398-.381-.72-.852-.72-.47 0-.851.322-.851.72 0 .397.381.719.851.719Z" fill="#E0E0E0"/><path fill-rule="evenodd" clip-rule="evenodd" d="M697.134 606.107c0 .397.381.719.852.719.472 0 .852-.322.852-.719 0-.397-.38-.719-.852-.719-.471.002-.852.322-.852.719Zm292.383 3.809c0 .397.381.72.852.72s.852-.323.852-.72c0-.396-.381-.719-.852-.719-.469.002-.852.325-.852.719Zm30.833-2.37c0 .396.38.719.85.719s.85-.323.85-.719c0-.397-.38-.72-.85-.72s-.85.323-.85.72Zm-150.666 16.69c0 .396.381.719.852.719s.852-.323.852-.719c0-.397-.381-.72-.852-.72-.469 0-.852.323-.852.72Zm9.77-88.399c0 .794.763 1.436 1.703 1.436.94 0 1.704-.644 1.704-1.436 0-.794-.764-1.438-1.704-1.438s-1.703.644-1.703 1.438Zm8.715-1.439c0 .794.764 1.439 1.704 1.439s1.704-.645 1.704-1.439c0-.793-.764-1.436-1.704-1.436-.943 0-1.704.643-1.704 1.436Zm28.203-83.492c0 .794.763 1.436 1.703 1.436.94 0 1.704-.644 1.704-1.436 0-.794-.764-1.438-1.704-1.438s-1.703.644-1.703 1.438Zm65.058 1.436c0 .794.763 1.438 1.703 1.438.94 0 1.704-.644 1.704-1.438 0-.794-.764-1.436-1.704-1.436s-1.703.642-1.703 1.436Zm-211.638-81.054c0 .794.763 1.439 1.703 1.439.94 0 1.704-.645 1.704-1.439 0-.793-.764-1.436-1.704-1.436s-1.703.643-1.703 1.436ZM937.597 546.59c0 .794.764 1.436 1.704 1.436s1.704-.644 1.704-1.436c0-.794-.764-1.436-1.704-1.436s-1.704.642-1.704 1.436Zm45.536-98.561c0 .794.763 1.439 1.703 1.439.94 0 1.704-.645 1.704-1.439s-.764-1.436-1.704-1.436-1.703.642-1.703 1.436Zm-93.26 0c0 .794.764 1.439 1.704 1.439s1.703-.645 1.703-1.439-.763-1.436-1.703-1.436c-.943 0-1.704.642-1.704 1.436Zm-150.902-57.793c0 .794.763 1.436 1.703 1.436.94 0 1.704-.642 1.704-1.436 0-.794-.764-1.438-1.704-1.438-.94.002-1.703.644-1.703 1.438Zm122.587 38.999c0 .794.763 1.438 1.703 1.438.94 0 1.704-.644 1.704-1.438 0-.794-.764-1.436-1.704-1.436-.942-.002-1.703.642-1.703 1.436Zm163.052-26.95c0 .794.76 1.438 1.7 1.438s1.7-.642 1.7-1.438c0-.794-.76-1.439-1.7-1.439-.94.003-1.7.645-1.7 1.439Zm-159.182-47.223c0 .793.764 1.438 1.704 1.438s1.703-.642 1.703-1.438c0-.794-.763-1.437-1.703-1.437-.943 0-1.704.643-1.704 1.437Zm-18.251 229.983c-1.411-1.191-3.699-1.191-5.111 0-1.411 1.19-1.411 3.122 0 4.312 1.412 1.191 3.7 1.191 5.111 0 1.411-1.19 1.411-3.122 0-4.312Zm120.627-7.952c1.745 1.752 4.843 1.979 6.919.506 2.075-1.472 2.345-4.086.601-5.838-1.745-1.752-4.844-1.979-6.919-.506-2.076 1.474-2.346 4.089-.601 5.838ZM866.525 310.026c1.745 1.752 4.843 1.978 6.919.505 2.076-1.472 2.346-4.086.601-5.838-1.745-1.752-4.843-1.978-6.916-.506-2.079 1.473-2.349 4.087-.604 5.839Zm60.421 6.882c1.745 1.752 4.843 1.978 6.919.506 2.076-1.473 2.343-4.087.598-5.839-1.745-1.752-4.84-1.978-6.919-.506-2.075 1.475-2.343 4.089-.598 5.839Zm255.504 5.57c1.74 1.752 4.84 1.978 6.91.505 2.08-1.472 2.35-4.086.61-5.838-1.75-1.752-4.85-1.979-6.92-.506-2.08 1.472-2.35 4.087-.6 5.839Zm56.38 152.356c1.75 1.752 4.84 1.979 6.92.506 2.08-1.472 2.35-4.086.6-5.838-1.74-1.752-4.84-1.979-6.91-.506-2.08 1.472-2.35 4.086-.61 5.838Zm-7.21-389.13c1.75 1.752 4.84 1.978 6.92.506 2.07-1.473 2.35-4.087.6-5.839-1.74-1.752-4.84-1.978-6.92-.505-2.08 1.472-2.34 4.084-.6 5.838ZM911.807 514.422c1.745 1.752 4.841 1.978 6.919.506 2.076-1.473 2.346-4.087.601-5.839-1.745-1.752-4.843-1.978-6.919-.506-2.079 1.473-2.346 4.087-.601 5.839ZM1130.48 263.85c1.74 1.752 4.84 1.978 6.92.506 2.07-1.472 2.34-4.087.6-5.839-1.75-1.752-4.84-1.978-6.92-.505-2.08 1.474-2.35 4.086-.6 5.838ZM414.62 121.732c1.745 1.752 4.844 1.979 6.919.506 2.076-1.472 2.343-4.087.601-5.839-1.745-1.752-4.843-1.978-6.919-.505-2.075 1.472-2.343 4.086-.601 5.838Zm810.64 170.381c1.24 1.24 3.42 1.4 4.89.356 1.47-1.041 1.66-2.889.43-4.127-1.23-1.24-3.43-1.4-4.89-.358-1.47 1.043-1.66 2.891-.43 4.129Zm78.6 82.498c1.23 1.24 3.42 1.4 4.89.359 1.47-1.042 1.66-2.89.42-4.127-1.23-1.24-3.42-1.4-4.89-.359-1.47 1.041-1.66 2.889-.42 4.127Zm-185.67-10.968c.91.911 2.52 1.028 3.6.262 1.07-.764 1.21-2.123.31-3.032-.91-.91-2.52-1.029-3.6-.263-1.08.764-1.22 2.123-.31 3.033Zm-26.63 37.11c.91.909 2.52 1.028 3.6.262 1.07-.766 1.22-2.123.31-3.035-.91-.909-2.52-1.028-3.6-.262-1.07.766-1.21 2.123-.31 3.035Zm199.89-157.229c.91.911 2.52 1.029 3.6.262 1.07-.766 1.21-2.123.31-3.034-.91-.911-2.52-1.029-3.6-.263-1.08.767-1.21 2.124-.31 3.035Zm-96.4-102.522c.91.912 2.52 1.029 3.6.263 1.07-.766 1.21-2.123.31-3.035-.91-.911-2.52-1.028-3.6-.262s-1.21 2.125-.31 3.034ZM950.845 567.821c.582.585 1.616.66 2.308.169.692-.491.783-1.362.201-1.946-.582-.585-1.613-.66-2.307-.169-.692.491-.783 1.361-.202 1.946Zm279.885-187.988c.58.585 1.61.66 2.3.169.7-.491.79-1.362.21-1.946-.59-.585-1.62-.66-2.31-.169s-.78 1.361-.2 1.946Zm23.45 25.698c.58.584 1.62.659 2.31.168s.78-1.361.2-1.946c-.58-.585-1.62-.659-2.31-.169-.69.491-.78 1.364-.2 1.947Zm-22.38 5.049c.58.582 1.61.659 2.3.168.7-.491.79-1.361.21-1.946-.59-.585-1.62-.659-2.31-.169-.69.491-.78 1.364-.2 1.947Zm-178.93 108.697c.58.585 1.61.659 2.31.169.69-.491.78-1.362.2-1.947-.58-.584-1.62-.659-2.31-.168-.69.493-.78 1.363-.2 1.946Zm-181.107-11.824c.581.584 1.612.659 2.304.168.692-.491.783-1.361.201-1.946-.581-.585-1.612-.66-2.304-.169-.695.491-.783 1.362-.201 1.947Zm338.577-110.456c.29.292.81.328 1.15.085.35-.245.4-.681.1-.973-.29-.292-.8-.329-1.15-.085-.35.245-.39.68-.1.973Zm63.8 130.581c.36.367 1.01.416 1.45.107.44-.309.49-.858.13-1.225-.37-.369-1.02-.416-1.46-.107-.43.31-.49.858-.12 1.225Zm-130.21-108.703c.29.292.8.328 1.15.083.34-.246.39-.681.1-.973-.29-.293-.81-.329-1.15-.084-.35.244-.39.679-.1.974Zm-80.05 43.14c.29.293.81.331 1.16.086.34-.246.39-.681.09-.973-.28-.293-.8-.329-1.15-.086-.34.246-.39.681-.1.973Zm92.69-57.521c.29.292.81.328 1.15.085.35-.246.39-.681.1-.973-.29-.293-.81-.331-1.15-.086-.35.246-.39.681-.1.974Zm71.76-5.54c.29.292.81.328 1.16.085.34-.245.39-.681.1-.973-.29-.292-.81-.329-1.16-.085-.34.245-.39.68-.1.973Zm-97.82 44.152c.29.292.81.329 1.15.085.35-.245.39-.68.1-.973-.29-.292-.81-.33-1.15-.085-.35.245-.39.683-.1.973Zm76-57.921c.58.585 1.62.66 2.31.169s.78-1.362.2-1.946c-.59-.585-1.62-.66-2.31-.169s-.78 1.364-.2 1.946Zm-160.57 85.949c.58.585 1.61.659 2.3.169.69-.491.79-1.362.2-1.947-.58-.584-1.61-.659-2.3-.168-.7.491-.78 1.361-.2 1.946Zm193.28-213.466c.58.585 1.61.659 2.3.169.7-.491.79-1.362.21-1.947-.59-.584-1.62-.659-2.31-.168-.7.491-.78 1.364-.2 1.946ZM896.012 361.764c.582.585 1.612.66 2.307.169.692-.491.78-1.362.201-1.946-.581-.585-1.615-.66-2.307-.169s-.783 1.364-.201 1.946Zm226.898 115.631c.58.585 1.61.66 2.3.169.69-.491.78-1.362.2-1.946-.58-.585-1.61-.66-2.3-.169-.7.491-.78 1.361-.2 1.946Zm121.67-225.331c.58.585 1.61.66 2.3.169.69-.491.78-1.362.2-1.946-.58-.585-1.61-.66-2.3-.169-.7.491-.79 1.361-.2 1.946Zm-40.42-76.141c.58.585 1.61.66 2.3.169.69-.491.78-1.362.2-1.946-.58-.583-1.62-.66-2.31-.169s-.78 1.362-.19 1.946Zm48.91-32.887c.58.585 1.61.66 2.31.169.69-.491.78-1.362.2-1.946-.59-.585-1.62-.66-2.31-.169s-.78 1.361-.2 1.946Zm-215.08 50.796c.58.584 1.61.659 2.31.168.69-.491.78-1.361.2-1.946-.58-.585-1.62-.659-2.31-.169-.69.491-.78 1.362-.2 1.947Zm251.88 41.41c.58.585 1.62.659 2.31.168.69-.49.78-1.361.2-1.946-.58-.585-1.62-.659-2.31-.168-.69.49-.78 1.363-.2 1.946Zm-38.71-96.267c.59.585 1.62.66 2.31.169s.78-1.362.2-1.947c-.58-.584-1.62-.659-2.31-.168s-.78 1.361-.2 1.946Zm-68.61 48.66c.59.584 1.62.659 2.31.168s.78-1.361.2-1.946c-.58-.585-1.62-.66-2.31-.169s-.78 1.364-.2 1.947Zm-153.35 36.216c.58.584 1.61.659 2.3.168.7-.491.79-1.361.21-1.946-.59-.585-1.62-.659-2.31-.168-.69.492-.78 1.363-.2 1.946Zm-16.64 185.551c.58.584 1.61.659 2.3.168.7-.49.79-1.361.21-1.946-.59-.582-1.62-.659-2.31-.168-.7.49-.78 1.361-.2 1.946Zm135.39-220.82c.58.585 1.62.659 2.31.169.69-.491.78-1.362.2-1.947-.58-.584-1.62-.659-2.31-.168s-.78 1.361-.2 1.946Zm100.21-104.899c.58.585 1.61.66 2.3.169.7-.491.79-1.362.21-1.946-.59-.585-1.62-.66-2.31-.169-.69.49-.78 1.362-.2 1.946ZM986.48 344.934c.581.584 1.615.659 2.307.168s.783-1.361.198-1.946c-.581-.585-1.612-.659-2.304-.168-.695.49-.783 1.361-.201 1.946ZM942.849 448.43c.581.585 1.612.66 2.304.169.692-.491.783-1.361.201-1.946-.581-.585-1.612-.66-2.304-.169-.692.491-.783 1.362-.201 1.946Zm-148.896-22.776c-.901-.066-1.695.497-1.772 1.257-.077.76.59 1.43 1.488 1.496.902.066 1.696-.497 1.773-1.257.08-.76-.587-1.43-1.489-1.496Zm457.567-114.941c-1.91-.141-3.59 1.054-3.76 2.665-.16 1.611 1.25 3.033 3.16 3.173 1.91.139 3.6-1.054 3.76-2.665.17-1.615-1.25-3.034-3.16-3.173Zm-123.31 351.335c1.82 1.822 5.04 2.059 7.2.527s2.44-4.253.63-6.076c-1.82-1.822-5.04-2.059-7.2-.527-2.16 1.533-2.44 4.253-.63 6.076Zm-105.39-277.913c1.82 1.823 5.04 2.059 7.2.527s2.44-4.253.62-6.075c-1.81-1.823-5.03-2.06-7.2-.527-2.15 1.532-2.43 4.253-.62 6.075Zm47.12 212.696c1.82 1.822 5.04 2.059 7.2.527s2.44-4.253.63-6.076c-1.82-1.822-5.04-2.059-7.2-.527-2.17 1.532-2.44 4.253-.63 6.076Zm20.81 114.922c1.28 1.289 3.56 1.455 5.09.373 1.53-1.084 1.73-3.006.44-4.295-1.28-1.289-3.56-1.456-5.09-.372-1.53 1.082-1.72 3.005-.44 4.294Zm77.61-114.72c1.29 1.289 3.57 1.456 5.09.374 1.53-1.084 1.73-3.007.45-4.296-1.29-1.289-3.57-1.455-5.09-.373-1.53 1.082-1.73 3.007-.45 4.295Zm-268.718-35.678c1.285 1.289 3.565 1.456 5.092.374 1.527-1.084 1.725-3.007.441-4.296-1.285-1.289-3.562-1.456-5.091-.374-1.528 1.084-1.723 3.007-.442 4.296Zm262.318-6.517c.95.947 2.62 1.069 3.75.273 1.12-.796 1.26-2.209.32-3.156-.94-.948-2.62-1.069-3.74-.273-1.12.796-1.27 2.208-.33 3.156Zm111.06-121.877c.94.948 2.61 1.069 3.74.273 1.12-.796 1.26-2.208.32-3.156-.94-.947-2.62-1.069-3.74-.273-1.12.794-1.27 2.209-.32 3.156Zm-162.45 219.437c.6.608 1.68.687 2.4.175.72-.51.81-1.417.2-2.025-.6-.608-1.67-.687-2.39-.175-.73.512-.82 1.419-.21 2.025Zm65.4-62.635c.6.608 1.67.687 2.39.175.72-.51.82-1.417.21-2.025-.6-.608-1.68-.687-2.4-.175-.72.51-.81 1.417-.2 2.025Zm24.4 26.741c.61.608 1.68.687 2.4.175.72-.51.82-1.417.21-2.025-.61-.608-1.68-.687-2.4-.175s-.81 1.417-.21 2.025Zm-23.29 5.254c.61.608 1.68.687 2.4.175.72-.51.81-1.417.21-2.025-.61-.608-1.68-.687-2.4-.175s-.81 1.419-.21 2.025Zm39.65-19.874c.61.608 1.68.687 2.4.175.72-.51.82-1.417.21-2.025-.6-.608-1.68-.685-2.4-.175s-.81 1.417-.21 2.025Zm-188.46-12.307c.6.608 1.68.687 2.4.175.72-.51.81-1.417.21-2.025-.61-.608-1.68-.687-2.4-.175s-.81 1.419-.21 2.025Zm126.48 18.048c.3.303.84.343 1.2.087s.41-.709.1-1.012c-.3-.303-.84-.343-1.19-.087-.37.254-.41.708-.11 1.012Zm156.74-110.224c.3.303.84.344 1.2.088s.4-.709.1-1.012c-.3-.303-.84-.343-1.2-.087s-.4.708-.1 1.011Zm-83.3 44.895c.31.303.84.344 1.2.088s.41-.709.11-1.012a.965.965 0 0 0-1.2-.087c-.36.254-.41.708-.11 1.011Zm-54.71 67.364c.3.303.84.344 1.19.088.37-.254.41-.709.11-1.012-.3-.303-.84-.343-1.2-.087-.36.254-.41.706-.1 1.011Zm124.04-87.041c.31.305.84.343 1.2.087s.41-.708.11-1.013a.965.965 0 0 0-1.2-.088c-.36.258-.41.711-.11 1.014Zm-146.76 72.714c.61.608 1.68.685 2.4.175s.82-1.417.21-2.025c-.6-.609-1.68-.688-2.4-.175-.72.512-.81 1.419-.21 2.025Zm58.76-43.547c.61.609 1.68.688 2.4.175.72-.51.81-1.417.21-2.025-.61-.608-1.68-.687-2.4-.175-.72.51-.82 1.417-.21 2.025Zm-156.01-113.81c.6.608 1.67.687 2.4.175.72-.51.81-1.417.21-2.025-.61-.608-1.68-.687-2.41-.175-.71.51-.81 1.417-.2 2.025Zm-22.5-106.623c.6.608 1.68.687 2.4.175.72-.51.81-1.417.21-2.025-.61-.608-1.68-.687-2.4-.175-.73.512-.82 1.417-.21 2.025Zm258.6 226.948c.61.609 1.68.688 2.4.175.72-.51.81-1.417.21-2.025-.6-.608-1.68-.685-2.4-.175s-.81 1.417-.21 2.025Zm-88.36-295.08c.61.608 1.68.687 2.4.175.72-.51.82-1.417.21-2.025-.6-.609-1.68-.688-2.4-.175-.72.512-.82 1.419-.21 2.025Zm-137.57 48.717c.6.608 1.68.687 2.4.175.72-.51.81-1.417.21-2.025-.61-.609-1.68-.685-2.4-.175-.73.51-.82 1.417-.21 2.025Zm128.42-17.476c.6.609 1.68.688 2.4.175.72-.51.81-1.417.21-2.025-.61-.608-1.68-.685-2.4-.175s-.81 1.417-.21 2.025Zm-17.32 193.085c.61.608 1.68.687 2.4.175.72-.51.82-1.417.21-2.026-.6-.608-1.68-.687-2.39-.175-.73.51-.82 1.417-.22 2.026Zm-27.14-67.087c.61.608 1.68.687 2.41.175.71-.51.81-1.417.21-2.025-.61-.608-1.68-.687-2.41-.175-.72.512-.81 1.417-.21 2.025Zm114.45-221.586c.61.608 1.68.687 2.4.175.72-.51.82-1.417.21-2.025-.6-.608-1.68-.687-2.4-.175-.72.51-.81 1.417-.21 2.025ZM739.644 84.055c-2.685-.314-5.163 1.271-5.536 3.538-.369 2.266 1.506 4.357 4.193 4.671 2.685.312 5.166-1.272 5.535-3.538.37-2.266-1.505-4.358-4.192-4.671Zm204.944 10.757c-1.395-.162-2.685.66-2.878 1.837-.193 1.178.783 2.264 2.178 2.427 1.395.162 2.682-.66 2.878-1.838.193-1.176-.783-2.264-2.178-2.426Zm57.872 6.743c-1.39-.162-2.68.662-2.87 1.838-.193 1.178.78 2.264 2.18 2.426 1.39.162 2.68-.659 2.87-1.837.2-1.176-.78-2.264-2.18-2.427ZM629.067 338.459c-1.395-.162-2.682.66-2.875 1.838-.193 1.177.783 2.264 2.178 2.426 1.394.162 2.682-.662 2.875-1.837.193-1.176-.783-2.265-2.178-2.427Zm302.891-198.265c-.45-.052-.86.211-.924.589-.06.377.251.725.698.779.446.053.86-.212.923-.589.063-.378-.248-.728-.697-.779Zm-1.376 25.078c-.446-.051-.86.212-.923.589-.061.378.25.726.697.779.447.054.86-.211.923-.589.064-.377-.25-.727-.697-.779Zm-583.539-32.488c-.896-.104-1.722.425-1.844 1.181-.124.755.502 1.453 1.398 1.557.896.105 1.723-.424 1.847-1.18.118-.755-.507-1.453-1.401-1.558Zm.475 7.192c-.896-.105-1.721.425-1.845 1.18-.124.755.502 1.453 1.398 1.558.896.104 1.723-.425 1.844-1.18.124-.756-.502-1.453-1.397-1.558Zm245.231 221.688c-.896-.104-1.72.423-1.844 1.18-.124.756.502 1.454 1.398 1.558.896.105 1.72-.425 1.844-1.18.124-.755-.502-1.453-1.398-1.558Zm477.031-261.312c-.9-.105-1.72.425-1.84 1.18-.13.755.5 1.453 1.39 1.558.9.104 1.73-.425 1.85-1.18.12-.758-.5-1.456-1.4-1.558Zm-59.56 6.453c-.9-.105-1.72.425-1.84 1.18-.13.756.5 1.453 1.39 1.558.9.105 1.73-.425 1.85-1.18.12-.756-.51-1.451-1.4-1.558Zm64.2-4.52c-.9-.104-1.72.423-1.85 1.18-.12.756.51 1.454 1.4 1.558.9.105 1.72-.425 1.85-1.18.12-.755-.5-1.453-1.4-1.558ZM599.475 340.753c-.896-.104-1.72.425-1.844 1.18-.124.756.502 1.453 1.398 1.558.895.105 1.722-.425 1.844-1.18.124-.758-.502-1.453-1.398-1.558Zm24.925-20.277c-.896-.105-1.72.425-1.844 1.18-.124.755.502 1.453 1.398 1.558.895.104 1.722-.423 1.844-1.178.124-.76-.502-1.456-1.398-1.56Zm94.933-119.457c0 1.189 1.144 2.153 2.553 2.153 1.408 0 2.549-.964 2.549-2.153s-1.141-2.153-2.549-2.153c-1.412 0-2.553.964-2.553 2.153Zm-104.906-57.49c0 .764.733 1.381 1.637 1.381.905 0 1.638-.619 1.638-1.381s-.733-1.381-1.638-1.381c-.907 0-1.637.617-1.637 1.381Zm128.662 109.852c1.745 1.752 4.843 1.978 6.919.506 2.076-1.473 2.343-4.087.598-5.839-1.745-1.752-4.843-1.978-6.919-.506-2.075 1.473-2.343 4.087-.598 5.839Zm-60.953-79.607c-1.394-.162-2.685.66-2.875 1.838-.193 1.178.783 2.264 2.178 2.426 1.395.162 2.685-.662 2.878-1.837.19-1.176-.786-2.265-2.181-2.427Zm-36.318 23.205c-.895-.104-1.72.425-1.844 1.18-.124.756.502 1.454 1.398 1.558.896.105 1.72-.424 1.844-1.178.124-.757-.502-1.455-1.398-1.56Zm6.727-20.911c-.896-.104-1.72.425-1.845 1.18-.124.756.502 1.454 1.398 1.558.896.105 1.723-.424 1.844-1.18.124-.757-.501-1.453-1.397-1.558Zm24.924-20.277c-.896-.105-1.723.422-1.844 1.18-.124.755.502 1.453 1.398 1.558.895.104 1.722-.425 1.844-1.18.124-.758-.502-1.454-1.398-1.558Zm479.381-45.77c-.9-.105-1.73.423-1.85 1.18-.12.756.5 1.453 1.4 1.558.9.105 1.72-.425 1.85-1.18.12-.756-.51-1.453-1.4-1.558Zm-334.664 57.597c-2.795-.327-5.375 1.323-5.761 3.681-.386 2.358 1.568 4.535 4.363 4.861 2.796.327 5.376-1.323 5.762-3.681.386-2.358-1.569-4.535-4.364-4.861ZM715.832 291.964c-2.795-.327-5.375 1.323-5.761 3.681-.386 2.358 1.569 4.534 4.361 4.861 2.795.326 5.375-1.323 5.761-3.681.389-2.358-1.566-4.535-4.361-4.861Zm262.207-168.552c-1.453-.169-2.792.687-2.994 1.914-.201 1.225.814 2.356 2.266 2.525 1.453.17 2.793-.688 2.994-1.913.201-1.227-.813-2.358-2.266-2.526Zm-37.789 24.146c-.932-.109-1.792.442-1.922 1.227-.129.788.521 1.513 1.456 1.62.932.109 1.792-.44 1.921-1.227.127-.786-.524-1.511-1.455-1.62Zm-51.576.134c-.932-.108-1.792.442-1.922 1.227-.129.788.524 1.511 1.456 1.62.932.109 1.792-.439 1.921-1.227.127-.785-.524-1.511-1.455-1.62Zm-517.869-40.507c-.932-.109-1.792.442-1.921 1.227-.13.785.521 1.511 1.452 1.62.932.108 1.792-.442 1.922-1.227.129-.786-.521-1.511-1.453-1.62Zm522.699 42.52c-.932-.109-1.792.442-1.921 1.227-.13.785.523 1.511 1.452 1.62.932.108 1.792-.442 1.922-1.227.129-.786-.521-1.511-1.453-1.62Zm53.744-23.907c-.931-.109-1.791.441-1.921 1.227-.13.785.521 1.511 1.453 1.619.931.109 1.791-.441 1.921-1.227.13-.785-.521-1.511-1.453-1.619Zm25.937-21.101c-.932-.109-1.792.441-1.921 1.227-.13.787.521 1.511 1.452 1.619.932.109 1.792-.441 1.922-1.227.129-.785-.524-1.511-1.453-1.619Zm27.635 51.655c-.93-.109-1.79.442-1.92 1.227-.129.785.524 1.513 1.46 1.62.93.109 1.79-.442 1.91-1.227.13-.786-.52-1.511-1.45-1.62Zm17.91-92.332c-.93-.108-1.79.442-1.92 1.228-.13.785.52 1.51 1.46 1.62.93.108 1.79-.442 1.92-1.228.12-.785-.53-1.51-1.46-1.62Zm83.51 464.141c.61.608 1.68.687 2.41.175.71-.51.81-1.417.2-2.025-.6-.609-1.68-.687-2.4-.175-.72.51-.81 1.417-.21 2.025ZM871.029 457.85c-.937-.068-1.761.516-1.844 1.308-.083.792.612 1.487 1.549 1.556.938.068 1.762-.517 1.845-1.308.082-.79-.612-1.488-1.55-1.556Zm76.274 46.609c-.937-.069-1.764.516-1.844 1.308-.083.791.612 1.487 1.549 1.555.937.069 1.762-.516 1.844-1.308.083-.789-.612-1.485-1.549-1.555Zm91.737 166.33c-.46-.034-.88.258-.92.653-.04.395.31.742.78.779.47.034.88-.259.92-.653.04-.397-.31-.745-.78-.779Zm-93.079-115.488c-.937-.068-1.762.516-1.844 1.308-.083.79.612 1.488 1.549 1.556.937.068 1.761-.517 1.844-1.308.083-.79-.612-1.488-1.549-1.556Z" fill="#E0E0E0"/><path fill-rule="evenodd" clip-rule="evenodd" d="M887.761 534.119c-1.987-.145-3.74 1.097-3.911 2.774-.174 1.678 1.298 3.156 3.286 3.301 1.987.146 3.74-1.096 3.911-2.774.174-1.677-1.298-3.156-3.286-3.301Zm.75-15.61c-.468-.034-.882.258-.92.653-.042.395.306.745.774.779.469.034.882-.259.921-.653.041-.397-.306-.745-.775-.779Zm-14.946 9.733c-.468-.034-.882.258-.923.653-.042.395.306.743.774.779.469.034.882-.258.924-.653.041-.397-.306-.745-.775-.779Zm28.063-3.421c-.938-.068-1.762.517-1.845 1.308-.08.792.612 1.488 1.55 1.556.937.068 1.761-.516 1.844-1.308.082-.792-.612-1.488-1.549-1.556Zm149.062 115.676c-.94-.069-1.76.516-1.84 1.308-.09.792.61 1.487 1.55 1.555.93.069 1.76-.516 1.84-1.308.08-.791-.61-1.487-1.55-1.555Zm169.57-38.271c.7 1.03 2.26 1.382 3.48.789 1.22-.595 1.64-1.912.94-2.941-.71-1.03-2.27-1.382-3.49-.789-1.22.595-1.64 1.912-.93 2.941Zm-55.73 21.47c.23.33.73.443 1.12.254.39-.192.53-.613.3-.944-.22-.33-.72-.444-1.12-.251-.39.187-.52.61-.3.941Zm105.94-40.898c.22.33.72.443 1.11.251.4-.189.53-.612.31-.943-.23-.331-.73-.444-1.12-.252-.39.192-.53.615-.3.944Zm24.31-14.469c.22.331.73.444 1.12.254.39-.19.52-.612.3-.943-.23-.331-.73-.444-1.12-.252-.39.188-.52.61-.3.941Zm-115.9 74.957c.22.331.72.444 1.12.254.39-.19.52-.613.3-.944-.23-.33-.73-.443-1.12-.251-.4.187-.53.61-.3.941Zm39.59 76.301c1.41 2.061 4.54 2.77 6.98 1.579 2.45-1.191 3.28-3.826 1.87-5.89-1.41-2.061-4.53-2.77-6.98-1.579-2.44 1.191-3.28 3.828-1.87 5.89Zm-40.62-68.038c1.41 2.063 4.53 2.77 6.98 1.579 2.44-1.191 3.28-3.827 1.87-5.89-1.41-2.064-4.53-2.77-6.98-1.579-2.44 1.191-3.28 3.826-1.87 5.89Zm91.03 43.493c1 1.457 3.2 1.959 4.93 1.116 1.73-.841 2.32-2.706 1.33-4.164-1-1.459-3.21-1.959-4.94-1.118-1.73.843-2.32 2.708-1.32 4.166Zm-135.18 48.286c.73 1.071 2.36 1.438 3.63.821 1.27-.619 1.7-1.989.97-3.06s-2.35-1.438-3.63-.822c-1.27.617-1.7 1.987-.97 3.061Zm-157.963-49.449c.234.343.755.461 1.163.264.408-.198.546-.638.312-.981-.234-.344-.755-.461-1.163-.263-.408.196-.549.636-.312.98Zm-47.926-33.05c.235.344.756.461 1.164.263.408-.199.546-.638.311-.982-.234-.343-.755-.461-1.163-.262-.405.198-.546.638-.312.981Zm16.052-12.793c.235.344.755.461 1.163.263.408-.199.546-.639.312-.982-.234-.344-.755-.463-1.163-.263-.406.199-.546.638-.312.982Zm-35.016 35.567c.234.344.755.461 1.163.263.408-.199.546-.638.311-.982-.234-.343-.755-.461-1.163-.262-.408.196-.548.636-.311.981Zm381.753-21.711c.47.687 1.51.924 2.32.527.82-.397 1.1-1.276.63-1.963-.47-.687-1.51-.924-2.33-.527-.82.395-1.09 1.274-.62 1.963Zm6.7-4.923c.46.687 1.51.924 2.32.527.82-.397 1.1-1.276.63-1.963-.48-.687-1.52-.924-2.33-.527-.82.397-1.1 1.276-.62 1.963Zm-25.03-84.214c.48.687 1.51.924 2.33.527.82-.397 1.09-1.276.62-1.963-.47-.687-1.51-.924-2.32-.527-.82.397-1.09 1.276-.63 1.963Zm-24.65 8.687c.47.688 1.51.924 2.33.528.81-.397 1.09-1.277.62-1.964-.47-.687-1.51-.924-2.33-.527-.81.397-1.09 1.276-.62 1.963Zm44.16 136.685c-1.92-.437-3.91.527-4.42 2.156-.52 1.628.62 3.299 2.55 3.734 1.93.435 3.91-.529 4.42-2.155.52-1.626-.62-3.299-2.55-3.735Zm14.16-88.431c2.55.782 5.36-.328 6.29-2.479.92-2.151-.39-4.529-2.94-5.31-2.55-.781-5.37.329-6.29 2.48-.93 2.151.39 4.528 2.94 5.309Zm-38.82 10.854c.85.26 1.79-.109 2.1-.826.31-.717-.13-1.509-.98-1.769s-1.79.109-2.1.826c-.31.717.13 1.509.98 1.769Zm26.62-81.105c.85.261 1.79-.109 2.1-.826.31-.717-.13-1.508-.98-1.769-.85-.26-1.79.109-2.1.826-.31.717.13 1.509.98 1.769Zm-56.63 38.451c-.85.337-1.22 1.19-.82 1.91.4.719 1.41 1.03 2.27.693.85-.335 1.22-1.191.82-1.91-.4-.719-1.41-1.028-2.27-.693Z" fill="#E0E0E0"/><path fill-rule="evenodd" clip-rule="evenodd" d="M1296.77 656.899c-1.8.712-2.59 2.526-1.74 4.052.84 1.526 2.99 2.185 4.8 1.472 1.81-.712 2.59-2.526 1.75-4.052-.85-1.524-3-2.185-4.81-1.472Zm-8.59-13.837c-.43.168-.61.595-.41.956.2.358.7.514 1.13.348.43-.169.61-.596.41-.956-.2-.361-.71-.517-1.13-.348Zm-7.18 14.733c-.43.168-.61.595-.41.956.2.358.7.514 1.13.348.43-.169.61-.596.41-.956-.2-.361-.7-.515-1.13-.348Zm22.28-14.799c-.85.337-1.22 1.19-.82 1.909.4.72 1.41 1.031 2.26.694.85-.335 1.22-1.191.82-1.91-.4-.717-1.41-1.029-2.26-.693ZM675.126 448.552c0-2.275-2.186-4.121-4.882-4.121-2.695 0-4.881 1.846-4.881 4.121 0 2.275 2.186 4.121 4.881 4.121 2.696 0 4.882-1.846 4.882-4.121ZM458.191 602.253c0-2.275-2.186-4.121-4.882-4.121-2.696 0-4.882 1.846-4.882 4.121 0 2.275 2.186 4.121 4.882 4.121 2.696 0 4.882-1.844 4.882-4.121Zm18.593-129.521c0-2.275-2.186-4.12-4.882-4.12-2.696 0-4.882 1.843-4.882 4.12 0 2.275 2.186 4.121 4.882 4.121 2.696-.002 4.882-1.846 4.882-4.121Zm193.46 48.508c0-2.275-2.186-4.12-4.881-4.12-2.696 0-4.882 1.843-4.882 4.12 0 2.275 2.186 4.121 4.882 4.121 2.695 0 4.881-1.844 4.881-4.121Zm-50.728-72.688c0-1.609-1.547-2.913-3.454-2.913-1.908 0-3.452 1.304-3.452 2.913 0 1.609 1.547 2.913 3.452 2.913 1.907 0 3.454-1.304 3.454-2.913Zm-87.229-47.78c0-1.182-1.136-2.141-2.536-2.141-1.4 0-2.536.959-2.536 2.141s1.136 2.14 2.536 2.14c1.4 0 2.536-.958 2.536-2.14Zm0 49.031c0-1.183-1.136-2.141-2.536-2.141-1.4 0-2.536.958-2.536 2.141 0 1.182 1.136 2.14 2.536 2.14 1.4 0 2.536-.958 2.536-2.14Zm47.234 125.63c0-1.182-1.136-2.14-2.536-2.14-1.4 0-2.536.958-2.536 2.14 0 1.182 1.136 2.14 2.536 2.14 1.4.003 2.536-.956 2.536-2.14Zm-132.2-253.184c0-.757-.727-1.374-1.626-1.374-.899 0-1.626.614-1.626 1.374 0 .76.727 1.372 1.626 1.372.899 0 1.626-.614 1.626-1.372Zm145.605 83.403c0-.38-.364-.687-.814-.687-.449 0-.813.307-.813.687 0 .38.364.687.813.687.447-.002.814-.309.814-.687Zm-115.329-9.208c0-.38-.364-.687-.813-.687-.45 0-.814.307-.814.687 0 .38.364.687.814.687.449 0 .813-.307.813-.687Zm-29.462 2.268c0-.379-.364-.687-.814-.687-.449 0-.813.308-.813.687 0 .38.364.688.813.688.45-.003.814-.31.814-.688Zm143.978-15.949c0-.38-.364-.687-.813-.687-.45 0-.814.307-.814.687 0 .38.364.687.814.687.446 0 .813-.307.813-.687Zm-9.337 84.474c0-.757-.728-1.374-1.626-1.374-.899 0-1.627.615-1.627 1.374 0 .758.728 1.375 1.627 1.375.898 0 1.626-.615 1.626-1.375Zm-8.33 1.375c0-.758-.728-1.375-1.627-1.375-.898 0-1.626.615-1.626 1.375 0 .757.728 1.374 1.626 1.374.899-.002 1.627-.617 1.627-1.374Z" fill="#E0E0E0"/><path d="M545.869 549.774c.898 0 1.626-.615 1.626-1.374 0-.759-.728-1.375-1.626-1.375-.898 0-1.627.616-1.627 1.375s.729 1.374 1.627 1.374Z" fill="#E0E0E0"/><path fill-rule="evenodd" clip-rule="evenodd" d="M485.326 547.028c0-.758-.728-1.375-1.626-1.375-.899 0-1.627.615-1.627 1.375 0 .759.728 1.374 1.627 1.374.895-.002 1.626-.617 1.626-1.374Zm202.243 77.453c0-.758-.73-1.374-1.626-1.374-.899 0-1.627.614-1.627 1.374 0 .76.728 1.374 1.627 1.374.898 0 1.626-.614 1.626-1.374ZM527.212 456.962c0-.758-.728-1.374-1.626-1.374-.899 0-1.627.614-1.627 1.374 0 .758.728 1.374 1.627 1.374.898-.002 1.626-.616 1.626-1.374Zm-43.515 94.184c0-.758-.728-1.374-1.626-1.374-.899 0-1.629.614-1.629 1.374 0 .76.73 1.374 1.629 1.374.898 0 1.626-.614 1.626-1.374Zm89.123 0c0-.758-.728-1.374-1.627-1.374-.898 0-1.626.614-1.626 1.374 0 .76.728 1.374 1.626 1.374.899 0 1.627-.614 1.627-1.374Zm144.203 55.228c0-.758-.727-1.374-1.629-1.374-.898 0-1.626.614-1.626 1.374 0 .76.728 1.374 1.626 1.374.899 0 1.629-.614 1.629-1.374Zm-117.145-37.266c0-.758-.728-1.374-1.627-1.374-.898 0-1.626.614-1.626 1.374 0 .76.728 1.374 1.626 1.374.899 0 1.627-.614 1.627-1.374Zm-155.809 25.753c0-.758-.728-1.374-1.629-1.374-.899 0-1.626.614-1.626 1.374 0 .76.727 1.374 1.626 1.374.899 0 1.629-.614 1.629-1.374Zm152.112 45.128c0-.758-.727-1.375-1.626-1.375-.899 0-1.626.615-1.626 1.375 0 .759.727 1.374 1.626 1.374.896 0 1.626-.615 1.626-1.374Zm17.441-219.777c1.348 1.138 3.534 1.138 4.882 0 1.348-1.137 1.348-2.983 0-4.12-1.348-1.138-3.534-1.138-4.882 0-1.348 1.139-1.348 2.983 0 4.12ZM602.94 300.435c0-2.368-2.274-4.287-5.08-4.287s-5.08 1.921-5.08 4.287c0 2.369 2.274 4.288 5.08 4.288s5.08-1.921 5.08-4.288ZM377.198 460.379c0-2.369-2.275-4.288-5.081-4.288-2.806 0-5.08 1.921-5.08 4.288 0 2.368 2.274 4.287 5.08 4.287 2.804.002 5.081-1.919 5.081-4.287Zm19.345-134.781c0-2.369-2.274-4.288-5.08-4.288-2.807 0-5.081 1.921-5.081 4.288 0 2.368 2.274 4.287 5.081 4.287 2.806 0 5.08-1.921 5.08-4.287Zm201.317 50.479c0-2.369-2.274-4.287-5.08-4.287-2.807 0-5.081 1.921-5.081 4.287 0 2.369 2.274 4.287 5.081 4.287 2.806 0 5.08-1.92 5.08-4.287Zm-52.788-75.642c0-1.675-1.607-3.032-3.592-3.032-1.984 0-3.592 1.357-3.592 3.032 0 1.676 1.608 3.033 3.592 3.033 1.982 0 3.592-1.359 3.592-3.033Zm144.865 15.107c0-1.229-1.182-2.228-2.641-2.228-1.458 0-2.64.999-2.64 2.228 0 1.231 1.182 2.228 2.64 2.228 1.459 0 2.641-.997 2.641-2.228Zm-235.636-64.827c0-1.231-1.182-2.227-2.641-2.227-1.458 0-2.64.996-2.64 2.227 0 1.23 1.182 2.228 2.64 2.228 1.459 0 2.641-.998 2.641-2.228Zm0 51.022c0-1.231-1.182-2.228-2.641-2.228-1.458 0-2.64.997-2.64 2.228 0 1.229 1.182 2.228 2.64 2.228 1.459 0 2.641-.996 2.641-2.228Zm49.152 130.733c0-1.231-1.182-2.228-2.64-2.228-1.459 0-2.641.997-2.641 2.228 0 1.232 1.182 2.228 2.641 2.228 1.458 0 2.64-.996 2.64-2.228Z" fill="#E0E0E0"/><path d="M364.192 170.432c.935 0 1.693-.64 1.693-1.429 0-.79-.758-1.43-1.693-1.43s-1.692.64-1.692 1.43c0 .789.757 1.429 1.692 1.429Z" fill="#E0E0E0"/><path fill-rule="evenodd" clip-rule="evenodd" d="M538.732 146.984c0-.395-.378-.715-.846-.715-.469 0-.847.32-.847.715 0 .395.381.715.847.715.465 0 .846-.32.846-.715Zm170.771 98.729c0-.394-.38-.714-.846-.714-.469 0-.846.32-.846.714 0 .395.38.715.846.715.468-.002.846-.32.846-.715Zm-192.102 10.079c0-.394-.377-.715-.846-.715s-.846.321-.846.715c0 .395.38.715.846.715.469 0 .846-.32.846-.715Zm170.742-5.791c0-.395-.381-.715-.846-.715-.469 0-.847.32-.847.715 0 .394.381.714.847.714.468 0 .846-.32.846-.714Zm-290.754-3.788c0-.395-.377-.715-.846-.715s-.846.32-.846.715c0 .394.38.715.846.715.469 0 .846-.321.846-.715Zm-30.655 2.358c0-.395-.381-.715-.847-.715-.468 0-.846.32-.846.715 0 .395.378.715.846.715.466 0 .847-.32.847-.715Zm149.821-16.596c0-.395-.378-.715-.846-.715-.469 0-.846.32-.846.715 0 .394.377.715.846.715.466 0 .846-.321.846-.715Zm-9.714 87.905c0-.789-.758-1.429-1.692-1.429-.935 0-1.693.64-1.693 1.429 0 .79.758 1.43 1.693 1.43.934-.002 1.692-.64 1.692-1.43Zm-8.667 1.428c0-.79-.758-1.43-1.692-1.43-.935 0-1.693.64-1.693 1.43 0 .79.758 1.43 1.693 1.43.934 0 1.692-.64 1.692-1.43Zm-28.048 83.03c0-.79-.758-1.43-1.695-1.43-.934 0-1.692.64-1.692 1.43 0 .789.758 1.43 1.692 1.43.937 0 1.695-.641 1.695-1.43Zm-64.693-1.43c0-.79-.758-1.43-1.692-1.43-.935 0-1.693.64-1.693 1.43 0 .79.758 1.43 1.693 1.43.934 0 1.692-.64 1.692-1.43Zm210.458 80.601c0-.79-.758-1.43-1.693-1.43-.934 0-1.692.64-1.692 1.43 0 .79.758 1.43 1.692 1.43.935 0 1.693-.64 1.693-1.43ZM449.022 309.187c0-.79-.758-1.43-1.692-1.43-.935 0-1.696.64-1.696 1.43 0 .79.758 1.43 1.696 1.43.934-.002 1.692-.64 1.692-1.43Zm-45.281 98.01c0-.789-.759-1.43-1.693-1.43s-1.693.641-1.693 1.43c0 .79.759 1.43 1.693 1.43.932-.002 1.693-.64 1.693-1.43Zm92.738 0c0-.789-.758-1.43-1.692-1.43-.935 0-1.695.641-1.695 1.43 0 .79.758 1.43 1.695 1.43.934-.002 1.692-.64 1.692-1.43Zm150.059 57.471c0-.79-.758-1.43-1.692-1.43-.935 0-1.693.64-1.693 1.43 0 .79.758 1.43 1.693 1.43.934 0 1.692-.64 1.692-1.43Zm-121.9-38.781c0-.79-.759-1.43-1.693-1.43s-1.693.64-1.693 1.43c0 .789.759 1.43 1.693 1.43s1.693-.641 1.693-1.43ZM362.5 452.686c0-.79-.758-1.43-1.693-1.43-.934 0-1.692.64-1.692 1.43 0 .789.758 1.429 1.692 1.429.935 0 1.693-.64 1.693-1.429Zm158.289 46.96c0-.789-.758-1.429-1.695-1.429-.934 0-1.693.64-1.693 1.429 0 .79.759 1.43 1.693 1.43.937 0 1.695-.64 1.695-1.43Zm18.15-228.7c1.403 1.184 3.677 1.184 5.08 0 1.403-1.185 1.403-3.103 0-4.287-1.403-1.185-3.677-1.185-5.08 0-1.404 1.184-1.404 3.102 0 4.287Zm-119.958 7.906c-1.736-1.741-4.815-1.967-6.88-.503-2.065 1.464-2.332 4.063-.596 5.804 1.734 1.741 4.816 1.968 6.878.504 2.068-1.464 2.335-4.063.598-5.805ZM519.698 544.43c-1.734-1.741-4.816-1.967-6.881-.503-2.064 1.464-2.332 4.063-.595 5.806 1.734 1.742 4.815 1.968 6.88.504 2.062-1.466 2.329-4.065.596-5.807Zm-60.085-6.843c-1.734-1.742-4.816-1.968-6.88-.504-2.065 1.464-2.332 4.063-.596 5.807 1.734 1.741 4.816 1.967 6.881.503 2.064-1.466 2.332-4.065.595-5.806Zm-254.075-5.538c-1.734-1.741-4.815-1.968-6.88-.504-2.065 1.464-2.332 4.063-.596 5.807 1.734 1.741 4.816 1.967 6.878.504 2.065-1.464 2.332-4.066.598-5.807ZM156.64 767.501c-1.737-1.741-4.816-1.967-6.881-.503-2.064 1.464-2.332 4.063-.595 5.804 1.734 1.742 4.816 1.968 6.88.504 2.065-1.462 2.332-4.061.596-5.805Zm-84.51-109.25c-1.735-1.741-4.817-1.967-6.881-.503-2.065 1.464-2.332 4.063-.596 5.804 1.734 1.742 4.816 1.968 6.88.504 2.065-1.464 2.333-4.063.596-5.805Zm402.539-317.075c-1.733-1.742-4.815-1.968-6.88-.504-2.065 1.464-2.332 4.063-.595 5.804 1.733 1.742 4.815 1.968 6.88.504 2.062-1.464 2.329-4.063.595-5.804ZM257.216 590.348c-1.734-1.742-4.816-1.968-6.881-.504-2.064 1.464-2.332 4.063-.595 5.804 1.736 1.742 4.816 1.968 6.88.504 2.065-1.462 2.332-4.063.596-5.804Zm490.22-108.269c-1.734-1.743-4.816-1.967-6.878-.503-2.064 1.464-2.332 4.063-.598 5.806 1.734 1.742 4.816 1.968 6.881.504 2.061-1.464 2.329-4.063.595-5.807Zm-584.473 80.164c-1.226-1.231-3.404-1.391-4.865-.356-1.461 1.035-1.648 2.872-.422 4.105 1.227 1.232 3.405 1.392 4.866.357 1.461-1.035 1.648-2.875.421-4.106Zm217.653-221.262c-1.227-1.231-3.405-1.391-4.866-.356-1.461 1.035-1.648 2.872-.421 4.106 1.226 1.231 3.404 1.391 4.865.356 1.461-1.035 1.648-2.872.422-4.106Zm6.113 40.324c-.901-.904-2.503-1.022-3.575-.262-1.072.762-1.213 2.11-.311 3.017.901.905 2.503 1.023 3.575.263 1.075-.762 1.213-2.113.311-3.018ZM280.608 497.773c-.902-.905-2.503-1.022-3.576-.261-1.072.76-1.212 2.113-.311 3.018.901.905 2.503 1.022 3.575.262 1.072-.764 1.213-2.114.312-3.019ZM59.76 573.026c-.901-.905-2.503-1.022-3.575-.263-1.072.76-1.21 2.111-.309 3.016.902.905 2.503 1.022 3.576.262 1.072-.759 1.21-2.11.308-3.015Zm37.382 37.535c-.901-.905-2.503-1.022-3.575-.263-1.072.762-1.213 2.111-.311 3.016.901.904 2.502 1.022 3.575.26 1.072-.758 1.213-2.106.311-3.013Zm131.937 70.533c-.901-.905-2.503-1.023-3.575-.263-1.072.76-1.21 2.111-.309 3.016.902.904 2.503 1.022 3.575.262 1.07-.76 1.211-2.11.309-3.015Zm206.767-393.021c-.579-.58-1.604-.655-2.294-.168-.689.486-.777 1.355-.198 1.935.579.581 1.604.655 2.293.169.69-.489.778-1.355.199-1.936ZM373.35 347.93c-.579-.581-1.605-.655-2.294-.169-.689.489-.777 1.355-.198 1.936.579.58 1.604.655 2.293.168.689-.488.777-1.355.199-1.935Zm-23.324-25.555c-.579-.58-1.604-.655-2.293-.168-.687.488-.778 1.355-.199 1.935.579.581 1.604.655 2.294.169.689-.489.777-1.355.198-1.936Zm22.259-5.021c-.579-.581-1.604-.655-2.293-.169-.689.489-.778 1.355-.199 1.936.579.58 1.605.655 2.294.168.686-.488.774-1.355.198-1.935Zm-37.891 18.992c-.579-.58-1.605-.657-2.294-.168-.689.489-.777 1.355-.198 1.935.578.581 1.604.658 2.293.169.686-.489.775-1.355.199-1.936Zm180.097 11.761c-.579-.581-1.605-.655-2.294-.169-.689.489-.777 1.355-.198 1.936.579.58 1.604.655 2.293.168.687-.488.778-1.355.199-1.935Zm-120.87-17.247c-.289-.29-.802-.329-1.147-.083-.344.243-.388.676-.099.969.289.29.802.328 1.147.083.344-.246.388-.677.099-.969Zm-279.261-2.768c-.364-.365-1.012-.412-1.445-.104-.433.307-.488.853-.124 1.218.364.367 1.012.414 1.445.107.43-.31.487-.856.124-1.221ZM243.843 436.19c-.289-.29-.802-.329-1.146-.083-.345.243-.389.676-.1.966.29.29.803.329 1.147.083.345-.241.389-.676.099-.966ZM109.902 543.837c-.289-.29-.802-.328-1.147-.083-.344.245-.388.679-.099.969.29.29.802.328 1.147.083s.389-.679.099-.969Zm213.54-150.547c-.29-.29-.802-.329-1.147-.083-.344.243-.389.676-.099.969.289.29.802.328 1.147.083.341-.246.386-.679.099-.969Zm-92.171 57.2c-.289-.291-.802-.329-1.147-.084-.344.244-.388.679-.099.969.289.291.802.329 1.147.084.342-.246.388-.679.099-.969ZM14.594 599.406c-.29-.29-.802-.328-1.146-.083-.345.244-.389.677-.1.967.29.29.803.329 1.147.083.345-.243.389-.676.1-.967Zm361.137-270.49c-.289-.29-.802-.329-1.147-.083-.344.243-.388.676-.099.968.29.291.802.329 1.147.084.342-.246.389-.679.099-.969Zm-118.543 83.177c-.289-.291-.802-.329-1.147-.084-.344.246-.388.677-.099.967.289.29.802.329 1.147.083.342-.243.386-.676.099-.966ZM91.83 526.757c-.29-.291-.802-.329-1.147-.084-.344.244-.388.677-.099.967.29.29.802.329 1.147.083.344-.243.389-.676.1-.966Zm305.603-184.152c-.579-.58-1.604-.655-2.293-.168-.689.489-.777 1.355-.199 1.935.579.581 1.605.656 2.294.169.686-.487.777-1.355.198-1.936Zm-56.148 41.615c-.579-.58-1.604-.655-2.294-.168-.689.489-.777 1.355-.198 1.935.579.581 1.604.656 2.293.169.69-.489.778-1.353.199-1.936ZM149.084 596.496c-.579-.581-1.604-.655-2.293-.169-.687.489-.778 1.355-.199 1.936.579.58 1.604.655 2.294.168.689-.488.777-1.355.198-1.935Zm341.29-103.516c-.579-.581-1.605-.655-2.294-.169-.689.489-.777 1.355-.198 1.936.579.58 1.604.655 2.293.168.689-.488.778-1.355.199-1.935ZM264.746 377.996c-.579-.581-1.604-.656-2.293-.169-.689.487-.777 1.355-.199 1.936.579.58 1.605.655 2.294.168.689-.489.777-1.355.198-1.935ZM143.755 602.07c-.578-.581-1.604-.655-2.293-.169-.689.489-.777 1.355-.198 1.936.578.58 1.604.655 2.293.166.686-.486.777-1.353.198-1.933Zm40.197 75.716c-.579-.58-1.605-.657-2.294-.169-.686.489-.777 1.356-.198 1.936.579.58 1.604.655 2.293.169.687-.489.775-1.356.199-1.936ZM135.31 710.49c-.579-.581-1.605-.656-2.294-.167-.689.489-.777 1.355-.198 1.936.579.58 1.604.655 2.293.168.686-.491.777-1.357.199-1.937Zm213.878-50.512c-.579-.581-1.604-.655-2.294-.169-.686.489-.777 1.355-.198 1.936.579.58 1.604.655 2.293.168.687-.488.778-1.355.199-1.935ZM98.713 618.796c-.578-.58-1.604-.655-2.293-.166-.69.488-.777 1.355-.198 1.935.578.58 1.604.655 2.293.169.686-.491.777-1.355.198-1.938Zm38.49 95.731c-.579-.58-1.604-.655-2.293-.169-.689.489-.777 1.356-.199 1.936.579.58 1.605.655 2.294.169.689-.489.777-1.355.198-1.936Zm68.228-48.388c-.579-.581-1.604-.655-2.294-.167-.689.487-.777 1.355-.198 1.936.579.58 1.604.655 2.293.168.69-.49.778-1.357.199-1.937Zm152.501-36.016c-.579-.58-1.604-.655-2.294-.168-.689.486-.777 1.355-.198 1.935.579.581 1.604.655 2.293.169.687-.489.778-1.355.199-1.936Zm16.55-184.514c-.578-.58-1.604-.655-2.293-.168-.689.488-.777 1.355-.199 1.935.579.581 1.605.655 2.294.169.686-.487.775-1.355.198-1.936ZM239.841 665.198c-.579-.581-1.604-.656-2.293-.169-.69.489-.778 1.355-.199 1.936.579.58 1.604.655 2.294.168.686-.489.777-1.355.198-1.935Zm-99.65 104.312c-.578-.581-1.604-.656-2.293-.167-.689.489-.777 1.355-.199 1.936.579.58 1.605.655 2.294.168.689-.488.777-1.355.198-1.937Zm260.222-259.793c-.579-.581-1.604-.655-2.293-.169-.689.489-.778 1.355-.199 1.936.579.58 1.605.655 2.294.168.689-.486.777-1.353.198-1.935Zm43.386-102.919c-.579-.58-1.604-.655-2.294-.168-.689.488-.777 1.355-.198 1.935.579.581 1.604.655 2.293.169.687-.489.778-1.355.199-1.936Zm148.063 22.648c.896.067 1.684-.495 1.761-1.25.077-.756-.584-1.421-1.48-1.488-.896-.066-1.684.496-1.762 1.251-.077.758.587 1.421 1.481 1.487ZM136.848 543.747c1.899.139 3.572-1.047 3.738-2.65.165-1.603-1.241-3.015-3.143-3.154-1.899-.139-3.572 1.048-3.738 2.65-.162 1.605 1.243 3.016 3.143 3.154Zm122.62-349.375c-1.806-1.814-5.012-2.049-7.159-.525-2.148 1.523-2.426 4.229-.62 6.041 1.805 1.814 5.008 2.046 7.158.523 2.148-1.522 2.426-4.226.621-6.039Zm104.804 276.363c-1.806-1.814-5.009-2.049-7.159-.523-2.147 1.524-2.426 4.228-.62 6.041 1.806 1.812 5.011 2.047 7.159.523 2.147-1.523 2.426-4.227.62-6.041Zm-62.522-7.123c-1.805-1.812-5.011-2.047-7.158-.523-2.148 1.523-2.426 4.229-.621 6.041 1.806 1.814 5.012 2.049 7.159.523 2.148-1.522 2.426-4.228.62-6.041ZM56.657 451.356c-1.806-1.814-5.012-2.046-7.16-.525-2.147 1.524-2.425 4.228-.62 6.041 1.806 1.814 5.012 2.047 7.16.523 2.147-1.521 2.425-4.225.62-6.039Zm260.759-192.13c-1.806-1.814-5.009-2.047-7.159-.523-2.147 1.524-2.426 4.227-.62 6.041 1.805 1.814 5.011 2.047 7.159.523 2.147-1.524 2.425-4.227.62-6.041ZM91.133 518.517c-1.806-1.814-5.012-2.046-7.159-.523-2.147 1.524-2.426 4.228-.62 6.042 1.805 1.812 5.011 2.046 7.159.523 2.15-1.524 2.425-4.23.62-6.042Zm205.59-373.573c-1.277-1.283-3.542-1.447-5.061-.371-1.519 1.077-1.715 2.989-.439 4.272 1.277 1.282 3.543 1.447 5.061.371 1.519-1.078 1.715-2.99.439-4.272ZM165.4 471.544c-1.276-1.283-3.542-1.447-5.061-.372-1.519 1.078-1.714 2.99-.438 4.273 1.276 1.282 3.542 1.447 5.061.371 1.519-1.08 1.714-2.992.438-4.272Zm54.144-212.519c-1.276-1.282-3.542-1.447-5.061-.371-1.519 1.078-1.714 2.99-.438 4.272 1.276 1.283 3.542 1.449 5.061.371 1.519-1.077 1.714-2.989.438-4.272Zm267.221 35.478c-1.276-1.283-3.542-1.447-5.061-.371-1.519 1.077-1.715 2.989-.438 4.272 1.276 1.282 3.542 1.447 5.061.371 1.516-1.077 1.714-2.99.438-4.272Zm-260.858 6.483c-.938-.941-2.603-1.065-3.719-.273-1.116.792-1.26 2.198-.323 3.139.938.941 2.605 1.065 3.722.273 1.113-.792 1.257-2.198.32-3.139Zm-124.52 96.09c-.937-.941-2.602-1.063-3.718-.273-1.117.791-1.26 2.198-.323 3.139.938.941 2.602 1.062 3.719.271 1.116-.79 1.262-2.196.322-3.137ZM61.853 612.947c-.938-.941-2.602-1.065-3.719-.273-1.116.791-1.26 2.195-.322 3.139.937.941 2.602 1.062 3.718.273 1.117-.792 1.263-2.196.323-3.139Zm215.166-408.979c-.601-.604-1.671-.683-2.388-.175-.716.508-.807 1.409-.206 2.012.601.604 1.67.683 2.387.175.714-.505.807-1.408.207-2.012Zm-65.036 62.287c-.601-.604-1.67-.683-2.384-.175-.717.508-.811 1.411-.207 2.015.601.604 1.67.683 2.387.175.714-.51.805-1.411.204-2.015Zm-24.271-26.594c-.601-.604-1.671-.683-2.388-.175-.716.508-.807 1.409-.206 2.013.601.604 1.67.683 2.387.175.717-.506.81-1.409.207-2.013Zm23.163-5.224c-.601-.604-1.67-.683-2.387-.175-.717.508-.81 1.409-.207 2.015.601.604 1.671.683 2.387.175.717-.508.808-1.411.207-2.015ZM171.443 254.2c-.601-.604-1.671-.683-2.388-.175-.716.508-.807 1.411-.206 2.015.601.604 1.67.683 2.387.175.717-.508.81-1.409.207-2.015Zm187.412 12.239c-.601-.604-1.67-.683-2.387-.175-.717.508-.808 1.408-.207 2.014.601.604 1.671.683 2.387.175.714-.508.808-1.41.207-2.014Zm-125.776-17.945c-.3-.303-.835-.342-1.194-.088-.358.254-.405.705-.102 1.008.301.303.836.341 1.194.087.356-.256.403-.706.102-1.007ZM77.218 358.1c-.3-.303-.836-.341-1.194-.087s-.405.704-.102 1.007c.3.301.835.342 1.194.088.355-.254.402-.707.102-1.008Zm82.829-44.645c-.301-.303-.835-.341-1.194-.088-.358.254-.405.705-.104 1.008.3.303.835.341 1.193.087.361-.254.405-.704.105-1.007Zm-95.912 59.526c-.3-.303-.835-.342-1.194-.088-.358.254-.405.704-.104 1.007.3.301.835.342 1.193.088.359-.256.406-.706.105-1.007Zm150.326-126.512c-.3-.303-.835-.342-1.193-.088-.359.254-.406.705-.102 1.008.3.303.835.341 1.193.087.356-.254.403-.704.102-1.007ZM91.103 333.024c-.3-.303-.835-.342-1.194-.088-.358.254-.405.705-.105 1.008.3.3.836.341 1.194.087.361-.256.405-.706.105-1.007Zm145.94-72.309c-.601-.604-1.67-.682-2.384-.175-.717.508-.811 1.411-.207 2.015.601.604 1.67.683 2.387.175.714-.508.805-1.411.204-2.015Zm-58.428 43.306c-.601-.604-1.671-.683-2.385-.175-.716.507-.807 1.41-.206 2.014.601.604 1.67.683 2.387.175.714-.51.808-1.41.204-2.014ZM333.76 417.195c-.601-.604-1.671-.683-2.388-.175-.716.508-.807 1.411-.206 2.015.601.603 1.67.682 2.387.175.716-.508.807-1.411.207-2.015Zm22.372 106.028c-.601-.604-1.671-.683-2.387-.175-.717.508-.811 1.408-.207 2.012.601.604 1.67.683 2.387.175.717-.508.81-1.408.207-2.012ZM98.97 297.542c-.601-.604-1.67-.683-2.387-.175-.717.508-.81 1.408-.207 2.014.6.604 1.67.683 2.387.175.717-.508.808-1.41.207-2.014ZM14.892 609.504c-.6-.603-1.67-.682-2.387-.175-.717.508-.808 1.409-.207 2.015.601.604 1.67.683 2.387.175.717-.508.81-1.411.207-2.015Zm171.949-18.529c-.601-.604-1.671-.683-2.388-.175-.716.508-.81 1.409-.206 2.015.601.603 1.67.682 2.387.175.714-.51.808-1.413.207-2.015Zm136.805-48.446c-.601-.604-1.671-.683-2.387-.175-.717.508-.808 1.408-.207 2.014.601.604 1.67.683 2.387.175.714-.507.808-1.408.207-2.014ZM37.248 597.385c-.601-.603-1.67-.682-2.385-.175-.716.508-.807 1.409-.207 2.015.601.604 1.67.683 2.388.175.714-.508.805-1.411.204-2.015Zm158.692-37.477c-.601-.604-1.67-.683-2.387-.175-.717.508-.808 1.409-.207 2.015.601.604 1.671.683 2.387.175.714-.508.808-1.411.207-2.015Zm17.22-192.006c-.601-.604-1.67-.683-2.387-.175-.717.508-.808 1.408-.207 2.014.601.604 1.671.683 2.387.175.717-.51.808-1.41.207-2.014ZM73.053 596.406c-.601-.604-1.67-.683-2.388-.175-.716.508-.807 1.408-.206 2.012.6.604 1.67.683 2.387.175.717-.505.808-1.408.207-2.012Zm167.091-161.793c-.601-.604-1.67-.683-2.387-.175-.717.508-.808 1.408-.207 2.014.601.606 1.671.683 2.387.175.717-.51.811-1.41.207-2.014ZM126.337 654.961c-.601-.604-1.671-.683-2.387-.175-.717.508-.808 1.408-.207 2.014.601.604 1.67.683 2.387.175.717-.508.808-1.408.207-2.014Zm165.804 321.207c-2.249 1.342-2.541 3.728-.65 5.326 1.891 1.599 5.248 1.806 7.497.461 2.25-1.342 2.542-3.728.651-5.326-1.891-1.596-5.248-1.803-7.498-.461Zm-124.018-70.32c-1.59.95-1.797 2.636-.46 3.767 1.337 1.131 3.71 1.276 5.304.326 1.59-.949 1.797-2.635.46-3.766-1.337-1.129-3.71-1.276-5.304-.327Zm13.929 79.895c-1.168.698-1.32 1.936-.339 2.768.982.83 2.727.937 3.898.239 1.169-.698 1.32-1.938.339-2.768-.984-.828-2.729-.937-3.898-.239Zm48.485-28.937c-1.168.698-1.32 1.938-.339 2.768.984.83 2.727.939 3.895.239 1.169-.698 1.321-1.938.339-2.768-.981-.83-2.723-.937-3.895-.239Zm-86.189-9.878c-.375.224-.424.621-.107.888s.876.301 1.251.077c.375-.225.425-.621.108-.888s-.877-.303-1.252-.077Zm71.781 73.782c-.375.22-.424.62-.107.89.314.27.873.3 1.248.08.375-.23.425-.63.108-.89-.314-.27-.874-.3-1.249-.08Zm-93.844-59.792c-.375.224-.425.621-.108.888.315.267.874.301 1.249.077.375-.224.425-.621.108-.888-.315-.266-.874-.301-1.249-.077Zm90.084-44.325c-.75.448-.846 1.242-.218 1.776.631.531 1.751.601 2.5.153.75-.448.847-1.242.218-1.775-.631-.532-1.75-.602-2.5-.154Zm7.2 4.127c-.75.448-.849 1.242-.218 1.776.632.533 1.751.602 2.501.153.749-.448.846-1.242.217-1.775-.631-.534-1.75-.602-2.5-.154Zm97.805-31.118c-.749.449-.846 1.242-.217 1.776.631.533 1.75.602 2.5.154.75-.449.846-1.242.218-1.776-.632-.533-1.751-.602-2.501-.154Zm-76.199 65.986c-.75.448-.846 1.242-.215 1.775.631.534 1.75.602 2.5.154.75-.448.847-1.242.218-1.776-.634-.531-1.75-.599-2.503-.153Zm-96.94-29.52c.18-1.47-1.353-2.765-3.423-2.893-2.07-.128-3.895.96-4.074 2.432-.18 1.471 1.353 2.766 3.423 2.894 2.07.126 3.892-.962 4.074-2.433Zm-119.348 62.08c-2.343 1.398-2.643 3.88-.678 5.542 1.968 1.663 5.463 1.878 7.804.48 2.34-1.397 2.643-3.879.675-5.542-1.965-1.662-5.458-1.877-7.801-.48Zm86.755-26.692c-2.341 1.398-2.644 3.88-.676 5.542 1.968 1.663 5.461 1.878 7.804.48 2.343-1.397 2.644-3.879.678-5.542-1.971-1.662-5.466-1.877-7.806-.48Zm-60.678-57.492c-1.656.988-1.868 2.742-.48 3.918 1.393 1.176 3.863 1.328 5.52.34 1.656-.988 1.871-2.743.479-3.918-1.392-1.176-3.865-1.33-5.519-.34Zm182.655 80.16c-1.215.725-1.372 2.014-.353 2.878 1.023.865 2.837.975 4.055.25 1.216-.726 1.373-2.015.353-2.879-1.023-.864-2.836-.975-4.055-.249Zm-4.446 36.356c-.78.46-.882 1.29-.226 1.85.656.55 1.819.62 2.602.16.78-.47.882-1.3.226-1.85-.656-.56-1.822-.63-2.602-.16Zm-23.935-133.114c-.78.465-.882 1.293-.226 1.848.656.555 1.819.627 2.602.16.78-.465.882-1.293.226-1.848-.656-.555-1.822-.625-2.602-.16Zm8.281 115.804c-.78.47-.882 1.3-.226 1.85.656.56 1.819.63 2.602.16.78-.46.882-1.29.226-1.85-.656-.55-1.822-.62-2.602-.16Zm-48.411-122.848c-.78.465-.882 1.293-.226 1.848.656.555 1.819.625 2.602.16.78-.466.882-1.294.226-1.848-.656-.555-1.822-.626-2.602-.16Zm47.145 95.133c-.78.466-.882 1.294-.226 1.848.656.555 1.82.626 2.6.16.78-.465.882-1.293.226-1.845-.654-.557-1.82-.63-2.6-.163Zm75.638-41.252c-.781.465-.883 1.293-.227 1.848.657.555 1.82.625 2.603.16.78-.465.882-1.293.226-1.848-.656-.553-1.82-.625-2.602-.16Zm-2.597-606.689c-.601-.604-1.671-.683-2.387-.175-.717.508-.808 1.408-.207 2.014.601.604 1.67.683 2.387.175.714-.508.808-1.41.207-2.014Zm229.924 69.918c.932.068 1.754-.514 1.834-1.299.079-.788-.61-1.479-1.541-1.548-.932-.068-1.754.515-1.834 1.3-.082.785.61 1.479 1.541 1.547Zm-75.849-46.35c.932.068 1.753-.515 1.833-1.3.08-.785-.609-1.479-1.541-1.547-.932-.068-1.753.514-1.833 1.3-.08.785.609 1.478 1.541 1.547ZM348.141 185.68c.465.034.876-.256.915-.651.041-.393-.306-.739-.769-.775-.466-.034-.877.256-.918.651-.039.395.306.743.772.775Zm92.565 114.843c.932.068 1.753-.514 1.833-1.302.08-.785-.609-1.479-1.541-1.547-.932-.068-1.753.514-1.833 1.3-.083.789.606 1.481 1.541 1.549Z" fill="#E0E0E0"/><path fill-rule="evenodd" clip-rule="evenodd" d="M498.58 321.588c1.976.145 3.718-1.091 3.889-2.76.171-1.668-1.293-3.137-3.269-3.282-1.977-.145-3.719 1.091-3.89 2.76-.17 1.666 1.293 3.137 3.27 3.282Zm-.744 15.522c.466.035.876-.256.915-.651.041-.392-.303-.74-.769-.774-.466-.034-.877.256-.918.651-.041.395.306.742.772.774Zm14.86-9.677c.466.034.877-.256.918-.651.041-.393-.306-.739-.772-.775-.466-.034-.876.256-.918.651-.038.395.306.74.772.775Zm-27.907 3.401c.931.069 1.753-.514 1.833-1.299.08-.788-.61-1.479-1.541-1.547-.932-.069-1.753.514-1.833 1.299-.08.788.609 1.479 1.541 1.547ZM336.558 215.803c.931.069 1.753-.514 1.833-1.299.082-.786-.61-1.479-1.541-1.548-.932-.068-1.753.515-1.833 1.3-.08.788.609 1.481 1.541 1.547Zm-168.619 38.058c-.7-1.024-2.252-1.374-3.465-.785-1.213.591-1.629 1.901-.929 2.923.7 1.025 2.252 1.375 3.465.786 1.213-.592 1.629-1.9.929-2.924ZM47.844 221.685c-.45-.658-1.444-.882-2.225-.504-.777.38-1.044 1.218-.595 1.876.45.657 1.444.881 2.225.503.777-.379 1.044-1.218.595-1.875Zm175.507 10.827c-.223-.328-.722-.441-1.111-.251-.388.19-.523.61-.297.939.226.328.722.441 1.111.251.388-.19.521-.61.297-.939ZM118.007 273.18c-.224-.329-.723-.442-1.111-.252-.389.19-.524.611-.298.939.223.329.722.442 1.111.252s.524-.61.298-.939Zm-24.176 14.39c-.226-.329-.722-.442-1.11-.252-.39.19-.522.61-.298.939.223.328.722.441 1.11.252.39-.19.524-.611.298-.939Zm115.26-74.541c-.226-.329-.722-.442-1.11-.252-.389.19-.524.611-.298.939.223.329.722.442 1.111.252.388-.19.521-.608.297-.939Zm-39.377-75.874c-1.403-2.051-4.51-2.755-6.941-1.571-2.431 1.185-3.264 3.805-1.861 5.858 1.403 2.051 4.51 2.755 6.941 1.571 2.431-1.185 3.264-3.807 1.861-5.858Zm40.397 67.658c-1.403-2.051-4.509-2.755-6.941-1.57-2.431 1.184-3.263 3.805-1.86 5.857 1.403 2.051 4.509 2.755 6.941 1.571 2.428-1.184 3.261-3.807 1.86-5.858Zm-90.52-43.252c-.992-1.451-3.189-1.948-4.906-1.109-1.718.836-2.307 2.691-1.315 4.14.992 1.451 3.189 1.948 4.907 1.111 1.717-.836 2.304-2.691 1.314-4.142Zm134.421-48.013c-.727-1.067-2.343-1.431-3.605-.815-1.263.615-1.696 1.976-.968 3.043.728 1.065 2.343 1.432 3.606.816 1.262-.617 1.695-1.979.967-3.044ZM41.74 200.974c-.727-1.065-2.342-1.432-3.605-.815-1.262.614-1.695 1.978-.967 3.043.727 1.065 2.343 1.432 3.605.817 1.263-.617 1.695-1.978.968-3.045Zm369.355-38.254c-.234-.341-.753-.459-1.158-.262-.405.196-.543.633-.311.975.234.341.752.459 1.157.262.406-.196.546-.634.312-.975Zm47.658 32.864c-.234-.342-.753-.459-1.158-.263-.405.197-.543.634-.311.975.234.342.752.459 1.155.263.408-.196.546-.634.314-.975ZM69.185 134.566c-.234-.341-.752-.459-1.157-.262-.406.196-.544.634-.31.975.235.341.753.459 1.158.262.406-.196.544-.633.31-.975Zm373.605 73.741c-.234-.342-.753-.459-1.158-.263-.405.196-.543.634-.311.975.234.342.752.459 1.157.263.406-.197.546-.634.312-.975Zm34.823-35.367c-.234-.342-.752-.459-1.157-.263-.406.197-.543.634-.309.975.234.342.752.459 1.155.263.405-.196.546-.634.311-.975ZM54.346 114.293c-.234-.341-.752-.459-1.157-.262-.406.196-.543.634-.309.975.232.341.753.459 1.155.262.405-.196.546-.633.312-.975Zm43.648 80.236c-.469-.683-1.502-.917-2.313-.522-.81.394-1.089 1.267-.62 1.952.466.683 1.502.918 2.313.523.807-.395 1.086-1.27.62-1.953Zm-6.662 4.894c-.469-.685-1.503-.918-2.313-.523-.81.395-1.089 1.267-.62 1.952.468.683 1.502.918 2.312.523.81-.395 1.09-1.269.62-1.952Zm24.88 83.744c-.469-.683-1.502-.917-2.313-.523-.81.395-1.088 1.27-.62 1.953.469.683 1.502.918 2.313.523.81-.395 1.086-1.27.62-1.953Zm-56.882 26.05c-.468-.685-1.502-.918-2.312-.523-.81.395-1.089 1.268-.62 1.953.468.683 1.502.917 2.312.523.81-.397 1.087-1.27.62-1.953Zm-17.752-99.564c-.468-.683-1.502-.917-2.313-.523-.81.395-1.088 1.268-.62 1.953.469.683 1.502.918 2.313.523.81-.395 1.089-1.268.62-1.953Zm18.825 103.992c-.469-.683-1.503-.918-2.313-.523-.81.395-1.089 1.268-.62 1.953.468.685 1.502.917 2.313.523.81-.395 1.088-1.27.62-1.953Zm80.326-39.116c-.469-.683-1.503-.918-2.313-.523-.81.395-1.089 1.267-.62 1.952.468.683 1.505.918 2.312.523.811-.394 1.089-1.269.621-1.952ZM96.814 138.606c1.916.433 3.887-.525 4.4-2.143.515-1.617-.623-3.28-2.54-3.713-1.915-.433-3.886.525-4.401 2.143-.513 1.617.625 3.28 2.541 3.713ZM82.74 226.544c-2.537-.777-5.337.326-6.258 2.464-.92 2.139.386 4.503 2.922 5.28 2.533.777 5.337-.327 6.257-2.465.921-2.138-.388-4.503-2.922-5.279Zm-52.403 71.849c-1.318-.403-2.773.169-3.25 1.281-.48 1.112.201 2.339 1.519 2.744 1.317.403 2.773-.171 3.25-1.28.477-1.114-.204-2.341-1.519-2.745ZM17.665 196.924c-.844-.258-1.778.109-2.087.821-.306.713.13 1.501.973 1.761.844.258 1.778-.109 2.087-.822.309-.712-.13-1.5-.973-1.76Zm103.669 18.826c-.847-.258-1.778.109-2.087.821-.306.713.13 1.501.973 1.761.844.26 1.778-.109 2.087-.822.309-.712-.127-1.5-.973-1.76ZM6.432 251.793c-.422-.13-.89.053-1.042.41-.154.356.063.751.488.879.422.13.89-.053 1.042-.412.152-.354-.066-.747-.488-.877Zm10.258 8.566c-.847-.258-1.779.109-2.088.822-.306.712.13 1.5.974 1.76.846.258 1.777-.109 2.086-.821.306-.713-.13-1.501-.973-1.761Zm78.175 36.043c-.843-.258-1.778.109-2.087.822-.306.713.13 1.5.974 1.76.843.259 1.778-.108 2.086-.821.306-.713-.13-1.5-.973-1.761ZM65.574 181.017c-1.866-.572-3.925.241-4.603 1.814-.678 1.573.284 3.314 2.15 3.886 1.866.572 3.925-.239 4.603-1.814.678-1.575-.284-3.314-2.15-3.886Zm85.602 77.15c.849-.335 1.213-1.184.819-1.899-.397-.715-1.403-1.024-2.252-.691-.849.335-1.213 1.184-.819 1.899.397.717 1.406 1.024 2.252.691Zm-93.144-8.156c.846-.333 1.213-1.184.819-1.899-.397-.715-1.403-1.024-2.252-.689-.847.335-1.213 1.184-.82 1.899.398.715 1.404 1.024 2.253.689Zm-28.787-44.353c.847-.335 1.213-1.184.82-1.899-.398-.715-1.404-1.024-2.253-.691-.846.335-1.213 1.184-.819 1.899.397.717 1.406 1.026 2.252.691Z" fill="#E0E0E0"/><path fill-rule="evenodd" clip-rule="evenodd" d="M91.847 199.493c1.797-.708 2.575-2.512 1.737-4.029-.841-1.517-2.978-2.172-4.775-1.464-1.797.709-2.575 2.512-1.736 4.029.84 1.515 2.977 2.173 4.774 1.464Zm8.551 13.76c.424-.166.606-.591.408-.95-.199-.358-.703-.512-1.125-.345-.424.166-.606.591-.41.949.198.359.702.513 1.127.346Zm7.139-14.652c.424-.166.606-.591.408-.95-.199-.356-.703-.512-1.125-.345-.424.166-.606.593-.41.949.198.359.702.513 1.127.346ZM85.38 213.319c.846-.335 1.213-1.184.819-1.899-.397-.715-1.403-1.024-2.252-.691-.847.335-1.213 1.184-.82 1.899.398.715 1.407 1.024 2.253.691Zm583.062 482.659c1.979 1.989 5.494 2.245 7.85.574 2.357-1.67 2.66-4.637.681-6.626-1.979-1.989-5.494-2.245-7.85-.574-2.357 1.671-2.663 4.638-.681 6.626ZM414.695 987.66c1.979 1.989 5.497 2.245 7.851.574 2.357-1.671 2.66-4.637.681-6.626-1.98-1.989-5.497-2.245-7.854-.574-2.354 1.668-2.657 4.637-.678 6.626Zm-51.239-154.905c1.979 1.989 5.497 2.245 7.851.574 2.357-1.671 2.66-4.637.681-6.626-1.98-1.989-5.497-2.245-7.854-.574-2.354 1.671-2.657 4.637-.678 6.626Zm-261.082 22.671c1.98 1.989 5.497 2.245 7.851.575 2.357-1.671 2.66-4.638.681-6.627-1.979-1.988-5.497-2.245-7.851-.574-2.354 1.671-2.66 4.638-.681 6.626Zm157.405 86.908c1.4 1.406 3.887 1.587 5.552.405 1.667-1.182 1.882-3.28.482-4.684-1.4-1.406-3.887-1.588-5.552-.406-1.665 1.181-1.88 3.278-.482 4.685Zm289.37-246.541c1.028 1.033 2.856 1.167 4.08.298 1.224-.868 1.383-2.409.352-3.442-1.028-1.033-2.855-1.167-4.079-.298-1.224.866-1.381 2.409-.353 3.442ZM377.572 930.027c1.029 1.033 2.856 1.167 4.08.298 1.224-.868 1.384-2.409.356-3.442-1.029-1.033-2.856-1.167-4.08-.298-1.227.868-1.384 2.409-.356 3.442Zm-42.663-42.842c1.028 1.032 2.856 1.167 4.08.298 1.224-.868 1.384-2.409.353-3.442-1.028-1.033-2.856-1.167-4.08-.298-1.224.868-1.381 2.409-.353 3.442Zm655.902-174.753c.658.661 1.83.749 2.616.192.785-.557.887-1.545.226-2.209-.662-.664-1.831-.749-2.616-.192-.786.557-.888 1.547-.226 2.209ZM659.712 877.853c.416.416 1.152.471 1.648.119.494-.35.56-.973.144-1.391-.417-.418-1.155-.472-1.649-.122-.496.354-.559.975-.143 1.394Zm-147.791-123.38c.331.331.916.374 1.31.096.394-.277.444-.772.113-1.105-.331-.331-.915-.373-1.31-.096-.391.28-.441.773-.113 1.105ZM320.343 963.341c.331.33.916.373 1.31.096.391-.28.444-.773.113-1.106-.331-.33-.915-.373-1.31-.096-.391.28-.443.775-.113 1.106Zm265.496 28.431c-2.249 1.342-2.542 3.728-.651 5.326 1.891 1.599 5.249 1.806 7.498.461 2.25-1.342 2.542-3.728.651-5.326-1.888-1.596-5.249-1.803-7.498-.461Zm-82.697-3.92c-1.169.698-1.32 1.937-.339 2.768.984.83 2.726.939 3.898.241 1.169-.698 1.32-1.938.336-2.768-.981-.83-2.726-.939-3.895-.241Zm10.637-1.217c-.749.448-.846 1.242-.217 1.776.631.531 1.75.602 2.5.154.75-.449.846-1.242.218-1.776-.632-.533-1.751-.602-2.501-.154Zm-7.555 28.535c-1.216.73-1.373 2.02-.353 2.88 1.023.86 2.837.98 4.055.25 1.216-.73 1.373-2.01.353-2.88-1.023-.86-2.839-.98-4.055-.25Zm181.075 3.54c1.98 1.98 5.497 2.24 7.851.57 2.357-1.67 2.66-4.64.681-6.63-1.979-1.99-5.497-2.24-7.854-.57-2.354 1.67-2.66 4.64-.678 6.63Z" fill="#E0E0E0"/><path fill-rule="evenodd" clip-rule="evenodd" d="M592.948 994.386c.331.331.915.373 1.309.096.392-.28.444-.772.113-1.105-.33-.331-.915-.374-1.309-.096-.394.279-.444.774-.113 1.105Zm-45.657-92.769c.331.331.915.373 1.309.096.392-.28.444-.773.113-1.105-.33-.331-.915-.374-1.309-.096-.394.279-.444.774-.113 1.105Zm-21.019-163.464c.331.33.915.373 1.31.096.391-.28.443-.773.113-1.106-.331-.331-.916-.373-1.31-.096-.391.28-.441.773-.113 1.106Zm-97.146 161.763c.331.331.915.373 1.309.096.392-.279.444-.772.113-1.103-.331-.331-.915-.376-1.309-.096-.394.277-.444.772-.113 1.103Zm23.769-20.237c.331.331.916.374 1.31.096.391-.279.444-.772.113-1.105-.331-.331-.915-.374-1.31-.096-.394.279-.443.775-.113 1.105Zm295.906-215.623c.331.331.915.373 1.309.096.392-.277.444-.773.113-1.105-.328-.331-.915-.374-1.309-.096-.391.279-.441.774-.113 1.105Zm62.841 85.225c.331.333.916.376 1.31.096.391-.277.443-.772.113-1.105-.331-.331-.915-.373-1.31-.096-.394.28-.443.775-.113 1.105ZM275.621 903.239c.662.663 1.833.749 2.619.192.785-.557.887-1.545.226-2.209-.659-.661-1.833-.749-2.619-.192-.783.557-.885 1.547-.226 2.209Zm464.552-200.265c.659.661 1.83.749 2.616.192.786-.557.888-1.545.226-2.209-.662-.664-1.83-.749-2.616-.192-.786.557-.888 1.545-.226 2.209ZM281.705 896.877c.659.664 1.833.749 2.616.192.785-.557.887-1.545.226-2.208-.659-.664-1.833-.749-2.619-.192-.78.556-.885 1.547-.223 2.208Zm51.409-19.091c.659.664 1.834.75 2.616.193.786-.557.888-1.545.227-2.209-.659-.662-1.834-.749-2.619-.192-.783.557-.885 1.545-.224 2.208ZM38.562 794.311c.662.664 1.834.749 2.62.192.785-.557.887-1.547.225-2.209-.659-.661-1.833-.749-2.616-.192-.785.555-.887 1.545-.229 2.209Zm133.476 30.514c.662.664 1.833.749 2.619.192.785-.557.887-1.545.226-2.209-.659-.663-1.831-.749-2.616-.192-.789.557-.891 1.545-.229 2.209Zm602.749-84.423c-2.169-.158-4.08 1.195-4.267 3.026-.188 1.831 1.417 3.442 3.586 3.6 2.169.158 4.077-1.195 4.267-3.026.188-1.829-1.417-3.44-3.586-3.6Zm-269.856-80.095c2.062 2.07 5.72 2.336 8.17.597 2.451-1.739 2.771-4.827.709-6.895-2.062-2.07-5.72-2.337-8.171-.597-2.45 1.739-2.77 4.825-.708 6.895ZM1228.13 916.45c2.06 2.07 5.72 2.337 8.17.6 2.45-1.739 2.77-4.827.7-6.895-2.06-2.07-5.72-2.337-8.17-.598-2.45 1.738-2.76 4.825-.7 6.893ZM2.35 864.148c2.062 2.07 5.72 2.337 8.17.598 2.45-1.74 2.768-4.828.709-6.895-2.062-2.07-5.72-2.337-8.17-.598-2.451 1.739-2.768 4.825-.71 6.895Zm1029.91-186.11c2.07 2.07 5.72 2.337 8.17.597 2.45-1.739 2.77-4.824.71-6.894-2.06-2.07-5.71-2.337-8.17-.598-2.45 1.739-2.77 4.825-.71 6.895ZM790.276 812.655c2.059 2.07 5.72 2.336 8.17.597 2.454-1.739 2.771-4.827.709-6.895-2.059-2.07-5.717-2.336-8.171-.597-2.453 1.737-2.77 4.825-.708 6.895Zm134.104-20.589c1.458 1.464 4.044 1.652 5.778.422 1.734-1.229 1.957-3.412.501-4.876-1.458-1.464-4.043-1.654-5.777-.422-1.734 1.231-1.96 3.414-.502 4.876Zm195.42 76.798c1.45 1.462 4.04 1.652 5.77.423 1.74-1.229 1.96-3.413.5-4.876-1.45-1.464-4.04-1.654-5.77-.423-1.73 1.229-1.96 3.412-.5 4.876Zm-587.405 39.927c1.069 1.076 2.971 1.215 4.245.312 1.273-.903 1.439-2.507.367-3.583-1.07-1.076-2.972-1.214-4.246-.312-1.27.903-1.436 2.508-.366 3.583Zm126.043-138.33c1.07 1.076 2.972 1.215 4.245.312 1.274-.903 1.439-2.507.367-3.583-1.073-1.076-2.972-1.214-4.245-.312-1.274.903-1.437 2.508-.367 3.583Zm388.522 8.799c1.07 1.075 2.97 1.214 4.24.311 1.27-.902 1.44-2.507.37-3.583-1.07-1.075-2.97-1.214-4.25-.311-1.27.902-1.43 2.507-.36 3.583Zm-44.4-44.582c1.07 1.076 2.97 1.215 4.24.312 1.28-.905 1.44-2.507.37-3.583-1.07-1.075-2.97-1.214-4.24-.311-1.28.904-1.44 2.507-.37 3.582ZM375.185 884.462c1.073 1.075 2.972 1.214 4.246.311 1.273-.902 1.438-2.507.366-3.583-1.069-1.075-2.971-1.214-4.245-.311-1.273.905-1.439 2.509-.367 3.583Zm820.125-88.593c.69.689 1.91.779 2.72.198.82-.58.93-1.609.24-2.298-.68-.689-1.91-.779-2.72-.201-.82.581-.93 1.609-.24 2.301Zm-241.595 62.647c.345.346.954.389 1.362.101.408-.288.463-.805.119-1.148-.345-.346-.954-.389-1.362-.101-.408.291-.461.805-.119 1.148Zm-251.613-14.914c.345.346.954.391 1.362.1.408-.29.463-.804.118-1.15-.344-.343-.953-.388-1.361-.1-.408.29-.461.804-.119 1.15Zm285.301-29.675c.342.345.954.388 1.362.1.408-.288.46-.805.119-1.148-.345-.346-.954-.391-1.362-.101-.411.289-.463.803-.119 1.149Zm-187.611 53.234c.342.346.954.391 1.362.101.408-.291.46-.805.118-1.149-.342-.345-.954-.388-1.362-.1-.407.288-.46.803-.118 1.148Zm-82.758-40.543c.345.345.954.39 1.362.1.408-.29.463-.805.119-1.15-.345-.344-.954-.389-1.362-.101-.408.293-.46.807-.119 1.151Zm383.566-78.692c.35.346.96.389 1.36.101.41-.291.47-.805.12-1.148-.34-.346-.95-.389-1.36-.101-.41.29-.46.805-.12 1.148Zm24.74-21.058c.34.346.95.391 1.36.1.41-.29.46-.804.12-1.15-.35-.346-.96-.388-1.37-.098-.4.288-.46.802-.11 1.148ZM686.255 872.223c.344.346.954.391 1.361.101.408-.291.461-.805.119-1.151-.345-.343-.954-.388-1.362-.1-.411.292-.463.807-.118 1.15Zm322.615-38.009c.34.346.95.389 1.36.101.41-.29.46-.805.12-1.148-.35-.346-.96-.389-1.37-.101-.4.288-.46.803-.11 1.148Zm-440.249 10.728c.686.689 1.905.779 2.724.201.818-.581.923-1.609.237-2.299-.687-.689-1.908-.778-2.724-.198-.819.578-.923 1.607-.237 2.296Zm372.243-93.556c.687.689 1.905.778 2.724.198.816-.578.923-1.609.237-2.298-.687-.69-1.905-.779-2.724-.199-.815.579-.923 1.609-.237 2.299ZM677.274 912.72c.686.689 1.907.779 2.723.201.819-.581.924-1.609.237-2.299-.686-.689-1.904-.779-2.723-.198-.816.578-.923 1.607-.237 2.296Zm269.919-167.954c.687.689 1.908.779 2.724.198.819-.578.923-1.609.237-2.298-.686-.689-1.905-.779-2.724-.201-.818.581-.923 1.609-.237 2.301ZM428.784 888.39c.686.69 1.907.779 2.723.199.816-.581.924-1.609.237-2.298-.686-.69-1.907-.779-2.723-.199-.819.581-.924 1.609-.237 2.298Zm57.772-38.841c.686.69 1.904.779 2.723.201.816-.58.924-1.609.234-2.298-.686-.69-1.904-.779-2.723-.199-.816.576-.921 1.605-.234 2.296Zm-254.025 59.994c.686.689 1.907.778 2.723.198.819-.581.923-1.609.237-2.298-.686-.69-1.907-.779-2.723-.201-.819.58-.924 1.611-.237 2.301Zm142.117 107.167c.661.66 1.833.75 2.619.19.785-.56.887-1.55.226-2.21-.659-.66-1.834-.75-2.619-.19-.786.56-.888 1.55-.226 2.21Zm6.081-6.36c.661.66 1.833.75 2.616.19.785-.56.887-1.55.226-2.21-.659-.66-1.834-.75-2.619-.19-.78.55-.882 1.54-.223 2.21Zm-49.175 12.66c.687.69 1.908.78 2.724.2.819-.58.923-1.61.237-2.3-.686-.69-1.908-.78-2.723-.2-.819.58-.924 1.61-.238 2.3ZM76.385 964.834c.687.69 1.908.779 2.724.201.819-.58.923-1.609.237-2.298-.687-.69-1.905-.779-2.724-.199-.818.579-.923 1.607-.237 2.296Zm924.305-239.936c.69.69 1.91.779 2.73.199.81-.581.92-1.609.23-2.298-.68-.69-1.9-.779-2.72-.199-.82.578-.93 1.609-.24 2.298ZM484.304 844.752c.686.689 1.904.779 2.723.199.816-.581.924-1.609.237-2.299-.686-.689-1.907-.779-2.723-.198-.819.58-.924 1.609-.237 2.298Zm-81.035 57.473c.686.689 1.908.779 2.724.201.818-.581.923-1.609.237-2.299-.687-.689-1.905-.779-2.724-.2-.819.578-.923 1.607-.237 2.298Zm-181.125 42.774c.686.689 1.907.779 2.723.198.819-.58.924-1.609.237-2.298-.686-.689-1.904-.779-2.723-.198-.819.578-.924 1.609-.237 2.298Zm576.909-230.504c.687.689 1.908.779 2.724.199.818-.581.923-1.609.237-2.299-.687-.689-1.908-.779-2.724-.198-.818.578-.926 1.607-.237 2.298Zm-436.65 188.846c.686.689 1.908.779 2.724.201.818-.581.923-1.609.237-2.299-.687-.689-1.905-.778-2.724-.2-.819.58-.923 1.609-.237 2.298Zm454.871 120.639c1.673.17 3.084-.74 3.153-2.02.072-1.29-1.226-2.46-2.897-2.63-1.673-.17-3.085.74-3.153 2.03-.075 1.28 1.223 2.45 2.897 2.62Zm-69.311-6.88c1.673.17 3.084-.74 3.156-2.02.072-1.29-1.227-2.46-2.9-2.63-1.67-.16-3.082.75-3.153 2.03-.075 1.28 1.224 2.46 2.897 2.62Zm-9.866-5.65c1.073.11 1.98-.47 2.024-1.3.044-.82-.789-1.58-1.858-1.68-1.073-.11-1.98.47-2.024 1.3-.044.82.789 1.57 1.858 1.68Zm35.822-18.34c1.739.173 3.208-.77 3.283-2.108.074-1.336-1.277-2.559-3.016-2.732-1.739-.173-3.209.77-3.283 2.106-.074 1.336 1.276 2.561 3.016 2.734Zm36.078-2.849c1.116.111 2.059-.495 2.106-1.351.047-.858-.819-1.643-1.935-1.752-1.117-.111-2.06.495-2.106 1.351-.047.856.818 1.641 1.935 1.752Zm-27.842 23.189c1.117.11 2.06-.5 2.106-1.35.047-.86-.818-1.65-1.935-1.76-1.116-.11-2.059.5-2.106 1.35-.047.86.819 1.65 1.935 1.76ZM480.756 779.448c.686.689 1.905.778 2.723.2.816-.58.924-1.609.237-2.298-.686-.689-1.904-.779-2.723-.199-.819.579-.924 1.607-.237 2.297Zm35.386-23.173c.686.689 1.908.778 2.724.198.818-.58.923-1.609.237-2.298-.687-.69-1.905-.779-2.724-.201-.816.581-.923 1.609-.237 2.301Zm-214.557 80.234c.687.689 1.905.779 2.724.198.816-.58.923-1.609.234-2.298-.686-.69-1.905-.779-2.723-.199-.816.579-.921 1.607-.235 2.299Zm415.138-75.917c.687.689 1.908.778 2.724.198.816-.58.923-1.609.237-2.298-.687-.69-1.908-.779-2.724-.199-.818.579-.923 1.609-.237 2.299Zm238.676 53.441c-2.254-.166-4.245 1.244-4.44 3.15-.196 1.904 1.474 3.581 3.729 3.747 2.258.165 4.245-1.244 4.441-3.149.196-1.906-1.475-3.583-3.73-3.748ZM683.14 924.103c.256.375.824.503 1.268.288.444-.218.595-.696.342-1.071-.257-.376-.825-.504-1.268-.289-.447.218-.599.696-.342 1.072Zm181.045-251.78c.535.781 1.717 1.048 2.641.598.923-.451 1.243-1.449.708-2.228-.532-.781-1.715-1.048-2.641-.598-.923.448-1.24 1.447-.708 2.228ZM722.52 899.395c.532.781 1.714 1.048 2.641.598.926-.45 1.243-1.449.708-2.228-.535-.781-1.715-1.048-2.641-.598-.926.451-1.243 1.449-.708 2.228Zm-1.227-5.053c.535.781 1.715 1.048 2.641.598.923-.451 1.243-1.447.708-2.228-.534-.781-1.714-1.048-2.64-.598-.924.45-1.241 1.449-.709 2.228Zm240.91-239.396c1.502.461 3.164-.194 3.71-1.462.546-1.27-.229-2.672-1.731-3.13-1.502-.461-3.165.194-3.71 1.461-.549 1.268.226 2.67 1.731 3.131Zm-99.705 157.259c.965.296 2.029-.124 2.382-.937.35-.813-.149-1.714-1.111-2.008-.965-.297-2.029.123-2.379.939-.353.81.143 1.709 1.108 2.006Zm154.172-199.574c.48.147 1.01-.062 1.19-.47.17-.407-.08-.855-.56-1.005-.48-.147-1.01.062-1.19.47-.17.407.08.858.56 1.005Zm52.78-50.484c.49.147 1.02-.062 1.2-.47.17-.407-.08-.855-.56-1.005-.48-.147-1.02.062-1.19.47-.18.407.07.858.55 1.005Zm-64.29 68.038c.96.297 2.02-.124 2.37-.939.35-.813-.14-1.713-1.11-2.008-.96-.294-2.03.124-2.38.937-.35.815.15 1.716 1.12 2.01ZM894.929 890.774c.965.295 2.029-.124 2.382-.939.35-.815-.146-1.713-1.111-2.008-.965-.294-2.029.124-2.379.939-.353.813.146 1.714 1.108 2.008ZM681.963 914.02c.964.296 2.031-.124 2.381-.939.35-.813-.146-1.714-1.111-2.008-.964-.297-2.028.123-2.378.939-.356.813.143 1.713 1.108 2.008ZM1262 885.559c1.57.48 3.29-.203 3.86-1.522.57-1.319-.24-2.778-1.8-3.259-1.56-.48-3.29.201-3.86 1.522-.57 1.321.24 2.778 1.8 3.259Zm-231.92 36.884c1 .307 2.11-.129 2.48-.976.36-.847-.16-1.782-1.16-2.091-1.01-.307-2.11.13-2.48.975-.36.847.16 1.784 1.16 2.092Zm-77.329-46.524c1.003.308 2.111-.13 2.478-.975.364-.847-.155-1.782-1.158-2.089-1.003-.307-2.111.13-2.478.975-.364.845.154 1.782 1.158 2.089Zm-44.009 74.652c1.004.307 2.112-.13 2.476-.975.363-.848-.155-1.782-1.158-2.09-1.004-.307-2.112.131-2.476.976-.364.845.155 1.782 1.158 2.089Zm-293.11-734.71c-1.585-1.592-4.402-1.799-6.291-.461-1.888 1.338-2.13 3.715-.545 5.309 1.585 1.592 4.402 1.799 6.29.461 1.888-1.34 2.134-3.717.546-5.309ZM859.97 106.28c-1.585-1.592-4.402-1.799-6.29-.461-1.888 1.338-2.131 3.716-.546 5.31 1.588 1.594 4.402 1.799 6.29.461 1.889-1.338 2.134-3.716.546-5.31Zm169.24-62.089c-1.58-1.594-4.4-1.799-6.29-.46-1.88 1.337-2.13 3.715-.54 5.309 1.59 1.594 4.4 1.799 6.29.46 1.89-1.34 2.13-3.717.54-5.309Zm-86.179-25.699c-1.122-1.127-3.113-1.272-4.449-.327-1.335.948-1.508 2.627-.386 3.754 1.121 1.127 3.112 1.272 4.449.324 1.334-.943 1.507-2.624.386-3.751ZM711.204 216.008c-.824-.828-2.288-.935-3.269-.239-.981.696-1.108 1.931-.284 2.759.824.828 2.288.935 3.269.239.982-.695 1.108-1.931.284-2.759ZM848.663 28.35c-.824-.827-2.288-.934-3.269-.238-.982.696-1.108 1.931-.284 2.76.824.827 2.288.934 3.269.238.981-.696 1.108-1.931.284-2.76Zm34.178 34.324c-.824-.828-2.288-.935-3.269-.239-.981.696-1.108 1.931-.284 2.76.824.827 2.288.934 3.267.238.984-.695 1.111-1.931.286-2.759ZM357.367 202.679c-.529-.531-1.467-.599-2.098-.153-.628.446-.711 1.237-.182 1.769.53.531 1.467.599 2.098.153.628-.446.708-1.237.182-1.769ZM622.625 70.151c-.334-.335-.924-.377-1.32-.096-.397.282-.447.78-.113 1.114.333.335.923.378 1.32.096.397-.281.446-.778.113-1.114Zm118.402 98.847c-.264-.267-.733-.301-1.047-.077-.315.222-.356.619-.091.886.264.265.733.299 1.047.077.315-.224.356-.621.091-.886ZM894.51 1.663c-.264-.265-.733-.3-1.047-.077-.315.224-.356.62-.091.886.264.264.733.299 1.047.077.317-.224.359-.621.091-.886ZM712.693 51.112c-.265-.267-.733-.299-1.048-.077-.314.222-.355.62-.091.886.265.264.734.299 1.048.077.314-.224.355-.62.091-.886Zm16.837 130.961c-.265-.264-.733-.298-1.048-.076-.314.224-.355.618-.091.885.265.265.734.301 1.048.077.314-.224.356-.621.091-.886Zm77.831-129.599c-.264-.265-.733-.3-1.047-.077-.314.224-.356.619-.091.885.264.267.733.301 1.047.077.314-.222.356-.619.091-.886Zm-19.045 16.214c-.265-.265-.733-.3-1.048-.077-.314.224-.355.619-.091.885.265.267.734.301 1.048.077.317-.224.356-.619.091-.885ZM551.252 241.435c-.265-.265-.733-.299-1.047-.077-.315.224-.356.619-.091.883.264.267.733.301 1.047.077.314-.222.353-.619.091-.883Zm-50.346-68.278c-.264-.264-.733-.3-1.047-.076-.314.224-.356.619-.091.885.265.267.733.301 1.048.077.314-.226.355-.621.09-.886ZM930.34 49.812c-.53-.531-1.47-.6-2.098-.153-.629.446-.711 1.237-.182 1.769.529.531 1.469.6 2.098.153.628-.446.711-1.237.182-1.769ZM558.163 210.257c-.529-.531-1.466-.6-2.098-.154-.628.446-.711 1.238-.182 1.769.53.532 1.467.6 2.098.154.631-.446.711-1.24.182-1.769ZM925.466 54.908c-.529-.53-1.467-.6-2.098-.153-.628.446-.711 1.24-.182 1.769.53.531 1.467.6 2.098.154.629-.444.711-1.238.182-1.77ZM884.28 70.205c-.529-.531-1.469-.6-2.098-.154-.628.446-.711 1.238-.182 1.77.53.53 1.47.599 2.098.153.629-.446.711-1.238.182-1.77Zm235.98 66.877c-.53-.531-1.47-.599-2.1-.153-.63.446-.71 1.237-.18 1.769.53.531 1.47.599 2.1.153.63-.446.71-1.237.18-1.769Zm-106.93-24.447c-.53-.531-1.47-.599-2.1-.153-.63.446-.71 1.237-.18 1.769.53.531 1.46.599 2.09.153.64-.448.72-1.24.19-1.769ZM530.432 180.27c1.737.128 3.269-.958 3.418-2.424.152-1.466-1.136-2.757-2.872-2.885-1.737-.128-3.267.958-3.418 2.424-.149 1.466 1.135 2.757 2.872 2.885Zm216.197 64.169c-1.651-1.658-4.582-1.871-6.547-.478-1.966 1.394-2.219 3.867-.568 5.525 1.651 1.658 4.581 1.872 6.547.478 1.965-1.393 2.219-3.866.568-5.525ZM167.239 39.228c-1.651-1.658-4.581-1.872-6.547-.48-1.965 1.393-2.219 3.866-.568 5.525 1.651 1.658 4.582 1.871 6.547.48 1.966-1.394 2.219-3.867.568-5.525ZM1149.27 81.13c-1.65-1.657-4.58-1.87-6.55-.477-1.96 1.393-2.22 3.867-.56 5.525 1.65 1.658 4.58 1.871 6.54.48 1.97-1.396 2.22-3.869.57-5.527ZM324.153 230.233c-1.651-1.658-4.581-1.871-6.547-.48-1.962 1.394-2.219 3.867-.567 5.525 1.651 1.658 4.581 1.872 6.544.48 1.968-1.393 2.221-3.867.57-5.525Zm193.872-107.848c-1.652-1.658-4.582-1.871-6.547-.48-1.966 1.394-2.219 3.867-.568 5.525 1.651 1.658 4.581 1.872 6.547.478 1.965-1.391 2.219-3.864.568-5.523Zm-107.44 16.494c-1.166-1.172-3.239-1.323-4.628-.339-1.39.986-1.569 2.733-.403 3.905 1.169 1.171 3.239 1.323 4.629.339 1.392-.984 1.571-2.733.402-3.905ZM254.026 77.354c-1.166-1.172-3.239-1.323-4.628-.34-1.389.984-1.569 2.734-.403 3.906 1.167 1.171 3.239 1.323 4.629.34 1.392-.985 1.571-2.735.402-3.906Zm470.6-31.989c-.857-.862-2.382-.973-3.401-.25-1.02.724-1.153 2.009-.295 2.87.857.863 2.381.974 3.401.25 1.02-.723 1.152-2.008.295-2.87ZM623.645 156.188c-.857-.862-2.379-.973-3.402-.25-1.02.724-1.152 2.008-.295 2.87.858.862 2.382.973 3.402.25 1.023-.723 1.152-2.008.295-2.87Zm-311.26-7.049c-.857-.862-2.381-.973-3.401-.249-1.02.723-1.153 2.008-.295 2.87.857.862 2.381.973 3.401.25 1.02-.724 1.153-2.011.295-2.871Zm35.568 35.717c-.857-.862-2.378-.973-3.401-.25-1.02.724-1.152 2.008-.295 2.871.857.862 2.379.973 3.401.249 1.02-.725 1.153-2.008.295-2.87ZM850.576 64.857c-.858-.862-2.382-.973-3.402-.25-1.02.724-1.152 2.008-.295 2.87.857.863 2.379.974 3.402.25 1.02-.725 1.152-2.01.295-2.87Zm-657.045 70.977c-.551-.553-1.527-.625-2.183-.16-.656.465-.739 1.289-.19 1.841.551.553 1.527.624 2.18.161.656-.466.742-1.289.193-1.842Zm193.552-50.192c-.276-.277-.764-.311-1.092-.079-.328.233-.369.645-.094.92.276.277.764.312 1.092.079.325-.233.369-.644.094-.92ZM588.664 97.59c-.275-.275-.763-.311-1.091-.079-.328.233-.37.645-.094.92.276.278.764.312 1.092.08.325-.231.369-.643.093-.92Zm-228.568 23.775c-.276-.277-.764-.311-1.092-.079-.328.233-.369.645-.094.92.276.275.764.312 1.092.079.328-.23.369-.642.094-.92ZM510.4 78.718c-.276-.278-.764-.312-1.092-.08-.328.233-.369.645-.093.92.275.275.763.312 1.091.08.328-.233.37-.645.094-.92Zm66.301 32.479c-.276-.277-.764-.312-1.092-.081-.328.232-.369.644-.094.922.276.275.764.311 1.092.079.325-.231.369-.643.094-.92Zm-307.296 63.045c-.276-.278-.764-.312-1.092-.079-.328.232-.369.644-.093.919.275.278.763.312 1.091.079.328-.23.37-.644.094-.919Zm-19.814 16.871c-.276-.277-.764-.312-1.092-.079-.328.233-.369.644-.096.92.275.275.763.311 1.091.079.328-.231.373-.645.097-.92ZM601.361 74.66c-.276-.277-.763-.31-1.092-.08-.328.232-.369.644-.093.921.275.276.763.312 1.091.08.326-.231.37-.645.094-.92Zm-258.46 30.453c-.276-.276-.764-.312-1.092-.079-.328.232-.369.644-.094.92.276.277.764.311 1.092.079.325-.231.367-.645.094-.92Zm352.701-8.596c-.551-.553-1.527-.625-2.18-.16-.656.465-.739 1.289-.19 1.842.551.552 1.527.623 2.18.16.656-.466.741-1.29.19-1.842Zm-298.224 74.955c-.551-.553-1.527-.623-2.183-.16-.653.463-.738 1.289-.19 1.841.551.553 1.527.626 2.183.16.656-.465.742-1.289.19-1.841ZM608.555 42.215c-.551-.552-1.527-.623-2.183-.16-.656.465-.739 1.29-.19 1.842.551.553 1.527.623 2.183.16.653-.463.739-1.287.19-1.842Zm-216.246 134.56c-.551-.553-1.527-.623-2.183-.16-.656.465-.739 1.289-.19 1.841.551.553 1.527.626 2.18.16.659-.465.742-1.289.193-1.841ZM807.634 61.707c-.551-.552-1.527-.623-2.183-.16-.656.466-.739 1.29-.19 1.842.551.553 1.527.625 2.183.16.656-.463.742-1.287.19-1.842Zm-46.285 31.12c-.552-.552-1.527-.623-2.183-.16-.654.466-.739 1.29-.191 1.842.552.553 1.527.623 2.181.16.659-.465.744-1.289.193-1.842Zm203.514-48.064c-.552-.552-1.528-.623-2.184-.16-.656.465-.738 1.29-.19 1.842.551.553 1.527.623 2.183.16.656-.465.742-1.289.191-1.842ZM1089.96.466c-.55-.553-1.53-.623-2.19-.16-.65.465-.73 1.289-.19 1.841.56.553 1.53.624 2.19.16.65-.465.74-1.288.19-1.841ZM349.45 192.69c-.551-.553-1.527-.623-2.18-.16-.656.465-.739 1.289-.191 1.842.552.552 1.528.623 2.184.16.653-.463.736-1.287.187-1.842Zm413.704-96.022c-.551-.552-1.527-.623-2.183-.16-.653.464-.739 1.29-.19 1.842.551.553 1.527.623 2.183.16.656-.463.739-1.289.19-1.842Zm64.92-46.042c-.551-.553-1.527-.624-2.183-.16-.656.465-.739 1.288-.19 1.841.551.553 1.527.625 2.183.16.656-.463.741-1.289.19-1.841Zm145.108-34.268c-.551-.553-1.527-.626-2.183-.16-.656.465-.739 1.289-.19 1.841.549.553 1.527.623 2.18.16.659-.465.745-1.289.193-1.841ZM510.993 201.025c-.552-.552-1.527-.623-2.181-.16-.656.463-.738 1.289-.19 1.842.552.553 1.527.623 2.181.16.656-.463.741-1.287.19-1.842ZM860.817 49.731c-.551-.552-1.527-.623-2.183-.16-.656.465-.739 1.29-.191 1.842.552.553 1.528.625 2.184.16.656-.465.738-1.289.19-1.842Zm-94.821 99.257c-.551-.553-1.527-.625-2.183-.16-.653.465-.739 1.289-.19 1.841.551.553 1.527.624 2.18.16.659-.465.745-1.288.193-1.841Zm-28.351 18.568c-.551-.553-1.527-.623-2.183-.16-.653.465-.739 1.289-.19 1.841.551.553 1.527.626 2.183.16.656-.465.741-1.291.19-1.841Zm171.894-64.283c-.552-.552-1.527-.623-2.184-.16-.653.465-.738 1.289-.187 1.842.549.553 1.527.623 2.18.16.657-.463.742-1.287.191-1.842Zm-332.587 60.821c-.552-.552-1.528-.623-2.184-.16-.656.466-.738 1.289-.19 1.842.552.553 1.527.625 2.183.16.657-.463.742-1.287.191-1.842ZM385.735 121.28c1.805.132 3.398-.997 3.555-2.522.158-1.526-1.182-2.871-2.988-3.003-1.808-.132-3.398.997-3.556 2.522-.157 1.528 1.183 2.871 2.989 3.003Zm218.121-88.181c-.207-.3-.662-.403-1.017-.23-.356.172-.477.556-.273.857.206.301.661.404 1.017.23.356-.174.48-.558.273-.857ZM458.811 234.813c-.427-.625-1.375-.839-2.114-.478-.742.361-.995 1.161-.568 1.784.427.625 1.375.841 2.114.48.742-.363.995-1.161.568-1.786ZM572.307 52.892c-.428-.626-1.376-.839-2.115-.478-.741.36-.995 1.16-.567 1.784.427.625 1.375.84 2.114.48.741-.363.995-1.161.568-1.786Zm.981 4.048c-.427-.625-1.375-.839-2.114-.478-.742.36-.995 1.16-.568 1.786.427.625 1.376.839 2.117.478.739-.36.993-1.16.565-1.786ZM380.285 248.735c-1.205-.369-2.536.156-2.972 1.172-.438 1.015.185 2.14 1.387 2.507 1.205.369 2.536-.156 2.972-1.171.438-1.016-.182-2.139-1.387-2.508Zm79.877-125.989c-.772-.237-1.627.1-1.908.751-.281.651.119 1.372.89 1.609.772.237 1.627-.1 1.908-.751.281-.651-.116-1.372-.89-1.609ZM336.649 282.634c-.386-.118-.813.049-.954.375-.141.327.058.685.444.805.386.117.813-.049.953-.376.144-.324-.057-.685-.443-.804Zm-42.292 40.445c-.386-.119-.813.05-.953.376-.141.327.057.687.446.805.386.117.813-.05.954-.376.14-.327-.058-.687-.447-.805Zm51.515-54.508c-.772-.237-1.626.1-1.907.751-.282.651.118 1.372.89 1.609.772.237 1.626-.1 1.908-.751.281-.651-.119-1.372-.891-1.609ZM434.181 59.8c-.771-.237-1.626.1-1.907.75-.281.654.118 1.373.89 1.61.772.237 1.627-.1 1.908-.751.281-.653-.119-1.373-.891-1.61Zm170.621-18.624c-.772-.237-1.627.1-1.908.751-.281.651.118 1.372.89 1.61.772.236 1.627-.101 1.908-.752.278-.653-.119-1.372-.89-1.609ZM140.101 63.978c-1.255-.384-2.638.162-3.093 1.218-.455 1.057.19 2.226 1.444 2.61 1.252.384 2.638-.162 3.093-1.218.455-1.057-.193-2.226-1.444-2.61Zm185.802-29.55c-.804-.247-1.692.105-1.984.781-.293.679.121 1.428.926 1.676.802.247 1.692-.105 1.985-.781.292-.679-.122-1.43-.927-1.676ZM387.857 71.7c-.805-.247-1.693.105-1.985.782-.292.678.124 1.427.926 1.675.805.246 1.693-.105 1.985-.781.292-.679-.124-1.43-.926-1.675Zm35.256-59.807c-.802-.245-1.692.105-1.984.781-.293.679.121 1.428.926 1.676.805.247 1.692-.105 1.985-.781.295-.68-.122-1.43-.927-1.676Z" fill="#E0E0E0"/></svg>