<svg width="70" height="66" fill="none" xmlns="http://www.w3.org/2000/svg"><path d="M2.6 44.3a5.3 5.3 0 0 0 1.3 1.2 6.4 6.4 0 0 0 1.5.7 7.9 7.9 0 0 0 2 .3h3.5a40.4 40.4 0 0 0 1.7-.3h.1l1.1-.1a6.5 6.5 0 0 1 0-.1 24.9 24.9 0 0 1-.5-1l-1.8.4a43.9 43.9 0 0 1-2.8.2H7.6l-2.2-.1a6.8 6.8 0 0 1-1.8-.6l-1-.6ZM60 35.6h-.6.6Zm7.3-14.8A4.4 4.4 0 0 1 68 22l.2.6H68h.2a4.7 4.7 0 0 1 0 .5s.3 1.7-1 3.4H67v.1a4 4 0 0 1-.1.2l-.2.1v.1l-.1.1a4 4 0 0 1-.2.2 9 9 0 0 1-1 .7c0 .2-.2.3-.4.3l-.3.3h-.1l-.2.2-.4.2-.8.4c-.4.2-1.1.6-2.7 1.2a51.7 51.7 0 0 1-1.6.7c.4 3.8-.3 6.7-.3 6.8v.5h-.1v.1a24 24 0 0 1-.5 2c-.8 2.8-2 4.6-2 4.7l-.3.6-.6 1-.4.6.3.9h.1l.2.6.2.6.2.7.2.6.2.4v.2l.2.6.1.7a6.2 6.2 0 0 1 0 .6V54.4h-.1a5 5 0 0 1-.1.5v.1a5.8 5.8 0 0 1-.3.6 6.8 6.8 0 0 1-.3.5v.1a8 8 0 0 1-.3.6h-.1a9.4 9.4 0 0 1-.3.4v.1l-.5.5-.4.4-.5.5h-.1l-.4.4-.6.5a17.7 17.7 0 0 1-.5.3l-.6.4c-.2 0-.3.2-.5.3l-.6.4-.6.2-.6.4a39 39 0 0 1-1.2.5l-.6.2-.6.3h-.1a28.6 28.6 0 0 1-.5.2l-.7.2-.6.2a31.8 31.8 0 0 1-.7.2 29.8 29.8 0 0 1-.6.2 32.2 32.2 0 0 1-.7.2h-.6a33 33 0 0 1-.7.2h-.6v.1l-.7.1h-.6v.1a33.7 33.7 0 0 1-.7.1h-.6l-.7.1H37l-.7.1a25.2 25.2 0 0 1-.7 0 34.6 34.6 0 0 1-.6 0h-1.4a39.7 39.7 0 0 1-.6 0 33.8 33.8 0 0 1-.7 0v-.1H31v-.2a35.2 35.2 0 0 1-.6 0 32.8 32.8 0 0 1-.7 0v-.1L29 64l-.7-.1-.6-.2h-.1a34.8 34.8 0 0 1-.6 0v-.2a34.6 34.6 0 0 1-.6 0 34.6 34.6 0 0 1-.7-.2 30.6 30.6 0 0 1-.6-.2l-.7-.2a32.2 32.2 0 0 1-.6-.3 33.2 33.2 0 0 1-.7-.1v-.1l-.5-.2a33.5 33.5 0 0 1-.7-.2V62l-.5-.2h-.1l-.6-.3a32.7 32.7 0 0 1-.5-.3h-.1a35.7 35.7 0 0 1-.6-.2v-.1l-.5-.3a33.4 33.4 0 0 1-.7-.3L18 60a33 33 0 0 1-.6-.4 32.1 32.1 0 0 1-.5-.3 44 44 0 0 1-.6-.4 44.9 44.9 0 0 1-.5-.4l1 1a33.2 33.2 0 0 0 6.8 3.7 33 33 0 0 0 12.3 2.3 33 33 0 0 0 19-6l.2-.2.5-.4.6-.6v-.1l.1-.1V58l.2-.1.1-.2v-.1l.1-.1v-.1h.1V57h.1V57l.1-.1v-.2l.2-.2v-.1a6.2 6.2 0 0 0 0-4l-1.4-3.8.1-.2h.1l.1-.2V48l.2-.2.1-.2v-.1l.2-.1v-.2l.1-.1v-.1l.1-.1.1-.2h.1v-.2l.1-.2.2-.2V46l.1-.2.2-.3.2-.5.2-.3v-.3h.1v-.2l.1-.1.1-.2V44l.1-.1v-.2l.1-.1v-.1l.1-.2v-.1l.1-.2.1-.2v-.1l.1-.2V42l.1-.1v-.2h.1v-.3l.1-.2v-.1l.1-.2v-.1l.1-.2v-.1l.1-.6.1-.3V39.3l.1-.1v-.4l.1-.3V38l.1-.1V37.3l.1-.2V35.6h-.1.2V35a30.3 30.3 0 0 0 0-.6 24.5 24.5 0 0 0-.1-2.2l.3-.1 1.3-.6A35.8 35.8 0 0 0 65 30h.1l.4-.2.2-.1.1-.1.3-.2.4-.3 1-.7.1-.2h.1V28a6.5 6.5 0 0 0 .2 0v-.2h.1a4 4 0 0 0 .1-.2 5.8 5.8 0 0 0 .6-.8v-.2l.2-.2v-.2l.1-.2v-.1a4.3 4.3 0 0 0 .1-.4v-.2a5.5 5.5 0 0 0 .1-.4V24.3a3 3 0 0 0 0-.2 4.5 4.5 0 0 0 0-.2v-.3H69a5.3 5.3 0 0 0 0-.2V23.1a4.8 4.8 0 0 0-.1-.2v-.2l-.1-.1a5 5 0 0 0-.2-.3 4.7 4.7 0 0 0-.7-1v-.1l-.6-.4Zm-14.8-3.5a24 24 0 0 1 1.9 2.3h.1a24.5 24.5 0 0 0-2-2.3ZM38.8 2.5c1.2 1.6 1.8 4.1 3.3 8.3l.6.2-2-5.8a6.2 6.2 0 0 0-.7-1.4 5.6 5.6 0 0 0-.7-.9 5.4 5.4 0 0 0-.5-.4Z" fill="#B6B5BF"/><path d="M68.2 23.2a4.7 4.7 0 0 0 0-.5H68h.2l-.2-.6a4.4 4.4 0 0 0-.5-1.1 4.7 4.7 0 0 0-.6-.7l-.6-.5h-.1a5.4 5.4 0 0 0-.2-.2h-.1a3.9 3.9 0 0 0-.2-.2h-.1l-.2-.2a6.4 6.4 0 0 0-.7-.2 7.1 7.1 0 0 0-.2 0 6.6 6.6 0 0 0-.3-.1 8 8 0 0 0-.3-.1h-.1a6.6 6.6 0 0 0-.3 0 42.6 42.6 0 0 0-7.1.5h-.6l-1.4.3A24.3 24.3 0 0 0 42 10.8c-2.2-6-2.4-8.6-5.3-9.8a5 5 0 0 0-1-.3c-2.4-.6-5 .9-6 3.6l-2.2 6.5a24.2 24.2 0 0 0-1.6.6A24.2 24.2 0 0 0 10.7 32l-4.9 2c-3.7 2-4 3.3-4.4 3.7-.5 1-.8 2-.7 3.1v.3h.2-.2v.4l.2.4a4.5 4.5 0 0 0 .4.9l.3.5a5.4 5.4 0 0 0 2 1.6 6.8 6.8 0 0 0 1.8.6l2.2.1H9l2.5-.2a67 67 0 0 0 1.8-.3l1.6 2.6c-.1 1.5-3.5 5.8-.4 9.7.4.5.9.9 1.4 1.2 17.7 12.4 40.6 2.8 40.6-5 0-.8-.1-1.4-.4-2.1l-1.3-3.8.4-.7a24.4 24.4 0 0 0 1-1.5s1-2 1.9-4.7l.5-2v-.1l.1-.5s.7-3 .3-6.8l.2-.1 1.4-.6c1.6-.6 2.3-1 2.7-1.2l.8-.4.4-.2.2-.1.1-.1.3-.2.4-.3 1-.7a3.7 3.7 0 0 0 .1-.2v-.1h.1l.1-.2.2-.1.1-.2v-.1c1.4-1.7 1.1-3.3 1.1-3.4Z" fill="#fff"/><path d="M68.3 23.5v-.3a4.8 4.8 0 0 0 0-.5H68v.1h.2v-.2a4 4 0 0 0 0-.2H68V22.7H68v.1h.2v.7h.1ZM68 22a4.5 4.5 0 0 0-.1-.4h-.1l.1.4h.1Zm-.3-.8a5 5 0 0 0-.2-.3v.1a4.6 4.6 0 0 0-.2-.3l.1.3.2.3Zm-.5-.7a4.6 4.6 0 0 0-.2-.2h-.1.1l-.2-.2h-.1l.2.2h.1-.1l.2.3Zm-5.1-2a14.7 14.7 0 0 0-.7 0v.2a17.8 17.8 0 0 1 .7 0v-.1Zm1.4.2a9 9 0 0 0-.7-.1l.7.2v-.1Zm1.4.3a6.4 6.4 0 0 0-.2 0 6.2 6.2 0 0 0-.2-.1 7.3 7.3 0 0 0-.3-.1v.1h.3l.2.1.2.1V19Zm1.3.6a5 5 0 0 0-.2-.1h-.1l-.2-.1-.1-.1v.2h.3v.1l.2.1Zm-5.5-1h-.4v.1h.1-.4.7v-.1Zm-2.7.3h-.6v.2l.6-.1v-.1Zm1.3-.2h-.6v.1s0 .1 0 0h.7v-.1Zm-2.6.4h-.3l-.3.1v.1h.3v-.1h.3V19Zm-1.1.2h-.5v.2l.5-.1v-.1Zm-1 .2h-.2a23.2 23.2 0 0 0-.2-.2l.1.3h.4v-.1Zm-11-8.2-.6-.2.6.3v-.1Zm1.2.5-.6-.3v.1a23.4 23.4 0 0 1 .6.3v-.1Zm1.1.5a26 26 0 0 0-.5-.2h-.1a20.2 20.2 0 0 1 .7.3Zm1.2.7-.6-.4v.1l.5.4V13Zm1 .6-.5-.3.5.4Zm1.1.8-.5-.4a23.4 23.4 0 0 1 .5.4Zm1 .7a24.1 24.1 0 0 0-.5-.4v.1a31 31 0 0 1 .5.4Zm1 .9a25.8 25.8 0 0 0-.5-.4 21.2 21.2 0 0 1 .5.5V16Zm1 .9a24.5 24.5 0 0 0-.5-.5h-.1l.4.5h.1Zm.8.9a24.2 24.2 0 0 0-.4-.5l-.1.1.4.5.1-.1Zm.8 1-.4-.5c0 .2.2.4.3.5h.1Zm-11.4-8a24.3 24.3 0 0 0-.3 0l-.1-.3h-.1l.1.3.4.2v-.1ZM28 9.3l-.2.6h.1l.2-.6Zm.5-1.3-.2.7.3-.7h-.1Zm.4-1.3-.2.7h.1l.2-.6v-.1Zm.5-1.2-.2.6.3-.6h-.1Zm.4-1.3a6.6 6.6 0 0 0 0 .2l-.2.4c0 .1 0 0 .1 0l.1-.4.1-.2Zm.6-1.2a6 6 0 0 0-.3.6h.1l.3-.6Zm1-1a5.5 5.5 0 0 0-.5.4v.1l.5-.5Zm1-.8a5.2 5.2 0 0 0-.5.3v.1l.6-.3V1Zm1.3-.5a5 5 0 0 0-.6.2h.7V.5Zm1.4 0a5 5 0 0 0-.7 0 5 5 0 0 1 .7 0Zm1.3.2a5 5 0 0 0-.6-.2v.1l.6.2V.8Zm1.3.6a5.1 5.1 0 0 0-.6-.3l.5.4Zm1 1a4.8 4.8 0 0 0-.5-.6V2c0 .2.2.3.4.5Zm.7 1a7.7 7.7 0 0 0-.3-.5H39l.3.6Zm.5 1.3-.2-.6h-.1l.2.7h.1Zm.5 1.3-.2-.6h-.1a45.1 45.1 0 0 1 .3.7V6Zm.4 1.3-.2-.7.1.7h.1Zm.4 1.3-.2-.7.1.7h.1Zm.5 1.3-.2-.7h-.1l.2.7Zm-14.1.6-.1.3h-.3v.2l.4-.1.1-.4h-.1ZM10.8 30.4v.6l.1-.6ZM11 29a23.8 23.8 0 0 0 0 .6l.1-.6Zm.3-1.3a25.6 25.6 0 0 0 .1 0Zm.4-1.3a21.6 21.6 0 0 0-.2.7h.1l.2-.6h-.1Zm.4-1.2-.2.6h.1l.2-.6Zm.5-1.2-.2.6.3-.6Zm.6-1.2-.3.6h.1l.3-.5v-.1h-.1Zm.6-1.1-.3.5v.1h.1l.3-.6Zm.7-1.2-.3.6.4-.5Zm.8-1-.4.5.4-.5Zm.8-1-.4.4v.1l.4-.5Zm.8-1-.4.4v.1l.5-.5Zm1-1-.5.5.5-.4v-.1Zm.9-.9-.5.4v.1l.6-.4h-.1Zm1-.8-.5.4.6-.3v-.1Zm1-.8-.5.4h.1c.2 0 .3-.2.5-.3V14Zm1.2-.7-.6.3v.1l.6-.3v-.1Zm1-.7-.5.3v.1c.3 0 .5-.2.6-.3v-.1Zm1.3-.6-.6.3.6-.2V12Zm1.2-.5-.6.2v.1l.6-.2v-.1Zm1.2-.5-.6.2v.1l.6-.2V11Zm-16 20.6v.3h-.4v.1h.4v-.4Zm-3.4 1.6-.6.3v.1l.6-.3Zm1.2-.5a42 42 0 0 0-.6.3l.6-.2v-.1Zm1.2-.5-.6.2v.2l.7-.3ZM6.1 34l-.3.1-.3.2h.3V34l.4-.1v-.1Zm-3.6 2.4a6.5 6.5 0 0 0-.5.5l.6-.5h-.1Zm1.1-1-.6.5h.1c.2 0 .4-.2.6-.4Zm1.3-.8-.7.4v.1l.7-.4Zm-3.4 2.9a1.7 1.7 0 0 1-.2.2v.1h.1l-.2.3.3-.3h-.1l.2-.3Zm-.8 2a5 5 0 0 0-.1.6h.1v-.5Zm.3-1a5.5 5.5 0 0 0-.2.5h.1l.2-.4H1Zm-.4 2v.7H1 .7v.4h.1V41H.6h.2-.2v-.3a4.7 4.7 0 0 1 0-.3H.5ZM.9 42a4.9 4.9 0 0 0 .2.5A3.8 3.8 0 0 1 1 42H.9Zm.5 1 .1.3.3.3v-.1a5.1 5.1 0 0 1-.2-.3l-.2-.2Zm.8 1 .5.4a5.4 5.4 0 0 1-.4-.5h-.1v.1Zm1 .8a5.8 5.8 0 0 0 .7.3V45a6.7 6.7 0 0 1-.6-.3Zm1 .4a6.7 6.7 0 0 0 .5.2v-.1a6.5 6.5 0 0 1-.4-.2v.1Zm.9.3h.7a9.7 9.7 0 0 1-.4 0 8.1 8.1 0 0 1-.3-.1Zm4.9 0h.6v-.1H10v.1Zm-1.2.2H9.4v-.1H8.8Zm-1.2 0h.6v-.1h-.6Zm-1.2 0H7v-.1h-.7Zm4.8-.3a27 27 0 0 0 .6 0v-.1a38 38 0 0 1-.6 0v.1Zm1 0 .4-.1v-.1h-.4v.1Zm.8-.2h.3V45l.1.3h.1a28.2 28.2 0 0 1-.1-.3H13v.1Zm42.4 4-.2-.6h-.1l.2.7h.1Zm.4 1.3-.2-.7.1.7h.1Zm.5 1.2a6.5 6.5 0 0 0-.1-.2l-.1-.4H56v.4l.2.3Zm.2 1.3a6.2 6.2 0 0 0 0-.6h-.2a6.1 6.1 0 0 1 .1.6h.1Zm0 1.4a4.5 4.5 0 0 0 0-.7l-.1.6Zm-.5 1.2a5.9 5.9 0 0 0 .3-.6h-.1a5.8 5.8 0 0 1-.3.6h.1Zm-.6 1.2a8 8 0 0 0 .3-.6 7.9 7.9 0 0 1-.4.5Zm-.9 1 .5-.5h-.1l-.4.4v.1Zm-1 1 .6-.5v-.1H54l-.5.4v.1Zm-1 .8.6-.4-.1-.1-.5.4Zm-1 .7.5-.4-.6.3v.1Zm-1.2.7.6-.4c-.3 0-.5.2-.7.3h.1Zm-1.2.6.6-.3v-.1l-.6.3s0 .1 0 0ZM48 62l.6-.2v-.1l-.6.2v.1Zm-1.2.5.6-.2v-.1l-.7.2v.1Zm-1.3.4c.2 0 .4 0 .6-.2l-.6.1v.1Zm-1.3.4c.3 0 .5 0 .7-.2l-.7.1v.1Zm-1.2.4.6-.2v-.1l-.7.1v.2Zm-1.3.2.6-.1v-.1l-.7.1v.1Zm-1.4.2h.7V64h-.7v.1Zm-1.3.2h.7v-.2l-.7.1v.1Zm-1.3.1h.7v-.1h-.7v.1Zm-1.3.1h.6v-.1h-.6v.1Zm-1.3 0a31.2 31.2 0 0 0 .7 0H34.8Zm-1.4 0h.7l-.7-.1v.1Zm-1.3 0h.7v-.1h-.7Zm-1.3-.2h.6a34.7 34.7 0 0 1-.6-.1v.1Zm-1.3-.2.6.1-.6-.2v.1Zm-1.3-.2.6.1a32.6 32.6 0 0 1-.6-.2v.1Zm-1.3-.3.6.2v-.1a35.6 35.6 0 0 1-.6-.2v.1Zm-1.3-.3.6.2v-.2a32.3 32.3 0 0 1-.6-.1Zm-1.3-.4a35.6 35.6 0 0 0 .7.2V63l-.7-.2v.1Zm-1.3-.4.7.2v-.1a35.1 35.1 0 0 1-.6-.2c-.1 0 0 0 0 0ZM22 62l.6.2h.1L22 62H22Zm-1.2-.6a27.3 27.3 0 0 0 .7.3 34.2 34.2 0 0 1-.7-.4v.1Zm-1.2-.5.6.3v-.1a34.3 34.3 0 0 1-.5-.3Zm-1.2-.7.6.3a31.7 31.7 0 0 1-.5-.4v.1Zm-1.1-.7a33 33 0 0 0 .6.4v-.1a33.7 33.7 0 0 1-.5-.3h-.1Zm-1.1-.7a35.3 35.3 0 0 0 .6.4v-.1l-.5-.4-.1.1Zm-1-.8c0 .2.3.3.4.4h.1a6.2 6.2 0 0 1-.5-.5v.1Zm-1-1a6.7 6.7 0 0 0 .5.5 6.1 6.1 0 0 1-.3-.6h-.1v.1Zm-.6-1.2.3.6h.1a5.9 5.9 0 0 1-.3-.6Zm-.4-1.2.2.6h.1a5.7 5.7 0 0 1-.1-.7h-.1Zm0-1.4a6.5 6.5 0 0 0 0 .7 6.4 6.4 0 0 1 0-.7Zm.2-1.3a8.7 8.7 0 0 0-.2.7h.1l.2-.7h-.1Zm.3-1.3a13.8 13.8 0 0 0-.1.7l.2-.6Zm.5-1.2-.2.6.3-.6h-.1Zm.5-1.2-.3.6h.2l.2-.6h-.1Zm-.2-1.2.3.6h.1a23.4 23.4 0 0 1-.4-.6Zm-.7-1.1.3.6v-.1a24 24 0 0 1-.2-.6h-.1ZM55 48l-.1-.4.1-.2-.2.2v.4h.1ZM55.1 47.3a20 20 0 0 0 .4-.5h-.1a21.5 21.5 0 0 1-.4.5h.1Zm.6-.8.1-.3V46l-.2.3Zm.3-.6.2-.3.1-.3v-.1l-.2.3-.2.3h.1Zm1.6-3.5.3-.6v-.1h-.1a28.6 28.6 0 0 1-.2.7Zm-.4 1.1.2-.5c-.2.1-.3.3-.3.5Zm-.6 1.2.3-.6h-.1l-.3.6h.1Zm1.5-3.6v-.3l.1-.3-.2.3h.1a19.8 19.8 0 0 1-.1.4Zm.3-1v-.5a22.6 22.6 0 0 1 0 .5Zm.2-1v-.5.1l.2-.4v-.4l-.1.3-.1.5v.1l-.1.3v.1Zm.5-6a24.7 24.7 0 0 0 0-.7H59a24.3 24.3 0 0 1 0 .7h.1Zm0 1.4v-.7.7Zm0 1.4v-.7a23.2 23.2 0 0 1-.1.6Zm-.2 1.3.1-.7H59v.7Zm.1-5.5v-.3a39 39 0 0 0 .6-.2V31a72 72 0 0 1-.7.2v.4h.1Zm1.3-.8.3-.1.3-.1v-.1h-.3v.1l-.3.1v.1Zm5.7-3 .5-.4v-.1h-.1a8.3 8.3 0 0 1-.4.4Zm-1 .7h.1v-.1l.4-.2v-.1l-.4.2-.2.1v.1Zm-1.2.7.3-.2.3-.1v-.1l-.3.1-.3.2Zm-1.1.6.6-.3v-.1l-.7.3Zm-1.2.5.6-.3-.6.2v.1ZM67 27v-.1l.2-.2-.2-.1v.1h.2l.2-.2-.1-.1a6 6 0 0 1-.2.2H67v.1h.1a4.3 4.3 0 0 1-.2.1v.1c0 .1 0 .1 0 0Zm1.2-2.2v-.6l-.2.5v.1h.2Zm-.5 1.1.3-.5h-.1l-.3.5Z" fill="#193248"/><path d="M65.2 23.7v-.2a1.4 1.4 0 0 0 0-.1v-.2H65V23a1.8 1.8 0 0 0-.2-.3 1.7 1.7 0 0 0-.4-.4 2.7 2.7 0 0 0-.2-.1l-.1-.1a2.9 2.9 0 0 0-.1 0H64a3.2 3.2 0 0 0-.7-.3 5 5 0 0 0-.5 0 10.4 10.4 0 0 0-1.1-.1h-1.3a34.1 34.1 0 0 0-2.4.4h-.8l-.3.1h-.2l-.2.1h-.1l-.4.1h-.1l-.5.1-.5.1a90.5 90.5 0 0 0-2 .4 24.2 24.2 0 0 0-.1-.3 21.9 21.9 0 0 0-.3-.4l-.2-.3a23.5 23.5 0 0 0-.2-.3v-.1a21.3 21.3 0 0 0-3.4-3.6 21.2 21.2 0 0 0-9-4.6l-2.8-8c-.4-1.1-1.2-1.8-2-1.8-1 0-1.7.7-2 1.7l-2.9 8a21.2 21.2 0 0 0-15 13.4 21 21 0 0 0-1.3 6.4 21.8 21.8 0 0 0 0 1v.1a91.3 91.3 0 0 0-1.4.5 66.7 66.7 0 0 0-4.5 1.8l-.1.1-.3.1-.2.1-.1.1a20.6 20.6 0 0 0-1.2.7 9.1 9.1 0 0 0-.9.6 6 6 0 0 0-.3.3l-.3.3-.1.1a2 2 0 0 0-.1.2l-.2.4a2.4 2.4 0 0 0-.3.6 1.9 1.9 0 0 0 0 .5v.1l.1.2a1.1 1.1 0 0 0 .1.3 2 2 0 0 0 .3.3 2.3 2.3 0 0 0 .7.6 3.4 3.4 0 0 0 1 .3l1.7.1a18.7 18.7 0 0 0 1.2 0H9.7l1.4-.2h.2a66.2 66.2 0 0 0 3.8-.7 21.2 21.2 0 0 0 3.2 5.5l-1.8 5.4a3.1 3.1 0 0 0 1.1 3.6 30 30 0 0 0 6.2 3.3 30 30 0 0 0 11 2.1 30 30 0 0 0 17.3-5.4l.3-.3.1-.1.1-.1.1-.1.1-.1a2.8 2.8 0 0 0 0-.1 3.1 3.1 0 0 0 .1-.1l.1-.1v-.2h.1v-.2l.1-.1v-.1a3.1 3.1 0 0 0 0-2l-1.8-5.4.2-.3.2-.2v-.1l.1-.1v-.1l.2-.1V46l.1-.1v-.1l.2-.1v-.1l.1-.1v-.1l.1-.2h.1V45h.1l.1-.2a40.4 40.4 0 0 1 .1-.2 19 19 0 0 0 .2-.3v-.1l.1-.1.1-.1V44l.1-.2.2-.2v-.3h.1l.2-.4.1-.3a38.4 38.4 0 0 0 .1-.2l.1-.2V42l.1-.2.1-.2.1-.2v-.1l.1-.2V41l.1-.1v-.1l.1-.1v-.2l.1-.2v-.1l.1-.2v-.2l.1-.1v-.2l.1-.2V39h.1l.1-.6V38l.1-.2V37.5l.1-.2a23.4 23.4 0 0 0 0-.3v-.2h.1a9.5 9.5 0 0 0 0-.3v-.4l.1-.2V34.4l.1-.2v-.1a23.6 23.6 0 0 0 0-.6 21.2 21.2 0 0 0-.5-4.3l.3-.1 1-.4a73.8 73.8 0 0 0 5.7-2.4l.4-.2h.2V26l.3-.1a6.8 6.8 0 0 0 1-.7V25l.1-.1.1-.1v-.1a2.8 2.8 0 0 0 .4-.5V24l.1-.2v-.2Z" fill="#193248"/><path d="M65.2 23.7h2.5-2.5l2.5.1a4.9 4.9 0 0 0 0-.3v-.2a3.9 3.9 0 0 0 0-.3l-2.5.4 2.5-.3v-.3l-.1-.2v-.3l-.2-.2-2.3 1 2.4-.8v-.1l-.1-.2a4.2 4.2 0 0 0-.2-.3 4.2 4.2 0 0 0-1.2-1.4v-.1h-.1a5.6 5.6 0 0 0-.2-.2h-.2l-.2-.1-.2-.1a7.2 7.2 0 0 0-.1-.1 5.9 5.9 0 0 0-.5-.2 5.6 5.6 0 0 0-.2 0 6.6 6.6 0 0 0-.2-.1 6.5 6.5 0 0 0-.3 0h-.1l-.3-.1-.4 2.5.4-2.5h-.3a13 13 0 0 0-1.4-.1H60.2l-1.7.2a46.7 46.7 0 0 0-1.4.2H56.8l-.3.1h-.3l-.1.1h-.2l-.4.1h-.1l-.5.1-.5.2-1.2.2-.8.2.6 2.4 2.1-1.3L53 23l2.1-1.3-.2-.3v-.1l-.3-.4-.2-.3a23.3 23.3 0 0 0-.3-.4 22.2 22.2 0 0 0-.3-.4 23.8 23.8 0 0 0-3.4-3.7A23.7 23.7 0 0 0 40.3 11l-.6 2.5 2.4-.9-2.8-8c-.3-.9-.9-1.7-1.6-2.3a4.5 4.5 0 0 0-1.3-.8 4.4 4.4 0 0 0-3 0 4.6 4.6 0 0 0-2 1.3 5.4 5.4 0 0 0-1 1.8l-2.8 8 2.4.9-.5-2.5a23.7 23.7 0 0 0-17 15 23.5 23.5 0 0 0-1.3 7 24 24 0 0 0 0 1.3h2.5-2.5 2.5l-.9-2.4a100.8 100.8 0 0 0-1.4.5l-2.3.9a46.9 46.9 0 0 0-2.3 1l-.2.1-.3.2H6l-.2.2h-.2l-.4.3-.7.4-1.1.8h-.1l-.5.5-.5.5v.1l-.1.1a4.1 4.1 0 0 0-.2.3H2a5.7 5.7 0 0 0-.3.6c-.2.5-.4 1-.4 1.4v.1l-.1.3a4 4 0 0 0 0 .3v.4l2.5-.2-2.5.2v.3l.1.2.1.4 2.4-.8-2.4.8.2.5L3.9 41l-2.3 1v.2l.2.2.2.4.2.3 1.1.9.5.3.8.3 1 .2 2 .2h1.7l.3-.1h.3l1.5-.2H11.7a68.7 68.7 0 0 0 3.9-.7l-.5-2.5.5 2.5-.4-2.5-2.4 1a23.7 23.7 0 0 0 3.6 6v.1l2-1.6-2.5-.8-1.8 5.4a5.6 5.6 0 0 0 0 4 5.6 5.6 0 0 0 2 2.5 32.6 32.6 0 0 0 6 3.3A32.5 32.5 0 0 0 34.9 64c2.6 0 5.1-.3 7.5-.8a32.5 32.5 0 0 0 7-2.5 32.8 32.8 0 0 0 4.2-2.5l.7-.6-1.7-1.8 1.8 1.7.1-.1.1-.1.1-.2.1-.1h.1v-.2h.1v-.1h.1l.1-.2v-.1h.1v-.2l.1-.1V56h.1v-.2l.1-.1v-.1l.1-.2v-.1a5.6 5.6 0 0 0 0-3.6l-1.8-5.4-2.4.8 2 1.6.3-.4.1-.2.2-.2v-.1l.1-.2h.1l.1-.2.2-.2V47l.1-.1v-.1l.2-.2.1-.2v-.1l.2-.1v-.1l.1-.2.2-.2v-.1l.1-.2.1-.2v-.1l.2-.2.1-.2v-.1l.2-.2.2-.6.1-.2v-.1l.1-.2.2-.2V42.9l.1-.1v-.2h.1v-.2l.1-.1V42h.1v-.3h.1v-.2l.1-.1V41.2l.1-.2.1-.2v-.1l.1-.2V40.2h.1V39.8l.1-.3.2-.6v-.4l.1-.2V38.1l.1-.2v-.1l-.8-.2.8.1h-.8.8l-2.1-.3 2.1.3-2.1-.3 2.1.3-2.4-.4 2.4.5-2.4-.5 2.4.5v-.4a24.7 24.7 0 0 0 .1-.1V36.6l.1-.2v-1l.1-.2V34.2a22.7 22.7 0 0 0 0-.7 23.7 23.7 0 0 0-.5-4.8l-2.5.5.8 2.4.4-.1a73.9 73.9 0 0 0 2.3-.9l1.4-.5A34.6 34.6 0 0 0 63 29l.7-.3.1-.1.4-.2.1-.1.2-.1.3-.2a9.5 9.5 0 0 0 1.2-1l-1.6-1.8L66 27c.2 0 .3-.2.3-.2l.1-.1.1-.1v-.1l.2-.1.5-.8.1-.3.1-.2v-.2l-2.4-.7 2 1.6.2-.3.2-.3V25l-2.3-.8 2.4.8v-.4l.1-.1v-.6l-2.4-.1-2.6-.2 2.6.2-2.6-.3 1 .1-1-.1 1 .1-1-.1 2.5.5-2.4-.6.2.1h-.3.3-.3l1.3.3-1.2-.4 1.2.4-1.2-.4 2.4.8-2.4-.9v.1l.6.2-.6-.2.6.2-.6-.2 1.2.5-1.2-.5 1.2.5-1.2-.5 2.3 1-2-1.6-.3.4-.1.5 2.4.6-2.3-1 2.2 1.2-2.2-1.2.2.2-.2-.2.2.2-.2-.2v.1l2 1.6-2-1.7v.1h-.1l1.3 1.3-1.2-1.3h-.1l1.3 1.3-1.2-1.3h-.1l-.3.3a5 5 0 0 1-.2.2h-.2l-.1.1-.1.1-.4.2-.6.3-2.2 1-1.2.5-1.3.5-1 .3-.3.1-2.2.7.5 2.3c.3 1.2.5 2.5.5 3.8a21.7 21.7 0 0 1 0 .5 30.3 30.3 0 0 1 0 .2V35.4l-.1.2v.7l-.1.2v.4l2.4.4-2.5-.4V37.3a7 7 0 0 1 0 .2v.2l-.1.1v.2l-.2.5v.4l-.1.2v.2h-.1V39.6l-.1.1v.1l-.1.2v.2h-.1v.2l-.1.2-.1.2v.2H52v.2H52V41.5l-.2.1V41.8l-.3.4v.2l-.2.2v.2h-.1a6.6 6.6 0 0 1 0 .2H51v.2H51v.1l-.1.1-.1.1v.1l-.1.1v.1l-.1.1-.2.2v.2h-.1l-.1.2-.1.1v.1l-.2.1v.2h-.1l-.1.2-.3.3-.9 1.2 2.3 6.6a.6.6 0 0 1 0 .4l2.4.9-2.4-.9 2.4 1-2.4-1v.1l2.2 1.3-2.2-1.3 2 1.4-2-1.4.5.5-.5-.4.5.4-.5-.4 2 1.5-2-1.5 1.9 1.6-2-1.6 2 1.7-2-1.7 1.8 1.8-1.8-1.8.3.3-.3-.2.3.2-.3-.2 1.8 1.8-1.8-1.9a.6.6 0 0 1 0 .1 27.4 27.4 0 0 1-15.9 5 27.4 27.4 0 0 1-10-2 28 28 0 0 1-.7-.2 27.5 27.5 0 0 1-5-2.8.6.6 0 0 1-.2-.2.6.6 0 0 1 0-.5l2.3-6.7-.9-1a18.6 18.6 0 0 1-2.8-4.9l-.7-1.9-2.1.4a63 63 0 0 1-3.6.5H10.8l-1.3.2H8.6l-.2.1h-.8a7 7 0 0 1-1.2 0 2 2 0 0 1-.2-.1.8.8 0 0 1-.1 0H6L6 40l.2-.2-.2.2.2-.2-.5.4.5-.4-.5.4.5-.4-.4.3.4-.3-.4.3.4-.3L4 41.2 6 40l-.5.3.6-.3-.6.3.6-.3-.6.3.6-.3-.6.3.6-.3-1.7.7 1.7-.6a1.7 1.7 0 0 0 0-.1l-1.7.7 1.7-.6-.9.4 1-.3-1 .3 1-.3-.1-.1-1.7.5 1.7-.4a1.7 1.7 0 0 0 0-.2l-1.7.6 1.7-.4-1.2.3 1.2-.2-1.2.2 1.2-.2h-.5.5-.5.5l-1.8.2 1.9-.2-1.9.2 1.9-.2-1.2.1h1.2H5h1.2-.5.5-.5.5-2.6 2.6-1.4 1.4-1.4 1.4-.6.6-.6.6-.7.6-.6.6v.1L3.8 40l2.5.4H6h.2H6h.2-.1.1-.1.1l-2.2-1 2.2 1-2-1.3 2 1.4v-.1l-.7-.6.7.6-.7-.6.7.6h.1l-2-1.6 2 1.6-2-1.7 2 1.7.1-.2.2-.1-1.6-2 1.6 2 .7-.5.5-.3.3-.2h.1l.2-.1h.1l.3-.2h.1l2.2-1 2-.8a86 86 0 0 1 1.4-.5l1.7-.6V34a19 19 0 0 1 0-1 18.7 18.7 0 0 1 .4-2.8l.7-2.7a18.6 18.6 0 0 1 10.7-11 18.6 18.6 0 0 1 2.6-.8l1.4-.3 3.2-9.3a.6.6 0 0 1 0-.2l-.2-.2.2.3-.2-.3.2.3-.4-.6v.7l.4-.1-.4-.6v.7-.7l-.2.6a.7.7 0 0 0 .2 0v-.6l-.2.6.1-.4-.3.3a.5.5 0 0 0 .2.1l.1-.4-.3.3a.5.5 0 0 1 0 .2l3.3 9.3 1.4.3a18.7 18.7 0 0 1 8 4.1 18.8 18.8 0 0 1 2.7 3l.2.2.2.3.2.3.2.3c0 .2.1.2.2.3l1 1.6 1.8-.4.7-.2 1-.2h.5l.1-.1h.4l.2-.1h.3l.2-.1h.4l.2-.1h.2a48.7 48.7 0 0 1 1.4-.3l1.4-.1h1.9l.3-2.6-.3 2.6h.2v-.4.4-.4.4H63l1-2.2-1 2.3.4-.7-.4.7.4-.7-.4.7 1.2-2.3-1.2 2.2 1.3-2.1-1.3 2.1 1.3-2.1-1.3 2.1h.1l1.4-2-1.5 2 1.5-2-1.5 2 .3-.5-.4.5.4-.5-.4.5.7-.7-.8.5.1.2.7-.7-.8.5.7-.4-.7.4.7-.4-.7.4 1-.6-1 .5 1-.5-1 .5.4-.2-.5.2.5-.2-.5.2h.1l2.2-1-2.3.8V24.2l2.4-1-2.5.6 2.5-.5-2.5.5 1.2-.2-1.2.2 1.2-.2-1.2.2.6-.1-.6.1.6-.1-.6.1 1.8-.3-1.8.3 1.8-.3-1.8.3 1-.2-1 .2 1-.2-1 .2 2.5-.3-2.5.2h1.1-1 1-1l2.5-.1h-2.6.1l2.5.2Z" fill="#F4F9F1"/><path d="M65.2 23.7v-.2a1.4 1.4 0 0 0 0-.1v-.2H65V23a1.8 1.8 0 0 0-.2-.3 1.7 1.7 0 0 0-.4-.4 2.7 2.7 0 0 0-.2-.1l-.1-.1a2.9 2.9 0 0 0-.1 0H64a3.2 3.2 0 0 0-.7-.3 5 5 0 0 0-.5 0 10.4 10.4 0 0 0-1.1-.1h-1.3a34.1 34.1 0 0 0-2.4.4h-.8l-.3.1h-.2l-.2.1h-.1l-.4.1h-.1l-.5.1-.5.1a90.5 90.5 0 0 0-2 .4 24.2 24.2 0 0 0-.1-.3 21.9 21.9 0 0 0-.3-.4l-.2-.3a23.5 23.5 0 0 0-.2-.3v-.1a21.3 21.3 0 0 0-3.4-3.6 21.2 21.2 0 0 0-9-4.6l-2.8-8c-.4-1.1-1.2-1.8-2-1.8-1 0-1.7.7-2 1.7l-2.9 8a21.2 21.2 0 0 0-15 13.4 21 21 0 0 0-1.3 6.4 21.8 21.8 0 0 0 0 1v.1a91.3 91.3 0 0 0-1.4.5 66.7 66.7 0 0 0-4.5 1.8l-.1.1-.3.1-.2.1-.1.1a20.6 20.6 0 0 0-1.2.7 9.1 9.1 0 0 0-.9.6 6 6 0 0 0-.3.3l-.3.3-.1.1a2 2 0 0 0-.1.2l-.2.4a2.4 2.4 0 0 0-.3.6 1.9 1.9 0 0 0 0 .5v.1l.1.2a1.1 1.1 0 0 0 .1.3 2 2 0 0 0 .3.3 2.3 2.3 0 0 0 .7.6 3.4 3.4 0 0 0 1 .3l1.7.1a18.7 18.7 0 0 0 1.2 0H9.7l1.4-.2h.2a66.2 66.2 0 0 0 3.8-.7 21.2 21.2 0 0 0 3.2 5.5l-1.8 5.4a3.1 3.1 0 0 0 1.1 3.6 30 30 0 0 0 6.2 3.3 30 30 0 0 0 11 2.1 30 30 0 0 0 17.3-5.4l.3-.3.1-.1.1-.1.1-.1.1-.1a2.8 2.8 0 0 0 0-.1 3.1 3.1 0 0 0 .1-.1l.1-.1v-.2h.1v-.2l.1-.1v-.1a3.1 3.1 0 0 0 0-2l-1.8-5.4.2-.3.2-.2v-.1l.1-.1v-.1l.2-.1V46l.1-.1v-.1l.2-.1v-.1l.1-.1v-.1l.1-.2h.1V45h.1l.1-.2a40.4 40.4 0 0 1 .1-.2 19 19 0 0 0 .2-.3v-.1l.1-.1.1-.1V44l.1-.2.2-.2v-.3h.1l.2-.4.1-.3a38.4 38.4 0 0 0 .1-.2l.1-.2V42l.1-.2.1-.2.1-.2v-.1l.1-.2V41l.1-.1v-.1l.1-.1v-.2l.1-.2v-.1l.1-.2v-.2l.1-.1v-.2l.1-.2V39h.1l.1-.6V38l.1-.2V37.5l.1-.2a23.4 23.4 0 0 0 0-.3v-.2h.1a9.5 9.5 0 0 0 0-.3v-.4l.1-.2V34.4l.1-.2v-.1a23.6 23.6 0 0 0 0-.6 21.2 21.2 0 0 0-.5-4.3l.3-.1 1-.4a73.8 73.8 0 0 0 5.7-2.4l.4-.2h.2V26l.3-.1a6.8 6.8 0 0 0 1-.7V25l.1-.1.1-.1v-.1a2.8 2.8 0 0 0 .4-.5V24l.1-.2v-.2Z" fill="#193248"/><path d="M65.2 23.7h2-2 2v-.4a3.1 3.1 0 0 0-.1-.2l-2 .3 2-.3v-.4l-.1-.2v-.1L65 23l1.9-.6v-.2h-.1V22a3.8 3.8 0 0 0-.2-.2 3.7 3.7 0 0 0-1-1.2h-.1a4.5 4.5 0 0 0-.2-.2h-.2l-.1-.1-.2-.1a5.9 5.9 0 0 0-.1 0 5.3 5.3 0 0 0-.4-.2 5.2 5.2 0 0 0-.2 0 5.8 5.8 0 0 0-.2-.1 5.6 5.6 0 0 0-.3-.1h-.4l-.3 1.9.4-2H60.2a35.1 35.1 0 0 0-1.6.2 43.2 43.2 0 0 0-1.5.2h-.2l-.3.1h-.4l-.2.1a79.6 79.6 0 0 0-.4 0l-.1.1H55v.1l-.5.1-1.2.3-.7.1.4 2 1.6-1.1-1.6 1 1.6-1a26.7 26.7 0 0 0-.2-.3v-.1l-.2-.3-.3-.4a20.7 20.7 0 0 0-.2-.4l-.3-.4a23.3 23.3 0 0 0-3.4-3.6 23.2 23.2 0 0 0-9.9-5l-.4 1.9 1.8-.7-2.8-8c-.2-.8-.7-1.6-1.4-2.1a4 4 0 0 0-1.1-.7 3.8 3.8 0 0 0-2.7 0A4 4 0 0 0 32 3a4.9 4.9 0 0 0-1 1.7l-2.7 8 1.8.7-.4-2A23.1 23.1 0 0 0 13 26a23 23 0 0 0-1.3 7 23.3 23.3 0 0 0 0 1.2h1.9-2 2l-.7-1.8a97.9 97.9 0 0 0-1.4.5l-2.2.8-2.4 1-.2.2-.3.1h-.2l-.1.2H6l-.4.3a17.8 17.8 0 0 0-.7.4c-.4.2-.8.5-1 .8h-.1l-.5.4a6 6 0 0 0-.4.5h-.1v.1l-.1.1a3.7 3.7 0 0 0-.1.2h-.1l-.3.6-.4 1.2v.1a4 4 0 0 0 0 .3 4.3 4.3 0 0 0 0 .2V40.7l2-.1-2 .1v.3a2.6 2.6 0 0 0 .2.5l1.8-.6-1.9.6.2.4 1.8-.8-1.8.8v.1l.2.2.2.4.2.2c.2.3.6.6 1 .8l.4.3.7.3.8.2 2 .1H9.5l.4-.1a39.4 39.4 0 0 0 1.4-.2H11.7a68.5 68.5 0 0 0 3.9-.6l-.4-2 .4 2-.3-2-1.9.8a23.1 23.1 0 0 0 3.5 6l1.5-1.3-1.8-.6-1.9 5.4a5 5 0 0 0 .1 3.5 5 5 0 0 0 1.8 2.3 32 32 0 0 0 5.9 3.3 32 32 0 0 0 12.4 2.5c2.5 0 5-.3 7.4-.9a31.9 31.9 0 0 0 6.8-2.4 32.1 32.1 0 0 0 4.2-2.5l.6-.5-1.3-1.5 1.4 1.4.1-.1v-.1h.1v-.1h.1v-.1h.1v-.1l.1-.1.1-.2.1-.1V56h.1v-.2h.1v-.2l.1-.1v-.2h.1v-.2h.1V55a5 5 0 0 0 0-3.2l-1.9-5.4-1.8.6 1.5 1.2.3-.3v-.1l.2-.2.1-.2.2-.2.1-.2.1-.1v-.1l.2-.1v-.2h.1v-.2h.2v-.2l.1-.1V46l.1-.1.1-.2.2-.2v-.1l.1-.2.1-.2.2-.2v-.1l.1-.2.1-.3.3-.5.1-.3.1-.2V43l.1-.2.1-.2v-.1l.1-.2.1-.2V42l.1-.2v-.1l.1-.1v-.2l.1-.1v-.1l.1-.2.1-.2V40.6l.1-.1v-.2l.1-.3.1-.2V39.5h.1l.1-.6V38.6l.1-.1V38.2l.1-.2V37.6l-.2-.1h.3l-1.6-.2 1.6.3-1.6-.3 1.6.3-2-.4 2 .4-2-.4 2 .4v-.9l.1-.2v-.8l.1-.1V34.3a28.2 28.2 0 0 0 0-.7 23.2 23.2 0 0 0-.5-4.7l-1.9.4.6 1.9.4-.2a72.7 72.7 0 0 0 2.3-.8l1.4-.5a34.4 34.4 0 0 0 2.6-1.2l.6-.4h.1l.4-.2.2-.1.1-.1.3-.2c.2 0 .3-.2.4-.3l.8-.6-1.3-1.4 1.3 1.4.2-.2v-.1l.2-.1.1-.2a4.7 4.7 0 0 0 .5-.7v-.2h.1v-.2l.1-.1-1.9-.6 1.5 1.3.2-.3.1-.2.1-.3-1.8-.6 1.8.6.1-.3v-.1l.1-.4v-.1l-2-.1-1.9-.2 2 .2-2-.2h.6-.6.6-.6.2-.2.2-.2l2 .4-2-.5v.1l.7.2-.7-.2.7.2-.7-.2 1.9.6-1.9-.7v.1l.6.2-.6-.2.6.2-.6-.2 1.8.7-1.5-1.2-.3.3v.4l1.8.5-1.8-.8v.1l1.7 1-1.7-1a.8.8 0 0 1 0 .1H63v.1H63l.9.9-.8-.9H63l.9.9-.8-.9H63l-.4.4a5.8 5.8 0 0 1-.2.1 6.6 6.6 0 0 1-.2.1l-.1.1h-.2l-.3.3-.6.3a30.4 30.4 0 0 1-2.3 1l-1.2.5-1.3.5-1 .3-.3.1-1.7.6.4 1.8c.3 1.2.4 2.6.4 3.9a22.7 22.7 0 0 1 0 .5v2l-.1.1V37a8.7 8.7 0 0 1-.1.1l2 .3-2-.3v.5h-.1v.5h-.1l-.1.5v.2l-.1.2V39.2h-.1v.2a18.9 18.9 0 0 1-.1.2v.2l-.1.1v.2l-.1.2-.1.2v.2h-.1v.2h-.1V41.3l-.1.1v.1l-.1.1v.1l-.1.2-.1.2-.3.4V42.8l-.2.1v.2l-.1.1v.1l-.1.1v.1l-.1.1-.1.1v.1l-.1.1v.1a16.1 16.1 0 0 1-.1.1v.1l-.2.1v.2h-.1l-.1.2-.1.2-.2.2-.1.2-.1.1v.1a15 15 0 0 1-.2.1c0 .2-.2.3-.3.4l-.6.9 2.2 6.4a1.2 1.2 0 0 1 0 .7l1.8.7-1.8-.7 1.8.8-1.8-.8v.1h-.1v.1l1.6 1.1-1.6-1 .1.1-.2-.1.2.1-.2-.1v.1H51l1.4 1.4-1.4-1.4v.1l1.4 1.4-1.4-1.4a1.2 1.2 0 0 1-.2.1 28 28 0 0 1-9.6 4.3 28.3 28.3 0 0 1-16.8-1.2 27 27 0 0 1-.6-.3 28.1 28.1 0 0 1-5.1-2.8 1.2 1.2 0 0 1-.5-.5 1.2 1.2 0 0 1 0-.8l2.2-6.5-.6-.8a19.2 19.2 0 0 1-3-5l-.5-1.4-1.6.2a64.2 64.2 0 0 1-3.7.6h-.2l-1.4.2H6.4a2.5 2.5 0 0 1-.3 0 1.4 1.4 0 0 1-.2-.1l-.2-.1h-.1.2-.2.2l-1.7 1 1.7-1-.3.1.3-.1-.3.1.3-.1h-.3.3-.3.3l-1.2.4 1.2-.4-1.2.4 1.2-.4-.6.2.6-.2-.6.2.6-.2h-.1v-.1l-1.1.4 1.2-.2a1.3 1.3 0 0 0 0-.2l-1.2.4 1.2-.2-.7.1.7-.1-.7.1.7-.1v-.1l-1.3.2 1.3-.1v-.1l-1.3.2 1.3-.1H5h.6H5h.6-2 2-.8.8-.8.8-.1L3.9 40l1.9.3v-.1L4 39.5l1.7.8-1.6-1.1 1.7 1-.4-.3.4.3-.4-.3.4.3V40l-1.4-1.3 1.5 1.3.1-.2.3-.2L5 38.2l1.3 1.5.7-.5.5-.3.3-.2a6.6 6.6 0 0 1 .2 0l.1-.1.2-.1.2-.1.2-.1 2.1-1 2.2-.8a83.1 83.1 0 0 1 1.3-.5l1.4-.4v-1.4a19.7 19.7 0 0 1 0-1 19.2 19.2 0 0 1 1.1-5.8 19.2 19.2 0 0 1 13.7-12.1l1-.3 3.2-9c0-.3.1-.4.2-.4v-.1.1-.1.1-.1h-.1v.1-.1.1s.2.1.2.4l3.2 9 1 .3a19.3 19.3 0 0 1 8.3 4.2 19.3 19.3 0 0 1 2.7 3l.2.2.3.4.2.3.2.3.2.3.8 1.3 1.3-.4.8-.1 1-.3h.6l.4-.2h.2a56 56 0 0 1 .5 0l.1-.1h.5l.2-.1a48.3 48.3 0 0 1 1.4-.2l1.4-.2H62.6l.2-2-.2 2h.5l.1.1.9-1.8-.8 1.8v-.1.1-.1.1l.9-1.7-1 1.7h.1l1-1.6-1 1.7 1.2-1.6-1.2 1.6 1.2-1.6-1.2 1.6.2-.3-.2.2.2-.2-.2.2.3-.2-.3.2.3-.2-.3.2.5-.3-.5.3.5-.3-.5.3L65 23l-1.8.6v.2h.1l1.8-.7-1.9.5 2-.4-2 .4.6-.1h-.6v.1l.6-.1h-.6v.1l1.2-.2-1.2.2 1.2-.2-1.2.2 2-.3-2 .3h.7-.7.7-.7.4-.4.4-.4l2-.1h-2l2 .2Z" fill="#BC4748"/><path d="M65.2 23.7v-.2a1.4 1.4 0 0 0 0-.1v-.2H65V23a1.8 1.8 0 0 0-.2-.3 1.7 1.7 0 0 0-.4-.4 2.7 2.7 0 0 0-.2-.1l-.1-.1a2.9 2.9 0 0 0-.1 0H64a3.2 3.2 0 0 0-.7-.3 5 5 0 0 0-.5 0 10.4 10.4 0 0 0-1.1-.1h-1.3a34.1 34.1 0 0 0-2.4.4h-.8l-.3.1h-.2l-.2.1h-.1l-.4.1h-.1l-.5.1-.5.1a90.5 90.5 0 0 0-2 .4 24.2 24.2 0 0 0-.1-.3 21.9 21.9 0 0 0-.3-.4l-.2-.3a23.5 23.5 0 0 0-.2-.3v-.1a21.3 21.3 0 0 0-3.4-3.6 21.2 21.2 0 0 0-9-4.6l-2.8-8c-.4-1.1-1.2-1.8-2-1.8-1 0-1.7.7-2 1.7l-2.9 8a21.2 21.2 0 0 0-15 13.4 21 21 0 0 0-1.3 6.4 21.8 21.8 0 0 0 0 1v.1a91.3 91.3 0 0 0-1.4.5 66.7 66.7 0 0 0-4.5 1.8l-.1.1-.3.1-.2.1-.1.1a20.6 20.6 0 0 0-1.2.7 9.1 9.1 0 0 0-.9.6 6 6 0 0 0-.3.3l-.3.3-.1.1a2 2 0 0 0-.1.2l-.2.4a2.4 2.4 0 0 0-.3.6 1.9 1.9 0 0 0 0 .5v.1l.1.2a1.1 1.1 0 0 0 .1.3 2 2 0 0 0 .3.3 2.3 2.3 0 0 0 .7.6 3.4 3.4 0 0 0 1 .3l1.7.1a18.7 18.7 0 0 0 1.2 0H9.7l1.4-.2h.2a66.2 66.2 0 0 0 3.8-.7 21.2 21.2 0 0 0 3.2 5.5l-1.8 5.4a3.1 3.1 0 0 0 1.1 3.6 30 30 0 0 0 6.2 3.3 30 30 0 0 0 11 2.1 30 30 0 0 0 17.3-5.4l.3-.3.1-.1.1-.1.1-.1.1-.1a2.8 2.8 0 0 0 0-.1 3.1 3.1 0 0 0 .1-.1l.1-.1v-.2h.1v-.2l.1-.1v-.1a3.1 3.1 0 0 0 0-2l-1.8-5.4.2-.3.2-.2v-.1l.1-.1v-.1l.2-.1V46l.1-.1v-.1l.2-.1v-.1l.1-.1v-.1l.1-.2h.1V45h.1l.1-.2a40.4 40.4 0 0 1 .1-.2 19 19 0 0 0 .2-.3v-.1l.1-.1.1-.1V44l.1-.2.2-.2v-.3h.1l.2-.4.1-.3a38.4 38.4 0 0 0 .1-.2l.1-.2V42l.1-.2.1-.2.1-.2v-.1l.1-.2V41l.1-.1v-.1l.1-.1v-.2l.1-.2v-.1l.1-.2v-.2l.1-.1v-.2l.1-.2V39h.1l.1-.6V38l.1-.2V37.5l.1-.2a23.4 23.4 0 0 0 0-.3v-.2h.1a9.5 9.5 0 0 0 0-.3v-.4l.1-.2V34.4l.1-.2v-.1a23.6 23.6 0 0 0 0-.6 21.2 21.2 0 0 0-.5-4.3l.3-.1 1-.4a73.8 73.8 0 0 0 5.7-2.4l.4-.2h.2V26l.3-.1a6.8 6.8 0 0 0 1-.7V25l.1-.1.1-.1v-.1a2.8 2.8 0 0 0 .4-.5V24l.1-.2v-.2Z" fill="#193248"/><path d="M65.2 23.7h1.4-1.4 1.4V23.4a2.7 2.7 0 0 0 0-.2l-1.4.2 1.4-.2v-.5l-.1-.2-1.4.6 1.4-.4V22.4h-.1a3.2 3.2 0 0 0 0-.2 3.2 3.2 0 0 0-1-1.1h-.1a4 4 0 0 0-.2-.2H65l-.1-.1a4 4 0 0 0-.2-.1h-.1a4.8 4.8 0 0 0-.4-.2 4.3 4.3 0 0 0-.1 0 4.9 4.9 0 0 0-.2 0 5.5 5.5 0 0 0-.3-.1h-.1a4.7 4.7 0 0 0-.3-.1l-.2 1.5.3-1.5h-2.1a14 14 0 0 0-.1 0h-.2a24.8 24.8 0 0 0-.4 0h-.3c-.5 0-1 0-1.5.2a42.9 42.9 0 0 0-1.5.2 8.1 8.1 0 0 0-.1 0h-.4l-.3.1H56.1l-.4.1h-.1l-.5.2h-.5l-1.2.3-.7.2.3 1.4 1.2-.7-1.2.7 1.2-.7-.2-.4a21.4 21.4 0 0 0-.2-.4 21 21 0 0 0-.3-.3 21.2 21.2 0 0 0-.2-.4 27 27 0 0 0-.3-.4 22.8 22.8 0 0 0-3.3-3.5 22.7 22.7 0 0 0-9.7-5l-.3 1.5 1.4-.5-2.8-8c-.3-.8-.7-1.5-1.3-2a3.5 3.5 0 0 0-1-.5 3.3 3.3 0 0 0-2.3 0 3.6 3.6 0 0 0-1.4 1c-.4.4-.7.9-.9 1.4l-2.8 8 1.4.6-.3-1.5a22.6 22.6 0 0 0-16.1 14.3 22.5 22.5 0 0 0-1.4 6.8 23 23 0 0 0 0 1.2h1.5-1.5 1.5l-.5-1.4a91.4 91.4 0 0 0-1 .4l-.4.1-2.3.9-2.3 1H7l-.3.2-.1.1h-.2v.1l-.2.1-.4.2-.6.4-1 .7H4a7.3 7.3 0 0 0-.5.4 5.5 5.5 0 0 0-.4.5L3 38v.1a3.3 3.3 0 0 0-.2.1v.1a4.7 4.7 0 0 0-.3.5l-.3 1v.1a3.4 3.4 0 0 0 0 .5V40.7l1.4-.1H2.3v.3l.1.5 1.4-.5-1.4.4.1.4 1.4-.6-1.4.6v.1l.2.2.2.3a3.8 3.8 0 0 0 1 1l.4.1c.2.2.4.2.7.3l.7.2 1.9.1a24 24 0 0 0 1.3 0H9.8l1.5-.2h.2a67.7 67.7 0 0 0 4-.7l-.4-1.5.3 1.5-.2-1.5-1.4.6a22.7 22.7 0 0 0 3.4 5.8l1.1-.9-1.4-.5-1.8 5.4a4.6 4.6 0 0 0 1.7 5.3 31.6 31.6 0 0 0 5.8 3.2A31.5 31.5 0 0 0 34.8 63 31.4 31.4 0 0 0 53 57.3l.6-.4v-.1l-1-1 1 1 .1-.1.1-.1.1-.1.1-.1v-.1h.1v-.1l.1-.1.1-.2v-.1h.1v-.2h.1v-.2h.1v-.2a4.6 4.6 0 0 0 .1-.1V55a4.6 4.6 0 0 0 0-3l-1.8-5.4-1.4.5 1.1 1 .3-.4.2-.2v-.1l.1-.2h.1l.1-.2.2-.2.1-.2.1-.2.1-.1.1-.1a8.4 8.4 0 0 0 0-.1l.1-.2h.1v-.2h.1l.1-.2v-.1l.2-.2V45h.1l.1-.2v-.1l.1-.2.2-.2.1-.3.3-.5v-.3h.1V43h.1l.1-.2v-.1l.1-.2v-.1l.1-.2.1-.2v-.1l.1-.2v-.2l.1-.1v-.2h.1V41l.1-.1v-.2l.1-.2v-.1l.1-.2V39.9h.1v-.3l.1-.2v-.1l.2-.5V38.2l.1-.1v-.4l.1-.1-1.4-.3 1.4.3-1.4-.3 1.4.3V37l.1-.2V36h.1v-1.7a27 27 0 0 0 0-.7c0-1.5-.1-3-.4-4.6l-1.5.3.5 1.4.3-.1a73.2 73.2 0 0 0 2.4-.9l1.3-.5a33.9 33.9 0 0 0 2.6-1.1l.6-.4h.1l.4-.2.1-.1.2-.1.2-.2a9.1 9.1 0 0 0 1.1-.8l-1-1.1 1 1 .2-.1.1-.1.1-.1.1-.2.4-.6.2-.2v-.2l-1.4-.5 1.2 1 .1-.2v-.2l.2-.3-1.4-.4 1.4.5v-.4l.1-.4-1.4-.1-1.5-.1h1.5-1.5.1-.1.1-.1l1.4.3-1.4-.4v.1l.3.1-.3-.1.3.1-.3-.1 1.4.4-1.4-.4.2.1h-.3.3-.3l1.4.5-1.1-.9-.2.2-.1.3 1.4.4-1.3-.6v.1l1.2.7-1.3-.7a1.3 1.3 0 0 1-.1.2l-.1.1v.2-.1.1-.1l.5.6-.5-.7.5.7-.5-.7v.1h-.1l-.4.3a6.5 6.5 0 0 1-.3.2 5.7 5.7 0 0 1-.2.2h-.1l-.1.1-.3.2h-.1l-.6.3-2.3 1a46.9 46.9 0 0 1-1.3.6l-1.2.4-1 .4H55v.1l-1.4.4.3 1.4c.3 1.3.5 2.6.5 4a23.7 23.7 0 0 1 0 .5V36l-.1.1a9.8 9.8 0 0 1 0 .1v.5l-.1.2v.2l1.4.2-1.4-.2v.2l-.1.1v.5l-.1.2-.1.5-.1.2V39.1l-.1.2v.2h-.1V39.9l-.1.2-.1.2v.2l-.1.1v.2l-.1.2-.1.2-.1.2-.1.2-.1.2v.1l-.1.2a13.3 13.3 0 0 1-.1.2l-.2.4-.1.3-.1.2-.1.2-.2.2v.2h-.1v.2h-.1l-.1.2-.1.2-.2.2a14.6 14.6 0 0 1 0 .2h-.1l-.1.2-.1.1-.1.1v.1l-.1.1-.1.1v.1a16.6 16.6 0 0 1-.2.1l-.1.2-.3.4-.5.6 2.1 6.2a1.6 1.6 0 0 1 0 1l1.4.6-1.4-.5 1.4.6-1.4-.6v.2h-.1v.1l1.2.8-1.2-.8h-.1v.2h-.1l1 1-1-1v.1c-.2 0-.2.1-.3.2A28.5 28.5 0 0 1 34.8 60a28.5 28.5 0 0 1-11-2.2 28.6 28.6 0 0 1-5.3-3 1.7 1.7 0 0 1-.6-1.8l2.1-6.2-.5-.6a19.7 19.7 0 0 1-3-5V41l-.4-1.1-1.2.2a65 65 0 0 1-3.7.6H10.9l-1.3.2H6.2a2.9 2.9 0 0 1-.3-.1 1.9 1.9 0 0 1-.3-.1 1.1 1.1 0 0 1-.1 0 .8.8 0 0 1-.2-.2v-.1l-1.3.7 1.2-.7-.7.2.7-.2-.7.2.7-.2v-.1l-.7.2.7-.1v-.1l-.7.2.7-.1H5h.2H5h.2v-.1h-.1.1-.1.1l-.9.1h1v-.1l-1 .1h1H5h.2H5h.2v-.1H3.7h1.5-.4.4-.4.4v-.1l-1.4-.2 1.4.2a.8.8 0 0 1 .1-.2L4 39.5l1.3.6V40l-1.2-.8 1.3.9v-.1l-.1-.1h.1-.1.2l-1.1-1 1.1 1a2.6 2.6 0 0 1 .2-.2 4.5 4.5 0 0 1 .3-.2l-1-1.2 1 1.1.7-.5.6-.3.3-.2h.2l.1-.1.2-.1.2-.1.2-.1a67.6 67.6 0 0 1 4.3-1.8 96.2 96.2 0 0 1 1.4-.5l1-.4v-1a19.9 19.9 0 0 1 0-1 19.8 19.8 0 0 1 .4-3c.1-1 .4-2 .8-3a19.7 19.7 0 0 1 14-12.4l.8-.2 3-8.8.4-.6a.5.5 0 0 1 .1 0 .3.3 0 0 1 .3 0l.2.1.3.5 3 8.8.8.2a19.7 19.7 0 0 1 8.5 4.3 19.8 19.8 0 0 1 2.8 3l.2.4.3.3c0 .2.1.2.2.3l.2.3v.1l.2.3.6 1 1-.3.8-.2 1-.2.5-.1h.1l.4-.1h.2l.4-.1h.2l.3-.1h.4l.1-.1a41 41 0 0 1 1.4-.2l1.4-.2h2.2v-1.5 1.5H63l.2.1h.2v.1l.7-1.4-.6 1.4.7-1.3-.7 1.3.8-1.2-.7 1.2.9-1.1-1 1.2h.1l.9-1.2-.9 1.2h.3-.2.2-.2l1.4-.5-1.5.5.1.1v.1l1.4-.6-1.4.4 1.4-.3-1.4.3h.1-.1.1-.1.7-.7.7-.7l1.4-.2-1.4.2h.2-.2.2-.2 1.5-1.5l1.5.2Z" fill="#193248"/><path d="M36.5 27.8h.3l1-.2c.7-.2 1.9-.5 3.4-.7a248.7 248.7 0 0 1 9-1.6A191 191 0 0 1 61 24H61.7a.2.2 0 0 1 .2.1v.1a.4.4 0 0 1-.1 0l-.2.2h-.2a24 24 0 0 1-2.7 1.6 92.2 92.2 0 0 1-3.7 1.8l-.6.3-.6.3a84.5 84.5 0 0 1-8.1 3.2 105.8 105.8 0 0 1-5.8 1.7 134.2 134.2 0 0 1-6 1.5L27.7 36l-6 1.2a181.7 181.7 0 0 1-12.3 2l-.4.1a1.8 1.8 0 0 1-.3 0 .8.8 0 0 1-.2 0 .4.4 0 0 1 0-.2 1.6 1.6 0 0 1 .2-.1H9V39a51.4 51.4 0 0 1 2.2-1.1 91 91 0 0 1 6-2.8 232 232 0 0 1 12-4.9l3.4-1.2 1-.3h.1a.3.3 0 0 0 .1 0h-.3l-.9.2-3.4.9a295.4 295.4 0 0 0-16.8 4.9 68.4 68.4 0 0 0-4.5 1.8l-.2.1-.2.1a18.4 18.4 0 0 0-1.5.8 9.2 9.2 0 0 0-.9.7 4.9 4.9 0 0 0-.6.6h-.1v.2L4 39a3 3 0 0 0-.2.4l-.2.6a1.9 1.9 0 0 0 0 .5v.3l.1.2a2 2 0 0 0 .3.4l.6.5.7.3c.6.2 1.3.3 2.2.3H9l.3-.1h.3l1.4-.2a74.3 74.3 0 0 0 11.4-2.2 108.4 108.4 0 0 0 5.8-1.7 175.4 175.4 0 0 0 6-2l5.9-2a637.5 637.5 0 0 1 11.3-3.8l2.7-.8 1.4-.5a144 144 0 0 0 6.3-2.5l.6-.3h.1v-.1l.3-.2h.2l.1-.2.3-.1.9-.7V25l.2-.1v-.1l.1-.1a2.5 2.5 0 0 0 .3-.6l.1-.1v-.4a1.5 1.5 0 0 0 0-.4V23a2 2 0 0 0 0-.2 1.7 1.7 0 0 0-.6-.6 1.6 1.6 0 0 0-.1-.1h-.1l-.1-.1a3.2 3.2 0 0 0-.4-.2 4 4 0 0 0-.5-.1h-.5l-1-.1H61a20 20 0 0 0-3 .3 66.6 66.6 0 0 0-4.3.8c-2.7.6-5.1 1.3-7.2 2a213.3 213.3 0 0 0-5.4 1.6l-3.4 1-.9.3-.2.1Z" fill="#F6DD4B"/><path d="M34.8 12.8c-1 0-2 0-3 .2l-.6 1.6a19.8 19.8 0 0 1 7.3 0L38 13a21.3 21.3 0 0 0-3.2-.2Z" fill="#193248"/><path d="m38 13 .5 1.6a19.7 19.7 0 0 1 12.3 7.8v.1l.3.3.2.3.2.3L53 23a22.1 22.1 0 0 0-.2-.3l-.3-.4a20.4 20.4 0 0 0-.2-.3l-.2-.4a21.3 21.3 0 0 0-3.3-3.6A21.2 21.2 0 0 0 38 13Zm-6.3 0A21.2 21.2 0 0 0 15 26.7a21 21 0 0 0-1.2 6.4 21.8 21.8 0 0 0 0 1l1.5-.4a20 20 0 0 1 .3-3.6l.8-2.9a19.7 19.7 0 0 1 14.9-12.6l.5-1.6ZM54 24.7l-1.5.2v.3l.2.3.2.4a21 21 0 0 1 .2.4l.1.3.2.4.1.4.1.3v.1l.1.1v.1a66.5 66.5 0 0 1 .1.3v.1l.9-.3.4-.2.1-.1V27.4l-.1-.2a24 24 0 0 0-.2-.4l-.1-.4a22 22 0 0 0-.2-.4l-.1-.4a19.6 19.6 0 0 0-.2-.4 19.3 19.3 0 0 0-.2-.4v-.2Z" fill="#193248"/><path d="m54.6 28-.9.3v.1l.7-.3h.2ZM20 46.9l-.5 1.6c.8 1 1.7 1.7 2.7 2.5l.2.2.3.2.3.2.3.2.3.2.3.1.3.2.3.2.3.2h.1l.3.1.3.2.3.1.3.2.3.1h.1l.3.2.3.1h.1l.2.1.3.1.3.2h.4l.2.1h.1l.2.1.3.1.4.1h.3v.1h.3l.3.1.3.1h.4a18 18 0 0 0 .3.1H31.8l.3.1a32.7 32.7 0 0 0 .6 0h.2a19.8 19.8 0 0 0 1.4.2 40 40 0 0 0 .5 0H35.5a9.8 9.8 0 0 0 .2 0H36.5l.1-.1a19 19 0 0 0 .3 0H37.2a10.9 10.9 0 0 0 .3 0 11 11 0 0 0 .2-.1h.5v-.1h.2a9.2 9.2 0 0 0 .3 0l.1-.1h.4l.1-.1H39.6l.2-.1.6-.2h.3l.2-.1H41.2V54h.2l.1-.1h.2l.2-.1h.1l.2-.1.2-.1h.1a19.2 19.2 0 0 0 .3-.2h.2l.2-.1.2-.1h.1l.2-.1.2-.2H44.2v-.1l.2-.1.3-.1.5-.3.2-.1.2-.2h.1l.2-.1.2-.1v-.1h.2v-.1l.2-.1h.1l.1-.2h.1l.2-.1.2-.2.2-.1.2-.2a12.3 12.3 0 0 0 .2-.1v-.1l.2-.1.2-.2.2-.1.1-.1.1-.1.2-.2.5-.4.2-.2.7-.7-.5-1.6-1.2 1.2-.2.2-.4.3-.2.2-.2.2-.1.1h-.1l-.1.2H47l-.1.1h-.1l-.1.2h-.1a8.7 8.7 0 0 1-.1.1h-.1a8.4 8.4 0 0 1-.1.2h-.1l-.1.1H46l-.1.1-.1.1h-.1l-.1.1-.1.1h-.1a9.3 9.3 0 0 1-.1.2h-.2l-.1.1-.2.1-.2.1-.2.2-.5.2-.2.1-.2.2h-.2l-.1.1H43v.1h-.2v.1a11.6 11.6 0 0 1-.3.1h-.1l-.1.1h-.2a9.4 9.4 0 0 1 0 .1H42a9.4 9.4 0 0 0-.1 0l-.1.1h-.1a9.4 9.4 0 0 1-.2.1l-.2.1h-.2l-.1.1h-.2v.1H40.4l-.2.1H40v.1l-.6.1h-.2l-.1.1H39a9.7 9.7 0 0 1-.2.1H38.5a8.2 8.2 0 0 1-.2 0l-.1.1h-.5l-.2.1a9.3 9.3 0 0 1-.2 0H37a9 9 0 0 1-.2.1h-.1a10.7 10.7 0 0 1-.2 0H35.2a22.8 22.8 0 0 1-1.1 0 19.8 19.8 0 0 1-.8 0h-.2a34.8 34.8 0 0 1-.5 0h-.3l-.3-.1a17 17 0 0 1-.2 0h-.1l-.2-.1H31l-.3-.1a16.5 16.5 0 0 1-.2 0h-.1l-.2-.1h-.1L30 53h-.3v-.1a26.1 26.1 0 0 1-.3 0 11.2 11.2 0 0 1-.3-.1l-.2-.1h-.1a16.5 16.5 0 0 1-.3-.1l-.2-.1h-.1a19.7 19.7 0 0 1-.2-.1l-.3-.1a24.2 24.2 0 0 1-.3-.2 17 17 0 0 1-.3 0V52l-.3-.1a18.4 18.4 0 0 1-.3-.2l-.3-.1c-.2 0-.2-.1-.3-.2a20 20 0 0 1-.3-.1l-.3-.2-.3-.1a23 23 0 0 1-.3-.2 21.1 21.1 0 0 1-.3-.2 20.5 20.5 0 0 1-.2-.1l-.3-.2a16.5 16.5 0 0 1-.3-.2l-.2-.2h-.1l-.2-.2a20 20 0 0 1-3-2.9Zm-3.4-5.4-1.5.3a21.3 21.3 0 0 0 4.4 6.7l.5-1.6a19.8 19.8 0 0 1-3.4-5.4Zm39-12-1.4.4a19.7 19.7 0 0 1 .3 4.4V34.6a79.7 79.7 0 0 0 0 .4v1.3l-.1.2v.5l-.1.2V37.4l-.1.2V38l-.1.2-.1.5v.2l-.1.1a18.7 18.7 0 0 1 0 .2l-.1.2V39.7l-.1.1v.1l-.1.2v.2h-.1a15.5 15.5 0 0 1 0 .3l-.1.1v.1l-.1.2-.1.2v.2H53v.2l-.1.1v.1l-.1.1v.2h-.1v.2h-.1l-.2.5-.1.2-.1.2-.1.2-.1.2-.2.2v.2h-.1a8.4 8.4 0 0 1 0 .2h-.1l-.1.2a17 17 0 0 1-.3.4v.2h-.1l-.1.2-.2.2v.1l-.1.1-.1.1v.1l-.2.1-.3.4-.1.2-.4.5.5 1.6 1-1v-.1l.1-.2.4-.4.1-.2.2-.2.1-.2.2-.2v-.2l.1-.1.1-.1v-.1l.2-.1v-.1a15.2 15.2 0 0 0 .2-.2v-.2l.2-.2v-.2h.1l.1-.2.1-.2V44l.2-.2v-.2h.1l.1-.2.2-.5.2-.3v-.2l.2-.2V41.9a20.3 20.3 0 0 0 .3-.7 15.7 15.7 0 0 0 .1-.3l.1-.1v-.1a11.2 11.2 0 0 0 .2-.4V40l.1-.2V39.5h.1V39.2l.1-.2.1-.5V38.2l.1-.1v-.4l.1-.1v-.2a10.3 10.3 0 0 0 0-.3l.1-.2v-.2a10.4 10.4 0 0 0 0-.3l.1-.1v-1.2l.1-.1V34.2a23.6 23.6 0 0 0 0-.6 21 21 0 0 0-.5-4.3Zm-40.3 6.5-1.5.6.4 2.2 1.5-.2a19.6 19.6 0 0 1-.4-2.6Z" fill="#193248"/><path d="m15.7 38.5-1.5.2a20.8 20.8 0 0 0 1 3l1.4-.3a19.4 19.4 0 0 1-1-3Zm-.5-4.8-1.5.5.1 2.3 1.5-.6a19.8 19.8 0 0 1-.1-2.2Zm40-5.9H55l-.4.3h-.2a852 852 0 0 0-.6.3 5.2 5.2 0 0 1 0 .2v.2a14.9 14.9 0 0 1 .2.4v.2l.1.4h.1l1.3-.5V29a7 7 0 0 0-.2-.5V28l-.1-.1a7.4 7.4 0 0 0 0-.2ZM53 23l-1.5.4.2.4.2.3.2.3v.1l.2.3v.1l1.6-.2a24.2 24.2 0 0 0 0-.2 21.4 21.4 0 0 0-.3-.3 22.9 22.9 0 0 0-.2-.4 20.8 20.8 0 0 0-.2-.4L53 23Z" fill="#E9DD6A"/><path d="M34.8 14.3c-1.2 0-2.4 0-3.6.3l-.8.2a19.7 19.7 0 0 0-14.8 15.3 19.6 19.6 0 0 0-.4 3 19.7 19.7 0 0 0 0 .6l1-.4a18.7 18.7 0 0 1 31-13.4 18.8 18.8 0 0 1 3.3 3.7l1-.2-.2-.2a18.5 18.5 0 0 0-.2-.4 20 20 0 0 0-.2-.3 20.1 20.1 0 0 0-.3-.3 19.8 19.8 0 0 0-2.8-3 19.7 19.7 0 0 0-8.5-4.4l-.8-.2a19.7 19.7 0 0 0-3.7-.3Z" fill="#5E697B"/><path d="m38.5 14.6.8.2a19.7 19.7 0 0 1 8.5 4.3 19.8 19.8 0 0 1 2.8 3l.2.4.2.3.3.3.1.3-.1-.3-.2-.3-.2-.3a19.8 19.8 0 0 0-3.1-3.4 19.7 19.7 0 0 0-9.3-4.5Zm-7.3 0a19.7 19.7 0 0 0-14.9 12.6 19.5 19.5 0 0 0-1.1 6v.5a20 20 0 0 1 0-1 19.5 19.5 0 0 1 1.2-5.5 19.7 19.7 0 0 1 14-12.4l.8-.2ZM54 29.8l-1 .3.4 2V33.9c0 5-1.8 9.4-4.9 12.7a18.7 18.7 0 0 1-13.8 6h-1.3a.6.6 0 0 0-.1 0h-.2a18.6 18.6 0 0 1-9.5-3.7 18.7 18.7 0 0 1-6.1-7.7l-.9.2a19.7 19.7 0 0 0 2.8 4.8l.5.6a19.7 19.7 0 0 0 3 2.9l.3.2.3.1.3.2.2.2.3.2.3.2.3.1.3.2.2.2h.1l.2.1c.2 0 .2.1.3.2h.1l.2.1.4.2h.2l.1.1.2.1.4.1.2.1h.1l.2.1.3.1.3.1.2.1h.1l.2.1H29.6v.1h.4l.2.1h.1l.2.1h.3l.3.1h.3v.1h.6l.3.1h.3a15.8 15.8 0 0 0 .5.1h.5a20 20 0 0 0 .7 0h.3a21.5 21.5 0 0 0 .5 0H37.5l.2-.1a11.2 11.2 0 0 0 .5 0v-.1h.5v-.1h.5V53h.3l.5-.2h.3l.2-.1.2-.1H41v-.1H41.4l.1-.1h.1l.2-.1.2-.1h.1l.1-.1h.1l.2-.1a29.5 29.5 0 0 0 .2 0V52h.2l.1-.1h.2v-.1l.2-.1.2-.1.2-.1h.1l.2-.1.5-.3.2-.1.2-.1.2-.2.2-.1.2-.1.2-.2.2-.1.2-.1V50h.2v-.1a10.8 10.8 0 0 0 .4-.3 14.2 14.2 0 0 0 .2-.1l.2-.2.2-.1.2-.2.2-.1v-.1l.2-.1.4-.4.1-.2c.5-.4 1-.8 1.3-1.3l.5-.6.3-.3.1-.2.1-.2.2-.2.1-.2.1-.2.2-.2v-.2h.1l.1-.2.1-.2.2-.1v-.2l.1-.1.1-.2.1-.2.1-.2.1-.2.2-.2.2-.5V42h.1v-.2h.1v-.2h.1v-.2l.1-.1V41l.1-.2.1-.2v-.2h.1v-.2l.1-.1V40l.1-.2v-.2h.1V39.2l.1-.2v-.2h.1v-.3l.2-.5V37.5h.1V37l.1-.1v-.7l.1-.2V35.4a12.9 12.9 0 0 1 0-.1 2 2 0 0 0 0-.1V35l.1-.2v-.6a20 20 0 0 0 0-.5 19.9 19.9 0 0 0-.4-3.9ZM52.4 25l-1 .2a18.5 18.5 0 0 1 1.4 3.7l1-.4v-.1l-.1-.2-.1-.2v-.2l-.2-.3-.1-.4-.2-.3v-.1a20.5 20.5 0 0 0-.1-.3l-.2-.4a18.7 18.7 0 0 0-.1-.3 18.9 18.9 0 0 0-.2-.4 15.1 15.1 0 0 0-.1-.3Z" fill="#5E697B"/><path d="M16.6 41.4c.8 2 2 3.8 3.4 5.4l-.5-.6a19.7 19.7 0 0 1-2.9-4.8Zm37.5-11.6c.2 1.3.4 2.6.4 3.9a23.7 23.7 0 0 1 0 .5V35.8a13 13 0 0 1 0 .2v.1l-.1.1a13 13 0 0 1 0 .1v.5l-.1.2v.4l-.1.1v.5l-.1.2-.1.5-.1.2V39.1l-.1.2a9 9 0 0 1 0 .2h-.1V39.9l-.1.2-.1.2v.2l-.1.1v.1l-.1.1v.2l-.1.2-.1.2-.1.2-.1.2v.1l-.1.2a24.6 24.6 0 0 1-.1.2l-.2.4-.1.3-.1.2-.1.2-.2.2v.2h-.1v.2h-.1l-.1.2-.1.2-.2.2v.2h-.1l-.1.2-.1.1-.1.1v.1l-.1.1-.1.1v.1l-.2.1-.1.2-.3.4-.5.6.3-.3.2-.2c0-.2.2-.3.3-.4l.1-.2.2-.2v-.2h.1l.1-.2.2-.2v-.1l.1-.1.1-.1v-.1l.1-.1v-.1l.2-.1V44l.1-.1.1-.1v-.1l.1-.1v-.1l.1-.1v-.1l.1-.2.2-.2v-.2l.3-.5.1-.2v-.2h.1v-.2h.1v-.2l.1-.1v-.1l.1-.1v-.2l.1-.2.1-.2a11.1 11.1 0 0 0 0-.2l.1-.1a17 17 0 0 0 0-.1V40l.1-.2.1-.2v-.2l.1-.1V39l.1-.2V38.5l.2-.5v-.4l.1-.1v-.2a16.4 16.4 0 0 0 0-.3l.1-.1v-.1a18 18 0 0 0 0-.5l.1-.2a13.9 13.9 0 0 0 0-.2v-.1a14.6 14.6 0 0 0 0-.3V35.2l.1-.1V34.2a20.4 20.4 0 0 0 0-.5 19.7 19.7 0 0 0-.4-3.9Zm-37.9 5.7-1 .4.5 2.6.5-.1h.5a18.6 18.6 0 0 1-.5-3Z" fill="#5E697B"/><path d="M16.7 38.3a126 126 0 0 1-1 .2 19.3 19.3 0 0 0 1 2.9l.9-.2a18.5 18.5 0 0 1-1-2.9Zm-.5-5-1 .4v2.2l1-.4a19 19 0 0 1 0-2.2Zm37.6-4.9-1 .4.4 1.3.9-.3v-.3l-.1-.2v-.1a19 19 0 0 0-.2-.5v-.2Zm-2.3-5-1 .2.8 1.5 1-.2-.2-.4-.2-.4s0-.2-.2-.3a18.9 18.9 0 0 0-.2-.3v-.1Z" fill="#DFDD82"/><mask id="a" style="mask-type:luminance" maskUnits="userSpaceOnUse" x="16" y="15" width="38" height="38"><path d="M53.6 34a18.7 18.7 0 1 0-37.4 0 18.7 18.7 0 0 0 37.4 0Z" fill="#fff"/></mask><g mask="url(#a)"><path d="M53.6 34a18.7 18.7 0 1 0-37.4 0 18.7 18.7 0 0 0 37.4 0Z" fill="#4E97B7"/></g><mask id="b" style="mask-type:luminance" maskUnits="userSpaceOnUse" x="16" y="15" width="38" height="38"><path d="M53.6 34a18.7 18.7 0 1 0-37.4 0 18.7 18.7 0 0 0 37.4 0Z" fill="#fff"/></mask><g mask="url(#b)"><path d="M11.5 27.7c1.3 2 7.8-2.5 13 1 2.4 1.7 3.7 4.3 5 3.8.8-.3.3-1.5 1.5-3.4 1.2-2 2.4-1.7 4.4-4.2 1-1.2 1.9-2.2 1.6-3-.5-1.3-3.3-.3-6-1.6-3.5-1.7-2.8-5.9-5-6.9-4.8-2-16.5 11.4-14.5 14.3Z" fill="#52B48D"/></g><mask id="c" style="mask-type:luminance" maskUnits="userSpaceOnUse" x="16" y="15" width="38" height="38"><path d="M53.6 34a18.7 18.7 0 1 0-37.4 0 18.7 18.7 0 0 0 37.4 0Z" fill="#fff"/></mask><g mask="url(#c)"><path d="M12.7 34.9c1-2.2 4.6-1.9 6.3-1.4 2.9.7 5 3.1 4.7 4-.4.7-2.7-.7-5.6.5-2.1.9-2.5 2.2-3.6 2-1.4-.3-2.8-3.2-1.8-5.1Z" fill="#52B48D"/></g><mask id="d" style="mask-type:luminance" maskUnits="userSpaceOnUse" x="16" y="15" width="38" height="38"><path d="M53.6 34a18.7 18.7 0 1 0-37.4 0 18.7 18.7 0 0 0 37.4 0Z" fill="#fff"/></mask><g mask="url(#d)"><path d="M30.2 54.3c-2.9-2.8-4.4-7.7-2.2-11.8 2.5-4.5 8.4-6.3 11.5-4.6 2.7 1.4 2.5 5 4 5 1.6 0 4-5 2.5-8.3-1-2.2-3.3-2.7-3-3.8.2-1.1 2.5-2.1 4-1.4 2.7 1.2 2.3 7.4 2 11.6-.4 7.3-.7 11-3.7 13.6-3.8 3.1-11 3.9-15.1-.3Z" fill="#52B48D"/></g><mask id="e" style="mask-type:luminance" maskUnits="userSpaceOnUse" x="16" y="15" width="38" height="38"><path d="M53.6 34a18.7 18.7 0 1 0-37.4 0 18.7 18.7 0 0 0 37.4 0Z" fill="#fff"/></mask><g mask="url(#e)"><path d="M45.8 13.1c-1.2 1.2 2 4 1.3 9.3-.2 1.2-.6 2.2 0 3.3.7 1.6 2.9 2.4 4.4 2.4 2.6.1 5.5-1.5 6.2-4 1-3.2-1.8-6-3.4-7.5-2.8-2.8-7.3-4.7-8.5-3.5Z" fill="#52B48D"/></g><mask id="f" style="mask-type:luminance" maskUnits="userSpaceOnUse" x="16" y="15" width="38" height="38"><path d="M53.6 34a18.7 18.7 0 1 0-37.4 0 18.7 18.7 0 0 0 37.4 0Z" fill="#fff"/></mask><g mask="url(#f)"><path d="M23.6 48.9h.1a18.7 18.7 0 0 0 4.3 2.4 11.1 11.1 0 0 1-.6-1.8 21.5 21.5 0 0 1-3.8-.6Zm26.9-21v.1a21.4 21.4 0 0 1-1.3 7.3c.1 1.9 0 4-.2 5.7l-.4 5.6a18.6 18.6 0 0 0 5-12.7v-.4a.3.3 0 0 0 0-.1v-.1a.4.4 0 0 1 0-.1v-.6h-.1V32a18.5 18.5 0 0 0-.9-4 6.1 6.1 0 0 1-1 0 6.6 6.6 0 0 1-1.1-.1Z" fill="#4E97B7"/></g><mask id="g" style="mask-type:luminance" maskUnits="userSpaceOnUse" x="16" y="15" width="38" height="38"><path d="M53.6 34a18.7 18.7 0 1 0-37.4 0 18.7 18.7 0 0 0 37.4 0Z" fill="#fff"/></mask><g mask="url(#g)"><path d="M49.2 35.3a21.6 21.6 0 0 1-21.8 14.2l.6 1.8a18.6 18.6 0 0 0 5.2 1.2H34.3l.1.1H34.7a.5.5 0 0 1 .1 0h.1a18.7 18.7 0 0 0 13.8-6l.5-5.6c0-1.8.2-3.8.1-5.7Z" fill="#52B48D"/></g><mask id="h" style="mask-type:luminance" maskUnits="userSpaceOnUse" x="16" y="15" width="38" height="38"><path d="M53.6 34a18.7 18.7 0 1 0-37.4 0 18.7 18.7 0 0 0 37.4 0Z" fill="#fff"/></mask><g mask="url(#h)"><path d="M49.8 22.8c.5 1.6.7 3.4.7 5.2a6.4 6.4 0 0 0 1.3.1h.8a18.6 18.6 0 0 0-2.8-5.3Z" fill="#52B48D"/></g><mask id="i" style="mask-type:luminance" maskUnits="userSpaceOnUse" x="16" y="15" width="38" height="38"><path d="M53.6 34a18.7 18.7 0 1 0-37.4 0 18.7 18.7 0 0 0 37.4 0Z" fill="#fff"/></mask><g mask="url(#i)"><path d="M30 22.6c7.2-2.3 13.8 1 14.2-.4.4-1.1-3.6-3.1-4.9-3.7-1.4-.6-2.7-1.2-4-.7-1.2.4-1 1.3-2.2 1.8-1.8.8-3-1-5.7-.6-1.3.2-3 .9-3.2 2-.1.6.4 1.3 1 1.7 1.5 1.1 3.8.3 4.9 0Z" fill="#F4F9F1"/></g><mask id="j" style="mask-type:luminance" maskUnits="userSpaceOnUse" x="16" y="15" width="38" height="38"><path d="M53.6 34a18.7 18.7 0 1 0-37.4 0 18.7 18.7 0 0 0 37.4 0Z" fill="#fff"/></mask><g mask="url(#j)"><path d="M15 33.1c7-2.2 13.7 1 14-.4.4-1.1-3.5-3-4.8-3.7-1.5-.6-2.7-1.2-4-.7-1.2.5-1 1.3-2.2 1.9-1.8.8-3-1-5.7-.7-1.3.2-3.1.9-3.3 2 0 .6.5 1.3 1 1.7 1.5 1.1 3.9.3 5 0Z" fill="#F4F9F1"/></g><mask id="k" style="mask-type:luminance" maskUnits="userSpaceOnUse" x="16" y="15" width="38" height="38"><path d="M53.6 34a18.7 18.7 0 1 0-37.4 0 18.7 18.7 0 0 0 37.4 0Z" fill="#fff"/></mask><g mask="url(#k)"><path d="M49.7 33.1c-7.2-2.2-13.8 1-14.2-.4-.4-1.1 3.6-3 5-3.7 1.3-.6 2.6-1.2 3.9-.7 1.2.5 1 1.3 2.2 1.9 1.8.8 3-1 5.7-.7 1.3.2 3 .9 3.3 2 0 .6-.5 1.3-1 1.7-1.5 1.1-4 .3-5 0Z" fill="#F4F9F1"/></g><mask id="l" style="mask-type:luminance" maskUnits="userSpaceOnUse" x="16" y="15" width="38" height="38"><path d="M53.6 34a18.7 18.7 0 1 0-37.4 0 18.7 18.7 0 0 0 37.4 0Z" fill="#fff"/></mask><g mask="url(#l)"><path d="M30.1 42.6c7-1 10.3.6 10.7-.6.5-1.3-2.8-4.3-4.9-3.7-1 .3-1.1 1.4-2.3 1.6-1.5.2-2-1.3-3.6-1.3-1.8 0-2.3 1.8-3.7 1.5-1.1-.1-1.1-1.1-2.3-1.3-1.3-.3-3.1.8-3.2 2-.1.8.8 1.5 1 1.7 1.8 1.6 4.6.6 8.3.1Z" fill="#F4F9F1"/></g><mask id="m" style="mask-type:luminance" maskUnits="userSpaceOnUse" x="16" y="15" width="38" height="38"><path d="M53.6 34a18.7 18.7 0 1 0-37.4 0 18.7 18.7 0 0 0 37.4 0Z" fill="#fff"/></mask><g mask="url(#m)"><path d="M40 47.7c5.3-1.7 10.3.8 10.6-.3.2-.9-2.7-2.4-3.7-2.8-1-.5-2-.9-3-.5-1 .3-.8 1-1.7 1.3-1.3.7-2.2-.7-4.3-.4-1 .1-2.3.6-2.4 1.4-.1.6.3 1 .7 1.4 1.2.8 3 .1 3.7-.1Z" fill="#F4F9F1"/></g><path d="M34.8 61.5a30 30 0 0 0 17.3-5.4 3.2 3.2 0 0 0 1.1-3.6L46 31.2l-9-25.9c-.8-2.2-3.3-2.2-4.1 0l-9 25.9-7.4 21.3a3.2 3.2 0 0 0 1.2 3.6 30 30 0 0 0 17.2 5.4Z" fill="#193248"/><mask id="n" style="mask-type:luminance" maskUnits="userSpaceOnUse" x="16" y="3" width="38" height="59"><path d="M34.8 61.5a30 30 0 0 0 17.3-5.4 3.2 3.2 0 0 0 1.1-3.6L46 31.2l-9-25.9c-.8-2.2-3.3-2.2-4.1 0l-9 25.9-7.4 21.3a3.2 3.2 0 0 0 1.2 3.6 30 30 0 0 0 17.2 5.4Z" fill="#fff"/></mask><g mask="url(#n)"><path d="m9.2 60.8 23.9-20h3.4L64 63.2 9.2 60.8Z" fill="#BC4748"/></g><path d="M45.6 41.5h.6v-3a.6.6 0 0 0-.1-.4l-1.4-1.5-.5.4.6-.3a.6.6 0 0 0-.1-.1.6.6 0 0 0-.2-.2l-.3.5.4-.4-1-1.1-.5.4.6-.2a.7.7 0 0 0-.4-.5l-.2.6.4-.4-4.5-4.9-.4.4h.6a897.7 897.7 0 0 0 0-6 370.4 370.4 0 0 0-.1-3.4 55.5 55.5 0 0 0 0-1.8c-.1-.5-.2-1.1-.6-1.8a3.4 3.4 0 0 0-1.4-1.2l-.3.5h.6v-1a5.5 5.5 0 0 0-.2-1.1l-.5-1.3a4.3 4.3 0 0 0-.7-1 2.3 2.3 0 0 0-.4-.3 1.6 1.6 0 0 0-.7-.3.6.6 0 0 0-.1 0c-.3 0-.5.1-.7.3-.3.1-.5.4-.7.7a6 6 0 0 0-.7 1.2l-.2.7-.2 1.1v1h.6l-.3-.5a3.5 3.5 0 0 0-2 3v1.8l-.1 9.4h.6l-.5-.4-4.4 4.9.4.4-.2-.6a.7.7 0 0 0-.4.5l.6.2-.5-.4-1 1.1.4.4-.3-.5a.6.6 0 0 0-.1.1.6.6 0 0 0-.2.2l.6.3-.5-.4-1.4 1.5a.6.6 0 0 0-.1.4v3a.6.6 0 0 0 .9.5l6.3-3.3a.6.6 0 0 0 .3-.4l.3-1-.6-.2v.6-.6h-.5v1.8c0 .4.1.7.4 1 .3.3.6.5 1 .5a.6.6 0 0 0 .6-.6v-.1h-.6v.6-.6h-.5a.6.6 0 0 0 .6.7h.2l-.3.8a.6.6 0 0 0 .6.8h2v-.6h-.5v.2a16.6 16.6 0 0 0 .1 2.3l.1.3.1.1a.6.6 0 0 0 .2.2.6.6 0 0 0 .2 0l.2.1h.4a.6.6 0 0 0 .1 0 .6.6 0 0 0 .2-.1.8.8 0 0 0 .2-.3l.2-.3v-.4l.2-2v-.1h-.6v.6h2.2a.6.6 0 0 0 .6-.8l-.3-.8h.2a.6.6 0 0 0 .6-.6v-.1H38v.6-.6h-.5a.6.6 0 0 0 .6.7 1.5 1.5 0 0 0 1-.5c.3-.3.4-.6.4-1V37H39l.1.6V37l-.6.2.3 1a.6.6 0 0 0 .3.4l6.3 3.3a.6.6 0 0 0 1-.5h-.7l.3-.5-6.1-3.3-.3-.8a.6.6 0 0 0-.6-.4.6.6 0 0 0-.6.6V39h.6-.6a.3.3 0 0 1 0 .2.3.3 0 0 1-.3 0v.7h.7v-.1a.6.6 0 0 0-.6-.6.6.6 0 0 0-.7.6h.6v-.5h-1a.6.6 0 0 0-.5.7l.2.9h-1.4a.6.6 0 0 0-.6.6 15 15 0 0 1-.2 2.2h.2-.2.2-.2l.5.3-.5-.3.4.2-.3-.3.3.3-.3-.3.3.3-.2-.4a.5.5 0 0 0-.1.1l.3.3-.2-.4.3.6-.2-.6.1.6v-.6h-.4v.6-.6.6-.6.6l.2-.6-.2.6.4-.5-.4.5.5-.4-.6.3.6-.3-.2.1h.2-.2.2a3.2 3.2 0 0 1 0-.5 15.6 15.6 0 0 1-.2-1.6v-.2a.6.6 0 0 0-.5-.6H33l.2-.9a.6.6 0 0 0-.5-.7h-1v.6h.6v-.1a.6.6 0 0 0-.6-.6.6.6 0 0 0-.7.6h.6v-.5a.3.3 0 0 1-.2-.1.3.3 0 0 1 0-.2h-.6.6V37a.6.6 0 0 0-.5-.6.6.6 0 0 0-.7.4l-.3.8-5.2 2.8v-1.8l1.2-1.3a.6.6 0 0 0 .1-.2l-.5-.2.4.4-.4-.5.3.5a.6.6 0 0 0 .2 0l1-1.2a.6.6 0 0 0 .1-.3l-.4-.1.1.5a.5.5 0 0 0 .3-.4l-.4-.1.1.5a.6.6 0 0 0 .3-.2l4.4-4.9a.6.6 0 0 0 .2-.4 645.3 645.3 0 0 1 .2-11.2c0-.3 0-.7.3-1.2.3-.4.7-.6 1-.8a.6.6 0 0 0 .3-.5v-1h-.6.6a4.3 4.3 0 0 1 .1-.8l.2-.5a4.8 4.8 0 0 1 .5-1l.4-.4a.4.4 0 0 1 .2 0v-.7l-.1.6a.4.4 0 0 1 .2 0c0 .1 0 .2.2.3l.4.6.5 1.1.1.9h.6-.6v.9a.6.6 0 0 0 .4.5 2.2 2.2 0 0 1 1.2 2A59 59 0 0 1 38 25v6a.6.6 0 0 0 .2.3l4.4 4.9a.6.6 0 0 0 .3.1l.1-.4-.5.1a.5.5 0 0 0 .4.4l.1-.5-.5.1.2.3 1 1.1.2.1.3-.5-.5.4.5-.3-.5.2v.2l1.3 1.3v2.8h.6Z" fill="#BC4748"/><path d="m27.7 28.2.1.6.6.2-.6.1-.1.7-.2-.7-.6-.1.6-.2.1-.6Zm13.3-.1v.4l.5.1-.4.1-.1.4-.2-.4h-.4v-.1h.4v-.1l.1-.4Zm-9.3-16v.5l.5.1-.4.1-.1.4-.1-.4h-.4v-.1h.4v-.5h.1Zm7.2 3.2v.4h.5v.1l-.4.1-.1.4-.1-.4h-.5v-.1l.4-.1.1-.4Zm-2-4.9.1.4.5.1-.5.1v.5l-.2-.4-.4-.1.4-.2.1-.4ZM25.4 32.8l.1.6.6.2-.6.1-.1.7-.2-.6-.6-.2.6-.1.1-.7Zm4-10.4v.6l.7.1-.6.2-.2.6-.1-.6-.7-.1.6-.2.2-.6Zm11.9.4v.7h.7v.1l-.6.2-.1.6-.2-.6-.6-.2.6-.1.1-.7ZM45 34l.2.6.6.1-.6.2-.2.6-.1-.6-.7-.2.7-.1.1-.7ZM35 6.7l.2 1 .9.1-.9.3-.2.9-.2-1-1-.1 1-.2.2-1Zm13.2 36.4v.7h.1l.6.1-.6.2-.1.6-.2-.6-.6-.2.6-.1.1-.7Zm-6-1.7v.6l.7.2-.6.1-.2.7-.2-.6-.6-.2.6-.1.2-.7Zm-20.3 3.1.1.6.7.2-.6.1-.2.7-.2-.7H21v-.1l.6-.2.2-.6Zm6.2-2.7.1.6.7.1-.7.2-.1.6-.2-.6-.6-.1.6-.2.2-.6Z" fill="#F4F9F1"/><path d="M32.9 41.4c-.6.6-1.7 2-2 4.1a7.7 7.7 0 0 0 3.7 7c.2-.1 4.3-2.8 4-7.1 0-2-1-3.5-1.6-4.2l-4.1.2Z" fill="#F6DD4B"/><path d="M33.7 41c-.3.4-.9 1.2-1 2.3-.3 2.5 1.8 4.2 2 4.3.1-.1 2.4-1.8 2.2-4.3 0-1.2-.6-2-.9-2.4l-2.3.1Z" fill="#F4F9F1"/><path d="M34.8 41.4h-2.6l1-3.4-1.2-2.7 2.8-.2 2.9.2-1.1 2.7.9 3.4h-2.7Z" fill="#161630"/><path d="M34.8 41.4h-2.6l1-3.4-1.2-2.7 2.8-.2 2.9.2-1.2 2.7 1 3.4h-2.7 2.7l-1-3.4 1.2-2.8-2.9-.1-2.8.1L33 38l-1 3.4h2.7Z" fill="#161630"/><path d="m31.2 30.8-7 7.7v2.8l6.1-3.2.9-2.8v-4.5Z" fill="#F8FCEF"/><path d="M31.2 30.8v-.1L24 38.5v3l6.3-3.3.9-2.9v-4.8l-.1.2-.1 4.6-.9 2.7-6 3.1v-2.5l7.1-7.7v-.1H31h.1Z" fill="#161630"/><path d="m38.5 30.8 7 7.7v2.8l-6.1-3.2-.9-2.8v-4.5Z" fill="#F8FCEF"/><path d="M38.5 30.8h-.1l7 7.8V41l-6-3-.8-2.8v-4.5h-.2v4.5l.9 2.9 6.4 3.3v-3l-7.4-8v.3h.2Z" fill="#161630"/><path d="M34.8 12.8c-1 .1-1.6 2.3-1.7 2.4l-.1 1v1a2.8 2.8 0 0 0-1.7 2.4l-.2 16 1.7-.1 2 1.3 2.1-1.3h1.6c0-8.4 0-14.7-.2-15.9 0-.3 0-.9-.4-1.5a2.8 2.8 0 0 0-1.2-1v-1a4.8 4.8 0 0 0-.1-1s-.7-2.2-1.8-2.3Z" fill="#F8FCEF"/><mask id="o" style="mask-type:luminance" maskUnits="userSpaceOnUse" x="31" y="12" width="8" height="25"><path d="M34.8 12.8c-1 .1-1.6 2.3-1.7 2.4a4.8 4.8 0 0 0-.1 1v1a2.8 2.8 0 0 0-1.7 2.4l-.2 16 1.7-.1 2 1.3 2.1-1.3h1.6c0-8.4 0-14.7-.2-15.9 0-.3 0-.9-.4-1.5a2.8 2.8 0 0 0-1.2-1v-1a4.8 4.8 0 0 0-.1-1s-.7-2.2-1.8-2.3Z" fill="#fff"/></mask><g mask="url(#o)"><path d="M34.8 12h-1l-.7 3.5V20s0 7.2 1.3 12.2l.4 1.7.5-1.7c1.2-5 1.4-12.2 1.4-12.2v-4.5l-.8-3.5h-1Z" fill="#BABCBD"/></g><mask id="p" style="mask-type:luminance" maskUnits="userSpaceOnUse" x="31" y="12" width="8" height="25"><path d="M34.8 12.8c-1 .1-1.6 2.3-1.7 2.4a4.8 4.8 0 0 0-.1 1v1a2.8 2.8 0 0 0-1.7 2.4l-.2 16 1.7-.1 2 1.3 2.1-1.3h1.6c0-8.4 0-14.7-.2-15.9 0-.3 0-.9-.4-1.5a2.8 2.8 0 0 0-1.2-1v-1a4.8 4.8 0 0 0-.1-1s-.7-2.2-1.8-2.3Z" fill="#fff"/></mask><g mask="url(#p)"><path d="m33.9 15-.8.7c0-.6.3-1.4.8-2.1h2c.3.6.6 1.2.7 1.9l-.7-.7a1.5 1.5 0 0 0-2 .1Z" fill="#161630"/></g><mask id="q" style="mask-type:luminance" maskUnits="userSpaceOnUse" x="31" y="12" width="8" height="25"><path d="M34.8 12.8c-1 .1-1.6 2.3-1.7 2.4a4.8 4.8 0 0 0-.1 1v1a2.8 2.8 0 0 0-1.7 2.4l-.2 16 1.7-.1 2 1.3 2.1-1.3h1.6c0-8.4 0-14.7-.2-15.9 0-.3 0-.9-.4-1.5a2.8 2.8 0 0 0-1.2-1v-1a4.8 4.8 0 0 0-.1-1s-.7-2.2-1.8-2.3Z" fill="#fff"/></mask><g mask="url(#q)"><path d="M31.2 32.2h2.1a.1.1 0 0 0 .1-.1.1.1 0 0 0 0-.2h-2.2a.1.1 0 1 0 0 .3Z" fill="#919395"/></g><mask id="r" style="mask-type:luminance" maskUnits="userSpaceOnUse" x="31" y="12" width="8" height="25"><path d="M34.8 12.8c-1 .1-1.6 2.3-1.7 2.4a4.8 4.8 0 0 0-.1 1v1a2.8 2.8 0 0 0-1.7 2.4l-.2 16 1.7-.1 2 1.3 2.1-1.3h1.6c0-8.4 0-14.7-.2-15.9 0-.3 0-.9-.4-1.5a2.8 2.8 0 0 0-1.2-1v-1a4.8 4.8 0 0 0-.1-1s-.7-2.2-1.8-2.3Z" fill="#fff"/></mask><g mask="url(#r)"><path d="m33.4 32 .1-10.3a.1.1 0 0 0-.1 0 .1.1 0 0 0-.1 0v10.4a.1.1 0 0 0 .1 0Z" fill="#919395"/></g><mask id="s" style="mask-type:luminance" maskUnits="userSpaceOnUse" x="31" y="12" width="8" height="25"><path d="M34.8 12.8c-1 .1-1.6 2.3-1.7 2.4a4.8 4.8 0 0 0-.1 1v1a2.8 2.8 0 0 0-1.7 2.4l-.2 16 1.7-.1 2 1.3 2.1-1.3h1.6c0-8.4 0-14.7-.2-15.9 0-.3 0-.9-.4-1.5a2.8 2.8 0 0 0-1.2-1v-1a4.8 4.8 0 0 0-.1-1s-.7-2.2-1.8-2.3Z" fill="#fff"/></mask><g mask="url(#s)"><path d="M33.4 21.6h-2.1a.1.1 0 0 0-.1.1v.1h2.2a.1.1 0 0 0 .1 0 .1.1 0 0 0-.1-.2Z" fill="#919395"/></g><mask id="t" style="mask-type:luminance" maskUnits="userSpaceOnUse" x="31" y="12" width="8" height="25"><path d="M34.8 12.8c-1 .1-1.6 2.3-1.7 2.4a4.8 4.8 0 0 0-.1 1v1a2.8 2.8 0 0 0-1.7 2.4l-.2 16 1.7-.1 2 1.3 2.1-1.3h1.6c0-8.4 0-14.7-.2-15.9 0-.3 0-.9-.4-1.5a2.8 2.8 0 0 0-1.2-1v-1a4.8 4.8 0 0 0-.1-1s-.7-2.2-1.8-2.3Z" fill="#fff"/></mask><g mask="url(#t)"><path d="M33.3 30h-2.1a.1.1 0 0 0-.1.2l2.2.1a.1.1 0 1 0 0-.2Z" fill="#919395"/></g><mask id="u" style="mask-type:luminance" maskUnits="userSpaceOnUse" x="31" y="12" width="8" height="25"><path d="M34.8 12.8c-1 .1-1.6 2.3-1.7 2.4a4.8 4.8 0 0 0-.1 1v1a2.8 2.8 0 0 0-1.7 2.4l-.2 16 1.7-.1 2 1.3 2.1-1.3h1.6c0-8.4 0-14.7-.2-15.9 0-.3 0-.9-.4-1.5a2.8 2.8 0 0 0-1.2-1v-1a4.8 4.8 0 0 0-.1-1s-.7-2.2-1.8-2.3Z" fill="#fff"/></mask><g mask="url(#u)"><path d="M33.4 27.8h-2.2a.1.1 0 1 0 0 .2h2.2a.1.1 0 1 0 0-.2Z" fill="#919395"/></g><mask id="v" style="mask-type:luminance" maskUnits="userSpaceOnUse" x="31" y="12" width="8" height="25"><path d="M34.8 12.8c-1 .1-1.6 2.3-1.7 2.4a4.8 4.8 0 0 0-.1 1v1a2.8 2.8 0 0 0-1.7 2.4l-.2 16 1.7-.1 2 1.3 2.1-1.3h1.6c0-8.4 0-14.7-.2-15.9 0-.3 0-.9-.4-1.5a2.8 2.8 0 0 0-1.2-1v-1a4.8 4.8 0 0 0-.1-1s-.7-2.2-1.8-2.3Z" fill="#fff"/></mask><g mask="url(#v)"><path d="M33.3 25.8h-2a.1.1 0 0 0-.2 0l.1.2h2.1a.1.1 0 1 0 0-.2Z" fill="#919395"/></g><mask id="w" style="mask-type:luminance" maskUnits="userSpaceOnUse" x="31" y="12" width="8" height="25"><path d="M34.8 12.8c-1 .1-1.6 2.3-1.7 2.4a4.8 4.8 0 0 0-.1 1v1a2.8 2.8 0 0 0-1.7 2.4l-.2 16 1.7-.1 2 1.3 2.1-1.3h1.6c0-8.4 0-14.7-.2-15.9 0-.3 0-.9-.4-1.5a2.8 2.8 0 0 0-1.2-1v-1a4.8 4.8 0 0 0-.1-1s-.7-2.2-1.8-2.3Z" fill="#fff"/></mask><g mask="url(#w)"><path d="M33.4 23.7h-2.1a.1.1 0 0 0-.1.1v.2h2.2a.1.1 0 1 0 0-.3Z" fill="#919395"/></g><path d="M34.8 12.8v-.1c-.3 0-.5.2-.7.4-.4.4-.6.9-.8 1.3a7.2 7.2 0 0 0-.3.8 5 5 0 0 0-.2 1v1h.2V17a2.9 2.9 0 0 0-1.3 1 3 3 0 0 0-.5 1.6l-.2 16v.1h.2l1.6-.1v-.1l2 1.4 2.2-1.3v-.1.1h1.5l.2.1v-.1c0-8.5-.2-14.8-.2-16 0-.3-.1-1-.5-1.5a2.9 2.9 0 0 0-1.2-1v-1a5 5 0 0 0-.1-1 7.4 7.4 0 0 0-.5-1.1 3.7 3.7 0 0 0-.6-.9c-.2-.2-.4-.4-.7-.4v.2c.2 0 .4.2.6.4.3.3.5.8.7 1.2l.2.7c.2.4.2.7.2 1h.1v1c.2.2.7.4 1.1 1 .4.6.4 1.1.4 1.4.1 1.2.2 7.5.2 16h.1v-.1l-1.6-.1-2 1.3-2-1.3H31v.2h.2c0-8.5 0-14.8.2-16 0-.3 0-.8.4-1.4a2.7 2.7 0 0 1 1.1-1v-1l.2-1 .5-1.1.5-.8c.2-.2.4-.4.7-.4Z" fill="#161630"/><path d="M31.7 39.7h1.1a.8.8 0 0 0 .8-.8v-4.7a.8.8 0 0 0-.2-.6L33 33a.8.8 0 0 0-1.2 0l-.6.6a.8.8 0 0 0-.2.6v4.7a.8.8 0 0 0 .8.8Z" fill="#F8FCEF"/><path d="M31.7 39.7v.1h1.1a1 1 0 0 0 1-1v-4.6a1 1 0 0 0-.3-.7l-.6-.5a1 1 0 0 0-1.3 0l-.5.5a1 1 0 0 0-.3.7v4.6c0 .6.3 1 .9 1v-.2a.7.7 0 0 1-.7-.7v-4.7a.7.7 0 0 1 .2-.5l.6-.6a.7.7 0 0 1 1 0l.5.6a.7.7 0 0 1 .2.5v4.7a.7.7 0 0 1-.7.7h-1.1Z" fill="#161630"/><path d="M38 39.7H37a.8.8 0 0 1-.8-.8v-4.7a.8.8 0 0 1 .2-.6l.5-.6a.8.8 0 0 1 1.2 0l.6.6a.8.8 0 0 1 .2.6v4.7a.8.8 0 0 1-.8.8Z" fill="#F8FCEF"/><path d="M38 39.7v-.1H37a.7.7 0 0 1-.7-.7v-4.7c0-.2 0-.4.2-.5l.5-.6a.7.7 0 0 1 1 0l.6.6.2.5v4.7a.7.7 0 0 1-.7.7v.2a1 1 0 0 0 1-1v-4.6a1 1 0 0 0-.4-.7l-.5-.5a1 1 0 0 0-1.3 0l-.6.5a1 1 0 0 0-.3.7v4.7a1 1 0 0 0 1 .9H38v-.1ZM32 33l.6.6a.8.8 0 0 1 .2.6v4.7a.8.8 0 0 1-.8.8h.8a.8.8 0 0 0 .8-.8v-4.7a.8.8 0 0 0-.2-.6L33 33a.8.8 0 0 0-1 0h.1Z" fill="#161630"/><path d="m37.7 33-.6.6a.8.8 0 0 0-.2.6v4.7a.8.8 0 0 0 .8.8H37a.8.8 0 0 1-.8-.8v-4.7a.8.8 0 0 1 .2-.6l.5-.6a.8.8 0 0 1 1 0 .8.8 0 0 0-.1 0Zm-13.5 7.4s4.7-3 5.3-4c1-1.7 1.7-4.9 1.7-4.9v2.1l-.3.4v2.2l-.6 1.9-6.1 3.2v-1Zm21.3 0s-4.7-3-5.3-4c-1-1.7-1.7-4.9-1.7-4.9v2.1l.3.4v2.2l.6 1.9 6.1 3.2v-1Z" fill="#161630"/><path d="m34.8 36.8-.3-.2-.5 1.3.3 2.6h-1.9l-.2.9H37.5l-.2-1h-2l.4-2.5-.5-1.3-.4.2Zm-10.1 2.7v-1.4a.1.1 0 0 0-.1-.1.1.1 0 0 0-.1.1v1.4a.1.1 0 0 0 .2 0Zm20.5 0v-1.4a.1.1 0 0 0-.2 0v1.4a.1.1 0 0 0 .2 0Zm-20 0v-2a.1.1 0 0 0-.3 0v1.9a.1.1 0 0 0 .2 0Zm19.6-.1v-1.8a.1.1 0 0 0-.2 0V39.5a.1.1 0 0 0 .2-.1ZM25.7 39v-2a.1.1 0 0 0-.3 0v2l.1.2a.1.1 0 0 0 .2-.2Zm18.6 0v-2a.1.1 0 0 0-.2-.1v2.2a.1.1 0 0 0 .2 0Zm-17.6-2 2.7-2.8a.1.1 0 0 0-.2-.2l-2.6 3a.1.1 0 1 0 .1 0Zm16.4 0-2.6-3a.1.1 0 0 0-.2.2L43 37h.1a.1.1 0 0 0 0-.2Z" fill="#161630"/><path d="M26.8 37v-1.2a.1.1 0 0 0-.3 0V37l.1.1a.1.1 0 0 0 .2-.1Zm16.4 0v-1.2a.1.1 0 0 0-.3 0V37l.1.1a.1.1 0 0 0 .2-.1Z" fill="#161630"/><path d="M32.3 39.4v-1.3a.1.1 0 0 0-.2 0v1.3l.1.1a.1.1 0 0 0 .1 0Zm5.3 0v-1.3a.1.1 0 0 0-.3 0v1.3l.2.1Zm-5.7 0v-1.3a.1.1 0 0 0-.2 0v1.3a.1.1 0 0 0 .2 0Zm6 0v-1.3a.1.1 0 0 0-.2 0v1.3a.1.1 0 1 0 .3 0Zm-6.4 0V38a.1.1 0 0 0-.2 0v1.3a.1.1 0 1 0 .2 0Zm7 0V38a.1.1 0 0 0-.2-.1.1.1 0 0 0-.1 0v1.4h.1a.1.1 0 0 0 .1 0Z" fill="#929496"/><path d="M31.8 23.3v-1a.1.1 0 1 0-.2 0v1a.1.1 0 0 0 .2 0Z" fill="#919395"/><path d="M36.4 18.9h-3a.6.6 0 1 1 0-1.2h3a.6.6 0 1 1 0 1.2Z" fill="#161630"/><path d="M35 43.9h-.4c-.2 0-.3-1-.3-2.3l.1-13.7v-1.7l.3-1.6c0-.9.2-.9.3 0l.2 1.6V41.5c0 1.3-.1 2.4-.3 2.4Z" fill="#F8FCEF"/><path d="M35 43.9v-.1h-.4l-.1-.8a17.8 17.8 0 0 1 0-1.3V27.9l.1-1.7.2-1.6v-.5a.5.5 0 0 1 .1 0V24h-.1l.1.6.2 1.7v15.2A17.3 17.3 0 0 1 35 43a4.1 4.1 0 0 1 0 .6.7.7 0 0 1-.1 0V44a.2.2 0 0 0 .1 0 .4.4 0 0 0 .1-.2l.2-.9V26.2l-.2-1.6a3.7 3.7 0 0 0 0-.5.7.7 0 0 0-.1-.2.2.2 0 0 0-.2 0 .3.3 0 0 0-.1 0l-.1.7-.2 1.6a17 17 0 0 0-.1 1.7v13.7a16 16 0 0 0 0 2.2.7.7 0 0 0 .1.1l.2.1h.3v-.1Z" fill="#161630"/><path d="m35.2 26.2-.2-1.6c0-.9-.2-.9-.3 0v1.6c.1.5.2 1 .1 1.7v13.6c0 1.3-.1 2.3-.3 2.4h.4c.2 0 .3-1.1.3-2.4V27.9a17 17 0 0 0 0-1.7Z" fill="#161630"/><path d="M65.2 23.3V23a2 2 0 0 0-.1-.1 1.7 1.7 0 0 0-.6-.7 1.7 1.7 0 0 0-.1-.1h-.1l-.1-.1a3.1 3.1 0 0 0-.4-.2 3.9 3.9 0 0 0-.5-.1h-.5l-1-.1H61a29.3 29.3 0 0 0-3 .3 66.3 66.3 0 0 0-4.2.8l.2.3a2.1 2.1 0 0 1 0 1.5v.1a103.1 103.1 0 0 1 4.3-.5A43.7 43.7 0 0 1 61 24H61.7a.2.2 0 0 1 .2.1v.1a.4.4 0 0 1-.1 0l-.2.2h-.2a20.7 20.7 0 0 1-2.7 1.7 92.7 92.7 0 0 1-3.7 1.8l-.6.2-.6.3a84.5 84.5 0 0 1-8.1 3.2 105.7 105.7 0 0 1-5.8 1.7 134.7 134.7 0 0 1-6 1.5L27.7 36l-6 1.2a178.9 178.9 0 0 1-12.3 2l-.4.1a2 2 0 0 1-.3 0 .8.8 0 0 1-.2 0 .4.4 0 0 1 0-.2 1.5 1.5 0 0 1 .2-.1H9V39a51.4 51.4 0 0 1 2.2-1.1 87.2 87.2 0 0 1 2.7-1.4 2.6 2.6 0 0 1-.5-.4 2 2 0 0 1-.3-1.7 68.5 68.5 0 0 0-3 1.1l-2.2 1-.2.1-.2.1-.5.3-1 .5a9.1 9.1 0 0 0-.9.7 4.8 4.8 0 0 0-.7.6v.2L4 39a3 3 0 0 0-.2.4l-.2.6a1.9 1.9 0 0 0 0 .5v.3l.1.2a2 2 0 0 0 .3.4l.6.5.7.3c.6.2 1.3.3 2.2.3H9l.3-.1h.3a38.3 38.3 0 0 0 7-1.1l5.7-1.3a108.4 108.4 0 0 0 6-1.7 175.4 175.4 0 0 0 5.9-2l5.9-2a636.4 636.4 0 0 1 11.3-3.7l2.7-1 1.4-.4a112.2 112.2 0 0 0 3.8-1.4 32.3 32.3 0 0 0 2.5-1.1l.6-.3h.1v-.1l.3-.2h.2l.1-.2.3-.1.9-.7V25l.2-.1v-.1l.1-.1a2.6 2.6 0 0 0 .3-.6l.1-.1v-.4a2.3 2.3 0 0 0 0-.2 1.3 1.3 0 0 0 0-.2Z" fill="#F6DD4B"/><path d="M22 54.7v-.1a.3.3 0 0 0-.2-.3.4.4 0 0 0-.4 0 .6.6 0 0 0-.1.3.6.6 0 0 0-.1.2.4.4 0 0 0 0 .2l.2.2h.1a.3.3 0 0 0 .2 0 .4.4 0 0 0 .1-.2l-.2-.1v-.1l.4.2v.1a.5.5 0 0 1-.2.2.4.4 0 0 1-.2 0 .5.5 0 0 1-.3 0 .5.5 0 0 1-.2-.2.5.5 0 0 1 0-.3.7.7 0 0 1 0-.3.8.8 0 0 1 .2-.2.6.6 0 0 1 .2-.1.5.5 0 0 1 .4 0 .5.5 0 0 1 .2.3.5.5 0 0 1 0 .3H22Zm.5 1.2.8-1 .1.1v1.3h-.2l.1-1.1-.8.7Zm.3-.4.5.3v.1l-.6-.3Zm1.6 1.3.5-1.1h.1l-.4 1 .5.2v.1l-.7-.2Zm1.6.6H26l.8-1.1h.1v1.3l-.1-1v-.1l-.7.9Zm.2-.5.6.2v.1l-.6-.1v-.2Zm2 0 .3.5.4-.4h.2l-.5.5.2.7h-.2l-.2-.6-.4.4h-.2l.6-.6-.3-.6h.2Zm1.9.3h.1l.3.6.4-.5h.2l-.6.7v.5h-.2V58l-.2-.8Zm3.9 1.6h-.4v-1.2h.4l.3.1a.5.5 0 0 1 .2.2v.3a.7.7 0 0 1 0 .4.5.5 0 0 1-.2.2.6.6 0 0 1-.3 0Zm-.2-.1h.2a.5.5 0 0 0 .2 0 .4.4 0 0 0 .2-.2.6.6 0 0 0 0-.3.6.6 0 0 0 0-.2.3.3 0 0 0-.1-.2.4.4 0 0 0-.3 0h-.2v.9Zm1.8-1v1.1l-.1-1.2h.1Zm1.4.2a.2.2 0 0 0 0-.2.3.3 0 0 0-.2 0 .3.3 0 0 0-.2 0 .2.2 0 0 0 0 .1.2.2 0 0 0 0 .1.2.2 0 0 0 0 .1 1 1 0 0 0 .2 0v.1H37.2a.3.3 0 0 1 .1.3.3.3 0 0 1 0 .2.3.3 0 0 1-.1.1.5.5 0 0 1-.3 0 .5.5 0 0 1-.2 0 .3.3 0 0 1-.2-.2h.1v.1a.2.2 0 0 0 .2 0 .4.4 0 0 0 .1 0 .4.4 0 0 0 .2 0 .2.2 0 0 0 .1-.2.2.2 0 0 0-.1-.1 1 1 0 0 0-.2 0h-.1a.5.5 0 0 1-.2-.2.3.3 0 0 1-.1-.2.3.3 0 0 1 0-.1.4.4 0 0 1 .2-.2.5.5 0 0 1 .2 0 .5.5 0 0 1 .2 0 .4.4 0 0 1 .1 0 .3.3 0 0 1 0 .2Zm2.3-.2H39a.3.3 0 0 0-.1-.1.3.3 0 0 0-.1 0 .4.4 0 0 0-.3 0 .4.4 0 0 0-.1.2.6.6 0 0 0 0 .3.6.6 0 0 0 0 .2.4.4 0 0 0 .2.1.4.4 0 0 0 .3 0 .3.3 0 0 0 .2-.2h.1a.4.4 0 0 1-.2.4.5.5 0 0 1-.5 0 .5.5 0 0 1-.2-.2.7.7 0 0 1 0-.3.7.7 0 0 1 0-.4.5.5 0 0 1 0-.2.5.5 0 0 1 .5-.1.5.5 0 0 1 .3.2.5.5 0 0 1 0 .1Zm1.9-.1a.7.7 0 0 1 0 .3.5.5 0 0 1-.4.4.5.5 0 0 1-.3 0 .5.5 0 0 1-.2-.2.7.7 0 0 1-.2-.3.7.7 0 0 1 0-.3.5.5 0 0 1 .4-.4.5.5 0 0 1 .5.2l.1.3Zm-.2 0a.6.6 0 0 0 0-.2.4.4 0 0 0-.5-.2.4.4 0 0 0-.1.1.4.4 0 0 0-.1.2.6.6 0 0 0 0 .3.6.6 0 0 0 0 .2.4.4 0 0 0 .2.1.4.4 0 0 0 .2 0 .4.4 0 0 0 .3-.2.6.6 0 0 0 0-.3Zm.8-.8.6.9.1-1 .1-.1v1.2h-.2l-.7-1h.1Zm2.4.5-.4-1.1.6-.3v.2l-.5.2.2.3.5-.1-.5.3.2.3.5-.2v.2l-.6.2Zm1.6-.6-.5-1 .4-.2a.5.5 0 0 1 .2 0 .3.3 0 0 1 .2 0v.2l.1.1a.3.3 0 0 1 0 .2.5.5 0 0 1-.2.2h-.4l.3-.2a.4.4 0 0 0 .1 0 .2.2 0 0 0 0-.2.3.3 0 0 0 0-.2.2.2 0 0 0-.1 0 .3.3 0 0 0-.2 0l-.2.1.4 1h-.1Zm.3-.7.5.4h-.2l-.5-.3h.2Zm.6-1h.2l.5.3v-.7h.2v.8l.2.4h-.1l-.3-.4-.7-.4Z" fill="#193248"/></svg>