<svg width="57" height="78" fill="none" xmlns="http://www.w3.org/2000/svg"><path d="m14.81 11.316 8.512 1.118c1.844.244 5.794 1.533 5.882 1.403a67.591 67.591 0 0 1 6.58-12.473c.78-1.155 1.686-1.042 2.13.28.758 4.213 1.341 8.197 1.1 11.102.181.624.682 1.321.834 1.365 4.783 1.473 9.601 2.354 14.458 2.576 1.34.384 2.925 1.095.595 2.171-3.777 2.525-7.76 4.814-11.669 6.592-.485.28-.583.572-.453 1.272l2.541 13.203c.048 1.392-.495 1.771-1.63.963l-10.648-8.873c-.128-.09-.85-.32-.998-.267l-10.79 7.09c-1.31.476-3.488-.125-1.837-4.418l5.201-8.87c.047-.15-.017-1.11-.114-1.234l-10.157-9.875c-.858-1.098-.93-3.112.462-3.125ZM1.811 21.066 6.283 23.2l3.188-2.232c.451-.315 1.027.172.79.67L8.49 25.354l2.322 3.978c.26.446-.2.965-.674.761l-4.219-1.818-3.479 1.97c-.477.27-1.003-.266-.725-.737l1.998-3.387-2.59-4.296c-.274-.455.21-.988.69-.76ZM10.11 51.365l4.472 2.134 3.188-2.232c.45-.315 1.027.172.79.67l-1.772 3.717 2.322 3.978c.26.446-.2.966-.674.761l-4.219-1.818-3.479 1.97c-.477.27-1.003-.266-.725-.737l1.998-3.387-2.59-4.296c-.273-.456.21-.989.69-.76ZM41.815 63.983l6.203 2.96 4.423-3.097c.625-.437 1.424.24 1.096.927L51.08 69.93l3.221 5.518c.361.62-.277 1.34-.935 1.056l-5.853-2.521-4.827 2.733c-.66.374-1.39-.369-1.005-1.023l2.771-4.698-3.592-5.96c-.38-.63.291-1.369.956-1.052Z" stroke="#CE4D36" stroke-miterlimit="10" stroke-linecap="round" stroke-linejoin="round"/></svg>