<svg width="1313" height="1025" fill="none" xmlns="http://www.w3.org/2000/svg"><g opacity=".3"><path d="M1313 .6H1v1024h1312V.6Z" fill="url(#a)"/><path d="M950.3 395.8C930.4 445.2 889.9 490 831 521.5c-69.6 37.3-151.7 49.2-228.5 38.3a370.4 370.4 0 0 1-88.5-23.6 317.2 317.2 0 0 1-60.3-32.4 268 268 0 0 1-50.3-44.3C361 411.3 344.3 355.2 351 301.1c2.5-20.4 8.4-40.6 17.3-59.9 21.2-45.3 60-86 114.8-115.4a345.8 345.8 0 0 1 63.5-26 389 389 0 0 1 227 1.7c53.7 17.2 101.7 46.3 137 86.4 55.7 63.3 67.1 140 39.8 208Z" fill="url(#b)"/><path opacity=".7" d="M555.4 136.1c11.4 11.2-6 36.9-38.8 57.4-32.8 20.6-68.7 28.2-80.1 17.1-11.5-11.1 5.9-36.8 38.7-57.4 32.8-20.6 68.7-28.2 80.2-17Z" fill="url(#c)"/><path opacity=".7" d="M616.7 156.6c5.2 5-2.6 16.6-17.4 25.8-14.8 9.3-31 12.7-36.1 7.7-5.2-5 2.7-16.5 17.4-25.8 14.8-9.3 31-12.7 36.1-7.7Z" fill="url(#d)"/><path opacity=".7" d="M417.1 253c8 1.9 10 14.8 4.8 29-5.3 14.3-16 24.3-23.9 22.5-7.9-1.7-10-14.7-4.8-29 5.3-14.1 16-24.2 24-22.4Z" fill="url(#e)"/><path opacity=".7" d="M730 120.6c-.8 6.8-17.8 11.2-38 9.8-20-1.4-35.8-8.1-35-15 .8-6.8 17.8-11.2 38-9.7 20 1.4 35.8 8 35 14.9Z" fill="url(#f)"/><path opacity=".7" d="M742.9 143.6c-.4 3.3-8.5 5.3-18 4.7-9.6-.7-17-3.9-16.6-7.1.4-3.2 8.4-5.3 18-4.7 9.5.7 17 3.9 16.6 7.1Z" fill="url(#g)"/><path opacity=".7" d="M823.2 158.5c5.5-4.8 21.4-.7 35.5 9.2 14.1 9.9 21.1 21.8 15.6 26.5-5.5 4.8-21.4.7-35.5-9.2-14-9.9-21-21.7-15.6-26.5Z" fill="url(#h)"/><path opacity=".7" d="M778.1 195.9c12.7-9.9 46.5.5 75.6 23.3 29.1 22.7 42.5 49 29.8 59-12.6 9.8-46.5-.6-75.6-23.3-29-22.7-42.4-49.1-29.8-59Z" fill="url(#i)"/><path d="m973.8 350.4 61.7-61.7 16.3-17.3h53.2V297l36.1 16.2 25.6-20.3 20.9-1 34.6 12.1 29.8 23.4 44.6-3.7 16.4 13.2v71H973.8v-57.5Z" fill="#FA9F80"/><path d="m551.8 370.6 44.2-43.2 44-3.7 34.7 26.7 22.3-41.7h26.2l8.6 15 51.2-15h53l56.5-46.5-22.3-35.8h84l-23.7 65.5 8.6 22.5 34.7 21.6v64h-413l-9-29.4ZM1 341.6l84.6-52.4 26.3 6.1 34.5-23.9h37.4l11.3 37.3 31 24.2 37.2-9.2 51.3-36 39.4 3.8 63 90.5v87.8H1V341.6Z" fill="#FA9F80"/><path d="M1 536.5h520.2c-70-22.6-400-227.8-400-227.8C91.8 343.9 45.9 383.3 1 418.2v118.3Z" fill="#FC7E41"/><path d="M521.1 536.5H383l-154.1-49.2 34-11.1-121-47.5 35-9.2-91.3-13 56.3-11 22.2-4-55.7-14.5 12.7-68.3s21.5 13.4 54.8 33.7l13 8c34.6 21 78.7 47.6 123.7 74.2a4911 4911 0 0 0 19 11.2c80 46.8 159.2 91 189.5 100.7Z" fill="#FAAE77"/><path d="m255.4 473 78 18.7-81.6-12 3.6-6.6ZM331.6 435.8 195.1 402l117.5 22.5 19 11.2ZM189 350.4l-50.7-17.5 37.6 9.5 13 8ZM1313 389c-76.2-45.6-139.6-85-139.6-85C1101.7 390.1 927 502.6 927 502.6c-15.3 10 51.1 21.7 51.1 21.7H1313V389Z" fill="#FC7E41"/><path d="M1313 476.8V389c-76.2-45.6-139.6-85-139.6-85l-12.2 66.1 28 3.6-14 18.7-43.7 35.6h89l-8.2 20.4 100.7 28.4Z" fill="#FAAE77"/><path d="m1313 407.8-70.6-13.5 70.6 17.4v-3.9ZM1228.2 337.7l-40.6-10.3 54.8 19-14.2-8.7ZM1141.1 415.8l-37.4 100.9-24.8.3-235 3.3-157.4-132.6 74.8-64 57 12.3 33.5 19.4 87.3-15.9 79.3-57.3 76.8 29.2v66l45.9 38.4Z" fill="#FC7E41"/><path d="m1141.1 415.8-37.4 100.9-56.4 1 32.1-55.3 12.5-58.9-26.2-7.6-13.8-18.5 12.4-25-12.4-30.8 30.8-7.2H1052l-33.5-32.2 76.8 29.2v66l45.9 38.4ZM817 371.3V358l-26.2-15.4 13.8-3h-19l-24.3-16 57 12.4 33.5 19.4-34.8 15.9Z" fill="#FAAE77"/><path d="m674.7 516.2-75.7.4-274.6 1.6s-123.3-39.4-85.3-102.4l34.1-28.1h51.2l53.1-35.4h49.2l28.2-50.1 48.2-19.5 28-11.3 21 94.3 47.8-4.1 40 49.6 34.8 105Z" fill="#FC7E41"/><path d="m674.7 516.2-75.7.4-38.4-84.4 21-21-13.8-26H531l9.9-7.8-16.4 4.6-21.4-99.3 28-11.3 21 94.2 47.8-4 40 49.6 34.8 105Z" fill="#FAAE77"/><path d="M1313 536.7H1v487.9h1312v-488Z" fill="#F9A86A"/><path d="M1 675.5h193L128.4 687h258.7l-47.5 12.3H519l-79-18.5 234.5-5.4-72-13h238l-49.7 13 209.2 13.1-55.9-13.1h187.4L1098 687h158.3l-71.6-24.6H1313v211H1v-198Z" fill="#E98C5B"/><path d="M1 826.6h193l-65.5 11.6h258.7l-47.5 12.3H519L440 832l234.5-5.4-72-13h238l-49.7 13 209.2 13.1-55.9-13.1h187.4l-33.6 11.6h158.3l-71.6-24.6h127.6l.7 211H1v-198ZM770.9 758.4 750 775.7h312.2l-43.4-14.5-248-2.8Z" fill="#E37B4B"/><path d="M1019 756.5v8H764.3V756l43.6-22.3 33.5-6.8 30.7-6.9 52.5 11.4 8.8 6.8 85.4 18.3Z" fill="#C1461A"/><path d="M1019 756.5v8H764.3V756l43.6-22.3-3.5 8.5 57.7-2-23.4 6h47.3l77.8 13.4 55-3.1Z" fill="#B13613"/><path d="M97 658.5 77.4 675h296.8L333 661.2l-235.8-2.7Z" fill="#E98C5B"/><path d="M333 656.7v7.5H91v-8l41.4-21.2 31.9-6.5 29.1-6.5 50 10.8 8.3 6.5 81.2 17.4Z" fill="#C1461A"/><path d="M333 656.7v7.5H91v-8l41.4-21.2-3.3 8.1 54.8-2-22.2 5.8h45l73.9 12.8 52.3-3Z" fill="#B13613"/><path d="m710.8 608.3 13 10.7H529.6l27-9 154.2-1.7Z" fill="#E98C5B"/><path d="M556.6 607v5h158.3v-5.2L687.8 593l-20.9-4.2-19-4.3-32.7 7.1-5.5 4.2-53.1 11.4Z" fill="#C1461A"/><path d="M556.6 607v5h158.3v-5.2L687.8 593l2.1 5.3-35.8-1.3 14.5 3.8h-29.4l-48.4 8.4-34.2-2Z" fill="#B13613"/><path d="m989.4 638-6 5.1h91.2l-12.7-4.2-72.5-.8Z" fill="#E98C5B"/><path d="M1062 637.5v2.4h-74.5v-2.5l12.8-6.5 9.8-2 9-2 15.3 3.3 2.5 2 25 5.3Z" fill="#C1461A"/><path d="M1062 637.5v2.4h-74.5v-2.5l12.8-6.5-1 2.5 16.8-.7-6.8 1.8h13.8l22.7 4 16.1-1Z" fill="#B13613"/><path d="M165.7 571.8 162 575h56l-7.7-2.6-44.6-.5Z" fill="#E98C5B"/><path d="M210.3 571.5v1.4h-45.8v-1.5l7.9-4 6-1.3 5.5-1.2 9.4 2 1.6 1.3 15.4 3.3Z" fill="#C1461A"/><path d="M210.3 571.5v1.4h-45.8v-1.5l7.9-4-.7 1.5 10.4-.4-4.2 1.1h8.5l14 2.4 9.9-.5Z" fill="#B13613"/><path d="m1181.7 568.6-2.7 2.2h40.3l-5.6-1.8-32-.4Z" fill="#E98C5B"/><path d="M1213.7 568.4v1H1181v-1.1l5.6-2.9 4.3-.9 4-.8 6.8 1.4 1.1.9 11 2.4Z" fill="#C1461A"/><path d="M1213.7 568.4v1H1181v-1.1l5.6-2.9-.4 1.1 7.4-.3-3 .8h6l10.1 1.8 7.1-.4Z" fill="#B13613"/><path d="m364.4 784.7-8 6.7h121.1l-16.8-5.6-96.3-1Z" fill="#E37B4B"/><path d="M460.7 784v3H362v-3.2l17-8.7 13-2.6 11.9-2.7 20.4 4.4 3.4 2.7 33.1 7Z" fill="#C1461A"/><path d="M460.7 784v3H362v-3.2l17-8.7-1.4 3.3 22.4-.8-9 2.4h18.3l30.2 5.2 21.3-1.2ZM1 739.8l97.5 86.8-8 23.9 166.1 31.7 100.6 36.9-11.8 28.2 42 10.2 26.2 67H1V739.9Z" fill="#B13613"/><path d="m1 775.3 61 84-17 23 23.1-8.8 89.7 15.4-29.3 23.6 148.7 39.9-30.2 9.2 42 34v17.2l24.2 11.8H1V768" fill="#C1461A"/><path d="m410 1015.2-85.6-19.3 89.2 28.7-3.7-9.4ZM157.8 889h66.9l-96.2 23.5 29.3-23.6ZM357.2 919l-92.5-9.6 90 15.7 2.5-6ZM71.2 802.3H35.1l44.4 7.4-8.3-7.4Z" fill="#901C0B"/><path d="M1313 1024.6V793.2l-146.3-3.3-71.3-1.6-92.7 48.6 29.6 38.7-161.8 149H1313Z" fill="#C1461A"/><path d="M870.5 1024.6h127.7l71.8-84.8 92.6-24.4-76.9-35 32.4-.2L1085 846l81.8-56-71.3-1.6-92.7 48.6 29.6 38.7-161.8 149Z" fill="#B13613"/><path d="m945.5 955.5 108.7-15.6-99.1 6.8-9.6 8.8ZM916 982.6l49.9-8.3-58.3 16.1 8.5-7.8ZM1002.8 836.9l85.6-6.9-74.6 1-11 5.9Z" fill="#901C0B"/><path d="M405.7 536.7H1v-54.8L64.6 425l47.3-43h55l72.2 33.8 38 28.7 71 31.2 57.6 61Z" fill="#C1461A"/><path d="M405.7 536.7H333L321 534l-22.3-21.5-28.8-7.7-21-22 30.8-5.1h-34.1v-14.4l-34.8-8.2 28.2-6H207l-30.2-38-65-29.2H167l72.1 33.8 38 28.7 71 31.2 57.6 61Z" fill="#DE5419"/><path d="M924.6 536.7H369v-38.8l85.7-65.5.2-.2 76.1-8.7 109-35.8 91.8-22 51.1 37.8 14.5 31.8 72.8 33.8 54.4 67.6Z" fill="#C1461A"/><path d="M924.6 536.7h-57.3L822.9 469l-57.7-15.4V425l17.7-5h-19l-32.1-54.4 51.1 38 14.5 31.7 72.8 33.8 54.4 67.6ZM531 423.5l-49.2 21-27.1-12 .2-.3 76.1-8.7Z" fill="#DE5419"/><path d="M1313 524.9v11.8H870.2l68.9-61 26.8-10.7 36.8-29.7 86-39.4 91.8-56.4 72.8 35.4 13.7 76.3 46 73.7Z" fill="#C1461A"/><path d="M1313 524.9v11.8h-90.3l9-43-9.3-32.8 24.3-3.6h-25.6l4-65.5 19.6-3.6h-22.3l-42-48.7 72.9 35.4 13.7 76.3 46 73.7Z" fill="#DE5419"/><path d="M397.4 126.5c-17 1.5-18.5 2.7-20.4 16-2-13.3-3.5-14.5-20.4-16 17-1.5 18.5-2.7 20.4-15.9 1.9 13.2 3.4 14.4 20.4 16ZM272.1 282c-16.9 1.5-18.4 2.7-20.3 15.9-2-13.2-3.5-14.4-20.4-16 17-1.4 18.5-2.6 20.4-15.8 1.9 13.2 3.4 14.4 20.3 15.9ZM108 76.9c-17 1.5-18.5 2.7-20.4 15.9-2-13.2-3.5-14.4-20.4-16C84 75.5 85.6 74.3 87.6 61c1.9 13.2 3.4 14.4 20.3 15.9ZM1020.2 79.7c-16.9 1.5-18.5 2.7-20.4 16-1.9-13.3-3.4-14.5-20.3-16 16.9-1.5 18.4-2.7 20.3-15.9 2 13.2 3.5 14.4 20.4 16ZM1242.6 237c-16.9 1.5-18.4 2.7-20.4 16-1.9-13.3-3.4-14.5-20.3-16 16.9-1.5 18.4-2.7 20.3-15.9 2 13.2 3.5 14.4 20.4 16ZM203.4 146c2.5 0 4.6-1.6 4.6-3.6s-2-3.6-4.6-3.6c-2.6 0-4.6 1.6-4.6 3.6s2 3.6 4.6 3.6ZM516.5 69.7c2.6 0 4.6-1.6 4.6-3.6s-2-3.6-4.6-3.6c-2.5 0-4.6 1.7-4.6 3.6 0 2 2 3.6 4.6 3.6ZM806.5 73.3c2.6 0 4.6-1.6 4.6-3.6s-2-3.6-4.6-3.6c-2.5 0-4.5 1.6-4.5 3.6s2 3.6 4.5 3.6ZM940.7 160.2c-2.4.7-5-.2-6-2.1-.8-1.8.4-4 2.8-4.6 2.3-.7 5 .2 5.9 2 .9 2-.3 4-2.7 4.7ZM1226.8 76.9c2.6 0 4.6-1.6 4.6-3.6s-2-3.6-4.6-3.6c-2.5 0-4.6 1.6-4.6 3.6s2.1 3.6 4.6 3.6ZM1131.5 166c2.6 0 4.6-1.6 4.6-3.5 0-2-2-3.6-4.6-3.6-2.5 0-4.6 1.6-4.6 3.6s2 3.5 4.6 3.5ZM61.9 226.4c0 2-2 3.6-4.6 3.6-2.5 0-4.6-1.6-4.6-3.6s2-3.6 4.6-3.6c2.5 0 4.6 1.6 4.6 3.6Z" fill="#FDE4CE"/></g><defs><linearGradient id="a" x1="658.3" y1="422.7" x2="666.3" y2="-484.6" gradientUnits="userSpaceOnUse"><stop stop-color="#FDD3A8"/><stop offset="1" stop-color="#FC956D"/></linearGradient><linearGradient id="b" x1="657" y1="426.5" x2="657" y2="36.1" gradientUnits="userSpaceOnUse"><stop stop-color="#FDD3A8"/><stop offset="1" stop-color="#FA9F80"/></linearGradient><linearGradient id="c" x1="428.3" y1="122.7" x2="463.7" y2="166.3" gradientUnits="userSpaceOnUse"><stop stop-color="#FDD3A8"/><stop offset="1" stop-color="#FA9F80"/></linearGradient><linearGradient id="d" x1="559.5" y1="150.6" x2="575.5" y2="170.2" gradientUnits="userSpaceOnUse"><stop stop-color="#FDD3A8"/><stop offset="1" stop-color="#FA9F80"/></linearGradient><linearGradient id="e" x1="365.9" y1="273.8" x2="394" y2="279.4" gradientUnits="userSpaceOnUse"><stop stop-color="#FDD3A8"/><stop offset="1" stop-color="#FA9F80"/></linearGradient><linearGradient id="f" x1="691.7" y1="82.9" x2="692.5" y2="107" gradientUnits="userSpaceOnUse"><stop stop-color="#FDD3A8"/><stop offset="1" stop-color="#FA9F80"/></linearGradient><linearGradient id="g" x1="724.7" y1="125.8" x2="725.1" y2="137.2" gradientUnits="userSpaceOnUse"><stop stop-color="#FDD3A8"/><stop offset="1" stop-color="#FA9F80"/></linearGradient><linearGradient id="h" x1="824.9" y1="203.5" x2="836.3" y2="182.3" gradientUnits="userSpaceOnUse"><stop stop-color="#FDD3A8"/><stop offset="1" stop-color="#FA9F80"/></linearGradient><linearGradient id="i" x1="775" y1="293.7" x2="802.2" y2="248.3" gradientUnits="userSpaceOnUse"><stop stop-color="#FDD3A8"/><stop offset="1" stop-color="#FA9F80"/></linearGradient></defs></svg>