<svg width="701" height="700" fill="none" xmlns="http://www.w3.org/2000/svg"><path d="M603.4 544.7c0 85.5-113.7 154.8-254 154.8-140.4 0-254.2-69.3-254.2-154.8 0-6.5-1.3-27 0-33.3C110.7 435 219.6 390 349.3 390c128.6 0 245.3 53.8 254.1 130.6.7 5.7 0 17 0 24.2Z" fill="#4E97B7"/><path opacity=".3" d="M603.4 544.7c0 85.5-113.7 154.8-254 154.8-140.4 0-254.2-69.3-254.2-154.8 0-6.5-1.3-27 0-33.3C110.7 435 219.6 390 349.3 390c128.6 0 245.3 53.8 254.1 130.6.7 5.7 0 17 0 24.2Z" fill="#000"/><path d="M603.4 511.4c0 85.5-111 156.3-251.3 156.3S95.2 596.9 95.2 511.4c0-85.4 113.8-154.7 254.1-154.7 140.4 0 254.1 69.3 254.1 154.7Z" fill="#4E97B7"/><path d="M348.1 640.2c135.3 0 245-68.2 245-152.4S483.4 335.4 348 335.4s-245 68.2-245 152.4 109.7 152.4 245 152.4Z" fill="#4E97B7"/><path opacity=".3" d="M348.1 656c135.3 0 245-71.8 245-160.3 0-88.5-109.7-160.3-245-160.3s-245 71.8-245 160.3c0 88.5 109.7 160.3 245 160.3Z" fill="#000"/><path d="M614.6 224s20-3 30.8 17c10.8 19.9 15.2 45 15.2 76.2 0 24.7-12.2 76.6-39 78.9v-90.2l-7-81.9Z" fill="#4E97B7"/><path d="M86.4 220.1c1.4-3.4 2.5-7 3.5-10.6 7-26 45.6-143.5 183.4-178.8 155.2-39.8 245.9 41 275.9 77 24.6 29.4 52.3 87.9 61.5 107.9 1.9 4.2 4 8.2 6.5 12.1 6.6 10.6 20.7 35.7 22.7 60 2.6 32-10.5 104.4-20.3 136.3a3174 3174 0 0 1-19.6 61 105.9 105.9 0 0 1-36.7 51.3 321.6 321.6 0 0 1-211 65.7s-164.5-1.4-231.6-82.6a103 103 0 0 1-19.6-38.2c-7-25.4-21.4-77.7-22.9-88.5-1.9-14-24.2-90 8.2-172.6Z" fill="#4E97B7"/><path d="M597.3 280.3v-.2l-.1-.5a152.1 152.1 0 0 0-8.3-31c-.3-.7-1.6-3-.3-1-.4-.5-.6-1.2-.9-1.9a125.6 125.6 0 0 0-14.3-24.5l-.9-1.1-.8-1.1a118.2 118.2 0 0 0-10-11c-4-4-8.3-7.9-12.8-11.4l-.6-.6-1.5-1.1a175.7 175.7 0 0 0-25.1-15.8c-5-2.6-10.2-5-15.5-7.3l-1.3-.6.4.2-1.8-.8a241.3 241.3 0 0 0-11.9-4.5 349.9 349.9 0 0 0-68-16.2l-1.8-.2-7.3-1a461.8 461.8 0 0 0-38-2.9c-9.7-.3-19.4-.1-29-.2a447.1 447.1 0 0 0-64 3.9h-.4l-1.5.2a406 406 0 0 0-31 5.6 331.4 331.4 0 0 0-51 15.6l-.5.2-3.6 1.6a193 193 0 0 0-39.5 23l-3 2.4a154 154 0 0 0-21.6 21.7l-1 1.4a129.7 129.7 0 0 0-14.6 25l-.2.5c-.1 1.3-1.2 3-1.7 4.3a133.6 133.6 0 0 0-7.2 27.8c0 .7-.5 3-.1 1-.2.8-.2 1.7-.3 2.6l-.1 1-.1 1.7c-.2 3-.2 6-.2 8.9a418.4 418.4 0 0 0 4 58.5c0 1.1.2 2.3.4 3.4v.6l.2 1.6c1.6 11 3.3 22 5.5 32.8a237.5 237.5 0 0 0 12 39.7l.9 2a209.6 209.6 0 0 0 22.6 40l1.8 2.5 1 1.3A158.1 158.1 0 0 0 177 499l1 .8a103.4 103.4 0 0 0 12.4 7.7 214.8 214.8 0 0 0 20.9 10.3l-.6-.3 2.4 1c3.1 1.2 6.3 2.5 9.5 3.6a304.6 304.6 0 0 0 63.2 15.5l2.2.3a390.2 390.2 0 0 0 37.7 3 778.1 778.1 0 0 0 90.6-2.5l11.8-1.3 2.2-.3a285.7 285.7 0 0 0 40.7-8.7c4.4-1.4 8.7-3 13-4.7l1.7-.7-.3.1c-.6.3-2.2.9 0 0a165.6 165.6 0 0 0 8-3.7c6.6-3.3 12.8-7 19-10.8 3.8-2.2 7.5-4.4 11-6.8l3.7-2.6.9-.7a109.6 109.6 0 0 0 9.6-8.6 146.6 146.6 0 0 0 11.5-12.8l1.3-1.7 1.2-1.5a188.9 188.9 0 0 0 23.6-41.6l1.4-3.4c3.6-9.3 6.7-19 9.1-28.7a356.2 356.2 0 0 0 8-44.5l.2-1.7 1.6-14.1a331 331 0 0 0 1.9-59.4Z" fill="#E0E0E0"/><path d="M90.4 222.7s-20-3-30.8 16.9c-10.8 20-15.2 45.1-15.2 76.3 0 24.7 12.3 76.5 39 78.8v-90.1l7-82Z" fill="#4E97B7"/><path d="m132.6 177-.9.8a2808.2 2808.2 0 0 0-6.8 6.3c-1.6 1.5-3.5 3.2-5.3 5.2l-3 3.2-3.2 3.6c-2.1 2.4-4.2 5.2-6.5 8a181 181 0 0 0-13 20c-4.1 7.5-7.4 14.9-10 21.8-1.3 3.4-2.5 6.7-3.4 9.8-.4 1.6-1 3-1.3 4.6l-1.1 4.2c-.8 2.7-1.2 5.1-1.7 7.3l-1 5.6-.6 3.5-.3 1.2.1-1.2.4-3.6c.2-1.5.5-3.4 1-5.6.4-2.2.7-4.7 1.4-7.4l1-4.2 1.4-4.6A173.7 173.7 0 0 1 93 223.7c4.1-7.4 8.6-14.2 13.1-20 2.3-3 4.4-5.7 6.7-8.1 1-1.3 2-2.5 3.1-3.6l3-3.1 5.5-5.2c1.6-1.6 3-2.8 4.3-3.8 1.1-1 2-1.7 2.8-2.2l1-.8Zm491 232.6.7-1.8 2-7.3a289 289 0 0 0 5.3-27.2c1.8-11.5 3.3-25.4 3.9-40.9a269 269 0 0 0-2.4-50.2c-2.4-16-6-31-11.4-44a131.1 131.1 0 0 0-45-62l-3.8-2.6-1-.7-.3-.2.3.3 1 .7 3.6 2.8a137 137 0 0 1 29.6 31.9c5.6 8.4 10.8 18.5 14.8 30v.1c5.3 13 9 28 11.3 43.8 2.6 17.7 3 34.7 2.4 50.1a390.5 390.5 0 0 1-8.7 68l-1.8 7.3-.5 2-.2.6.3-.7ZM435.9 124.8l-1.3-.4-4.9-1.1-7.8-1.7c-3-.5-6.5-1.3-10.4-1.9l-12.7-1.9a417.8 417.8 0 0 0-48.3-3.4c-12 0-23.4.6-33.7 1.4-5.2.5-10 .9-14.6 1.5-4.6.5-8.9 1.1-12.7 1.7l-10.5 1.8-7.8 1.6-5 1-1.2.4-.4.1h.4l1.3-.2 5-1 7.8-1.4 10.5-1.6c3.8-.6 8-1.2 12.7-1.6 4.5-.6 9.4-1 14.6-1.5a440 440 0 0 1 67.2.4l14.6 1.6c4.6.5 8.8 1.2 12.7 1.8 3.9.5 7.4 1.2 10.4 1.8l7.9 1.4 4.9 1 1.3.3h.4l-.4-.1Z" fill="#263238"/><path opacity=".5" d="M273.3 30.7a251 251 0 0 0-168 137.8A275.8 275.8 0 0 1 237.5 50.2a295.3 295.3 0 0 1 222.3-2.1 262.5 262.5 0 0 1 102.7 77.5c-4.4-6.6-8.9-12.7-13.2-18-30-35.8-120.7-116.7-276-77Z" fill="#fff"/><path opacity=".3" d="M286 587.5c-12.8-11.6-113-44.5-151.7-89.3-38.6-44.8-50.9-125.9-59.5-174-4-22.4-1-50.6 3.3-74.2l-6.4 26.5c-8.3 58.4 5 105.5 6.5 116.2a1568 1568 0 0 0 22.9 88.5 103 103 0 0 0 19.6 38.2c49.7 60.2 152.9 76.5 203 81-17-2.8-31.6-7.4-37.7-13ZM81.3 234.5c-1 4.8-2.2 10-3.2 15.5l5.4-22.2-2.2 6.7ZM618.6 230.3c3.6 14 8.1 35.6 7.2 51.8-1.5 26 2.4 59.8-4.2 94.6s-12.7 71.8-48.2 119.1c-35.5 47.4-78.2 56-118.5 73.4-39.4 17-42.2 28.6-72.2 32.8 94-3.6 147.3-40.7 180.6-65.7 17.2-13 30-31 36.7-51.4 6.2-18.8 14.3-43.4 19.6-60.9 9.8-32 18.4-93.2 15.7-125.1a244 244 0 0 0-16.7-68.6Z" fill="#000"/><path d="M271.5 94.1V15c0-3.1 44.2-15.4 79.2-13.4s79.1 4.1 80.2 14.4c1 10.3 0 74 0 74" fill="#4E97B7"/><path d="M430.9 90V77.5l.1-34c0-7.2 0-15-.3-23.5 0-1 0-2.1-.2-3.2a4 4 0 0 0-1-2.8 13.3 13.3 0 0 0-5.3-3.4 71.8 71.8 0 0 0-13.4-3.3C392 4.2 371 3.3 349.3 2c-11-.5-21.7.3-32 1.6-10.2 1.3-20 3.2-29.2 5.5-4.5 1.2-9 2.4-13.1 4.1l-2.9 1.5-.1.3V24l-.1 23.5-.2 34V91l-.1 2.4v.8l-.1-.8V91l-.2-9.2-.1-34.1V14.6l.4-.4c1-.8 2-1.3 3-1.7 4.2-1.8 8.7-3 13.3-4.2 9.3-2.4 19-4.3 29.4-5.6 10.2-1.3 21-2.1 32-1.6 11 .6 21.6 1.2 32 2 10.3.8 20.2 1.7 29.6 3.3 4.7.9 9.3 1.8 13.6 3.5a14 14 0 0 1 5.7 3.6c.4.5.6 1 .9 1.6l.2.8v.8l.2 3.3c.2 8.4.2 16.3.2 23.5-.1 14.4-.3 26-.5 34l-.2 9.3v2.4l-.1.8Z" fill="#263238"/><path opacity=".3" d="M431.3 85.5c-.3-2 13-50.2 13-50.2l-13-4.3v54.5Z" fill="#000"/><path opacity=".5" d="M430.9 16c-1-10.3-45.3-12.3-80.2-14.4-35-2-79.2 10.3-79.2 13.4v23l.2.1c26.7-3.6 48.5-25.6 75.4-27.6 14.9-1.2 29.5 4 43.2 10.2 13.4 6.2 26.6 13.3 41 16.8 0-10-.1-18.3-.4-21.5Z" fill="#fff"/><path d="M430.9 90V77.5l.1-34c0-7.2 0-15.1-.3-23.5 0-1 0-2.1-.2-3.2a4 4 0 0 0-1-2.8 13.6 13.6 0 0 0-5.3-3.5A70.1 70.1 0 0 0 410.9 7c-9.4-1.7-19.3-2.7-29.6-3.5-10.3-.7-21-1.2-32-1.4a241.2 241.2 0 0 0-61.2 7c-4.6 1.1-9 2.4-13.2 4-1 .5-2 1-2.8 1.6l-.1.2v9.2l-.1 23.5-.2 34V91l-.1 2.4v.8l-.1-.8V91l-.2-9.2-.1-34.1V14.5l.4-.4c1-.8 2-1.2 3-1.7 4.2-1.7 8.7-3 13.3-4.2a239.6 239.6 0 0 1 61.4-7c11 .2 21.7.7 32 1.4 10.4.8 20.3 1.8 29.7 3.5 4.7 1 9.3 2 13.5 3.7 2 .9 4.2 1.9 5.7 3.7.4.4.6 1 .8 1.5l.2 1 .1.7.2 3.2a2544.6 2544.6 0 0 1-.2 57.6l-.3 9.3v2.4l-.1.8Z" fill="#263238"/><path d="M386 105a231.7 231.7 0 0 0-37.6-3.4 202.4 202.4 0 0 0-37.5 3.6 124.9 124.9 0 0 1 10.9-2.3A173.2 173.2 0 0 1 386 105Z" fill="#fff"/><path d="m603.4 525.5-.3 1.5-1 4.4c-.4 2-1.2 4.3-2 7.1l-1.5 4.5-1.9 5a135 135 0 0 1-36.7 52 225 225 0 0 1-36.2 25.6c-6.8 4-14 8-21.6 11.9-7.7 3.7-15.6 7.4-24.1 10.4-17 5.4-35.3 10.2-54.5 13.8a382 382 0 0 1-60 6.2c-41.4 1.1-80.8-4.6-115.4-13.9-4.4-1-8.6-2.4-12.8-3.6-4.2-1.3-8.3-2.4-12.3-3.8l-12-4-5.7-2.2-5.6-2.2c-14.7-6.1-28-13-39.2-20.7a158.9 158.9 0 0 1-45.5-44.7l-3-4.5-2.2-4-2-3.6-1.4-3-1.8-4.2-.6-1.4.7 1.4 1.9 4 1.5 3 2 3.6 2.2 4 3 4.5c8.2 12.7 23 29.4 45.6 44.4a222.3 222.3 0 0 0 44.7 22.7l5.7 2.1 12 4c4 1.4 8 2.5 12.3 3.8 4.1 1.2 8.4 2.5 12.7 3.6A407.5 407.5 0 0 0 363.6 667c20.6-.6 40.7-2.6 59.9-6.2 19.1-3.5 37.3-8.3 54.3-13.8 8.5-2.8 16.4-6.5 24-10.3 7.6-3.7 14.8-7.7 21.6-11.8 13.7-8 26.1-16.3 36.2-25.3a157.6 157.6 0 0 0 24-27.4 136.3 136.3 0 0 0 14.7-29.3c.7-1.6 1-3.1 1.5-4.5a86 86 0 0 0 2-7l1.2-4.4.4-1.5ZM345.9 693.2a10 10 0 1 0 0-20.2 10 10 0 0 0 0 20.2ZM510 654.9a10 10 0 1 1-20.2 0 10 10 0 0 1 20.1 0ZM202 650.6a10 10 0 1 1-20.2 0 10 10 0 0 1 20.2 0Z" fill="#263238"/><path opacity=".3" d="M80 226.4c-3.6 0-12.2 5.2-15.5 9.6a55.9 55.9 0 0 0-7.3 14.5 148.5 148.5 0 0 0-6.2 87c.6-12.3 1.4-24.7 4.2-36.7 2.7-12 7.5-23.8 15.3-33.3l9.5-41Z" fill="#fff"/><path d="m608 460.6-.3 1.5-1 4.4-2 7.2a134.8 134.8 0 0 1-40.6 61.7 228.2 228.2 0 0 1-36.6 25.4c-7 4-14.2 8-21.9 11.8-7.6 3.8-15.6 7.5-24.2 10.4a451.1 451.1 0 0 1-54.8 13.8 389.3 389.3 0 0 1-121 3.2 470 470 0 0 1-104.2-26.3c-15-5.9-28.4-12.4-40-19.5-11.8-7-21.6-14.6-29.5-22a126.8 126.8 0 0 1-21.2-25.4c-1-1.4-1.7-2.8-2.4-4l-2-3.6-1.5-3-1.9-4.2a39.1 39.1 0 0 1 .1 0l2 4 1.5 3 2 3.6 2.4 4 3 4.5a128 128 0 0 0 18.3 20.8c8 7.3 17.8 14.8 29.5 21.8 11.6 7 25 13.4 40 19.3a472.6 472.6 0 0 0 104 26.1 404.4 404.4 0 0 0 120.7-3.2 453 453 0 0 0 54.7-13.7 204 204 0 0 0 24.2-10.3 362 362 0 0 0 21.8-11.8c13.8-8 26.3-16.2 36.5-25.3a155.8 155.8 0 0 0 24.2-27.4c6-8.9 10.2-17.3 13-24.3 1.5-3.6 2.7-6.7 3.5-9.5 1-2.8 1.7-5.2 2.2-7.1l1.1-4.4.4-1.5Z" fill="#263238"/><path opacity=".3" d="M626.1 228.1c3.7 0 12.3 5.2 15.6 9.5 3.2 4.4 5.4 9.5 7.3 14.6a148.5 148.5 0 0 1 6.1 87c-.6-12.3-1.3-24.7-4-36.7a79.7 79.7 0 0 0-15.4-33.3L626 228Z" fill="#fff"/><path d="M263 519.8s7 1.4 15.5-6.8c8.4-8.3 14.6-18.8 21.5-22.2 6.9-3.4 82.4-3.4 89.6-2.2 7.2 1.3 18.6 18 25.8 24.4 7.2 6.4 14.3 11 29.7 8l-8.4-27.6-33.9-31.8-66.4-3.3-50.7 10.7-21 12.8-1.8 38Z" fill="#fff"/><path d="M586.1 288c-15-133.2-209.1-133.3-238.5-132.6-29.4-.7-223.6-.6-238.5 132.6 0 0-2.7 35.3 8.3 93.8 10.6 56.6 41.4 97.5 69.7 114 28.3 16.3 69.7 37 85.4 17.4l15.8-21.7s6.9-14.2 33-13.2h52.5c26.2-1 33 13.2 33 13.2l15.8 21.7c15.8 19.6 57.2-1 85.5-17.5 28.3-16.4 59.1-57.3 69.7-113.9 11-58.5 8.3-93.8 8.3-93.8Z" fill="#263238"/><path d="M586.1 288s.2 2.1.3 6.4c.1 4.3.1 10.6-.2 18.8a489 489 0 0 1-8.6 70.8c-.9 3.8-1.5 7.7-2.7 11.6l-1.5 6-1.9 6a194.6 194.6 0 0 1-24.1 50 149.2 149.2 0 0 1-20 23.7l-3 2.8-3.1 2.6c-2 1.9-4.3 3.4-6.5 5-1.1 1-2.3 1.6-3.5 2.4l-3.6 2.2-7.4 4.2c-10 5.5-20.4 10.9-31.7 15.1-5.7 2.2-11.5 4-17.6 5-6 1.2-12.6 1.5-18.7-.4-3-1-6-2.7-8.3-5l-1.7-1.8-1.4-2-2.8-3.8-11.5-15.9a24.6 24.6 0 0 0-11-9.3c-4.6-2-9.6-3.2-14.6-3.5-2.6-.3-5.1-.1-7.7-.2h-56c-5.4.2-10.9 1-16 3-2.5 1-5 2.3-7.1 4a20.3 20.3 0 0 0-5.5 6c-5.5 7.4-10.8 15-16.4 22.4A22.4 22.4 0 0 1 260 521c-4.7 1-9.6.7-14.3 0-9.5-1.5-18.7-4.8-27.6-8.7a291.6 291.6 0 0 1-38.8-21.2l-3-2.2-3-2.4-2.8-2.5-2.8-2.5c-7.2-7-13.8-14.8-19.6-23.2a194.3 194.3 0 0 1-26.2-55.7c-3.5-11.8-5.7-24-7.6-36-2-12-3.4-24-4.5-36-1-12-1.6-24-1.4-35.8.1-12 2.8-23.6 6.6-34.6l1.4-4.1.8-2c.2-.8.6-1.4.9-2l3.7-8c3-5 5.7-10 9.3-14.5l2.5-3.5 2.8-3.2 2.8-3.2 1.4-1.6 1.5-1.5 6.1-6 6.5-5.4c8.8-7 18.2-13 28-18a252.5 252.5 0 0 1 60.3-21.6A417 417 0 0 1 346.2 155H360a476.5 476.5 0 0 1 52.8 3.7c8.4 1.1 16.6 2.3 24.5 4 31.8 6 59.8 15.6 82.1 28.6a160.5 160.5 0 0 1 29 21l5.7 5.7 5 5.8c.9 1 1.8 1.9 2.5 2.9l2 3c1.5 1.9 3 3.7 4.1 5.6a120.2 120.2 0 0 1 12.5 26.2c.6 1.5 1.2 3 1.5 4.4l2 7.7c.6 2.3.8 4.4 1.1 6.2l.7 4.5.5 3.7-.6-3.7-.7-4.5c-.4-1.7-.6-3.8-1.3-6.1l-2-7.7c-.3-1.5-.9-2.9-1.4-4.4l-1.7-4.7c-2.4-6.5-6-13.7-10.9-21.4-1.2-1.9-2.6-3.7-4-5.6l-2.2-3-2.3-2.8-5.1-5.8-5.8-5.6c-8-7.4-17.7-14.6-28.8-21a264 264 0 0 0-82-28.4 412.6 412.6 0 0 0-77.3-7.6h-28a415.7 415.7 0 0 0-88.9 10.7A251.5 251.5 0 0 0 183 188c-9.7 5.2-19 11.1-27.8 18l-6.4 5.4-6 6-1.5 1.4-1.4 1.6-2.8 3.2-2.8 3.2-2.5 3.5c-3.5 4.4-6.3 9.5-9.2 14.4l-3.7 7.8-.9 2-.7 2-1.5 4.1c-3.7 11-6.4 22.5-6.5 34.3-.2 11.8.4 23.7 1.5 35.7 1 12 2.5 24 4.4 36 2 12 4.1 24 7.6 35.9 6 19.8 14.5 38.8 26.1 55.4 11.5 16.6 26 31.2 43.5 40.4a292 292 0 0 0 26.1 13.3 114 114 0 0 0 27.3 8.6c4.7.7 9.5 1 14 0 2.3-.4 4.5-1.2 6.5-2.3 2-1 3.9-2.5 5.3-4.2 5.6-7.4 11-15 16.3-22.4 1.4-2.5 3.5-4.5 5.7-6.2a30 30 0 0 1 7.4-4.1 46.4 46.4 0 0 1 16.3-3h56c2.6 0 5.1 0 7.7.2a44 44 0 0 1 14.9 3.5c4.5 2.2 8.8 5.3 11.4 9.7l11.4 15.8 2.8 4 1.5 1.9 1.5 1.7c2.3 2.2 5 3.8 8 4.7 6 2 12.3 1.6 18.3.5 6-1 12-2.8 17.5-5 11.3-4.2 21.7-9.5 31.7-15l7.4-4.2 3.5-2.2c1.2-.7 2.4-1.4 3.5-2.3 2.2-1.6 4.4-3.2 6.5-5l3-2.6 3-2.7c7.8-7.4 14.3-15.5 20-23.7a193.7 193.7 0 0 0 24.1-49.8l1.9-6 1.6-6c1-3.8 1.7-7.7 2.6-11.4 5.9-30.2 8-54.4 8.8-70.8a314.8 314.8 0 0 0 .3-23.6V288Z" fill="#fff"/><path d="M610 284.2a143.3 143.3 0 0 0-28-72.2 169.4 169.4 0 0 0-55.9-46 283.2 283.2 0 0 0-66.4-24.1 456.1 456.1 0 0 0-105.5-11.7c-9.5 0-19-.1-28.6.2-18.2.5-36.5 2.2-54.6 4.8-22 3.2-43.7 8-64.7 15.2-22.5 7.7-44.3 18-63.2 32.5a144.9 144.9 0 0 0-45.7 56.5c-7.9 18.1-12 37.3-12 57 0 13.4.8 26.8 2.1 40.2 2 21.3 4.8 42.8 9.5 63.6 8.2 36 24.6 71.5 50.2 98.5 9.3 9.9 19.9 18.1 31.7 24.6a249.2 249.2 0 0 0 35.7 16c34.7 12.4 71.7 18 108.4 19.2 21.7.7 43.7.3 65.4-.9a463 463 0 0 0 50-5 204 204 0 0 0 108-51.6c25.7-26.2 42.5-61 51.2-96.5a465 465 0 0 0 10.2-63.8 450.8 450.8 0 0 0 2.2-56.5c-.3-4.2-3.6-8.4-8.2-8.2-4.2.2-8.6 3.7-8.2 8.2 1.3 18.7-.4 38-2.3 56.5-.4 4.7-1 9.4-1.6 14l-.2 1.8c0 .3-.3 2 0 .8a579.6 579.6 0 0 1-8 43.7c-2.4 9.8-5.4 19.4-9 28.7l-1.4 3.4c-.1.2-.7 1.5-.2.3l-.6 1.5a214 214 0 0 1-22.9 39.8l-.8 1a178.5 178.5 0 0 1-13.2 15 128 128 0 0 1-9.6 8.6l-.5.4-4 2.9c-3.5 2.4-7.3 4.6-11 6.8a270 270 0 0 1-27 14.5c-.7.3-2.4 1 .2 0l-1.7.6a235.9 235.9 0 0 1-52 13.1l-2.3.4-1.5.2a422.4 422.4 0 0 1-38 3.1c-21.4 1-43 1.5-64.4.7a405 405 0 0 1-38-3l-2-.3a310.8 310.8 0 0 1-17.2-3 304.6 304.6 0 0 1-55.5-16.1l-2.3-1-.6-.3a232.8 232.8 0 0 1-26.6-13.7 93.2 93.2 0 0 1-5.5-3.7l-1-.9c-1.3-.8.8.8 0 .2a149.2 149.2 0 0 1-22.6-22.8l-1-1.4c-.8-.9.7 1 0 .1l-1.9-2.5a182.6 182.6 0 0 1-16.7-27.4c-2.1-4.2-4.1-8.5-6-12.8l-.7-1.8a193.4 193.4 0 0 1-3.8-10c-3.4-9.7-6.1-19.6-8.2-29.7a480 480 0 0 1-5.8-34.6c.1.4.2 1.3 0-.4a652 652 0 0 1-2.7-24.3A418.8 418.8 0 0 1 102 286v-1.7l.2-1 .3-2.7.2-1a142.2 142.2 0 0 1 7.1-27.7c.5-1.3 1.6-3 1.8-4.4 0 .2-.8 1.9-.3.6l.5-1a148 148 0 0 1 9.5-17.7c1.6-2.5 3.3-5 5-7.3l1.2-1.6c-1 1.4-.4.6.2-.2A138.9 138.9 0 0 1 149 199l3.2-2.6-.5.4 1-.7 2-1.5a193.2 193.2 0 0 1 36.9-21l3.8-1.7a38.7 38.7 0 0 0 2.5-1 330.7 330.7 0 0 1 48.7-14.7 406 406 0 0 1 31-5.6l1-.1.9-.1a440.3 440.3 0 0 1 64-4c9.7.2 19.3 0 29 .3a476.3 476.3 0 0 1 38 3c2.5.2 5 .6 7.4.9l1.8.2 4.1.6a349.9 349.9 0 0 1 75.7 20.1c.6.3 1.5.5 2 .9l-.6-.3 1.4.6a227.6 227.6 0 0 1 30.1 15.9 175.6 175.6 0 0 1 10.4 7.2l1.5 1.1c-1.6-1.7.1.1.7.6a151.4 151.4 0 0 1 22.7 22.4c.2.3 1.7 2.1.9 1-.9-1 .6.9.8 1.2a125.7 125.7 0 0 1 14.4 24.5l.8 2a134.3 134.3 0 0 1 8.6 32l.2 1c0-1.8-.2-1-.1-.4l.3 3c.5 4.2 3.5 8.3 8.2 8.1 4-.1 8.8-3.6 8.3-8.2Z" fill="#263238"/><path d="M311.2 496.8c.2 0 .2 1.2 1.2 2.8 1 1.7 3.2 3.5 6.8 3a882.6 882.6 0 0 1 57.3 0c3.6.5 5.8-1.3 6.8-3 1-1.6 1-2.8 1.2-2.8.2 0 .6 1.2-.2 3.3a7.4 7.4 0 0 1-6.4 4.4h-1.4a885.7 885.7 0 0 1-57.3 0h-1.4c-.5 0-1 0-1.4-.2a7.4 7.4 0 0 1-5-4.2c-.8-2-.4-3.3-.2-3.3Zm.2 16.1a7.4 7.4 0 0 0 6.4 4.4h1.4a885.9 885.9 0 0 0 57.3 0h1.3l1.5-.2a7.4 7.4 0 0 0 5-4.2c.8-2.1.4-3.3.2-3.3s-.2 1.2-1.2 2.8a6.6 6.6 0 0 1-6.8 3 882.9 882.9 0 0 0-57.3 0 6.6 6.6 0 0 1-6.8-3c-1-1.6-1-2.8-1.2-2.8-.2 0-.6 1.2.2 3.3Zm0 12.8a7 7 0 0 0 2.6 3 7.4 7.4 0 0 0 3.8 1.3h1.4a882.6 882.6 0 0 0 57.3 0h1.3c.5 0 1 0 1.5-.2a7 7 0 0 0 5-4.2c.8-2 .4-3.3.2-3.3s-.2 1.2-1.2 2.9a6.6 6.6 0 0 1-6.8 2.9 886.1 886.1 0 0 0-57.3 0 6.6 6.6 0 0 1-6.8-3c-1-1.6-1-2.8-1.2-2.8-.2 0-.6 1.3.2 3.4Z" fill="#263238"/><path d="M115.2 232.8a5.4 5.4 0 1 1-10.7 0 5.4 5.4 0 0 1 10.7 0ZM124.6 459a5.4 5.4 0 1 0 0-10.7 5.4 5.4 0 0 0 0 10.7ZM101.5 344.5a5.4 5.4 0 1 1-10.8 0 5.4 5.4 0 0 1 10.8 0ZM250.4 539.8a5.4 5.4 0 1 1-10.8 0 5.4 5.4 0 0 1 10.8 0ZM450.5 542.4a5.4 5.4 0 1 1-10.7 0 5.4 5.4 0 0 1 10.7 0ZM604.5 344.5a5.4 5.4 0 1 1-10.8 0 5.4 5.4 0 0 1 10.8 0ZM574.4 456.2a5.4 5.4 0 1 1-10.7 0 5.4 5.4 0 0 1 10.7 0ZM208 160.6a5.4 5.4 0 1 1-10.6 0 5.4 5.4 0 0 1 10.7 0ZM344.3 138.6a5.4 5.4 0 1 1-10.8 0 5.4 5.4 0 0 1 10.8 0ZM484 155.3a5.4 5.4 0 1 1-10.7 0 5.4 5.4 0 0 1 10.7 0ZM591.8 234.5a5.4 5.4 0 1 1-10.8 0 5.4 5.4 0 0 1 10.8 0Z" fill="#455A64"/><path opacity=".2" d="M333.5 169.6s-92 1.2-161.4 41.6c-41.5 24.2-48 47-47.5 78.3.5 31.4 8.7 129.9 43.4 161.3 34.7 31.4 105.5-27.1 127.3-46.9 21.8-19.7 33.9-52.6 38.2-87.8 5.4-43.6 0-146.5 0-146.5Z" fill="#fff"/><path d="M130.2 258.7c0 1.6 1.2 2.9 2.7 2.9 1.5 0 2.7-1.3 2.7-3 0-1.5-1.2-2.8-2.7-2.8-1.5 0-2.7 1.3-2.7 2.9ZM241 244.6c1.5 0 2.7-1.3 2.7-3 0-1.5-1.2-2.8-2.7-2.8-1.4 0-2.6 1.3-2.6 2.9 0 1.6 1.2 2.9 2.6 2.9ZM162.4 256.6c-1 0-1.8 1-1.8 2 0 1.2.8 2.1 1.8 2.1s2-.9 2-2-1-2-2-2ZM209.5 290.8c-.8 0-1.4.7-1.4 1.5 0 .9.6 1.6 1.4 1.6.8 0 1.4-.7 1.4-1.6 0-.8-.6-1.5-1.4-1.5ZM209.5 256.3c-.8 0-1.4.7-1.4 1.5s.6 1.5 1.4 1.5c.8 0 1.4-.7 1.4-1.5s-.6-1.5-1.4-1.5ZM176 289c0-.4-.3-.6-.5-.6s-.4.2-.4.5.2.5.4.5.4-.2.4-.5ZM238 295.4c0 .3.1.5.4.5.2 0 .4-.2.4-.5s-.2-.5-.4-.5c-.3 0-.5.2-.5.5ZM254 293.8c0 .3.2.5.4.5.3 0 .5-.2.5-.5s-.2-.5-.5-.5c-.2 0-.4.2-.4.5ZM176 305.5c.2 0 .4-.2.4-.5 0-.2-.2-.5-.5-.5-.2 0-.4.3-.4.5 0 .3.2.5.4.5ZM180.6 245.5c0 .6.4 1 .9 1s.9-.4.9-1c0-.5-.4-1-1-1-.4 0-.8.5-.8 1ZM185.1 244.6c0 .5.4 1 1 1 .4 0 .8-.5.8-1 0-.6-.4-1-.9-1s-.9.4-.9 1ZM199.8 188.4c0 .5.4 1 1 1 .4 0 .8-.5.8-1 0-.6-.4-1-.9-1s-.9.4-.9 1ZM233.7 189.3c0 .6.4 1 1 1 .4 0 .8-.4.8-1 0-.5-.4-1-.9-1s-.9.5-.9 1ZM211.8 251.8c-.5 0-1 .4-1 1 0 .5.5 1 1 1s.9-.5.9-1c0-.6-.4-1-1-1ZM236.4 186.4c0-.5-.4-1-.9-1s-.9.5-.9 1c0 .6.4 1 .9 1s.9-.4.9-1ZM163.8 278.7c-.8-.8-2-.8-2.7 0-.7.8-.7 2 0 2.9.7.8 2 .8 2.7 0 .7-.8.7-2.1 0-3ZM157.8 348.8c0 1.7 1.2 3 2.8 3 1.5 0 2.7-1.3 2.7-3 0-1.6-1.2-3-2.7-3-1.6 0-2.8 1.4-2.8 3ZM565.8 274.8c-1.5 0-2.7 1.4-2.7 3 0 1.7 1.2 3 2.7 3 1.6 0 2.8-1.3 2.8-3 0-1.6-1.2-3-2.8-3ZM387.8 278.1c-1.5 0-2.8 1.4-2.8 3 0 1.7 1.3 3 2.8 3 1.5 0 2.8-1.3 2.8-3 0-1.6-1.3-3-2.8-3ZM225.3 271.6c.8 0 1.4-.7 1.4-1.6 0-.8-.6-1.6-1.4-1.6-.8 0-1.5.8-1.5 1.6 0 .9.7 1.6 1.5 1.6ZM243 290.8c.4 0 .9-.4.9-1 0-.5-.5-1-1-1s-.9.5-.9 1c0 .6.4 1 1 1ZM277.3 290.8c0 .6.4 1 1 1 .4 0 .8-.4.8-1 0-.5-.4-1-.9-1s-1 .5-1 1ZM163.5 233c-.6 0-1 .5-1 1 0 .6.4 1 1 1 .5 0 .9-.4.9-1 0-.5-.4-1-1-1ZM280 287.8c0-.5-.4-1-.9-1s-.9.5-.9 1c0 .6.4 1 1 1 .4 0 .9-.4.9-1ZM227.6 287.8c0 .6.5 1 1 1s.9-.4.9-1c0-.5-.4-1-1-1-.4 0-.9.5-.9 1ZM145.8 247.3c0 .6.4 1 1 1 .5 0 .9-.4.9-1 0-.5-.4-1-1-1-.5 0-.9.5-.9 1ZM213.2 275.7c.5 0 1-.5 1-1 0-.6-.5-1-1-1s-1 .4-1 1c0 .5.5 1 1 1ZM300.7 255.8c0 .5.4 1 1 1 .4 0 .8-.5.8-1 0-.6-.4-1-.9-1s-.9.4-.9 1ZM214.4 222.7c0 .6.4 1 1 1 .4 0 .8-.4.8-1s-.4-1-.9-1-1 .4-1 1ZM219 187.4a2.5 2.5 0 0 0-3.7-.3 3 3 0 0 0-.3 4c1 1.3 2.6 1.4 3.7.4a3 3 0 0 0 .4-4ZM248 191.9a3 3 0 0 0-.3 4c1 1.3 2.7 1.5 3.8.4a3 3 0 0 0 .3-4 2.5 2.5 0 0 0-3.7-.4ZM390.4 196.1a2.5 2.5 0 0 0-3.8-.3 3 3 0 0 0-.3 4c1 1.3 2.6 1.5 3.7.4a3 3 0 0 0 .4-4ZM412.4 176c-.7-.9-1.9-1-2.7-.3-.8.8-.9 2-.2 3 .7.8 1.9.9 2.7.2.8-.8.9-2 .2-3ZM452.4 233.5c-.8.7-1 2-.3 2.9.7.9 1.9 1 2.7.2.8-.7.9-2 .2-2.8-.7-1-1.9-1-2.6-.3ZM353.4 228.9c.6-.5.7-1.5.2-2.1-.5-.7-1.4-.7-2-.2-.6.5-.6 1.5-.2 2.1.5.7 1.4.7 2 .2ZM337.2 252.6c-.6.5-.7 1.5-.2 2.1.5.6 1.4.7 2 .2.5-.5.6-1.5.1-2.1-.5-.7-1.3-.8-2-.2ZM413.7 240.2c.4-.4.4-1 .1-1.4a.8.8 0 0 0-1.2-.1 1 1 0 0 0-.1 1.4c.3.4.8.4 1.2 0ZM426.4 258.2c.4-.4.5-1 .1-1.4a.8.8 0 0 0-1.2-.1 1 1 0 0 0-.1 1.4c.3.4.9.4 1.2 0ZM414.3 261.7c.4-.3.4-1 .1-1.4a.8.8 0 0 0-1.2 0 1 1 0 0 0-.1 1.3c.3.4.8.5 1.2.1ZM401.5 251.4c-.2.2-.2.5 0 .7 0 .2.4.2.5 0 .2-.1.3-.4 0-.6a.4.4 0 0 0-.5-.1ZM365.5 266.7c-.2.2-.3.5-.1.7.2.2.4.2.6 0 .2-.1.2-.4 0-.6a.4.4 0 0 0-.5 0ZM372.3 256.6c-.2.2-.2.5 0 .7.1.2.4.3.6 0 .2 0 .2-.4 0-.6a.4.4 0 0 0-.6 0ZM411.2 252.8c-.2.1-.2.4 0 .6.1.3.4.3.6.1.2-.2.2-.5 0-.7a.4.4 0 0 0-.6 0ZM358.8 284.4c.1-.1.2-.4 0-.7a.4.4 0 0 0-.6 0c-.2.2-.2.5 0 .7 0 .2.4.2.6 0ZM399.4 242.4a1 1 0 0 0 0 1.4c.3.4.8.5 1.2.1.4-.3.4-1 .1-1.3a.8.8 0 0 0-1.3-.2ZM231 226a1 1 0 0 0 0 1.4c.3.4.8.5 1.2.1.4-.3.4-1 .1-1.3a.8.8 0 0 0-1.2-.2ZM294.3 259.4a1 1 0 0 0-.1 1.4c.3.4.8.4 1.2 0 .4-.3.4-.9.1-1.3a.8.8 0 0 0-1.2-.1ZM281.3 215.7c.4-.3.4-1 0-1.3a.8.8 0 0 0-1.2-.2 1 1 0 0 0 0 1.4c.2.4.8.5 1.2.1ZM256.5 286.7a1 1 0 0 0-.1 1.4c.3.4.8.5 1.2.1.4-.3.4-1 .1-1.3a.8.8 0 0 0-1.2-.2ZM175.6 272.1c-.5 0-.9.4-1 1 0 .5.4 1 .9 1s.9-.4 1-.9c0-.5-.4-1-.9-1ZM423.7 191.6c-1 0-1.9.8-2 2 0 1 .7 2 1.7 2.1 1 .1 2-.7 2-1.8.1-1.2-.6-2.2-1.7-2.3ZM304 239.2a2.6 2.6 0 0 0-4-.4c-1.1 1-1.3 3-.3 4.3 1 1.2 2.8 1.4 4 .3 1.1-1 1.3-3 .3-4.2ZM478.3 247.9c-1.1 1-1.3 3-.3 4.2 1 1.3 2.7 1.5 3.9.4 1.2-1 1.3-3 .3-4.2a2.6 2.6 0 0 0-3.9-.4ZM502.4 227c-.8.8-1 2.1-.2 3 .6 1 1.9 1 2.7.3.8-.8 1-2.1.3-3-.7-1-2-1-2.8-.3ZM435.6 275c-.6.6-.7 1.6-.2 2.3.5.6 1.4.7 2 .2.6-.6.7-1.6.2-2.3-.5-.6-1.4-.7-2-.1ZM569.2 310.4c.2-.2.3-.5.1-.7a.4.4 0 0 0-.7 0c-.1.1-.2.4 0 .6.2.2.4.3.6 0ZM533 242.9a.4.4 0 0 0-.7-.1c-.2.2-.2.5 0 .7.1.2.4.2.6 0 .2-.1.2-.4 0-.6ZM463.4 311.2c-.1.2-.2.5 0 .7.2.2.4.3.6 0 .2 0 .3-.4.1-.6a.4.4 0 0 0-.7 0ZM542.6 255.3c-.2.2-.2.5 0 .7 0 .2.4.3.6 0 .2 0 .2-.4 0-.6a.4.4 0 0 0-.6 0ZM316.5 279.4a1 1 0 0 0-.1 1.4c.3.4.9.5 1.3.1s.4-1 0-1.4a.9.9 0 0 0-1.2-.1ZM305.5 206.2c.4-.3.4-1 0-1.4a.9.9 0 0 0-1.2-.1 1 1 0 0 0-.1 1.4c.3.4.9.5 1.3.1ZM322 191a1 1 0 0 0-.1 1.5c.3.4.9.5 1.3.1.4-.3.4-1 .1-1.4a.9.9 0 0 0-1.3-.1ZM391.6 178.8a1 1 0 0 0 0 1.5c.3.4.8.4 1.2 0 .4-.3.5-1 .1-1.3a.9.9 0 0 0-1.3-.2ZM367.5 267a1 1 0 0 0 0 1.5c.2.4.8.5 1.2.1.4-.3.5-1 .1-1.4a.9.9 0 0 0-1.3-.1ZM216.4 295.6c0 .6.4 1 .9 1.1.5 0 1-.4 1-1 0-.5-.4-1-.9-1s-1 .4-1 1ZM514.8 245.5c0 1.2.8 2.2 1.8 2.3 1.1.1 2-.7 2.2-2 0-1-.8-2.1-1.8-2.2-1.1-.1-2 .7-2.2 2ZM496.2 288.2a3.2 3.2 0 0 0-1 4.1c.7 1.5 2.4 2 3.8 1.2a3.2 3.2 0 0 0 1-4.2c-.8-1.4-2.5-2-3.8-1ZM507.6 337.7c-.1.3 0 .6.2.6.3.1.5 0 .6-.2.1-.3 0-.6-.3-.7-.2 0-.4 0-.5.3ZM533 307.2c.3 0 .5 0 .6-.3.1-.2 0-.5-.2-.6-.3-.1-.5 0-.6.3 0 .2 0 .5.3.6ZM540 329c-.2.5 0 1 .5 1.2.5.2 1 0 1.1-.5.2-.5 0-1.1-.5-1.3-.5-.2-1 .1-1.1.6ZM568.1 321c.5.3 1 0 1.2-.5.2-.6 0-1.1-.5-1.3-.5-.2-1 0-1.2.6-.2.5 0 1 .5 1.3ZM546.5 365.9c-.1.5.1 1 .6 1.2.5.2 1 0 1.2-.6.2-.5 0-1-.6-1.3-.4-.1-1 .1-1.2.7Z" fill="#E0E0E0"/><path d="M212.7 322c-2 1-4.2 2.2-6.7 3.7l-8.4 5a290.9 290.9 0 0 0-33.2 24.1l-6.3 5.6c-2.1 2-4.4 3.8-6.6 6L145 373c-2.3 2.3-4.4 4.8-6.7 7.2a301 301 0 0 0-11.4 13.5c1 4 2.2 7.8 3.5 11.5l13.4-17.1c2.8-3.7 5.7-7.3 9.3-10.3l1.6-1.4 1.4-1.8a64.4 64.4 0 0 1 20.2-17.8h.3c.5-.5 1.1-1 2-1.3l3-1-5.4 7.3c-1.1 1.5-2.3 3.1-2.4 5 0 .7 0 1.5-.5 2-.6.7-1.7.6-2.2 1.3-.3.3-.3.8-.4 1.3-.3 2.6-2 5-4.4 6.2.6.8.4 1.8.1 2.7l-1 3.9c.4-1 .8-1.9 1.5-2.6l2.3-1.6c2.3-1.5 4.8-2.1 5.5-4.7l.3-1.3c-1.2.9-2.3 2-3.2 3.2-.5.7-1.3 1.5-2 1.1l1.4-2.5c1.2-1.7 2.7-3.4 4.7-4.3.9-2.5 2.2-4.7 4.6-5.9 1.3-.6 2.8-.8 4.2-1.4 2.7-1.2 4.6-3.7 6.5-6a58.7 58.7 0 0 1 30-19.4c6.6-1.6 13.5-2 20.4-2.3 2 0 4.4.3 4.8 2a71 71 0 0 0-19.5 8.7c-4.8 3-9 9.2-14.8 9-1 0-1.8-1.5-2.8-1.1-1.6.6-2.2 6.1-1 6-4 .4-6.5 3.6-8 7-1.5 3.5-2.9 7.5-6.4 9-2.4.8-5 .3-7.5.4-2.6 0-5.5 1.1-6 3.5-1 3.7 4.2 7.6 3.2 10.7.5.2.8.7.7 1.2 0 .5-.3 1-.5 1.4l-2.3 3.8c.1 2-1.8 3.4-2.8 5.1a5.6 5.6 0 0 0-.4 4.2c1-.5 2.2-.5 3 .2 0 1-.3 2-1 3l1 .5a6 6 0 0 0 7.8-2.8c.5-1 .7-2.3 1.4-3.1.8-.8 2-1 3.2-1.3l7-1.3 2.3-8.4c.6-2 1.4-4.3 3.4-5 2.7-1.1 6.8 1 8.2-1.4-3-1.3-4.8-4.6-4.9-7.9 0-1.7.5-3.3 1.2-4.9l-.5.4a9.9 9.9 0 0 1-5.7 2.3c-2 0-3.9-1-5-2.6-.3-.4-.6-1-.5-1.5l.3-1.2c1.5-3.4 3.6-6.5 6.3-9 .6-.6 1.2-1.2 2-1.5 2.3-1.1 5.3-.3 7.2-1.8l1.4-1.2c1-.5 2.3-.2 3.5 0 1.1.3 2.6.3 3.2-.7l.8.5a9 9 0 0 1-3 4.8l-1.7 1.5c-.7.7-1.2 1.6-1.7 2.5 5.9-4.1 13.8-5.5 21.2-5.1 1.1 0 2.4.1 3.4-.5 1.5-.8 2-2.6 3-3.8 1.8-2.1 5-2.5 7.2-4.1 2-1.4 3.2-3.7 4.9-5.6 4.6-5.2 12.2-6.3 19.2-7 2-.3 4-.5 5.7.4 1.4.7 2.4 2 3.7 2.8 5.5 3.6 12.8-2.3 19.3-1.1 2 .4 3.8 1.4 5.8 1.2 1.7 0 3.3-1.1 5-1.6 4.4-1.3 9.1 1.1 12.5 4.3 3.3 3.1 5.7 7 9.2 10.1a9 9 0 0 1 11.6 2.1c.7 1 1.2 2 2.2 2.8.8.6 2 .8 3 1l9.7 2c-1.4 2-1.4 5 0 7 .8 1 1.8 2 2 3.2.7 2.8-3 5.1-2.9 8 .1 1.4 1 2.6 1.5 3.8 1.7 5.1-4.8 9.7-4.2 15-3.6.6-7.1-1.2-10.7-2-3.6-.8-8.3.3-9 3.9.2 1.2 1.8 2 3 1.7 1.3-.2 2.5-1 3.7-1.4 4-1.3 8.7 1.3 10 5.2 1.2 4-.8 8.5-4.4 10.7-2.5 1.5-6 1.8-8.5 0l-7.8 4c-7.7-.7-13.3-10.5-20.8-8.7a7.4 7.4 0 0 0-5 4.8c-18.9-9.8-9.6 28.7-13.8 55.9a45.4 45.4 0 0 1 24.6-4.8h51.7c25.9-1 36 11.6 36 11.6l15.1 21.5c5.7 7 14.3 8.7 24.4 7.5l-.1-.2c-1-1.8-.5-4.2 1-5.5 1.6-1.3 4.1-1.3 5.7 0 1.7-1.5 2.2-3.9 3.2-6 1-2 3-4 5.2-3.4 1.3.3 2.3 1.5 3.6 1.6 1.5.1 2.7-1 3.8-2a12.5 12.5 0 0 1 15.4.6l.9 1c6.3-3.3 12.5-6.7 18.2-10a89 89 0 0 0 15.9-11.7l-1.4-.6c1.4-1.7 2-4 3-6 1-1.9 2.5-3.9 4.7-4.5 1.3-.4 2.8-.1 3.8.6 14.8-17.1 28-41 36.2-69.3a276.7 276.7 0 0 0-98.1-79.2 287.8 287.8 0 0 0-146.8-28c-3.4.4-6.7.5-9.9 1l-9.4 1.2c-3 .4-6 1-8.9 1.5l-8.4 1.6c-10.8 2.4-20.3 5-28.4 7.7l-11.2 3.8-9 3.6c-2.8 1-5.1 2.1-7.1 3l-5 2.3-4.2 1.9-4 2-4.9 2.7Zm111.7 107.3c1.4-.2 2.9-.3 4.3 0 5 1 8 5.7 10.3 10-.2 1-.6 1.8-1.1 2.6-4.1-4.7-8.6-8.9-13.5-12.6Zm-21.8-93.8c0 .3-.3.6-.4.8a11 11 0 0 1-14.4 2.9 15 15 0 0 1 12.2-6.7c1.4.6 3 1.6 2.6 3ZM493 404c-.1-2 1.2-4.2 3.2-4.4 1.5 1.8 4.1 2.5 6 4.1 1.8 1.8 2.5 4.3 3.2 6.8.4 1.5.7 3.2-.2 4.5-.7.9-1.8 1.3-2.8 1.9-2.7 1.7-3.6 5.4-2.6 8.4.9 2.5 2.7 4.5 3.7 7 1 2.4.6 5.9-1.9 6.8-2.1.9-4.6-.6-6.8 0-1 .2-2 .9-3 1-2 .3-3.6-1.3-4.9-2.7l-4.1-4.6a17.8 17.8 0 0 1-4-5.7c-2-5.7 2-6.4 6-7.3 3.7-.8 5.3-2.6 7.4-6.1.2-.3 2.6-5.3 3.3-4.3a11.7 11.7 0 0 1-2.5-5.4Zm-25.5-81.6c1 .3 1.8.9 2.7 1.2 2.2.8 4.7.5 6.7 1.6.8.3 1.4.8 2 1.3 1.6 1 3.5 1.6 5.3 1.6.9 0 1.7 0 2.5.3.6.3 1.1.8 1.5 1.3a14 14 0 0 1 2.7 4.4c-3-.3-5.8-1.3-8.2-3-.8-.6-1.5-1.2-2.4-1.6-1.4-.5-3-.3-4.4-.6-2.1-.3-4-1.4-5.9-2.5l-5.3-3.3c.6-.8 1.8-1 2.8-.7ZM460.7 441a30 30 0 0 1-16 18.2 43.4 43.4 0 0 1-38.7 1c-12-6-20.5-19-19.9-32.2.7-13.2 11-25.6 24.3-27.7 17.8-5.3 36 5 44.5 17 5 6.8 7.9 15.6 5.8 23.7Zm-13.5-128.8c1.4.2 2.6.9 3.7 1.6l4 2.3c.5.3 1.1.7 1.3 1.3.2.8-.4 1.7-1.2 2-.9.2-1.7 0-2.6-.1-1.9-.4-3.8-.8-5.5-1.7-1.6-.9-3-2.4-3.3-4.3.8-1 2.3-1.4 3.6-1.1Zm-18.1 33.7c1 1.2.7 3 .3 4.6-.4 1.5-.6 3.5.7 4.4.8.6 1.8.6 2.7.6h4.3c1.6 0 3.4.2 4.7 1.2 1.6 1.4 1.5 4 .4 5.7a9.5 9.5 0 0 1-5 3.4c-2 .6-4.1 1-6 1.9-3 1.3-5.3 3.7-8.2 5-.8.3-1.6.5-2.5.6-2.7.2-5-1.8-7-3.7-1.6-1.4-3.1-2.8-3.5-4.8-.6-2.7.9-6-1.2-7.9-.8 1.1-2.8.1-3-1.2 0-1.4 1-2.5 1.9-3.5l4.5-5c1-1 2-2 3.3-2.6 1-.4 2-.5 3.1-.6 2.7-.1 5.5.1 8.1.7.9.2 1.8.5 2.4 1.2Zm-2.6-8.7c-1.8 1-3.8 1.6-5.9 1.8-1.6 0-3.3 0-4.8.4-.8.2-1.5.6-2.3 1l-7.8 4.1c-1.5-2.5-3-5.3-2.4-8 .3-1.1.8-2 1.4-3 2.3-3.7 5-7 8.2-10 1-1 2.1-2 3.5-2.4 1.4-.5 3-.4 4 .7 2.4 2.3-.3 6.6 1.4 9.3.7 1.2 2 1.8 3.1 2.6s2.1 2.2 1.6 3.5Zm-175-5.6c1.9-6.1 8.5-10.5 15-9.8 1.3 0 2.5.4 3.7.1 3.3-.5 5-4.4 8-5.6 1.5-.5 3.2-.4 4.8-.3l14.7 1c2.5.2 5 .4 7.5-.3 2.6-.7 4.9-2.4 7.5-2.9a18 18 0 0 1 4-.1l6.2.2c3.7.1 7.4.3 10.7 1.9 4 1.9 7.3 6 11.7 6 2.6 0 5-1.5 7.1-2.8 6.6-3.8 13.3-7.2 20.3-10.2 1.5-.6 3-1.2 4.5-1.2 2.2 0 4.2 1 6.3 1.5 7.3 1.7 14.5-3.7 22-3.2 3.9.2 7.4 2 10.9 3.8l6.4 3.3a166.2 166.2 0 0 1-36.9 22.3c-4 1.2-8.2 1.7-12.4 2.1-3.5.4-7.4.7-10.3-1.3-3-2-3.7-7.2-.4-8.6.3-.2.7-.3 1-.2.7 0 1.3.5 1.8 1a15.2 15.2 0 0 0 16.7 1.4c.5-.3 1-.7 1.3-1.2.2-.7-.2-1.5-.7-2-2.7-4-7.9-5.8-12.6-5.4-4.8.5-9.2 3-12.4 6.5-1.8 1.9-3.5 4.1-6 4.8-2.4.7-5.8-1.3-5-3.8.4-1 1.2-2.7.1-3-4-.8-8.2-.2-11.7 1.7-1.7 1-3.2 2.2-5 2.8-2 .5-4.3.1-5.2-1.6l-.7-1.7c-1.2-2.2-4.4-1.7-6.9-1.4-6 .7-12-1.7-18-.9-11.1 1.6-18.7 14.1-30 14.4-1.7 0-3.6-.3-4.7-1.6s-.8-3.7.8-4.2c.1-1.2-1.7-1.3-2.9-.9l-6.8 2.4c-1.5.5-3.7.9-4.5-.5-.4-.8-.2-1.7 0-2.5Z" fill="#F5F5F5"/><path d="M297.1 476.5a48.2 48.2 0 0 0-17 14.3l-9.5 12.8a21 21 0 0 1-2 2c-3 1-5.3 1.4-7.1 1.7l2.8 1.4c-18 9.6-50.3-6.2-75-20.2-22-12.5-44-40.9-57.6-79v-.1l-1.4-4.2 13.4-17.1c2.8-3.7 5.7-7.3 9.3-10.3l1.6-1.4 1.4-1.8a64.4 64.4 0 0 1 20.2-17.8h.3c.5-.5 1.1-1 2-1.3l3-1-5.4 7.3c-1.1 1.5-2.3 3.1-2.4 5 0 .7 0 1.5-.5 2-.6.7-1.7.6-2.2 1.3-.3.3-.3.8-.4 1.3-.3 2.6-2 5-4.4 6.2.6.8.4 1.8.1 2.7l-1 3.9c.4-1 .8-1.9 1.5-2.6l2.3-1.6c2.3-1.5 4.8-2.1 5.5-4.7l.4-1.3c-1.3.9-2.4 2-3.3 3.2-.5.7-1.3 1.5-2 1.1l1.4-2.5c1.2-1.8 2.7-3.4 4.7-4.3.9-2.5 2.2-4.7 4.6-5.9 1.3-.6 2.8-.8 4.2-1.4 2.7-1.2 4.6-3.7 6.5-6a58.7 58.7 0 0 1 30-19.4c6.6-1.6 13.5-2 20.4-2.3 2 0 4.4.2 4.8 2-6.9 2-13.5 5-19.5 8.7-4.8 3-9 9.2-14.8 9-1 0-1.8-1.5-2.8-1.1-1.6.6-2.2 6.1-1 6-4 .4-6.5 3.6-8 7-1.5 3.5-2.9 7.5-6.4 9-2.4.8-5 .3-7.5.4-2.5 0-5.5 1.1-6 3.5-1 3.7 4.2 7.6 3.2 10.7.5.2.8.7.7 1.2 0 .5-.3 1-.5 1.4l-2.3 3.8c.1 2-1.8 3.4-2.8 5a5.6 5.6 0 0 0-.4 4.3c1-.5 2.2-.5 3 .2 0 1-.3 2-1 3l1 .5a6 6 0 0 0 7.8-2.8c.5-1 .7-2.3 1.4-3.1.8-.8 2-1 3.2-1.3l7-1.3 2.3-8.4c.6-2 1.4-4.3 3.4-5 2.7-1.1 6.8 1 8.2-1.4-3-1.3-4.8-4.6-4.9-7.9 0-1.7.5-3.3 1.2-4.9l-.5.4a9.9 9.9 0 0 1-5.7 2.3c-2 0-3.9-1-5-2.6-.3-.5-.6-1-.5-1.5 0-.5.1-.8.3-1.2 1.5-3.4 3.6-6.5 6.3-9 .6-.6 1.2-1.2 2-1.5 2.3-1.1 5.3-.3 7.2-1.8l1.4-1.2c1-.5 2.3-.2 3.5 0 1.1.3 2.6.3 3.2-.7l.8.5a9 9 0 0 1-3 4.8l-1.7 1.5c-.7.7-1.2 1.6-1.7 2.5 5.9-4.1 13.8-5.5 21.2-5.1 1.1 0 2.4.1 3.4-.5 1.5-.8 2-2.6 3-3.8 1.8-2.1 5-2.5 7.2-4.1 2-1.4 3.2-3.7 4.9-5.6 4.6-5.2 12.2-6.3 19.2-7 2-.3 4-.5 5.7.4 1.4.7 2.4 2 3.7 2.8 5.5 3.6 12.8-2.3 19.3-1.1 2 .4 3.8 1.4 5.8 1.2 1.7 0 3.3-1.1 5-1.6 4.4-1.3 9.1 1.1 12.5 4.3 3.3 3.1 5.7 7 9.2 10.1a9 9 0 0 1 11.6 2.1c.7 1 1.2 2 2.2 2.8.8.6 2 .8 3 1l9.7 2c-1.4 2-1.4 5 0 7 .8 1 1.8 2 2 3.2.7 2.8-3 5.1-2.9 8 .1 1.4 1 2.5 1.5 3.8 1.7 5.1-4.8 9.7-4.2 15-3.6.6-7.1-1.2-10.7-2-3.6-.8-8.3.3-9 3.9.2 1.2 1.8 2 3 1.7 1.3-.2 2.5-1 3.7-1.4 4-1.3 8.7 1.3 10 5.2 1.2 4-.8 8.5-4.4 10.7-2.5 1.5-6 1.8-8.5 0l-7.8 4c-7.7-.7-13.3-10.5-20.8-8.7a7.4 7.4 0 0 0-5 4.8c-18.9-9.8-9.6 28.7-13.8 55.9Zm42-37.2c-2.5-4.3-5.5-9-10.4-10-1.4-.3-2.9-.2-4.3 0 4.9 3.7 9.4 8 13.5 12.6.5-.8.9-1.6 1.1-2.6Zm-39-106.8a15 15 0 0 0-12.3 6.7 11 11 0 0 0 14.4-2.9l.4-.8c.3-1.4-1.2-2.4-2.6-3Zm-44.2 2.1 6.8-2.4c1.2-.4 3-.3 3 1-1.7.4-2 2.8-1 4.1 1.2 1.3 3.1 1.7 4.8 1.6 11.3-.3 18.9-12.7 30-14.4 6-.8 12 1.6 18 1 2.5-.4 5.6-.9 6.9 1.3l.7 1.7c.9 1.7 3.3 2.1 5.1 1.6 1.9-.6 3.4-1.8 5.1-2.8 3.5-2 7.8-2.5 11.7-1.6 1.1.3.3 1.9 0 3-.9 2.4 2.5 4.4 5 3.7 2.4-.7 4-3 5.9-4.8 3.2-3.4 7.6-6 12.4-6.4 4.7-.5 9.9 1.4 12.6 5.2.5.6.9 1.4.7 2-.2.6-.8 1-1.3 1.3-5.1 3-12 2.3-16.7-1.4-.5-.5-1-1-1.8-1-.3 0-.7 0-1 .2-3.3 1.4-2.6 6.6.4 8.6s6.8 1.7 10.3 1.3c4.2-.4 8.4-.9 12.4-2.1 5-1.5 9.4-4.2 13.7-6.8 8-4.7 16-9.5 23.2-15.5l-6.4-3.3c-3.5-1.8-7-3.6-10.9-3.8-7.5-.5-14.7 5-22 3.2-2-.4-4-1.5-6.3-1.5-1.5 0-3 .6-4.5 1.2-7 3-13.8 6.4-20.3 10.2-2.2 1.4-4.5 2.8-7 2.8-4.5 0-7.8-4-11.8-6-3.3-1.6-7-1.8-10.7-2l-6.2-.1a18 18 0 0 0-4 .1c-2.6.5-5 2.2-7.5 3-2.4.6-5 .4-7.5.3l-14.7-1c-1.6-.2-3.3-.3-4.7.3-3.2 1.1-4.8 5-8.1 5.6-1.2.2-2.4-.1-3.6-.2a14.8 14.8 0 0 0-15.2 9.8c-.2.8-.4 1.8 0 2.5.8 1.4 3 1 4.5.5Zm272.1 131c-2.2.6-3.6 2.6-4.6 4.6-1 2-1.7 4.2-3.1 6l1.4.5c3.4-3.1 6.8-6.6 10.1-10.5-1-.7-2.5-1-3.8-.6ZM421.8 331c-1.7-2.7 1-7-1.3-9.3-1-1-2.7-1.2-4-.8a10 10 0 0 0-3.6 2.5c-3.2 3-6 6.3-8.2 10-.6 1-1.1 1.9-1.4 3-.6 2.7 1 5.5 2.4 8l7.8-4c.8-.5 1.5-.9 2.3-1 1.5-.6 3.2-.4 4.8-.5 2-.2 4.1-.8 6-1.8.4-1.3-.6-2.7-1.7-3.5-1-.8-2.4-1.4-3.1-2.6Zm-3.2 13c-1 0-2.2.1-3.1.5-1.3.6-2.3 1.6-3.3 2.7l-4.5 4.9c-1 1-2 2.1-1.8 3.5.1 1.3 2.1 2.3 2.9 1.2 2 1.8.6 5.2 1.2 8 .4 1.9 2 3.3 3.4 4.7 2 1.9 4.4 3.9 7.1 3.7.9 0 1.7-.3 2.5-.7 2.9-1.2 5.2-3.6 8.2-5 1.9-.8 4-1.1 6-1.8 1.9-.7 3.9-1.7 5-3.4s1.2-4.3-.4-5.7c-1.3-1-3-1.1-4.7-1.1h-4.3c-1 0-2-.1-2.7-.7-1.3-1-1.1-2.9-.7-4.4.4-1.6.8-3.4-.3-4.6-.6-.7-1.5-1-2.4-1.1-2.6-.7-5.4-.9-8.1-.8Zm28.3-26.5c1.7 1 3.6 1.3 5.5 1.7.9.1 1.7.3 2.6 0 .8-.2 1.4-1 1.2-1.9-.2-.6-.8-1-1.3-1.3l-4-2.3c-1.1-.7-2.3-1.4-3.7-1.6-1.3-.3-2.8 0-3.6 1 .2 2 1.7 3.5 3.3 4.4Zm29 11.2c1.5.3 3 0 4.4.6.9.4 1.6 1 2.4 1.6 2.4 1.7 5.3 2.7 8.2 3a14 14 0 0 0-2.7-4.4c-.4-.5-.9-1-1.5-1.3-.8-.3-1.6-.2-2.5-.3-1.8 0-3.7-.6-5.2-1.6-.7-.5-1.3-1-2-1.3-2.1-1-4.6-.8-6.8-1.6-.9-.3-1.8-1-2.7-1.2-1-.3-2.2-.1-2.8.7l5.3 3.3c1.9 1 3.8 2.2 5.9 2.5Zm16.3 84.8c-2 3.5-3.7 5.3-7.4 6-4 1-8 1.7-6 7.4.8 2.2 2.4 4 4 5.7l4.1 4.6c1.3 1.4 3 3 4.9 2.7 1-.1 2-.8 3-1 2.2-.6 4.7.9 6.8 0 2.5-1 2.9-4.4 2-6.8-1-2.5-3-4.5-3.8-7-1-3 0-6.7 2.6-8.4 1-.6 2.1-1 2.8-2 1-1.2.6-2.9.2-4.4-.7-2.5-1.4-5-3.3-6.8-1.8-1.6-4.4-2.3-6-4.1-2 .2-3.2 2.4-3 4.4 0 2 1.2 3.7 2.4 5.4-.7-1-3.1 4-3.3 4.3Zm-20.9 83.2c-1.1 1-2.3 2.1-3.8 2-1.3-.1-2.3-1.3-3.6-1.6-2.2-.6-4.3 1.4-5.2 3.5-1 2-1.5 4.4-3.2 5.9a4.7 4.7 0 0 0-5.7 0 4.5 4.5 0 0 0-1 5.5l.1.2a128 128 0 0 0 38.7-14l-.9-1c-4.2-3.6-11-3.8-15.4-.5Zm-60.9-96.5a30.1 30.1 0 0 0-24.3 27.7 35.4 35.4 0 0 0 19.9 32.2c12 6 27 5.2 38.8-1 7.4-3.9 13.9-10.2 15.9-18.2 2-8.1-.8-16.9-5.8-23.8-8.5-11.8-26.7-22.2-44.5-16.9Z" fill="#E0E0E0"/><path d="M159.7 231.4c10.2-9.2 30.4-22 43-27.5 64.4-28 118.4-32.4 182.5-24.9-1.7-.2-51.2 6-77.6 12.6-34.3 8.7-66.2 17.4-101.1 34.6-17.2 8.4-29 17.3-40.6 27.4-8.2 7.2-18.5 20-27 33.5-2.2-18.9 9.1-45 20.8-55.7Z" fill="#fff"/><path d="M489.4 253.7c9.8-11.9 8.6-29.1-2.7-38.5a27.3 27.3 0 0 0-38.3 4.7 27.3 27.3 0 0 0 2.7 38.5 27.3 27.3 0 0 0 38.3-4.7Z" fill="#4E97B7"/><g opacity=".2"><path d="M445.8 228.7a18 18 0 0 0 7.2-1.4c.6-.2.3-1-.2-1-2.1-.2-4.1-.5-6.3-.5h-1.8a29 29 0 0 0-1.2 2.7l2.3.2Z" fill="#000"/><path d="M448.2 233c5.8.2 11.5-1 17-3.2a48 48 0 0 0 20-15.7 25 25 0 0 0-2.4-1.5 46.7 46.7 0 0 1-29.8 18c-3 .4-7 .8-10.1-.1l-.5 1.8c2 .5 4.3.7 5.8.7ZM460.5 216.4c2.7-.9 7.4-3.6 8.6-7-1 0-1.9.2-2.8.3 0 .2-.2.4-.3.5a18 18 0 0 1-13.6 5.8L451 217c3 1.1 7 .2 9.5-.7Z" fill="#fff"/><path d="M452 242.2c6.9-.3 13.5-2.6 19.9-5.6a49.7 49.7 0 0 0 19.7-16 25.5 25.5 0 0 0-4.1-4.7 40.6 40.6 0 0 1-5.7 6.5c-4 3.7-8.7 6.4-13.5 8.7a51.3 51.3 0 0 1-16.1 4.8 40.1 40.1 0 0 1-10.3-.4c-.2 2-.2 4 0 5.8 3.3.8 7 1 10 .9ZM464 257a91 91 0 0 1-11.7 2.3c.6.5 1.1.9 1.7 1.2a91.4 91.4 0 0 0 40.6-16.3l.6-1.6A103.3 103.3 0 0 1 464 257Z" fill="#000"/><path d="M462.4 220.3c3.7-1.4 7.3-3.4 10.1-6.4 1-1 2.1-2.4 3-4l-2.5-.3c-.7 1.2-1.5 2.3-2.5 3.3a31 31 0 0 1-22.8 7.9l-1.1 1.6c5.1 1 11.5-.6 15.8-2.1ZM496 235.6a67.7 67.7 0 0 1-18 13.3 65.3 65.3 0 0 1-14.9 5c-4.7 1-10 2.2-14.9 1.7l1.3 1.4c3.7.2 7.9-.7 11.4-1.4a67.5 67.5 0 0 0 35-17.1v-.2l.2-2.7Z" fill="#fff"/><path d="M476.5 247.1a69.5 69.5 0 0 0 19.5-13.8c-.3-3.5-1.2-6.8-2.7-9.8a44 44 0 0 1-5.5 6 62.6 62.6 0 0 1-33.6 15.3 44.4 44.4 0 0 1-11.8-.5 26 26 0 0 0 4 9.1c2.6.3 5 .3 7.5.1 7.8-.6 15.4-3 22.6-6.4Z" fill="#fff"/><path d="M471.7 217.4c-1.9 1.2-3.4 3-5.6 4-2.2 1-4.7 1.5-6.7 3-1 .7 0 2 1 1.9 2.5-.4 5.3-2 7.7-3.3 1.9-1 4-2.6 4.6-4.7.2-.6-.3-1.3-1-1Z" fill="#000"/><path d="M476 258.6a7 7 0 0 0-1.3 1c-.4.3 0 1 .5.8l1.2-.6c.5-.1.8-.4 1.2-.6.4-.2.3-.8-.1-.8-.6 0-1-.1-1.6.2Z" fill="#fff"/><path d="M489 249.5c-2.6 1.6-5.9 2.6-8.2 4.6-.6.5-.3 1.5.4 1.5 3.3-.1 6.6-2.3 9.4-4l.7-.4c1-1.5 1.8-3 2.5-4.7l-4.7 3Z" fill="#000"/><path d="M470.3 260.5c.8-.6 0-1.5-.6-1.4-2.5.2-5 1.5-7.5 2-1.6.5-3.2.8-4.9 1.1 1.2.5 2.5 1 3.8 1.3 3.4-.4 6.8-1.2 9.2-3Z" fill="#fff"/></g><path d="m478 260.4-.8.4-2.2 1a24.5 24.5 0 0 1-15.6 0l-1.2-.5a8.7 8.7 0 0 1-1.7-1s1.1.6 3 1.2a25.5 25.5 0 0 0 15.4 0c2-.6 3-1.2 3-1Z" fill="#fff"/><path d="M488.8 219c.2 0-.2.7-1 1.9l-.6.9-.8 1c-.6.7-1.3 1.6-2.2 2.4l-1.3 1.4-1.6 1.3c-1 1-2.3 1.9-3.6 2.8a51 51 0 0 1-19.1 7.7c-1.6.3-3.1.5-4.6.5l-2 .1h-2l-3.2-.2-1.3-.2-1-.2c-1.4-.3-2.1-.5-2-.7 0-.1.7-.2 2-.1H450.1l1.8-.1 2-.2c1.4-.1 2.8-.4 4.3-.7a58.6 58.6 0 0 0 18.5-7.4l3.6-2.6 1.5-1.2 1.4-1.2c1-.7 1.7-1.5 2.4-2.2l.9-.9.8-.7c.9-1 1.4-1.5 1.5-1.4Z" fill="#4E97B7"/><path d="M494.7 243.9v-.2l.1-.6.5-2.3v-.4c.3-2.1.5-5.2-.3-9v.1a26.2 26.2 0 0 0-15.9-19.2h.2v.1h-.2a25.6 25.6 0 0 0-19.7.3 29 29 0 0 0-16.4 18.7s.2-1.2.9-3.2 2.1-4.9 4.6-7.8a29.1 29.1 0 0 1 18.5-10.2 24.2 24.2 0 0 1 12.2 1.8h-.2.2a26.4 26.4 0 0 1 16.1 19.4v.1-.1c.8 3.8.5 6.9.2 9v.4l-.6 2.3a158.8 158.8 0 0 1-.2.8Z" fill="#fff"/><path d="m443.2 247-.3-.8c-11.8 6.4-17.2 10.6-18 12.5v.4c0 .2.2.2.3.3 1.4.5 8.6 1 44.6-15.4a183.2 183.2 0 0 0 41-23.8c.6-.5.2-1.3-.5-1.3-2.8.4-8.6 1.8-17 4.7l.3.7c7-2.4 11.4-3.4 11.8-2.4.8 2-15 11.2-35.5 20.5-20.4 9.3-37.6 15.2-38.4 13.2-.5-1 4.1-4.3 11.7-8.5Z" fill="#4E97B7"/><path d="m492 221.1.3.5c10.7-3.8 18.5-5.6 20.8-4.7.8.3 1.2.9 1.2 1.7 0 .8 0 3.2-13.3 11.4-8.5 5.3-19.3 11-30.3 16-4.7 2.2-9.7 4.4-14.6 6.4-14.1 6-27.7 10.7-31.8 9-.9-.3-1.3-.9-1.5-1.3-.1-.5-.3-1.2 0-2.1 1.5-3.5 10-9 19.4-14v-.4c-16 8.8-25.7 16.2-25 19.3 1.7 6.7 26.3-1.4 54.6-14.3 28.4-13 49.8-28.3 48-32.5-1-2.7-12.2-.6-27.8 5Z" fill="#4E97B7"/><path d="M498.8 224.2c.2 0-1.1 1.3-1.2 1.4l-1.7 1.2-4.9 2.9c-2.3 1.3-4.8 2.3-7 3.9-.2.1 0 .4.2.4a44.1 44.1 0 0 0 14.4-8c.6-.5 1.5-1.1 1.2-2-.2-.5-.6-.6-1.2-.4-.3.2-.2.7.2.6Z" fill="#4E97B7"/><g opacity=".3" fill="#000"><path d="m443.2 247-.3-.8c-11.8 6.4-17.2 10.6-18 12.5v.4c0 .2.2.2.3.3 1.4.5 8.6 1 44.6-15.4a183.2 183.2 0 0 0 41-23.8c.6-.5.2-1.3-.5-1.3-2.8.4-8.6 1.8-17 4.7l.3.7c7-2.4 11.4-3.4 11.8-2.4.8 2-15 11.2-35.5 20.5-20.4 9.3-37.6 15.2-38.4 13.2-.5-1 4.1-4.3 11.7-8.5Z"/><path d="M498.8 224.2c.2 0-1.1 1.3-1.2 1.4l-1.7 1.2-4.9 2.9c-2.3 1.3-4.8 2.3-7 3.9-.2.1 0 .4.2.4a44.1 44.1 0 0 0 14.4-8c.6-.5 1.5-1.1 1.2-2-.2-.5-.6-.6-1.2-.4-.3.2-.2.7.2.6Z"/></g><path d="m492 221.1.3.5c10.7-3.8 18.5-5.6 20.8-4.7.8.3 1.2.9 1.2 1.7 0 .8 0 3.2-13.3 11.4-8.5 5.3-19.3 11-30.3 16-4.7 2.2-9.7 4.4-14.6 6.4-14.1 6-27.7 10.7-31.8 9-.9-.3-1.3-.9-1.5-1.3-.1-.5-.3-1.2 0-2.1 1.5-3.5 10-9 19.4-14v-.4c-16 8.8-25.7 16.2-25 19.3 1.7 6.7 26.3-1.4 54.6-14.3 28.4-13 49.8-28.3 48-32.5-1-2.7-12.2-.6-27.8 5Z" fill="#000" opacity=".3"/><path d="m205.5 574.9-29-12.9a30.5 30.5 0 0 0-10 23.9c0 15.3 9 27.7 20.4 27.7 11.3 0 20.4-12.4 20.4-27.7 0-3.5-.9-8-1.8-11Z" fill="#E0E0E0"/><path d="M199.4 580.3a26 26 0 0 0-3.3-9.1l-19.3-8.8c-2.5 0-5.1.3-7.7.7-12.4 2-14.1 1.6-27.1 1.6-13.4 0-21.5-.7-33.2-3.6a84.7 84.7 0 0 1-28.6-12c-4.7-3-5.3-3.2-10.6-8.3a94.5 94.5 0 0 1-8.3-9.6 52.6 52.6 0 0 1-9.7-24.2c-1-9 0-16.3 3.9-26.7l2.2-4.7a87 87 0 0 1 7.9-12.3c1.7-1.9 3.4-3.8 5.3-5.6 7.5-7.4 8.9-9 19.8-14.3l-12-47.6-4.1 1.3c-3 1-6 2.3-8.7 3.8A123.5 123.5 0 0 0 9.3 464a101.2 101.2 0 0 0 8.1 89.9c16.8 26.8 44 45 74.3 53.5 33.2 9.5 57 8.7 90.5 3.2 13.1-2.2 20.4-12 17.2-30.3Z" fill="#263238"/><path d="M147.3 563.5c2.8 17.1 2.7 34.6-.4 51.7-.5 2.5 3.5 3.5 4 1 3.2-17.9 3.3-36 .3-53.8-.4-2.5-4.4-1.3-4 1.1Z" fill="#263238"/><path d="M147.3 563.5s-.3-.4 0-1.2c.2-.3.5-.8 1-1.1.5-.3 1.3-.5 2-.2.4.1.8.5 1 1l.2 1.2.5 3a147.8 147.8 0 0 1-.5 49l-.3 1.6a2 2 0 0 1-1.5 1.2c-1.2.3-2.5-.2-3-1.4-.4-.5-.3-1.2-.2-1.7l.2-1.5.5-2.8a149.4 149.4 0 0 0 .6-42.4l-.5-3.5v-1.2l.2 1.2.6 3.4a129.1 129.1 0 0 1 1.2 31.5 144.7 144.7 0 0 1-1.7 14l-.2 1.5v1.1c.4.7 1.4 1.1 2.1.9.4-.1.7-.3.8-.7l.3-1.4a158.5 158.5 0 0 0 1-48.8l-.5-2.9-.2-1.2c-.2-.4-.4-.7-.7-.8a2 2 0 0 0-1.8.1l-1 1c-.2.7 0 1.1-.1 1.1Z" fill="#455A64"/><path d="M167.4 560.9c6 17 8.2 35 6.5 53-.2 2.5 3.9 2.4 4.1-.2 1.8-18.2-.5-36.7-6.7-54-.8-2.4-4.7-1.2-3.9 1.2Z" fill="#263238"/><path d="m167.4 560.9-.1-.3v-1c.2-.8 1.5-1.8 3.1-1.2.4.2.8.5 1 1l.5 1.2 1 2.9a124 124 0 0 1 5.7 49.7c-.1.5-.2 1.2-.5 1.7-.4.6-1 1-1.5 1.1-.6.2-1.2.2-1.8 0a2 2 0 0 1-1.3-1.4v-1.7l.2-1.5c0-1 0-2 .2-3a130.9 130.9 0 0 0-5.2-43l-1-3.3a6 6 0 0 1-.3-1.2l.5 1.1 1.2 3.4a109.2 109.2 0 0 1 5.7 31.7c.2 3.6.2 7.4 0 11.4l-.2 3-.2 1.5v1.4c.1.7 1.1 1 2 .7.3 0 .7-.3.9-.7a128.4 128.4 0 0 0-5-50.8l-.8-2.8c-.3-1-.5-1.7-1.2-2-.6-.4-1.3-.3-1.8 0-.6.2-.9.6-1 1-.3.6 0 1 0 1Z" fill="#455A64"/><path d="M20.1 557.6c9-14.5 23.7-25 40.4-28.8 2.5-.5 1.5-4.5-1.1-4a68.4 68.4 0 0 0-42.8 30.8c-1.4 2.2 2.1 4.3 3.5 2Z" fill="#263238"/><path d="m20.1 557.6-.1.3-.7.6c-.4.2-1 .3-1.5.1-.6-.1-1.3-.5-1.6-1.3-.1-.4-.2-.8 0-1.3 0-.4.3-.8.6-1.1l1.6-2.5a69.1 69.1 0 0 1 18.4-18.2c5.8-4 13-7.4 21-9.4l1.4-.3c.6-.2 1.2-.2 1.8.1 1.1.6 1.6 2 1.3 3.1-.2.6-.6 1.2-1.2 1.4l-1.5.4-2.8.8a64.8 64.8 0 0 0-34 23.6c-1.8 2.4-2.6 3.8-2.7 3.7l.6-1 1.8-2.9a63.5 63.5 0 0 1 34-24.3l2.9-.8 1.3-.3c.4-.2.6-.5.7-.8.2-.7-.2-1.7-.8-2-.4-.2-.8-.2-1.2-.1l-1.4.3a67.3 67.3 0 0 0-39.2 27L17 555c-.5.7-.8 1.4-.6 2 .3.7.8 1.1 1.4 1.3.5.2 1 0 1.3 0 .7-.4.8-.8.9-.8Z" fill="#455A64"/><path d="M42.3 582.6A63.8 63.8 0 0 1 77 544c2.4-1 .3-4.6-2-3.6a67.8 67.8 0 0 0-36.5 41.2c-.8 2.5 3.2 3.6 4 1.1Z" fill="#263238"/><path d="M42.3 582.6v.3l-.6.8c-.3.3-.8.5-1.5.5-.6 0-1.4-.3-1.8-1-.3-.4-.3-1-.3-1.4 0-.5.3-.9.4-1.3l1-3a66.5 66.5 0 0 1 33.7-36.9l1.4-.7c.6-.2 1.3-.3 2 0 1.1.3 2 1.5 1.8 2.8a2 2 0 0 1-1.2 1.5l-1.3.7-2.7 1.4a61.4 61.4 0 0 0-22.8 20.4c-3.1 4.5-5 8.6-6.2 11.4l-1.9 4.5.4-1.2c.2-.8.5-2 1.1-3.4a63.5 63.5 0 0 1 29-32.6l2.7-1.3 1.3-.7c.4-.2.6-.5.7-.8.1-.8-.5-1.7-1.3-1.9H75l-1.4.8A66.4 66.4 0 0 0 43.1 571a70.1 70.1 0 0 0-3.1 6.7l-1 3c-.4.8-.7 1.6-.3 2.2.3.6 1 1 1.5 1 .6 0 1-.1 1.4-.3.6-.5.7-1 .7-1Z" fill="#455A64"/><path d="M93.1 554c-10.5 15-17 32.7-18.7 51.1-.3 2.4 3.5 2.4 3.7 0 1.7-17.7 8.1-34.7 18.3-49.2 1.3-2-1.9-3.9-3.3-2Z" fill="#263238"/><path d="m93.1 554 .2-.3c.1-.2.4-.4.7-.5.4-.2 1-.2 1.6 0a2 2 0 0 1 1.3 1.6c0 .4-.2.9-.4 1.3l-.7 1-1.7 2.6a101.5 101.5 0 0 0-11 23.7 100 100 0 0 0-3.9 16.7l-.4 3-.2 1.5c0 .4 0 1.1-.4 1.7-.8 1-2.3 1.4-3.4.7a2 2 0 0 1-.9-1.7l.1-1.5a116 116 0 0 1 3.3-17 106 106 0 0 1 13-29l2-2.9.8-1-.6 1.1-1.8 3A109 109 0 0 0 75 603.9l-.2 1.4c0 .4.2.7.5 1 .6.3 1.7.1 2-.5.3-.4.3-.7.4-1.3l.2-1.5c0-1 .2-2 .4-3a89.3 89.3 0 0 1 4-16.8 101.5 101.5 0 0 1 11.4-23.8l1.7-2.5c.5-.8 1.1-1.4 1.1-2 0-.8-.6-1.2-1-1.5a2 2 0 0 0-1.4 0c-.7.2-1 .6-1 .6Z" fill="#455A64"/><path d="M121.4 562.2a153.8 153.8 0 0 0-12 50.7c0 2.3 4 2.3 4.1 0 1-17 5-33.8 11.8-49.7 1-2.3-3-3.2-4-1Z" fill="#263238"/><path d="M121.4 562.2s0-.5.6-1c.4-.2.9-.4 1.5-.4.5 0 1.3.2 1.8.8.3.3.4.8.3 1.3l-.5 1.2-1 2.7a167.3 167.3 0 0 0-9.7 40.7l-.2 3-.1 1.4c0 .5 0 1-.2 1.6-.5 1.3-1.9 1.8-3 1.6-.5-.1-1.1-.4-1.5-.9-.4-.5-.4-1.3-.4-1.7a155.5 155.5 0 0 1 6.3-34.5c1.5-5 3-9 4.2-11.7l1.3-3c.3-.8.5-1.1.6-1.1l-.4 1-1.2 3.3a166.8 166.8 0 0 0-9.9 46c-.1 1 .3 1.5 1.2 1.7.8 0 1.7-.3 2-1v-1.4l.2-1.4.2-3a131.6 131.6 0 0 1 2.6-16.4 146.6 146.6 0 0 1 8.6-27l.5-1.2c0-.4 0-.7-.2-1a2 2 0 0 0-1.5-.7c-.6 0-1 0-1.3.3-.7.4-.8.8-.8.8Z" fill="#455A64"/><path d="M3.8 522.6a59.1 59.1 0 0 1 48.7-10.7c2.6.6 3.7-3.3 1.1-4A63 63 0 0 0 1.7 519c-2 1.6 0 5.2 2 3.6Z" fill="#263238"/><path d="m3.8 522.6-.3.2c-.1.1-.4.3-.8.3-.9 0-2.2-1-2-2.7 0-.4.2-.8.5-1.2l1-.8 2.5-1.8a61.8 61.8 0 0 1 47.4-9.4l1.5.3c.6.1 1.2.4 1.6 1 .7 1.1.3 2.5-.6 3.3-.4.5-1 .7-1.7.6l-1.5-.2-2.9-.6A59.4 59.4 0 0 0 7.7 520c-2.5 1.6-3.9 2.7-4 2.6l1-.8a55.3 55.3 0 0 1 14.2-7.9 58.7 58.7 0 0 1 29.8-3.2l2.9.6 1.4.2c.3 0 .7 0 1-.4.6-.5.8-1.5.4-2-.2-.4-.5-.6-1-.7l-1.5-.3a62.7 62.7 0 0 0-47 9l-2.4 1.6-1 .8a2 2 0 0 0-.5 1c-.1 1.4 1 2.4 1.7 2.4s1-.4 1-.3Z" fill="#455A64"/><path d="M4.2 485.8c15.5-8 34.9-6 48.1 5.2 2 1.7 5.1-1.2 3-2.9a48.3 48.3 0 0 0-53.2-5.8c-2.5 1.2-.3 4.8 2.1 3.5Z" fill="#263238"/><path d="M4.2 485.8s-.3.4-1.2.4c-.4 0-1-.2-1.4-.6-.4-.5-.9-1.2-.7-2 0-.4.2-.9.6-1.2l1.2-.7 2.7-1.3 3.3-1.3c1.2-.3 2.4-.8 3.8-1.1a48.5 48.5 0 0 1 41 8c.8.7 1.6 1.2 2.4 2 .5.5.7 1.2.6 1.9-.2.6-.6 1.1-1 1.5-1 .8-2.5.8-3.4 0l-2.3-1.8a42.7 42.7 0 0 0-28.6-8.2c-5.4.3-9.7 1.6-12.6 2.6-1.4.5-2.5 1-3.2 1.4a6 6 0 0 1-1.2.4l1-.6c.8-.4 1.9-1 3.3-1.5a43.6 43.6 0 0 1 41.8 5.1l2.4 1.9c.6.5 1.5.5 2.2 0 .7-.6 1-1.5.3-2-.6-.7-1.5-1.3-2.3-2a47.5 47.5 0 0 0-40.3-8c-1.3.2-2.5.7-3.7 1a2446.5 2446.5 0 0 0-6 2.4l-1.2.6c-.3.3-.4.6-.5 1a2 2 0 0 0 .6 1.7c.4.4.9.5 1.2.6.8 0 1.2-.2 1.2-.2Z" fill="#455A64"/><path d="M64 467.8a44.3 44.3 0 0 0-47.7-25.6c-2.6.4-1.5 4.4 1.1 4 18-2.9 35.7 7 43 23.7 1 2.4 4.6.3 3.5-2Z" fill="#263238"/><path d="M64 467.8s.2.4.2 1.3c0 .4-.3.9-.8 1.3-.4.5-1.2.9-2 .6-.5 0-.8-.4-1-.8l-.7-1.2c-.5-.8-.8-1.8-1.5-2.7a40.2 40.2 0 0 0-31.1-20l-3-.2-3 .1-3.1.4c-.5 0-1.2.2-1.8 0-.6-.3-1.1-.7-1.5-1.3-.3-.5-.4-1.2-.3-1.8a2 2 0 0 1 1.2-1.6l1.7-.3 1.6-.1c1-.2 2-.2 3-.2 1.1 0 2.1-.1 3.2 0 2 0 4 .3 5.9.6 2 .4 3.8.7 5.6 1.3a42.4 42.4 0 0 1 17 9.8c4.1 3.9 6.8 7.6 8.2 10.4.9 1.3 1.3 2.5 1.6 3.2l.5 1.2-2.4-4.2A43.5 43.5 0 0 0 36.3 444c-1.7-.6-3.6-1-5.4-1.4-2-.2-3.9-.5-5.9-.5h-3c-1 0-2 0-3 .2l-1.6.2c-.5 0-1 0-1.4.2-.8.3-.9 1.3-.4 2 .2.4.5.7.9.9h1.3l3.2-.4H24l3 .1A40.4 40.4 0 0 1 58.8 466l1.4 2.8c.4.9.7 1.7 1.4 1.9.7.2 1.3-.1 1.8-.5.4-.3.6-.8.7-1.2v-1.2Z" fill="#455A64"/><path d="M79.4 452.6a41.3 41.3 0 0 0-11.8-26.2c-7-7-16.4-11-26.2-11.8-2.6-.2-2.6 4 0 4.1a36.9 36.9 0 0 1 34 33.9c.1 2.6 4.2 2.6 4 0Z" fill="#263238"/><path d="M79.4 452.6v.3l-.2 1c-.4.7-2 1.3-3.4.1-.7-.5-.7-1.6-.8-2.5-.2-1-.2-2-.5-3s-.4-2.3-.9-3.4l-.6-1.9-.7-1.8a35 35 0 0 0-12-15 37 37 0 0 0-10-5.4l-3-.8c-.9-.2-1.9-.5-2.9-.6l-3-.4c-.7 0-1.3-.4-1.8-.9-.4-.5-.6-1.1-.6-1.8 0-.6.2-1.3.7-1.7.5-.5 1.2-.7 1.8-.6a46.4 46.4 0 0 1 9.2 1.7 39.6 39.6 0 0 1 28.5 35.4 47 47 0 0 0-5.2-15.8 39.5 39.5 0 0 0-29.5-20l-3-.4c-1-.1-1.6.5-1.6 1.4 0 1 .7 1.7 1.5 1.8l3.2.3 3 .7 3 .8a37.4 37.4 0 0 1 22.3 21l.7 2 .6 1.8c.4 1.2.6 2.4.8 3.5.3 1 .3 2.1.4 3 .2 1 .1 1.9.7 2.4 1 1 2.6.6 3 0 .4-.8.3-1.2.3-1.2Z" fill="#455A64"/><path d="m527 560.6-29.6 15c-.9 3-1.7 5.7-1.7 9.1 0 15 9.7 27 21.6 27 12 0 21.6-12 21.6-27 0-9.9-5.5-19.4-11.9-24Z" fill="#E0E0E0"/><path d="M506.7 579.3c.7-3.6 1.8-6.6 3.2-9L527 561c2.5 0 6.8 1.1 9.3 1.5 12 2 13.8 1.6 26.5 1.6 13 0 21-.7 32.3-3.6 11.6-2.9 18.1-5.4 27.9-11.6 4.6-3 5.2-3.2 10.4-8.2a91.4 91.4 0 0 0 8.1-9.3 51.3 51.3 0 0 0 9.5-23.6c.8-8.8 0-16-3.9-26l-2-4.7a85.2 85.2 0 0 0-7.8-12l-5.2-5.5c-7.3-7.2-8.7-8.7-19.3-14l11.7-46.4 4 1.3c3 1 5.8 2.3 8.5 3.7 25 13.6 44.8 35 55.2 61.6a98.7 98.7 0 0 1-7.9 87.7 124.5 124.5 0 0 1-72.5 52.3c-32.4 9.2-55.5 8.4-88.3 3-12.8-2-20-11.7-16.8-29.5Z" fill="#263238"/><path d="M557.6 563c-2.8 16.6-2.7 33.7.4 50.3.4 2.5-3.5 3.4-4 1-3.1-17.4-3.2-35.1-.2-52.5.4-2.4 4.2-1.3 3.8 1.1Z" fill="#263238"/><path d="m557.6 563-.2-1.2c-.2-.3-.5-.7-1-1a2 2 0 0 0-1.7 0c-.3.1-.5.4-.6.7l-.3 1.2c0 .9-.2 1.8-.4 2.9l-.7 7c-1 10.3-1.1 24.9 1.6 40.6l.3 1.3c.2.4.4.6.8.7.7.2 1.7-.2 2-.9v-1l-.2-1.5-.4-2.8a140.4 140.4 0 0 1 0-41.6l.5-3.3.3-1.2-.1 1.2-.4 3.4a158 158 0 0 0 1 44.1l.3 1.4c0 .5.1 1.2-.2 1.8a2.7 2.7 0 0 1-3 1.3 2 2 0 0 1-1.4-1.2c-.3-.6-.3-1-.4-1.6a147.2 147.2 0 0 1-.5-47.8l.5-2.9.3-1.3c.2-.4.5-.7.9-.9.7-.3 1.5 0 2 .2.5.4.8.8 1 1.2.2.7 0 1.1 0 1.1Z" fill="#455A64"/><path d="M538 560.3c-6 16.6-8 34.3-6.4 51.7.2 2.5-3.8 2.4-4 0-1.7-17.9.5-35.9 6.5-52.8.8-2.3 4.7-1.2 3.8 1.1Z" fill="#263238"/><path d="M538 560.3c-.2 0 0-.4-.1-1.1-.3-.7-1.5-1.5-2.8-1-.6.4-.9 1.1-1.1 2l-1 2.8-1.8 7a125.4 125.4 0 0 0-3 42.6c.3.3.6.6 1 .7.8.2 1.8 0 1.9-.8v-1.3l-.2-1.5-.2-2.9A124 124 0 0 1 533 577c1.1-5.3 2.3-9.5 3.3-12.3l1.1-3.2a6 6 0 0 1 .5-1.2s0 .5-.3 1.2l-1 3.3a126.4 126.4 0 0 0-5 42l.2 2.9.2 1.4c0 .5.1 1 0 1.6a2 2 0 0 1-1.3 1.4 2.8 2.8 0 0 1-3.2-1 120.9 120.9 0 0 1 5-50.2l1-2.8.5-1.3a2 2 0 0 1 1-.8c1.5-.7 2.8.4 3 1.1a1.7 1.7 0 0 1 0 1.2Z" fill="#455A64"/><path d="M681.7 557.2a62.7 62.7 0 0 0-39.4-28.1c-2.5-.6-1.5-4.5 1-3.9a66.7 66.7 0 0 1 41.8 30c1.4 2.2-2 4.2-3.4 2Z" fill="#263238"/><path d="M681.7 557.2s.2.4.9.7c.3.1.8.2 1.3 0a2 2 0 0 0 1.2-1.2c.3-.6 0-1.3-.5-2l-1.6-2.4a72.4 72.4 0 0 0-18-17.3c-5.7-3.8-12.6-7-20.3-9l-1.4-.3h-1.1c-.7.4-1 1.3-.8 2 0 .4.3.6.6.8l1.3.4 2.8.7a59.4 59.4 0 0 1 25.1 14.4c3.8 3.6 6.5 7 8.1 9.3.9 1.2 1.4 2.2 1.8 2.9l.6 1-2.7-3.7a63 63 0 0 0-33.2-23l-2.7-.7c-.5-.2-.9-.2-1.4-.5-.6-.2-1-.7-1.2-1.3-.3-1.2.2-2.4 1.3-3 .5-.3 1.2-.3 1.7-.2l1.5.3a65.3 65.3 0 0 1 38.4 27l1.5 2.4c.3.3.5.7.6 1.1.2.4.1.9 0 1.3-.7 1.5-2.4 1.5-3 1.1a1.7 1.7 0 0 1-.8-.8Z" fill="#455A64"/><path d="M660 581.5a62.3 62.3 0 0 0-33.8-37.7c-2.3-1-.3-4.5 2-3.5a66.2 66.2 0 0 1 35.6 40.2c.8 2.4-3 3.5-3.8 1Z" fill="#263238"/><path d="M660 581.5s.1.5.7 1c.3.2.8.3 1.3.3a2 2 0 0 0 1.5-1c.4-.6.1-1.3-.2-2.2l-1-2.8a68.5 68.5 0 0 0-14.2-21.9c-5-5.1-11.2-10-18.6-13.5l-1.4-.7c-.4-.1-.8-.2-1.2 0-.7.2-1.3 1-1.2 1.8 0 .3.3.6.6.8l1.4.6 2.6 1.4a59.6 59.6 0 0 1 22.3 20.3c3 4.6 4.9 8.6 6 11.5l1 3.3.4 1.1-1.8-4.3a61.7 61.7 0 0 0-28.3-31.1l-2.6-1.3-1.4-.7a2 2 0 0 1-1.1-1.5c-.2-1.3.7-2.4 1.8-2.8.6-.2 1.3-.2 1.9 0l1.4.8a64.6 64.6 0 0 1 32.8 36l1 2.9.4 1.3c0 .4 0 .9-.2 1.2-.5.8-1.2 1-1.9 1-.6.1-1-.1-1.4-.4a1.8 1.8 0 0 1-.6-1Z" fill="#455A64"/><path d="M610.4 553.6a105 105 0 0 1 18.3 49.9c.3 2.4-3.4 2.3-3.6 0-1.7-17.3-8-33.9-17.8-48-1.4-2 1.8-3.8 3.1-1.9Z" fill="#263238"/><path d="M610.4 553.6s-.2-.4-1-.6h-1.3c-.4.3-1 .8-1 1.4 0 .7.6 1.3 1.1 2l1.6 2.5A90.6 90.6 0 0 1 621 582a95 95 0 0 1 4.3 19.3l.2 1.5c0 .5 0 1 .3 1.2.4.7 1.4.9 2 .5.3-.2.5-.5.5-.9l-.2-1.4a112.2 112.2 0 0 0-9.4-33.8c-2.2-4.8-4.4-8.5-5.9-11l-1.8-2.9-.6-1 .8 1 1.9 2.7a91.8 91.8 0 0 1 12.8 28.4 105.4 105.4 0 0 1 3.1 16.5l.2 1.5a2 2 0 0 1-.9 1.7c-1.1.6-2.6.3-3.3-.8-.4-.5-.4-1.2-.5-1.6l-.1-1.5-.4-3a89.3 89.3 0 0 0-3.8-16.2 103.1 103.1 0 0 0-10.8-23.1c-.5-1-1-1.7-1.6-2.5l-.7-1a2 2 0 0 1-.3-1.3 2 2 0 0 1 1.2-1.6 2 2 0 0 1 1.5 0l.8.5.1.3Z" fill="#455A64"/><path d="M582.9 561.6a150 150 0 0 1 11.6 49.5c.1 2.3-3.9 2.3-4 0-1-16.6-4.9-33-11.5-48.5-.9-2.2 3-3.2 3.9-1Z" fill="#263238"/><path d="M582.9 561.6s-.2-.4-.8-.8c-.3-.2-.8-.3-1.3-.3a2 2 0 0 0-1.5.8c-.2.2-.3.5-.2.9l.5 1.1 1 2.6a136.6 136.6 0 0 1 10 39.9l.2 2.8v1.5l.2 1.3c.2.7 1.1 1 1.9 1 .8-.2 1.3-.7 1-1.6a165 165 0 0 0-5.7-33.5c-1.5-5-2.8-8.8-3.8-11.5l-1.2-3.1c-.2-.7-.4-1-.3-1.1l.5 1 1.3 3a128.4 128.4 0 0 1 8.3 29 152 152 0 0 1 2 16.1c0 .4 0 1.2-.4 1.7s-1 .8-1.6.8c-1 .2-2.4-.3-2.9-1.5l-.1-1.6-.2-1.4-.2-2.9a129.3 129.3 0 0 0-2.4-16 153.9 153.9 0 0 0-7-23.7l-1-2.6-.5-1.2c0-.5 0-1 .3-1.3.5-.6 1.2-.7 1.8-.8.6 0 1 .2 1.4.5.6.4.7.9.7.9Z" fill="#455A64"/><path d="M697.6 523a57.7 57.7 0 0 0-47.6-10.4c-2.5.5-3.5-3.3-1-3.9 17.4-4 36.4 0 50.6 10.8 2 1.6 0 5-2 3.5Z" fill="#263238"/><path d="M697.6 523c0-.1.4.3 1.1.3.7 0 1.8-1 1.6-2.4a2 2 0 0 0-.5-1l-1-.7-2.3-1.6a64 64 0 0 0-23.6-9.1 61.2 61.2 0 0 0-22.3.4l-1.4.3c-.5 0-.8.2-1 .5-.4.6-.2 1.6.4 2.1.3.3.6.4 1 .4l1.4-.3 2.8-.5a57.2 57.2 0 0 1 40.2 8.8l2.7 2 1 .8c-.2 0-1.4-1-4-2.5a58.5 58.5 0 0 0-39.8-8.2l-2.8.5-1.5.3c-.5 0-1.2-.2-1.6-.6a2.6 2.6 0 0 1-.5-3.3c.3-.5 1-.8 1.5-1l1.4-.3a61 61 0 0 1 46.3 9.2c1 .6 1.7 1.2 2.4 1.8l1 .8c.3.4.5.8.5 1.2.2 1.6-1 2.6-1.9 2.6-.4 0-.7-.2-.9-.3l-.2-.2Z" fill="#455A64"/><path d="M697.2 487c-15.2-7.8-34-5.8-47 5.1-2 1.7-5-1-3-2.8a47.1 47.1 0 0 1 52-5.7c2.4 1.3.3 4.7-2 3.5Z" fill="#263238"/><path d="M697.2 487s.4.3 1.1.2a2 2 0 0 0 1.2-.6c.4-.3.7-1 .6-1.6-.1-.7-.8-1.2-1.6-1.5l-2.7-1.2-3.2-1.2-3.6-1a47.6 47.6 0 0 0-39.3 8c-.8.5-1.7 1.2-2.3 1.8-.6.5-.3 1.4.3 1.9.7.5 1.6.5 2.2 0l2.3-1.8a42 42 0 0 1 40.8-5l3.1 1.5 1 .6-1-.4c-.8-.3-1.8-.9-3.2-1.3a42.8 42.8 0 0 0-40.2 5.4l-2.2 1.7c-1 .8-2.4.8-3.3 0-.5-.3-.9-.8-1-1.5a2 2 0 0 1 .5-1.8l2.4-2a46.6 46.6 0 0 1 40-7.8l3.7 1.1 3.2 1.3 2.7 1.3 1.1.7c.4.3.6.7.7 1.1 0 .8-.3 1.5-.8 2-.4.4-1 .5-1.4.5-.8 0-1.1-.3-1.1-.3Z" fill="#455A64"/><path d="M639 469.5c7.8-18 27.1-28 46.4-25 2.5.5 1.4 4.3-1 4a39.3 39.3 0 0 0-42 23c-1 2.4-4.5.4-3.5-2Z" fill="#263238"/><path d="M639 469.5s-.3.4-.1 1.2c0 .4.2.8.7 1.2.4.3 1 .6 1.7.4.7-.1 1-1 1.3-1.8.5-.9.8-1.8 1.4-2.7a39.2 39.2 0 0 1 30.7-20.1l3-.2h3.1l3 .4h1.4c.4-.1.7-.4.9-.8.4-.7.3-1.7-.4-2l-1.4-.2-1.5-.2-3-.2h-3c-1.9 0-3.8.3-5.6.6-1.9.4-3.7.7-5.4 1.2a41 41 0 0 0-16.4 9.2c-4 3.7-6.6 7.3-8.1 9.9-1.6 2.6-2.3 4.2-2.4 4.1l.5-1.1c.3-.7.7-1.9 1.5-3.2a40.4 40.4 0 0 1 15.3-15.5c2.7-1.7 6-3.1 9.4-4.2 1.7-.6 3.6-1 5.4-1.3 2-.3 3.8-.6 5.8-.6h3c1 0 2 0 3 .2l1.6.2c.5 0 1 0 1.6.3a2 2 0 0 1 1.2 1.5c.2.6 0 1.2-.3 1.8-.3.5-.8 1-1.4 1.2-.6.2-1.3 0-1.8 0l-3-.3-3-.1-2.9.1a39 39 0 0 0-30.3 19.5l-1.5 2.7-.6 1.2c-.2.4-.6.7-1 .8-.9.2-1.6-.2-2-.6-.5-.4-.7-1-.7-1.4-.1-.8.2-1.2.2-1.2Z" fill="#455A64"/><path d="M623.8 454.6c.7-9.5 4.7-18.7 11.5-25.5 6.8-6.8 16-10.8 25.6-11.5 2.5-.2 2.5 3.8 0 4a36 36 0 0 0-33.1 33c-.2 2.6-4.2 2.6-4 0Z" fill="#263238"/><path d="M623.8 454.6s0 .5.3 1.2c.4.6 1.9 1 3 0 .5-.5.5-1.3.6-2.2.1-1 .1-2 .4-3a33.5 33.5 0 0 1 6.5-15A36.6 36.6 0 0 1 652 423l3-.8 3-.6 3-.4c.8 0 1.4-.8 1.4-1.6 0-.9-.6-1.5-1.5-1.4a45.6 45.6 0 0 0-8.7 1.6 40.3 40.3 0 0 0-23 18.3 41.8 41.8 0 0 0-5.3 16.6v-1.2l.4-3.5a39.9 39.9 0 0 1 17.3-26.3 40.7 40.7 0 0 1 19.3-6.4c.5 0 1.3 0 1.7.5.5.5.7 1.2.7 1.8 0 .6-.2 1.2-.6 1.7-.4.5-1 .8-1.6.9l-3 .3-3 .6c-1 .2-1.8.6-2.8.9a36 36 0 0 0-23.6 26.8c-.3 1-.3 2-.5 3-.1.8-.1 1.8-.8 2.4-1.3 1.1-3 .5-3.3-.2a1.7 1.7 0 0 1-.2-1.3Z" fill="#455A64"/></svg>